<svg width="1150" height="648" viewBox="0 0 1150 648" fill="none" xmlns="http://www.w3.org/2000/svg">
<g id="Frame 8">
<rect id="Rectangle 36" width="50" height="50" fill="#6B68E5"/>
<rect id="Rectangle 37" x="50" y="50" width="50" height="50" fill="#6B68E5"/>
<rect id="Rectangle 38" y="100" width="50" height="50" fill="#6B68E5"/>
<rect id="Rectangle 39" y="200" width="50" height="50" fill="#6B68E5"/>
<rect id="Rectangle 40" x="50" y="200" width="50" height="50" fill="#6B68E5"/>
<rect id="Rectangle 41" x="100" y="150" width="50" height="50" fill="#6B68E5"/>
<rect id="Rectangle 42" x="100" y="50" width="50" height="50" fill="#6B68E5"/>
<rect id="Rectangle 43" x="100" y="100" width="50" height="50" fill="#6B68E5"/>
<rect id="Rectangle 44" x="150" width="50" height="50" fill="#6B68E5"/>
<rect id="Rectangle 45" x="150" y="100" width="50" height="50" fill="#6B68E5"/>
<rect id="Rectangle 46" x="150" y="50" width="50" height="50" fill="#6B68E5"/>
<rect id="Rectangle 47" x="250" y="100" width="50" height="50" fill="#6B68E5"/>
<rect id="Rectangle 48" x="300" y="50" width="50" height="50" fill="#6B68E5"/>
<rect id="Rectangle 49" x="300" y="200" width="50" height="50" fill="#6B68E5"/>
<rect id="Rectangle 50" x="300" y="150" width="50" height="50" fill="#6B68E5"/>
<rect id="Rectangle 51" x="350" y="50" width="50" height="50" fill="#6B68E5"/>
<rect id="Rectangle 52" x="400" y="100" width="50" height="50" fill="#6B68E5"/>
<rect id="Rectangle 53" x="400" width="50" height="50" fill="#6B68E5"/>
<rect id="Rectangle 54" x="450" y="150" width="50" height="50" fill="#6B68E5"/>
<rect id="Rectangle 55" x="450" y="200" width="50" height="50" fill="#6B68E5"/>
<rect id="Rectangle 56" x="500" y="50" width="50" height="50" fill="#6B68E5"/>
<rect id="Rectangle 57" x="500" y="100" width="50" height="50" fill="#6B68E5"/>
<rect id="Rectangle 59" x="600" y="350" width="50" height="50" fill="#327C73"/>
<rect id="Rectangle 60" x="650" y="400" width="50" height="50" fill="#327C73"/>
<rect id="Rectangle 61" x="600" y="450" width="50" height="50" fill="#327C73"/>
<rect id="Rectangle 62" x="600" y="550" width="50" height="50" fill="#327C73"/>
<rect id="Rectangle 63" x="650" y="550" width="50" height="50" fill="#327C73"/>
<rect id="Rectangle 64" x="700" y="500" width="50" height="50" fill="#327C73"/>
<rect id="Rectangle 65" x="700" y="400" width="50" height="50" fill="#327C73"/>
<rect id="Rectangle 66" x="700" y="450" width="50" height="50" fill="#327C73"/>
<rect id="Rectangle 67" x="750" y="350" width="50" height="50" fill="#327C73"/>
<rect id="Rectangle 68" x="750" y="450" width="50" height="50" fill="#327C73"/>
<rect id="Rectangle 69" x="750" y="400" width="50" height="50" fill="#327C73"/>
<rect id="Rectangle 70" x="850" y="450" width="50" height="50" fill="#327C73"/>
<rect id="Rectangle 71" x="900" y="400" width="50" height="50" fill="#327C73"/>
<rect id="Rectangle 72" x="900" y="550" width="50" height="50" fill="#327C73"/>
<rect id="Rectangle 73" x="900" y="500" width="50" height="50" fill="#327C73"/>
<rect id="Rectangle 74" x="950" y="400" width="50" height="50" fill="#327C73"/>
<rect id="Rectangle 75" x="1000" y="450" width="50" height="50" fill="#327C73"/>
<rect id="Rectangle 76" x="1000" y="350" width="50" height="50" fill="#327C73"/>
<rect id="Rectangle 77" x="1050" y="500" width="50" height="50" fill="#327C73"/>
<rect id="Rectangle 78" x="1050" y="550" width="50" height="50" fill="#327C73"/>
<rect id="Rectangle 79" x="1100" y="400" width="50" height="50" fill="#327C73"/>
<rect id="Rectangle 80" x="1100" y="450" width="50" height="50" fill="#327C73"/>
<rect id="Rectangle 58" x="550" y="250" width="50" height="50" fill="#B20404"/>
<path id="Line 27" d="M627.586 269.586C626.805 270.367 626.805 271.633 627.586 272.414L640.314 285.142C641.095 285.923 642.361 285.923 643.142 285.142C643.923 284.361 643.923 283.095 643.142 282.314L631.828 271L643.142 259.686C643.923 258.905 643.923 257.639 643.142 256.858C642.361 256.077 641.095 256.077 640.314 256.858L627.586 269.586ZM722 269H629V273H722V269Z" fill="#B30404"/>
<path id="stop signal" d="M756.699 272.566C757.233 273.035 757.643 273.576 757.93 274.188C758.216 274.799 758.359 275.548 758.359 276.434C758.359 278.217 757.689 279.676 756.348 280.809C755.02 281.941 753.294 282.508 751.172 282.508C750.052 282.508 749.017 282.306 748.066 281.902C747.129 281.499 746.458 281.128 746.055 280.789L745.664 282.059H744.199L744.004 275.359H745.352C745.456 275.867 745.677 276.46 746.016 277.137C746.354 277.814 746.764 278.426 747.246 278.973C747.754 279.546 748.359 280.027 749.062 280.418C749.779 280.809 750.579 281.004 751.465 281.004C752.715 281.004 753.678 280.724 754.355 280.164C755.033 279.591 755.371 278.777 755.371 277.723C755.371 277.176 755.26 276.707 755.039 276.316C754.831 275.913 754.518 275.561 754.102 275.262C753.672 274.962 753.145 274.695 752.52 274.461C751.895 274.214 751.198 273.973 750.43 273.738C749.818 273.556 749.134 273.309 748.379 272.996C747.637 272.671 746.999 272.293 746.465 271.863C745.892 271.408 745.423 270.848 745.059 270.184C744.694 269.52 744.512 268.738 744.512 267.84C744.512 266.264 745.098 264.93 746.27 263.836C747.441 262.742 749.01 262.195 750.977 262.195C751.732 262.195 752.5 262.293 753.281 262.488C754.076 262.684 754.72 262.918 755.215 263.191L755.664 262.176H757.07L757.363 268.367H756.016C755.742 266.987 755.15 265.867 754.238 265.008C753.34 264.135 752.24 263.699 750.938 263.699C749.87 263.699 749.03 263.966 748.418 264.5C747.806 265.034 747.5 265.678 747.5 266.434C747.5 267.02 747.598 267.508 747.793 267.898C748.001 268.289 748.307 268.621 748.711 268.895C749.102 269.155 749.59 269.402 750.176 269.637C750.775 269.858 751.51 270.112 752.383 270.398C753.242 270.672 754.049 270.991 754.805 271.355C755.573 271.72 756.204 272.124 756.699 272.566ZM773.184 281.16C772.337 281.512 771.536 281.805 770.781 282.039C770.026 282.286 769.102 282.41 768.008 282.41C766.393 282.41 765.254 282.007 764.59 281.199C763.939 280.379 763.613 279.227 763.613 277.742V264.695H760.137V262.82H763.691V256.824H767.246V262.82H772.773V264.695H767.285V275.457C767.285 276.264 767.311 276.941 767.363 277.488C767.428 278.022 767.572 278.491 767.793 278.895C768.001 279.272 768.314 279.559 768.73 279.754C769.147 279.949 769.707 280.047 770.41 280.047C770.736 280.047 771.211 280.021 771.836 279.969C772.474 279.904 772.923 279.826 773.184 279.734V281.16ZM793.887 272.176C793.887 273.53 793.672 274.865 793.242 276.18C792.812 277.482 792.201 278.589 791.406 279.5C790.508 280.542 789.466 281.316 788.281 281.824C787.096 282.332 785.768 282.586 784.297 282.586C783.073 282.586 781.908 282.358 780.801 281.902C779.694 281.434 778.711 280.757 777.852 279.871C777.005 278.999 776.328 277.938 775.82 276.688C775.326 275.424 775.078 274.012 775.078 272.449C775.078 269.441 775.951 266.98 777.695 265.066C779.453 263.152 781.751 262.195 784.59 262.195C787.285 262.195 789.505 263.107 791.25 264.93C793.008 266.74 793.887 269.155 793.887 272.176ZM789.844 272.215C789.844 271.238 789.746 270.21 789.551 269.129C789.355 268.035 789.062 267.111 788.672 266.355C788.255 265.548 787.708 264.904 787.031 264.422C786.354 263.927 785.527 263.68 784.551 263.68C783.548 263.68 782.689 263.927 781.973 264.422C781.27 264.917 780.697 265.594 780.254 266.453C779.837 267.247 779.544 268.152 779.375 269.168C779.206 270.184 779.121 271.167 779.121 272.117C779.121 273.367 779.219 274.526 779.414 275.594C779.622 276.648 779.948 277.592 780.391 278.426C780.833 279.259 781.387 279.917 782.051 280.398C782.728 280.867 783.561 281.102 784.551 281.102C786.178 281.102 787.467 280.314 788.418 278.738C789.368 277.163 789.844 274.988 789.844 272.215ZM814.277 265.027C815.046 265.939 815.638 267 816.055 268.211C816.484 269.409 816.699 270.783 816.699 272.332C816.699 273.855 816.445 275.249 815.938 276.512C815.43 277.762 814.759 278.829 813.926 279.715C813.053 280.613 812.083 281.303 811.016 281.785C809.948 282.267 808.815 282.508 807.617 282.508C806.458 282.508 805.508 282.378 804.766 282.117C804.023 281.857 803.418 281.551 802.949 281.199H802.793V286.98C802.793 287.449 802.884 287.84 803.066 288.152C803.249 288.465 803.529 288.693 803.906 288.836C804.219 288.953 804.661 289.064 805.234 289.168C805.82 289.285 806.302 289.35 806.68 289.363V290.672H795.918V289.363C796.322 289.337 796.712 289.305 797.09 289.266C797.467 289.227 797.806 289.161 798.105 289.07C798.496 288.94 798.77 288.712 798.926 288.387C799.082 288.061 799.16 287.677 799.16 287.234V266.746C799.16 266.355 799.062 265.978 798.867 265.613C798.672 265.249 798.418 264.956 798.105 264.734C797.871 264.578 797.546 264.461 797.129 264.383C796.712 264.292 796.309 264.233 795.918 264.207V262.938L802.48 262.508L802.754 262.742V264.91L802.91 264.949C803.587 264.168 804.427 263.517 805.43 262.996C806.432 262.475 807.428 262.215 808.418 262.215C809.616 262.215 810.71 262.469 811.699 262.977C812.702 263.484 813.561 264.168 814.277 265.027ZM811.094 278.875C811.615 278.068 811.999 277.13 812.246 276.062C812.493 274.995 812.617 273.803 812.617 272.488C812.617 271.525 812.513 270.542 812.305 269.539C812.096 268.536 811.771 267.664 811.328 266.922C810.885 266.167 810.306 265.555 809.59 265.086C808.874 264.617 808.014 264.383 807.012 264.383C806.048 264.383 805.228 264.598 804.551 265.027C803.874 265.444 803.288 265.945 802.793 266.531V277.918C802.91 278.27 803.099 278.634 803.359 279.012C803.633 279.389 803.932 279.715 804.258 279.988C804.661 280.314 805.098 280.581 805.566 280.789C806.035 280.984 806.608 281.082 807.285 281.082C808.014 281.082 808.717 280.893 809.395 280.516C810.072 280.125 810.638 279.578 811.094 278.875ZM841.895 272.566C842.428 273.035 842.839 273.576 843.125 274.188C843.411 274.799 843.555 275.548 843.555 276.434C843.555 278.217 842.884 279.676 841.543 280.809C840.215 281.941 838.49 282.508 836.367 282.508C835.247 282.508 834.212 282.306 833.262 281.902C832.324 281.499 831.654 281.128 831.25 280.789L830.859 282.059H829.395L829.199 275.359H830.547C830.651 275.867 830.872 276.46 831.211 277.137C831.549 277.814 831.96 278.426 832.441 278.973C832.949 279.546 833.555 280.027 834.258 280.418C834.974 280.809 835.775 281.004 836.66 281.004C837.91 281.004 838.874 280.724 839.551 280.164C840.228 279.591 840.566 278.777 840.566 277.723C840.566 277.176 840.456 276.707 840.234 276.316C840.026 275.913 839.714 275.561 839.297 275.262C838.867 274.962 838.34 274.695 837.715 274.461C837.09 274.214 836.393 273.973 835.625 273.738C835.013 273.556 834.329 273.309 833.574 272.996C832.832 272.671 832.194 272.293 831.66 271.863C831.087 271.408 830.618 270.848 830.254 270.184C829.889 269.52 829.707 268.738 829.707 267.84C829.707 266.264 830.293 264.93 831.465 263.836C832.637 262.742 834.206 262.195 836.172 262.195C836.927 262.195 837.695 262.293 838.477 262.488C839.271 262.684 839.915 262.918 840.41 263.191L840.859 262.176H842.266L842.559 268.367H841.211C840.938 266.987 840.345 265.867 839.434 265.008C838.535 264.135 837.435 263.699 836.133 263.699C835.065 263.699 834.225 263.966 833.613 264.5C833.001 265.034 832.695 265.678 832.695 266.434C832.695 267.02 832.793 267.508 832.988 267.898C833.197 268.289 833.503 268.621 833.906 268.895C834.297 269.155 834.785 269.402 835.371 269.637C835.97 269.858 836.706 270.112 837.578 270.398C838.438 270.672 839.245 270.991 840 271.355C840.768 271.72 841.4 272.124 841.895 272.566ZM855.84 282H846.523V280.711C846.823 280.685 847.129 280.659 847.441 280.633C847.767 280.607 848.047 280.555 848.281 280.477C848.646 280.359 848.913 280.158 849.082 279.871C849.264 279.572 849.355 279.188 849.355 278.719V266.824C849.355 266.408 849.258 266.03 849.062 265.691C848.88 265.34 848.62 265.047 848.281 264.812C848.034 264.656 847.676 264.526 847.207 264.422C846.738 264.305 846.309 264.233 845.918 264.207V262.938L852.715 262.508L852.988 262.781V278.484C852.988 278.94 853.073 279.318 853.242 279.617C853.424 279.917 853.704 280.138 854.082 280.281C854.368 280.398 854.648 280.496 854.922 280.574C855.195 280.639 855.501 280.685 855.84 280.711V282ZM853.379 254.91C853.379 255.652 853.132 256.303 852.637 256.863C852.155 257.41 851.556 257.684 850.84 257.684C850.176 257.684 849.596 257.423 849.102 256.902C848.62 256.368 848.379 255.763 848.379 255.086C848.379 254.37 848.62 253.745 849.102 253.211C849.596 252.677 850.176 252.41 850.84 252.41C851.582 252.41 852.188 252.664 852.656 253.172C853.138 253.667 853.379 254.246 853.379 254.91ZM874.707 280.008C875.228 280.503 875.638 281.062 875.938 281.688C876.237 282.312 876.387 283.087 876.387 284.012C876.387 284.936 876.185 285.802 875.781 286.609C875.378 287.43 874.766 288.139 873.945 288.738C873.073 289.35 872.031 289.826 870.82 290.164C869.609 290.503 868.112 290.672 866.328 290.672C863.411 290.672 861.23 290.242 859.785 289.383C858.34 288.536 857.617 287.293 857.617 285.652C857.617 284.324 858.138 283.276 859.18 282.508C860.221 281.74 861.549 281.323 863.164 281.258V280.984C862.773 280.867 862.37 280.724 861.953 280.555C861.536 280.372 861.178 280.164 860.879 279.93C860.54 279.656 860.267 279.337 860.059 278.973C859.85 278.595 859.746 278.133 859.746 277.586C859.746 276.896 859.987 276.264 860.469 275.691C860.964 275.105 861.706 274.604 862.695 274.188V273.895C861.445 273.309 860.475 272.56 859.785 271.648C859.095 270.724 858.75 269.656 858.75 268.445C858.75 266.622 859.427 265.125 860.781 263.953C862.148 262.781 863.893 262.195 866.016 262.195C866.602 262.195 867.181 262.254 867.754 262.371C868.34 262.488 868.932 262.638 869.531 262.82H876.25V264.695H871.719V264.812C872.201 265.372 872.559 265.991 872.793 266.668C873.027 267.345 873.145 268.009 873.145 268.66C873.145 270.353 872.454 271.785 871.074 272.957C869.707 274.129 868.112 274.715 866.289 274.715H863.926C863.626 274.819 863.314 275.008 862.988 275.281C862.663 275.555 862.5 275.926 862.5 276.395C862.5 276.876 862.637 277.247 862.91 277.508C863.184 277.755 863.516 277.924 863.906 278.016C864.284 278.12 864.72 278.185 865.215 278.211C865.723 278.237 866.243 278.257 866.777 278.27C867.35 278.283 868.132 278.322 869.121 278.387C870.124 278.452 870.833 278.491 871.25 278.504C871.849 278.53 872.448 278.673 873.047 278.934C873.659 279.194 874.212 279.552 874.707 280.008ZM869.434 268.582C869.434 267.059 869.121 265.848 868.496 264.949C867.884 264.038 867.018 263.582 865.898 263.582C865.286 263.582 864.759 263.712 864.316 263.973C863.887 264.22 863.535 264.578 863.262 265.047C863.001 265.477 862.812 265.997 862.695 266.609C862.591 267.208 862.539 267.827 862.539 268.465C862.539 269.91 862.852 271.089 863.477 272C864.115 272.911 864.935 273.367 865.938 273.367C867.057 273.367 867.917 272.918 868.516 272.02C869.128 271.108 869.434 269.962 869.434 268.582ZM873.184 284.734C873.184 284.005 873.014 283.406 872.676 282.938C872.337 282.469 871.823 282.15 871.133 281.98C870.768 281.928 870.02 281.87 868.887 281.805C867.754 281.74 866.439 281.707 864.941 281.707C863.535 281.98 862.533 282.436 861.934 283.074C861.348 283.725 861.055 284.559 861.055 285.574C861.055 286.03 861.152 286.466 861.348 286.883C861.543 287.299 861.882 287.684 862.363 288.035C862.819 288.374 863.431 288.647 864.199 288.855C864.967 289.077 865.905 289.188 867.012 289.188C868.926 289.188 870.43 288.816 871.523 288.074C872.63 287.345 873.184 286.232 873.184 284.734ZM899.863 282H890.43V280.711C890.729 280.685 891.055 280.659 891.406 280.633C891.771 280.607 892.07 280.555 892.305 280.477C892.669 280.359 892.936 280.158 893.105 279.871C893.288 279.572 893.379 279.188 893.379 278.719V268.816C893.379 267.449 893.053 266.395 892.402 265.652C891.764 264.91 890.983 264.539 890.059 264.539C889.368 264.539 888.737 264.65 888.164 264.871C887.591 265.079 887.083 265.34 886.641 265.652C886.211 265.952 885.866 266.277 885.605 266.629C885.358 266.967 885.176 267.241 885.059 267.449V278.523C885.059 278.966 885.15 279.331 885.332 279.617C885.514 279.904 885.788 280.125 886.152 280.281C886.426 280.411 886.719 280.509 887.031 280.574C887.357 280.639 887.689 280.685 888.027 280.711V282H878.594V280.711C878.893 280.685 879.199 280.659 879.512 280.633C879.837 280.607 880.117 280.555 880.352 280.477C880.716 280.359 880.983 280.158 881.152 279.871C881.335 279.572 881.426 279.188 881.426 278.719V266.824C881.426 266.382 881.328 265.978 881.133 265.613C880.951 265.236 880.69 264.93 880.352 264.695C880.104 264.539 879.811 264.428 879.473 264.363C879.134 264.285 878.77 264.233 878.379 264.207V262.938L884.785 262.508L885.059 262.781V265.496H885.156C885.469 265.184 885.859 264.812 886.328 264.383C886.797 263.94 887.24 263.582 887.656 263.309C888.138 262.996 888.711 262.736 889.375 262.527C890.039 262.319 890.788 262.215 891.621 262.215C893.47 262.215 894.837 262.794 895.723 263.953C896.621 265.099 897.07 266.629 897.07 268.543V278.562C897.07 279.018 897.148 279.389 897.305 279.676C897.461 279.949 897.728 280.164 898.105 280.32C898.418 280.451 898.685 280.542 898.906 280.594C899.141 280.646 899.46 280.685 899.863 280.711V282ZM920.469 281.648C919.857 281.87 919.316 282.046 918.848 282.176C918.392 282.319 917.871 282.391 917.285 282.391C916.27 282.391 915.456 282.156 914.844 281.688C914.245 281.206 913.861 280.509 913.691 279.598H913.574C912.728 280.535 911.816 281.251 910.84 281.746C909.876 282.241 908.711 282.488 907.344 282.488C905.898 282.488 904.707 282.046 903.77 281.16C902.845 280.275 902.383 279.116 902.383 277.684C902.383 276.941 902.487 276.277 902.695 275.691C902.904 275.105 903.216 274.578 903.633 274.109C903.958 273.719 904.388 273.374 904.922 273.074C905.456 272.762 905.957 272.514 906.426 272.332C907.012 272.111 908.197 271.701 909.98 271.102C911.777 270.503 912.988 270.034 913.613 269.695V267.762C913.613 267.592 913.574 267.267 913.496 266.785C913.431 266.303 913.281 265.848 913.047 265.418C912.786 264.936 912.415 264.52 911.934 264.168C911.465 263.803 910.794 263.621 909.922 263.621C909.323 263.621 908.763 263.725 908.242 263.934C907.734 264.129 907.376 264.337 907.168 264.559C907.168 264.819 907.227 265.203 907.344 265.711C907.474 266.219 907.539 266.688 907.539 267.117C907.539 267.573 907.331 267.99 906.914 268.367C906.51 268.745 905.944 268.934 905.215 268.934C904.564 268.934 904.082 268.706 903.77 268.25C903.47 267.781 903.32 267.26 903.32 266.688C903.32 266.089 903.529 265.516 903.945 264.969C904.375 264.422 904.928 263.934 905.605 263.504C906.191 263.139 906.901 262.833 907.734 262.586C908.568 262.326 909.382 262.195 910.176 262.195C911.27 262.195 912.22 262.273 913.027 262.43C913.848 262.573 914.59 262.892 915.254 263.387C915.918 263.868 916.419 264.526 916.758 265.359C917.109 266.18 917.285 267.241 917.285 268.543C917.285 270.405 917.266 272.059 917.227 273.504C917.188 274.936 917.168 276.505 917.168 278.211C917.168 278.719 917.253 279.122 917.422 279.422C917.604 279.721 917.878 279.975 918.242 280.184C918.438 280.301 918.743 280.366 919.16 280.379C919.59 280.392 920.026 280.398 920.469 280.398V281.648ZM913.652 271.336C912.546 271.661 911.576 271.98 910.742 272.293C909.909 272.605 909.134 272.996 908.418 273.465C907.767 273.908 907.253 274.435 906.875 275.047C906.497 275.646 906.309 276.362 906.309 277.195C906.309 278.276 906.589 279.07 907.148 279.578C907.721 280.086 908.444 280.34 909.316 280.34C910.241 280.34 911.055 280.118 911.758 279.676C912.461 279.22 913.053 278.686 913.535 278.074L913.652 271.336ZM931.406 282H922.012V280.711C922.311 280.685 922.63 280.659 922.969 280.633C923.307 280.594 923.587 280.542 923.809 280.477C924.173 280.359 924.447 280.158 924.629 279.871C924.811 279.572 924.902 279.188 924.902 278.719V256.414C924.902 255.945 924.798 255.509 924.59 255.105C924.395 254.689 924.134 254.363 923.809 254.129C923.574 253.973 923.145 253.829 922.52 253.699C921.895 253.569 921.393 253.491 921.016 253.465V252.215L928.262 251.766L928.535 252.059V278.484C928.535 278.94 928.62 279.318 928.789 279.617C928.958 279.904 929.232 280.125 929.609 280.281C929.896 280.411 930.176 280.509 930.449 280.574C930.736 280.639 931.055 280.685 931.406 280.711V282Z" fill="#B20404"/>
<path id="Line 28" d="M627.586 98.5858C626.805 99.3668 626.805 100.633 627.586 101.414L640.314 114.142C641.095 114.923 642.361 114.923 643.142 114.142C643.923 113.361 643.923 112.095 643.142 111.314L631.828 100L643.142 88.6863C643.923 87.9052 643.923 86.6389 643.142 85.8579C642.361 85.0768 641.095 85.0768 640.314 85.8579L627.586 98.5858ZM722 98L629 98V102L722 102V98Z" fill="#6B68E5"/>
<path id="sequence to copy" d="M752.895 101.566C753.428 102.035 753.839 102.576 754.125 103.188C754.411 103.799 754.555 104.548 754.555 105.434C754.555 107.217 753.884 108.676 752.543 109.809C751.215 110.941 749.49 111.508 747.367 111.508C746.247 111.508 745.212 111.306 744.262 110.902C743.324 110.499 742.654 110.128 742.25 109.789L741.859 111.059H740.395L740.199 104.359H741.547C741.651 104.867 741.872 105.46 742.211 106.137C742.549 106.814 742.96 107.426 743.441 107.973C743.949 108.546 744.555 109.027 745.258 109.418C745.974 109.809 746.775 110.004 747.66 110.004C748.91 110.004 749.874 109.724 750.551 109.164C751.228 108.591 751.566 107.777 751.566 106.723C751.566 106.176 751.456 105.707 751.234 105.316C751.026 104.913 750.714 104.561 750.297 104.262C749.867 103.962 749.34 103.695 748.715 103.461C748.09 103.214 747.393 102.973 746.625 102.738C746.013 102.556 745.329 102.309 744.574 101.996C743.832 101.671 743.194 101.293 742.66 100.863C742.087 100.408 741.618 99.8477 741.254 99.1836C740.889 98.5195 740.707 97.7383 740.707 96.8398C740.707 95.2643 741.293 93.9297 742.465 92.8359C743.637 91.7422 745.206 91.1953 747.172 91.1953C747.927 91.1953 748.695 91.293 749.477 91.4883C750.271 91.6836 750.915 91.918 751.41 92.1914L751.859 91.1758H753.266L753.559 97.3672H752.211C751.938 95.987 751.345 94.8672 750.434 94.0078C749.535 93.1354 748.435 92.6992 747.133 92.6992C746.065 92.6992 745.225 92.9661 744.613 93.5C744.001 94.0339 743.695 94.6784 743.695 95.4336C743.695 96.0195 743.793 96.5078 743.988 96.8984C744.197 97.2891 744.503 97.6211 744.906 97.8945C745.297 98.1549 745.785 98.4023 746.371 98.6367C746.97 98.8581 747.706 99.112 748.578 99.3984C749.438 99.6719 750.245 99.9909 751 100.355C751.768 100.72 752.4 101.124 752.895 101.566ZM774.594 106.469C773.786 108.005 772.706 109.229 771.352 110.141C769.997 111.052 768.441 111.508 766.684 111.508C765.134 111.508 763.773 111.234 762.602 110.688C761.443 110.141 760.486 109.398 759.73 108.461C758.975 107.523 758.409 106.43 758.031 105.18C757.667 103.93 757.484 102.608 757.484 101.215C757.484 99.9648 757.68 98.7409 758.07 97.543C758.474 96.332 759.06 95.2448 759.828 94.2812C760.57 93.3568 761.488 92.6146 762.582 92.0547C763.689 91.4818 764.926 91.1953 766.293 91.1953C767.699 91.1953 768.904 91.4167 769.906 91.8594C770.909 92.3021 771.723 92.9076 772.348 93.6758C772.947 94.4049 773.389 95.2643 773.676 96.2539C773.975 97.2435 774.125 98.3177 774.125 99.4766V100.766H761.371C761.371 102.029 761.488 103.174 761.723 104.203C761.97 105.232 762.354 106.137 762.875 106.918C763.383 107.673 764.047 108.272 764.867 108.715C765.688 109.145 766.664 109.359 767.797 109.359C768.956 109.359 769.952 109.092 770.785 108.559C771.632 108.012 772.445 107.035 773.227 105.629L774.594 106.469ZM770.277 99.125C770.277 98.3958 770.212 97.6146 770.082 96.7812C769.965 95.9479 769.77 95.2513 769.496 94.6914C769.197 94.0924 768.786 93.6042 768.266 93.2266C767.745 92.849 767.074 92.6602 766.254 92.6602C764.887 92.6602 763.747 93.2331 762.836 94.3789C761.938 95.5117 761.449 97.0938 761.371 99.125H770.277ZM797.953 119.672H787.543V118.363C787.947 118.337 788.344 118.305 788.734 118.266C789.125 118.227 789.477 118.161 789.789 118.07C790.193 117.94 790.473 117.712 790.629 117.387C790.785 117.061 790.863 116.677 790.863 116.234V109.125L790.746 109.086C790.538 109.32 790.238 109.594 789.848 109.906C789.47 110.206 789.073 110.453 788.656 110.648C788.135 110.922 787.634 111.13 787.152 111.273C786.671 111.43 786.065 111.508 785.336 111.508C784.164 111.508 783.057 111.267 782.016 110.785C780.987 110.29 780.089 109.594 779.32 108.695C778.552 107.81 777.94 106.723 777.484 105.434C777.042 104.132 776.82 102.706 776.82 101.156C776.82 99.6849 777.081 98.3503 777.602 97.1523C778.122 95.9414 778.812 94.8867 779.672 93.9883C780.492 93.1419 781.475 92.4714 782.621 91.9766C783.78 91.4688 784.926 91.2148 786.059 91.2148C786.905 91.2148 787.654 91.2995 788.305 91.4688C788.969 91.625 789.535 91.8138 790.004 92.0352C790.408 92.2044 790.811 92.4258 791.215 92.6992C791.618 92.9596 791.905 93.1354 792.074 93.2266L793.734 90.6875L794.848 90.8438C794.796 91.8073 794.724 92.9922 794.633 94.3984C794.555 95.8047 794.516 97.0352 794.516 98.0898V115.902C794.516 116.358 794.6 116.749 794.77 117.074C794.939 117.413 795.212 117.667 795.59 117.836C795.902 117.966 796.299 118.077 796.781 118.168C797.263 118.272 797.654 118.337 797.953 118.363V119.672ZM790.863 107.426V95.9219C790.759 95.5964 790.583 95.2383 790.336 94.8477C790.089 94.444 789.796 94.0924 789.457 93.793C789.092 93.4805 788.643 93.2201 788.109 93.0117C787.589 92.8034 786.983 92.6992 786.293 92.6992C784.77 92.6992 783.487 93.487 782.445 95.0625C781.417 96.638 780.902 98.806 780.902 101.566C780.902 102.66 781 103.65 781.195 104.535C781.404 105.421 781.755 106.247 782.25 107.016C782.719 107.745 783.311 108.331 784.027 108.773C784.743 109.203 785.648 109.418 786.742 109.418C787.68 109.418 788.48 109.223 789.145 108.832C789.809 108.428 790.382 107.96 790.863 107.426ZM819.848 110.648L813.578 111.078L813.285 110.805V108.363H813.168C812.855 108.689 812.504 109.04 812.113 109.418C811.723 109.783 811.273 110.115 810.766 110.414C810.18 110.766 809.613 111.033 809.066 111.215C808.52 111.397 807.745 111.488 806.742 111.488C805.036 111.488 803.734 110.935 802.836 109.828C801.951 108.708 801.508 107.087 801.508 104.965V95.7461C801.508 95.2773 801.417 94.8867 801.234 94.5742C801.065 94.2487 800.811 93.9688 800.473 93.7344C800.238 93.5781 799.945 93.4674 799.594 93.4023C799.242 93.3242 798.871 93.2721 798.48 93.2461V91.9766L804.906 91.5078L805.199 91.7812V105.16C805.199 106.553 805.512 107.602 806.137 108.305C806.762 109.008 807.51 109.359 808.383 109.359C809.099 109.359 809.737 109.249 810.297 109.027C810.857 108.806 811.326 108.546 811.703 108.246C812.055 107.973 812.361 107.686 812.621 107.387C812.895 107.074 813.103 106.788 813.246 106.527V95.6094C813.246 95.1797 813.155 94.8021 812.973 94.4766C812.79 94.138 812.536 93.8516 812.211 93.6172C811.977 93.4609 811.625 93.3698 811.156 93.3438C810.701 93.3047 810.186 93.2721 809.613 93.2461V91.9766L816.605 91.5078L816.898 91.7812V107.074C816.898 107.517 816.99 107.895 817.172 108.207C817.354 108.52 817.608 108.786 817.934 109.008C818.168 109.151 818.448 109.249 818.773 109.301C819.099 109.34 819.457 109.366 819.848 109.379V110.648ZM839.32 106.469C838.513 108.005 837.432 109.229 836.078 110.141C834.724 111.052 833.168 111.508 831.41 111.508C829.861 111.508 828.5 111.234 827.328 110.688C826.169 110.141 825.212 109.398 824.457 108.461C823.702 107.523 823.135 106.43 822.758 105.18C822.393 103.93 822.211 102.608 822.211 101.215C822.211 99.9648 822.406 98.7409 822.797 97.543C823.201 96.332 823.786 95.2448 824.555 94.2812C825.297 93.3568 826.215 92.6146 827.309 92.0547C828.415 91.4818 829.652 91.1953 831.02 91.1953C832.426 91.1953 833.63 91.4167 834.633 91.8594C835.635 92.3021 836.449 92.9076 837.074 93.6758C837.673 94.4049 838.116 95.2643 838.402 96.2539C838.702 97.2435 838.852 98.3177 838.852 99.4766V100.766H826.098C826.098 102.029 826.215 103.174 826.449 104.203C826.697 105.232 827.081 106.137 827.602 106.918C828.109 107.673 828.773 108.272 829.594 108.715C830.414 109.145 831.391 109.359 832.523 109.359C833.682 109.359 834.678 109.092 835.512 108.559C836.358 108.012 837.172 107.035 837.953 105.629L839.32 106.469ZM835.004 99.125C835.004 98.3958 834.939 97.6146 834.809 96.7812C834.691 95.9479 834.496 95.2513 834.223 94.6914C833.923 94.0924 833.513 93.6042 832.992 93.2266C832.471 92.849 831.801 92.6602 830.98 92.6602C829.613 92.6602 828.474 93.2331 827.562 94.3789C826.664 95.5117 826.176 97.0938 826.098 99.125H835.004ZM862.816 111H853.383V109.711C853.682 109.685 854.008 109.659 854.359 109.633C854.724 109.607 855.023 109.555 855.258 109.477C855.622 109.359 855.889 109.158 856.059 108.871C856.241 108.572 856.332 108.188 856.332 107.719V97.8164C856.332 96.4492 856.007 95.3945 855.355 94.6523C854.717 93.9102 853.936 93.5391 853.012 93.5391C852.322 93.5391 851.69 93.6497 851.117 93.8711C850.544 94.0794 850.036 94.3398 849.594 94.6523C849.164 94.9518 848.819 95.2773 848.559 95.6289C848.311 95.9674 848.129 96.2409 848.012 96.4492V107.523C848.012 107.966 848.103 108.331 848.285 108.617C848.467 108.904 848.741 109.125 849.105 109.281C849.379 109.411 849.672 109.509 849.984 109.574C850.31 109.639 850.642 109.685 850.98 109.711V111H841.547V109.711C841.846 109.685 842.152 109.659 842.465 109.633C842.79 109.607 843.07 109.555 843.305 109.477C843.669 109.359 843.936 109.158 844.105 108.871C844.288 108.572 844.379 108.188 844.379 107.719V95.8242C844.379 95.3815 844.281 94.9779 844.086 94.6133C843.904 94.2357 843.643 93.9297 843.305 93.6953C843.057 93.5391 842.764 93.4284 842.426 93.3633C842.087 93.2852 841.723 93.2331 841.332 93.207V91.9375L847.738 91.5078L848.012 91.7812V94.4961H848.109C848.422 94.1836 848.812 93.8125 849.281 93.3828C849.75 92.9401 850.193 92.582 850.609 92.3086C851.091 91.9961 851.664 91.7357 852.328 91.5273C852.992 91.319 853.741 91.2148 854.574 91.2148C856.423 91.2148 857.79 91.7943 858.676 92.9531C859.574 94.099 860.023 95.6289 860.023 97.543V107.562C860.023 108.018 860.102 108.389 860.258 108.676C860.414 108.949 860.681 109.164 861.059 109.32C861.371 109.451 861.638 109.542 861.859 109.594C862.094 109.646 862.413 109.685 862.816 109.711V111ZM874.086 111.508C871.299 111.508 869.118 110.583 867.543 108.734C865.967 106.885 865.18 104.405 865.18 101.293C865.18 99.9388 865.388 98.6758 865.805 97.5039C866.234 96.319 866.853 95.2448 867.66 94.2812C868.428 93.3568 869.392 92.6146 870.551 92.0547C871.71 91.4818 872.973 91.1953 874.34 91.1953C876.228 91.1953 877.764 91.651 878.949 92.5625C880.134 93.4609 880.727 94.6914 880.727 96.2539C880.727 96.9049 880.57 97.4844 880.258 97.9922C879.945 98.487 879.431 98.7344 878.715 98.7344C877.947 98.7344 877.348 98.5391 876.918 98.1484C876.501 97.7578 876.293 97.3216 876.293 96.8398C876.293 96.2539 876.371 95.6549 876.527 95.043C876.684 94.418 876.775 93.9622 876.801 93.6758C876.566 93.2721 876.215 93.0052 875.746 92.875C875.29 92.7318 874.796 92.6602 874.262 92.6602C873.637 92.6602 873.038 92.7969 872.465 93.0703C871.905 93.3307 871.358 93.819 870.824 94.5352C870.342 95.1862 869.952 96.0651 869.652 97.1719C869.353 98.2786 869.203 99.6003 869.203 101.137C869.203 103.559 869.737 105.538 870.805 107.074C871.885 108.598 873.298 109.359 875.043 109.359C876.306 109.359 877.361 109.053 878.207 108.441C879.066 107.829 879.861 106.911 880.59 105.688L881.84 106.508C880.98 108.044 879.848 109.262 878.441 110.16C877.035 111.059 875.583 111.508 874.086 111.508ZM900.453 106.469C899.646 108.005 898.565 109.229 897.211 110.141C895.857 111.052 894.301 111.508 892.543 111.508C890.993 111.508 889.633 111.234 888.461 110.688C887.302 110.141 886.345 109.398 885.59 108.461C884.835 107.523 884.268 106.43 883.891 105.18C883.526 103.93 883.344 102.608 883.344 101.215C883.344 99.9648 883.539 98.7409 883.93 97.543C884.333 96.332 884.919 95.2448 885.688 94.2812C886.43 93.3568 887.348 92.6146 888.441 92.0547C889.548 91.4818 890.785 91.1953 892.152 91.1953C893.559 91.1953 894.763 91.4167 895.766 91.8594C896.768 92.3021 897.582 92.9076 898.207 93.6758C898.806 94.4049 899.249 95.2643 899.535 96.2539C899.835 97.2435 899.984 98.3177 899.984 99.4766V100.766H887.23C887.23 102.029 887.348 103.174 887.582 104.203C887.829 105.232 888.214 106.137 888.734 106.918C889.242 107.673 889.906 108.272 890.727 108.715C891.547 109.145 892.523 109.359 893.656 109.359C894.815 109.359 895.811 109.092 896.645 108.559C897.491 108.012 898.305 107.035 899.086 105.629L900.453 106.469ZM896.137 99.125C896.137 98.3958 896.072 97.6146 895.941 96.7812C895.824 95.9479 895.629 95.2513 895.355 94.6914C895.056 94.0924 894.646 93.6042 894.125 93.2266C893.604 92.849 892.934 92.6602 892.113 92.6602C890.746 92.6602 889.607 93.2331 888.695 94.3789C887.797 95.5117 887.309 97.0938 887.23 99.125H896.137ZM924.223 110.16C923.376 110.512 922.576 110.805 921.82 111.039C921.065 111.286 920.141 111.41 919.047 111.41C917.432 111.41 916.293 111.007 915.629 110.199C914.978 109.379 914.652 108.227 914.652 106.742V93.6953H911.176V91.8203H914.73V85.8242H918.285V91.8203H923.812V93.6953H918.324V104.457C918.324 105.264 918.35 105.941 918.402 106.488C918.467 107.022 918.611 107.491 918.832 107.895C919.04 108.272 919.353 108.559 919.77 108.754C920.186 108.949 920.746 109.047 921.449 109.047C921.775 109.047 922.25 109.021 922.875 108.969C923.513 108.904 923.962 108.826 924.223 108.734V110.16ZM944.926 101.176C944.926 102.53 944.711 103.865 944.281 105.18C943.852 106.482 943.24 107.589 942.445 108.5C941.547 109.542 940.505 110.316 939.32 110.824C938.135 111.332 936.807 111.586 935.336 111.586C934.112 111.586 932.947 111.358 931.84 110.902C930.733 110.434 929.75 109.757 928.891 108.871C928.044 107.999 927.367 106.938 926.859 105.688C926.365 104.424 926.117 103.012 926.117 101.449C926.117 98.4414 926.99 95.9805 928.734 94.0664C930.492 92.1523 932.79 91.1953 935.629 91.1953C938.324 91.1953 940.544 92.1068 942.289 93.9297C944.047 95.7396 944.926 98.1549 944.926 101.176ZM940.883 101.215C940.883 100.238 940.785 99.2096 940.59 98.1289C940.395 97.0352 940.102 96.1107 939.711 95.3555C939.294 94.5482 938.747 93.9036 938.07 93.4219C937.393 92.9271 936.566 92.6797 935.59 92.6797C934.587 92.6797 933.728 92.9271 933.012 93.4219C932.309 93.9167 931.736 94.5938 931.293 95.4531C930.876 96.2474 930.583 97.1523 930.414 98.168C930.245 99.1836 930.16 100.167 930.16 101.117C930.16 102.367 930.258 103.526 930.453 104.594C930.661 105.648 930.987 106.592 931.43 107.426C931.872 108.259 932.426 108.917 933.09 109.398C933.767 109.867 934.6 110.102 935.59 110.102C937.217 110.102 938.507 109.314 939.457 107.738C940.408 106.163 940.883 103.988 940.883 101.215ZM966.273 111.508C963.487 111.508 961.306 110.583 959.73 108.734C958.155 106.885 957.367 104.405 957.367 101.293C957.367 99.9388 957.576 98.6758 957.992 97.5039C958.422 96.319 959.04 95.2448 959.848 94.2812C960.616 93.3568 961.579 92.6146 962.738 92.0547C963.897 91.4818 965.16 91.1953 966.527 91.1953C968.415 91.1953 969.952 91.651 971.137 92.5625C972.322 93.4609 972.914 94.6914 972.914 96.2539C972.914 96.9049 972.758 97.4844 972.445 97.9922C972.133 98.487 971.618 98.7344 970.902 98.7344C970.134 98.7344 969.535 98.5391 969.105 98.1484C968.689 97.7578 968.48 97.3216 968.48 96.8398C968.48 96.2539 968.559 95.6549 968.715 95.043C968.871 94.418 968.962 93.9622 968.988 93.6758C968.754 93.2721 968.402 93.0052 967.934 92.875C967.478 92.7318 966.983 92.6602 966.449 92.6602C965.824 92.6602 965.225 92.7969 964.652 93.0703C964.092 93.3307 963.546 93.819 963.012 94.5352C962.53 95.1862 962.139 96.0651 961.84 97.1719C961.54 98.2786 961.391 99.6003 961.391 101.137C961.391 103.559 961.924 105.538 962.992 107.074C964.073 108.598 965.486 109.359 967.23 109.359C968.493 109.359 969.548 109.053 970.395 108.441C971.254 107.829 972.048 106.911 972.777 105.688L974.027 106.508C973.168 108.044 972.035 109.262 970.629 110.16C969.223 111.059 967.771 111.508 966.273 111.508ZM994.301 101.176C994.301 102.53 994.086 103.865 993.656 105.18C993.227 106.482 992.615 107.589 991.82 108.5C990.922 109.542 989.88 110.316 988.695 110.824C987.51 111.332 986.182 111.586 984.711 111.586C983.487 111.586 982.322 111.358 981.215 110.902C980.108 110.434 979.125 109.757 978.266 108.871C977.419 107.999 976.742 106.938 976.234 105.688C975.74 104.424 975.492 103.012 975.492 101.449C975.492 98.4414 976.365 95.9805 978.109 94.0664C979.867 92.1523 982.165 91.1953 985.004 91.1953C987.699 91.1953 989.919 92.1068 991.664 93.9297C993.422 95.7396 994.301 98.1549 994.301 101.176ZM990.258 101.215C990.258 100.238 990.16 99.2096 989.965 98.1289C989.77 97.0352 989.477 96.1107 989.086 95.3555C988.669 94.5482 988.122 93.9036 987.445 93.4219C986.768 92.9271 985.941 92.6797 984.965 92.6797C983.962 92.6797 983.103 92.9271 982.387 93.4219C981.684 93.9167 981.111 94.5938 980.668 95.4531C980.251 96.2474 979.958 97.1523 979.789 98.168C979.62 99.1836 979.535 100.167 979.535 101.117C979.535 102.367 979.633 103.526 979.828 104.594C980.036 105.648 980.362 106.592 980.805 107.426C981.247 108.259 981.801 108.917 982.465 109.398C983.142 109.867 983.975 110.102 984.965 110.102C986.592 110.102 987.882 109.314 988.832 107.738C989.783 106.163 990.258 103.988 990.258 101.215ZM1014.69 94.0273C1015.46 94.9388 1016.05 96 1016.47 97.2109C1016.9 98.4089 1017.11 99.7826 1017.11 101.332C1017.11 102.855 1016.86 104.249 1016.35 105.512C1015.84 106.762 1015.17 107.829 1014.34 108.715C1013.47 109.613 1012.5 110.303 1011.43 110.785C1010.36 111.267 1009.23 111.508 1008.03 111.508C1006.87 111.508 1005.92 111.378 1005.18 111.117C1004.44 110.857 1003.83 110.551 1003.36 110.199H1003.21V115.98C1003.21 116.449 1003.3 116.84 1003.48 117.152C1003.66 117.465 1003.94 117.693 1004.32 117.836C1004.63 117.953 1005.08 118.064 1005.65 118.168C1006.23 118.285 1006.72 118.35 1007.09 118.363V119.672H996.332V118.363C996.736 118.337 997.126 118.305 997.504 118.266C997.882 118.227 998.22 118.161 998.52 118.07C998.91 117.94 999.184 117.712 999.34 117.387C999.496 117.061 999.574 116.677 999.574 116.234V95.7461C999.574 95.3555 999.477 94.9779 999.281 94.6133C999.086 94.2487 998.832 93.9557 998.52 93.7344C998.285 93.5781 997.96 93.4609 997.543 93.3828C997.126 93.2917 996.723 93.2331 996.332 93.207V91.9375L1002.89 91.5078L1003.17 91.7422V93.9102L1003.32 93.9492C1004 93.168 1004.84 92.5169 1005.84 91.9961C1006.85 91.4753 1007.84 91.2148 1008.83 91.2148C1010.03 91.2148 1011.12 91.4688 1012.11 91.9766C1013.12 92.4844 1013.98 93.168 1014.69 94.0273ZM1011.51 107.875C1012.03 107.068 1012.41 106.13 1012.66 105.062C1012.91 103.995 1013.03 102.803 1013.03 101.488C1013.03 100.525 1012.93 99.5417 1012.72 98.5391C1012.51 97.5365 1012.18 96.6641 1011.74 95.9219C1011.3 95.1667 1010.72 94.5547 1010 94.0859C1009.29 93.6172 1008.43 93.3828 1007.43 93.3828C1006.46 93.3828 1005.64 93.5977 1004.96 94.0273C1004.29 94.444 1003.7 94.9453 1003.21 95.5312V106.918C1003.32 107.27 1003.51 107.634 1003.77 108.012C1004.05 108.389 1004.35 108.715 1004.67 108.988C1005.08 109.314 1005.51 109.581 1005.98 109.789C1006.45 109.984 1007.02 110.082 1007.7 110.082C1008.43 110.082 1009.13 109.893 1009.81 109.516C1010.49 109.125 1011.05 108.578 1011.51 107.875ZM1018.48 117.289C1018.48 116.638 1018.66 116.104 1019.01 115.688C1019.37 115.284 1019.82 115.082 1020.36 115.082C1020.77 115.082 1021.13 115.16 1021.43 115.316C1021.73 115.473 1022 115.674 1022.23 115.922C1022.43 116.117 1022.63 116.384 1022.86 116.723C1023.08 117.061 1023.25 117.341 1023.38 117.562C1024.03 117.211 1024.81 116.293 1025.71 114.809C1026.62 113.324 1027.28 112.022 1027.68 110.902C1026.44 107.816 1025.32 105.056 1024.32 102.621C1023.32 100.186 1022.27 97.6667 1021.18 95.0625C1020.93 94.4635 1020.51 94.0013 1019.93 93.6758C1019.34 93.3372 1018.75 93.1224 1018.17 93.0312V91.7422H1026.96V93.1094C1026.57 93.1224 1026.1 93.207 1025.55 93.3633C1025 93.5065 1024.73 93.6758 1024.73 93.8711C1024.73 93.9492 1024.76 94.0794 1024.81 94.2617C1024.87 94.444 1024.95 94.6328 1025.02 94.8281C1025.52 96.1172 1026.27 97.9792 1027.29 100.414C1028.3 102.836 1029.09 104.776 1029.65 106.234C1030.24 104.841 1030.84 103.402 1031.47 101.918C1032.11 100.421 1032.82 98.6562 1033.6 96.625C1033.69 96.3776 1033.82 96.0391 1033.99 95.6094C1034.16 95.1667 1034.24 94.7891 1034.24 94.4766C1034.24 94.138 1033.94 93.8255 1033.34 93.5391C1032.76 93.2396 1032.2 93.0573 1031.66 92.9922V91.7422H1038.81V92.9531C1038.42 93.0182 1037.91 93.2461 1037.27 93.6367C1036.63 94.0143 1036.16 94.5547 1035.84 95.2578C1034.29 98.8516 1032.91 102.126 1031.7 105.082C1030.51 108.038 1029.59 110.212 1028.97 111.605C1028.15 113.428 1027.41 114.848 1026.76 115.863C1026.12 116.892 1025.5 117.699 1024.89 118.285C1024.29 118.832 1023.74 119.197 1023.25 119.379C1022.76 119.574 1022.26 119.672 1021.74 119.672C1020.73 119.672 1019.93 119.431 1019.34 118.949C1018.77 118.467 1018.48 117.914 1018.48 117.289Z" fill="#6B68E6"/>
<path id="Line 29" d="M551.414 473.414C552.195 472.633 552.195 471.367 551.414 470.586L538.686 457.858C537.905 457.077 536.639 457.077 535.858 457.858C535.077 458.639 535.077 459.905 535.858 460.686L547.172 472L535.858 483.314C535.077 484.095 535.077 485.361 535.858 486.142C536.639 486.923 537.905 486.923 538.686 486.142L551.414 473.414ZM457 474H550V470H457V474Z" fill="#327C73"/>
<path id="model&#226;&#128;&#153;s output" d="M201.57 480H192.176V478.711C192.475 478.685 192.775 478.659 193.074 478.633C193.387 478.607 193.66 478.555 193.895 478.477C194.259 478.359 194.526 478.158 194.695 477.871C194.878 477.572 194.969 477.188 194.969 476.719V466.777C194.969 465.423 194.656 464.382 194.031 463.652C193.419 462.91 192.651 462.539 191.727 462.539C191.089 462.539 190.49 462.637 189.93 462.832C189.37 463.027 188.855 463.301 188.387 463.652C188.009 463.939 187.69 464.251 187.43 464.59C187.182 464.915 186.993 465.189 186.863 465.41V476.523C186.863 476.979 186.941 477.357 187.098 477.656C187.254 477.943 187.521 478.164 187.898 478.32C188.198 478.438 188.465 478.529 188.699 478.594C188.947 478.646 189.266 478.685 189.656 478.711V480H180.457V478.711C180.757 478.685 181.043 478.659 181.316 478.633C181.603 478.607 181.863 478.555 182.098 478.477C182.462 478.359 182.729 478.158 182.898 477.871C183.081 477.572 183.172 477.188 183.172 476.719V466.777C183.172 465.423 182.859 464.382 182.234 463.652C181.622 462.91 180.854 462.539 179.93 462.539C179.292 462.539 178.693 462.643 178.133 462.852C177.573 463.047 177.059 463.32 176.59 463.672C176.212 463.958 175.893 464.284 175.633 464.648C175.372 465 175.177 465.267 175.047 465.449V476.484C175.047 476.927 175.138 477.298 175.32 477.598C175.503 477.897 175.776 478.125 176.141 478.281C176.414 478.411 176.694 478.509 176.98 478.574C177.267 478.639 177.586 478.685 177.938 478.711V480H168.582V478.711C168.882 478.685 169.188 478.659 169.5 478.633C169.826 478.607 170.105 478.555 170.34 478.477C170.704 478.359 170.971 478.158 171.141 477.871C171.323 477.572 171.414 477.188 171.414 476.719V464.746C171.414 464.329 171.316 463.958 171.121 463.633C170.939 463.294 170.678 463.008 170.34 462.773C170.092 462.617 169.786 462.493 169.422 462.402C169.057 462.298 168.68 462.233 168.289 462.207V460.938L174.734 460.508L175.008 460.781V463.535H175.145C175.47 463.21 175.867 462.826 176.336 462.383C176.805 461.94 177.241 461.582 177.645 461.309C178.1 460.996 178.667 460.736 179.344 460.527C180.034 460.319 180.776 460.215 181.57 460.215C182.82 460.215 183.895 460.553 184.793 461.23C185.691 461.895 186.336 462.702 186.727 463.652C187.195 463.197 187.605 462.799 187.957 462.461C188.322 462.109 188.797 461.738 189.383 461.348C189.878 461.009 190.457 460.736 191.121 460.527C191.798 460.319 192.547 460.215 193.367 460.215C194.995 460.215 196.284 460.749 197.234 461.816C198.185 462.884 198.66 464.525 198.66 466.738V476.523C198.66 476.979 198.738 477.357 198.895 477.656C199.051 477.943 199.318 478.164 199.695 478.32C199.995 478.438 200.288 478.529 200.574 478.594C200.874 478.646 201.206 478.685 201.57 478.711V480ZM222.586 470.176C222.586 471.53 222.371 472.865 221.941 474.18C221.512 475.482 220.9 476.589 220.105 477.5C219.207 478.542 218.165 479.316 216.98 479.824C215.796 480.332 214.467 480.586 212.996 480.586C211.772 480.586 210.607 480.358 209.5 479.902C208.393 479.434 207.41 478.757 206.551 477.871C205.704 476.999 205.027 475.938 204.52 474.688C204.025 473.424 203.777 472.012 203.777 470.449C203.777 467.441 204.65 464.98 206.395 463.066C208.152 461.152 210.451 460.195 213.289 460.195C215.984 460.195 218.204 461.107 219.949 462.93C221.707 464.74 222.586 467.155 222.586 470.176ZM218.543 470.215C218.543 469.238 218.445 468.21 218.25 467.129C218.055 466.035 217.762 465.111 217.371 464.355C216.954 463.548 216.408 462.904 215.73 462.422C215.053 461.927 214.227 461.68 213.25 461.68C212.247 461.68 211.388 461.927 210.672 462.422C209.969 462.917 209.396 463.594 208.953 464.453C208.536 465.247 208.243 466.152 208.074 467.168C207.905 468.184 207.82 469.167 207.82 470.117C207.82 471.367 207.918 472.526 208.113 473.594C208.322 474.648 208.647 475.592 209.09 476.426C209.533 477.259 210.086 477.917 210.75 478.398C211.427 478.867 212.26 479.102 213.25 479.102C214.878 479.102 216.167 478.314 217.117 476.738C218.068 475.163 218.543 472.988 218.543 470.215ZM246.473 479.648L239.754 480.078L239.461 479.805V478.008L239.305 477.969C238.628 478.724 237.788 479.342 236.785 479.824C235.796 480.306 234.773 480.547 233.719 480.547C232.625 480.547 231.564 480.306 230.535 479.824C229.52 479.329 228.634 478.639 227.879 477.754C227.111 476.855 226.499 475.775 226.043 474.512C225.6 473.249 225.379 471.855 225.379 470.332C225.379 468.939 225.62 467.617 226.102 466.367C226.583 465.117 227.247 464.023 228.094 463.086C228.888 462.214 229.858 461.517 231.004 460.996C232.163 460.475 233.341 460.215 234.539 460.215C235.438 460.215 236.316 460.332 237.176 460.566C238.048 460.788 238.797 461.074 239.422 461.426V454.727C239.422 454.18 239.331 453.685 239.148 453.242C238.966 452.786 238.712 452.441 238.387 452.207C238.022 451.96 237.527 451.784 236.902 451.68C236.29 451.562 235.626 451.478 234.91 451.426V450.215L242.781 449.766L243.074 450.059V476.035C243.074 476.491 243.159 476.882 243.328 477.207C243.51 477.52 243.771 477.786 244.109 478.008C244.357 478.164 244.715 478.262 245.184 478.301C245.652 478.34 246.082 478.366 246.473 478.379V479.648ZM239.422 476.27V465C239.318 464.661 239.148 464.297 238.914 463.906C238.68 463.516 238.387 463.158 238.035 462.832C237.658 462.507 237.215 462.24 236.707 462.031C236.199 461.81 235.607 461.699 234.93 461.699C234.148 461.699 233.426 461.901 232.762 462.305C232.111 462.708 231.531 463.288 231.023 464.043C230.542 464.772 230.158 465.703 229.871 466.836C229.598 467.956 229.461 469.199 229.461 470.566C229.461 471.66 229.565 472.656 229.773 473.555C229.982 474.44 230.333 475.267 230.828 476.035C231.284 476.764 231.863 477.35 232.566 477.793C233.283 478.236 234.129 478.457 235.105 478.457C236.147 478.457 237.007 478.229 237.684 477.773C238.374 477.318 238.953 476.816 239.422 476.27ZM265.457 475.469C264.65 477.005 263.569 478.229 262.215 479.141C260.861 480.052 259.305 480.508 257.547 480.508C255.997 480.508 254.637 480.234 253.465 479.688C252.306 479.141 251.349 478.398 250.594 477.461C249.839 476.523 249.272 475.43 248.895 474.18C248.53 472.93 248.348 471.608 248.348 470.215C248.348 468.965 248.543 467.741 248.934 466.543C249.337 465.332 249.923 464.245 250.691 463.281C251.434 462.357 252.352 461.615 253.445 461.055C254.552 460.482 255.789 460.195 257.156 460.195C258.562 460.195 259.767 460.417 260.77 460.859C261.772 461.302 262.586 461.908 263.211 462.676C263.81 463.405 264.253 464.264 264.539 465.254C264.839 466.243 264.988 467.318 264.988 468.477V469.766H252.234C252.234 471.029 252.352 472.174 252.586 473.203C252.833 474.232 253.217 475.137 253.738 475.918C254.246 476.673 254.91 477.272 255.73 477.715C256.551 478.145 257.527 478.359 258.66 478.359C259.819 478.359 260.815 478.092 261.648 477.559C262.495 477.012 263.309 476.035 264.09 474.629L265.457 475.469ZM261.141 468.125C261.141 467.396 261.076 466.615 260.945 465.781C260.828 464.948 260.633 464.251 260.359 463.691C260.06 463.092 259.65 462.604 259.129 462.227C258.608 461.849 257.938 461.66 257.117 461.66C255.75 461.66 254.611 462.233 253.699 463.379C252.801 464.512 252.312 466.094 252.234 468.125H261.141ZM276.707 480H267.312V478.711C267.612 478.685 267.931 478.659 268.27 478.633C268.608 478.594 268.888 478.542 269.109 478.477C269.474 478.359 269.747 478.158 269.93 477.871C270.112 477.572 270.203 477.188 270.203 476.719V454.414C270.203 453.945 270.099 453.509 269.891 453.105C269.695 452.689 269.435 452.363 269.109 452.129C268.875 451.973 268.445 451.829 267.82 451.699C267.195 451.569 266.694 451.491 266.316 451.465V450.215L273.562 449.766L273.836 450.059V476.484C273.836 476.94 273.921 477.318 274.09 477.617C274.259 477.904 274.533 478.125 274.91 478.281C275.197 478.411 275.477 478.509 275.75 478.574C276.036 478.639 276.355 478.685 276.707 478.711V480ZM285.301 454.121C285.301 454.98 285.112 455.768 284.734 456.484C284.37 457.188 283.927 457.799 283.406 458.32C282.885 458.854 282.312 459.336 281.688 459.766C281.062 460.182 280.561 460.488 280.184 460.684L279.52 459.531C280.053 459.219 280.561 458.9 281.043 458.574C281.538 458.236 281.915 457.917 282.176 457.617C282.527 457.227 282.807 456.823 283.016 456.406C283.224 455.977 283.354 455.417 283.406 454.727H282.469C281.648 454.727 281.01 454.518 280.555 454.102C280.099 453.685 279.871 453.105 279.871 452.363C279.871 451.829 280.079 451.328 280.496 450.859C280.913 450.378 281.479 450.137 282.195 450.137C283.302 450.137 284.096 450.508 284.578 451.25C285.06 451.979 285.301 452.936 285.301 454.121ZM300.906 470.566C301.44 471.035 301.85 471.576 302.137 472.188C302.423 472.799 302.566 473.548 302.566 474.434C302.566 476.217 301.896 477.676 300.555 478.809C299.227 479.941 297.501 480.508 295.379 480.508C294.259 480.508 293.224 480.306 292.273 479.902C291.336 479.499 290.665 479.128 290.262 478.789L289.871 480.059H288.406L288.211 473.359H289.559C289.663 473.867 289.884 474.46 290.223 475.137C290.561 475.814 290.971 476.426 291.453 476.973C291.961 477.546 292.566 478.027 293.27 478.418C293.986 478.809 294.786 479.004 295.672 479.004C296.922 479.004 297.885 478.724 298.562 478.164C299.24 477.591 299.578 476.777 299.578 475.723C299.578 475.176 299.467 474.707 299.246 474.316C299.038 473.913 298.725 473.561 298.309 473.262C297.879 472.962 297.352 472.695 296.727 472.461C296.102 472.214 295.405 471.973 294.637 471.738C294.025 471.556 293.341 471.309 292.586 470.996C291.844 470.671 291.206 470.293 290.672 469.863C290.099 469.408 289.63 468.848 289.266 468.184C288.901 467.52 288.719 466.738 288.719 465.84C288.719 464.264 289.305 462.93 290.477 461.836C291.648 460.742 293.217 460.195 295.184 460.195C295.939 460.195 296.707 460.293 297.488 460.488C298.283 460.684 298.927 460.918 299.422 461.191L299.871 460.176H301.277L301.57 466.367H300.223C299.949 464.987 299.357 463.867 298.445 463.008C297.547 462.135 296.447 461.699 295.145 461.699C294.077 461.699 293.237 461.966 292.625 462.5C292.013 463.034 291.707 463.678 291.707 464.434C291.707 465.02 291.805 465.508 292 465.898C292.208 466.289 292.514 466.621 292.918 466.895C293.309 467.155 293.797 467.402 294.383 467.637C294.982 467.858 295.717 468.112 296.59 468.398C297.449 468.672 298.257 468.991 299.012 469.355C299.78 469.72 300.411 470.124 300.906 470.566ZM333.914 470.176C333.914 471.53 333.699 472.865 333.27 474.18C332.84 475.482 332.228 476.589 331.434 477.5C330.535 478.542 329.493 479.316 328.309 479.824C327.124 480.332 325.796 480.586 324.324 480.586C323.1 480.586 321.935 480.358 320.828 479.902C319.721 479.434 318.738 478.757 317.879 477.871C317.033 476.999 316.355 475.938 315.848 474.688C315.353 473.424 315.105 472.012 315.105 470.449C315.105 467.441 315.978 464.98 317.723 463.066C319.48 461.152 321.779 460.195 324.617 460.195C327.312 460.195 329.533 461.107 331.277 462.93C333.035 464.74 333.914 467.155 333.914 470.176ZM329.871 470.215C329.871 469.238 329.773 468.21 329.578 467.129C329.383 466.035 329.09 465.111 328.699 464.355C328.283 463.548 327.736 462.904 327.059 462.422C326.382 461.927 325.555 461.68 324.578 461.68C323.576 461.68 322.716 461.927 322 462.422C321.297 462.917 320.724 463.594 320.281 464.453C319.865 465.247 319.572 466.152 319.402 467.168C319.233 468.184 319.148 469.167 319.148 470.117C319.148 471.367 319.246 472.526 319.441 473.594C319.65 474.648 319.975 475.592 320.418 476.426C320.861 477.259 321.414 477.917 322.078 478.398C322.755 478.867 323.589 479.102 324.578 479.102C326.206 479.102 327.495 478.314 328.445 476.738C329.396 475.163 329.871 472.988 329.871 470.215ZM357.352 479.648L351.082 480.078L350.789 479.805V477.363H350.672C350.359 477.689 350.008 478.04 349.617 478.418C349.227 478.783 348.777 479.115 348.27 479.414C347.684 479.766 347.117 480.033 346.57 480.215C346.023 480.397 345.249 480.488 344.246 480.488C342.54 480.488 341.238 479.935 340.34 478.828C339.454 477.708 339.012 476.087 339.012 473.965V464.746C339.012 464.277 338.921 463.887 338.738 463.574C338.569 463.249 338.315 462.969 337.977 462.734C337.742 462.578 337.449 462.467 337.098 462.402C336.746 462.324 336.375 462.272 335.984 462.246V460.977L342.41 460.508L342.703 460.781V474.16C342.703 475.553 343.016 476.602 343.641 477.305C344.266 478.008 345.014 478.359 345.887 478.359C346.603 478.359 347.241 478.249 347.801 478.027C348.361 477.806 348.829 477.546 349.207 477.246C349.559 476.973 349.865 476.686 350.125 476.387C350.398 476.074 350.607 475.788 350.75 475.527V464.609C350.75 464.18 350.659 463.802 350.477 463.477C350.294 463.138 350.04 462.852 349.715 462.617C349.48 462.461 349.129 462.37 348.66 462.344C348.204 462.305 347.69 462.272 347.117 462.246V460.977L354.109 460.508L354.402 460.781V476.074C354.402 476.517 354.493 476.895 354.676 477.207C354.858 477.52 355.112 477.786 355.438 478.008C355.672 478.151 355.952 478.249 356.277 478.301C356.603 478.34 356.961 478.366 357.352 478.379V479.648ZM371.609 479.16C370.763 479.512 369.962 479.805 369.207 480.039C368.452 480.286 367.527 480.41 366.434 480.41C364.819 480.41 363.68 480.007 363.016 479.199C362.365 478.379 362.039 477.227 362.039 475.742V462.695H358.562V460.82H362.117V454.824H365.672V460.82H371.199V462.695H365.711V473.457C365.711 474.264 365.737 474.941 365.789 475.488C365.854 476.022 365.997 476.491 366.219 476.895C366.427 477.272 366.74 477.559 367.156 477.754C367.573 477.949 368.133 478.047 368.836 478.047C369.161 478.047 369.637 478.021 370.262 477.969C370.9 477.904 371.349 477.826 371.609 477.734V479.16ZM391.141 463.027C391.909 463.939 392.501 465 392.918 466.211C393.348 467.409 393.562 468.783 393.562 470.332C393.562 471.855 393.309 473.249 392.801 474.512C392.293 475.762 391.622 476.829 390.789 477.715C389.917 478.613 388.947 479.303 387.879 479.785C386.811 480.267 385.678 480.508 384.48 480.508C383.322 480.508 382.371 480.378 381.629 480.117C380.887 479.857 380.281 479.551 379.812 479.199H379.656V484.98C379.656 485.449 379.747 485.84 379.93 486.152C380.112 486.465 380.392 486.693 380.77 486.836C381.082 486.953 381.525 487.064 382.098 487.168C382.684 487.285 383.165 487.35 383.543 487.363V488.672H372.781V487.363C373.185 487.337 373.576 487.305 373.953 487.266C374.331 487.227 374.669 487.161 374.969 487.07C375.359 486.94 375.633 486.712 375.789 486.387C375.945 486.061 376.023 485.677 376.023 485.234V464.746C376.023 464.355 375.926 463.978 375.73 463.613C375.535 463.249 375.281 462.956 374.969 462.734C374.734 462.578 374.409 462.461 373.992 462.383C373.576 462.292 373.172 462.233 372.781 462.207V460.938L379.344 460.508L379.617 460.742V462.91L379.773 462.949C380.451 462.168 381.29 461.517 382.293 460.996C383.296 460.475 384.292 460.215 385.281 460.215C386.479 460.215 387.573 460.469 388.562 460.977C389.565 461.484 390.424 462.168 391.141 463.027ZM387.957 476.875C388.478 476.068 388.862 475.13 389.109 474.062C389.357 472.995 389.48 471.803 389.48 470.488C389.48 469.525 389.376 468.542 389.168 467.539C388.96 466.536 388.634 465.664 388.191 464.922C387.749 464.167 387.169 463.555 386.453 463.086C385.737 462.617 384.878 462.383 383.875 462.383C382.911 462.383 382.091 462.598 381.414 463.027C380.737 463.444 380.151 463.945 379.656 464.531V475.918C379.773 476.27 379.962 476.634 380.223 477.012C380.496 477.389 380.796 477.715 381.121 477.988C381.525 478.314 381.961 478.581 382.43 478.789C382.898 478.984 383.471 479.082 384.148 479.082C384.878 479.082 385.581 478.893 386.258 478.516C386.935 478.125 387.501 477.578 387.957 476.875ZM417.039 479.648L410.77 480.078L410.477 479.805V477.363H410.359C410.047 477.689 409.695 478.04 409.305 478.418C408.914 478.783 408.465 479.115 407.957 479.414C407.371 479.766 406.805 480.033 406.258 480.215C405.711 480.397 404.936 480.488 403.934 480.488C402.228 480.488 400.926 479.935 400.027 478.828C399.142 477.708 398.699 476.087 398.699 473.965V464.746C398.699 464.277 398.608 463.887 398.426 463.574C398.257 463.249 398.003 462.969 397.664 462.734C397.43 462.578 397.137 462.467 396.785 462.402C396.434 462.324 396.062 462.272 395.672 462.246V460.977L402.098 460.508L402.391 460.781V474.16C402.391 475.553 402.703 476.602 403.328 477.305C403.953 478.008 404.702 478.359 405.574 478.359C406.29 478.359 406.928 478.249 407.488 478.027C408.048 477.806 408.517 477.546 408.895 477.246C409.246 476.973 409.552 476.686 409.812 476.387C410.086 476.074 410.294 475.788 410.438 475.527V464.609C410.438 464.18 410.346 463.802 410.164 463.477C409.982 463.138 409.728 462.852 409.402 462.617C409.168 462.461 408.816 462.37 408.348 462.344C407.892 462.305 407.378 462.272 406.805 462.246V460.977L413.797 460.508L414.09 460.781V476.074C414.09 476.517 414.181 476.895 414.363 477.207C414.546 477.52 414.799 477.786 415.125 478.008C415.359 478.151 415.639 478.249 415.965 478.301C416.29 478.34 416.648 478.366 417.039 478.379V479.648ZM431.297 479.16C430.451 479.512 429.65 479.805 428.895 480.039C428.139 480.286 427.215 480.41 426.121 480.41C424.507 480.41 423.367 480.007 422.703 479.199C422.052 478.379 421.727 477.227 421.727 475.742V462.695H418.25V460.82H421.805V454.824H425.359V460.82H430.887V462.695H425.398V473.457C425.398 474.264 425.424 474.941 425.477 475.488C425.542 476.022 425.685 476.491 425.906 476.895C426.115 477.272 426.427 477.559 426.844 477.754C427.26 477.949 427.82 478.047 428.523 478.047C428.849 478.047 429.324 478.021 429.949 477.969C430.587 477.904 431.036 477.826 431.297 477.734V479.16Z" fill="#327C73"/>
<rect id="Rectangle 81" x="1.5" y="1.5" width="1147" height="297" stroke="black" stroke-width="3"/>
<rect id="Rectangle 82" x="1.5" y="351.5" width="1147" height="295" stroke="black" stroke-width="3"/>
</g>
</svg>
