<svg width="1150" height="805" viewBox="0 0 1150 805" fill="none" xmlns="http://www.w3.org/2000/svg">
<g id="Frame 10">
<rect id="Rectangle 37" x="150" y="250" width="50" height="50" fill="#6B68E5"/>
<rect id="Rectangle 39" y="350" width="50" height="50" fill="black"/>
<rect id="Rectangle 41" x="50" y="300" width="50" height="50" fill="#6B68E5"/>
<rect id="Rectangle 42" x="50" y="200" width="50" height="50" fill="#6B68E5"/>
<rect id="Rectangle 43" x="50" y="250" width="50" height="50" fill="#6B68E5"/>
<rect id="Rectangle 44" x="100" y="150" width="50" height="50" fill="#6B68E5"/>
<rect id="Rectangle 45" x="100" y="250" width="50" height="50" fill="#6B68E5"/>
<rect id="Rectangle 46" x="100" y="200" width="50" height="50" fill="#6B68E5"/>
<rect id="Rectangle 47" x="200" y="350" width="50" height="50" fill="black"/>
<rect id="Rectangle 48" x="300" y="200" width="50" height="50" fill="#6B68E5"/>
<rect id="Rectangle 49" x="250" y="250" width="50" height="50" fill="#6B68E5"/>
<rect id="Rectangle 50" x="300" y="300" width="50" height="50" fill="#6B68E5"/>
<rect id="Rectangle 51" x="350" y="250" width="50" height="50" fill="#6B68E5"/>
<rect id="Rectangle 85" x="250" y="150" width="50" height="50" fill="#6B68E5"/>
<rect id="Rectangle 86" x="752" y="200" width="50" height="50" fill="#6B68E5"/>
<rect id="Rectangle 87" x="702" y="250" width="50" height="50" fill="#6B68E5"/>
<rect id="Rectangle 88" x="752" y="300" width="50" height="50" fill="#6B68E5"/>
<rect id="Rectangle 89" x="802" y="250" width="50" height="50" fill="#6B68E5"/>
<rect id="Rectangle 90" x="702" y="150" width="50" height="50" fill="#6B68E5"/>
<rect id="Rectangle 52" x="400" y="350" width="50" height="50" fill="black"/>
<rect id="Rectangle 54" x="450" y="300" width="50" height="50" fill="#6B68E5"/>
<rect id="Rectangle 56" x="500" y="200" width="50" height="50" fill="#6B68E5"/>
<rect id="Rectangle 83" x="600" y="350" width="50" height="50" fill="black"/>
<rect id="Rectangle 84" x="550" y="150" width="50" height="50" fill="#6B68E5"/>
<rect id="Rectangle 57" x="450" y="250" width="50" height="50" fill="#6B68E5"/>
<rect id="Rectangle 92" x="900" y="650" width="50" height="50" fill="#327C73"/>
<rect id="Rectangle 93" x="950" y="550" width="50" height="50" fill="#327C73"/>
<rect id="Rectangle 94" x="1000" y="500" width="50" height="50" fill="#327C73"/>
<rect id="Rectangle 95" x="900" y="600" width="50" height="50" fill="#327C73"/>
<rect id="Rectangle 58" x="652" y="401" width="50" height="50" fill="#B20404"/>
<rect id="Rectangle 91" x="850" y="401" width="50" height="50" fill="#B20404"/>
<path id="Line 27" d="M679.414 459.586C678.633 458.805 677.367 458.805 676.586 459.586L663.858 472.314C663.077 473.095 663.077 474.361 663.858 475.142C664.639 475.923 665.905 475.923 666.686 475.142L678 463.828L689.314 475.142C690.095 475.923 691.361 475.923 692.142 475.142C692.923 474.361 692.923 473.095 692.142 472.314L679.414 459.586ZM680 512L680 461L676 461L676 512L680 512Z" fill="#B30404"/>
<path id="query delimiter" d="M573.809 568.672H563.398V567.363C563.802 567.337 564.199 567.305 564.59 567.266C564.98 567.227 565.332 567.161 565.645 567.07C566.048 566.94 566.328 566.712 566.484 566.387C566.641 566.061 566.719 565.677 566.719 565.234V558.125L566.602 558.086C566.393 558.32 566.094 558.594 565.703 558.906C565.326 559.206 564.928 559.453 564.512 559.648C563.991 559.922 563.49 560.13 563.008 560.273C562.526 560.43 561.921 560.508 561.191 560.508C560.02 560.508 558.913 560.267 557.871 559.785C556.842 559.29 555.944 558.594 555.176 557.695C554.408 556.81 553.796 555.723 553.34 554.434C552.897 553.132 552.676 551.706 552.676 550.156C552.676 548.685 552.936 547.35 553.457 546.152C553.978 544.941 554.668 543.887 555.527 542.988C556.348 542.142 557.331 541.471 558.477 540.977C559.635 540.469 560.781 540.215 561.914 540.215C562.76 540.215 563.509 540.299 564.16 540.469C564.824 540.625 565.391 540.814 565.859 541.035C566.263 541.204 566.667 541.426 567.07 541.699C567.474 541.96 567.76 542.135 567.93 542.227L569.59 539.688L570.703 539.844C570.651 540.807 570.579 541.992 570.488 543.398C570.41 544.805 570.371 546.035 570.371 547.09V564.902C570.371 565.358 570.456 565.749 570.625 566.074C570.794 566.413 571.068 566.667 571.445 566.836C571.758 566.966 572.155 567.077 572.637 567.168C573.118 567.272 573.509 567.337 573.809 567.363V568.672ZM566.719 556.426V544.922C566.615 544.596 566.439 544.238 566.191 543.848C565.944 543.444 565.651 543.092 565.312 542.793C564.948 542.48 564.499 542.22 563.965 542.012C563.444 541.803 562.839 541.699 562.148 541.699C560.625 541.699 559.342 542.487 558.301 544.062C557.272 545.638 556.758 547.806 556.758 550.566C556.758 551.66 556.855 552.65 557.051 553.535C557.259 554.421 557.611 555.247 558.105 556.016C558.574 556.745 559.167 557.331 559.883 557.773C560.599 558.203 561.504 558.418 562.598 558.418C563.535 558.418 564.336 558.223 565 557.832C565.664 557.428 566.237 556.96 566.719 556.426ZM595.703 559.648L589.434 560.078L589.141 559.805V557.363H589.023C588.711 557.689 588.359 558.04 587.969 558.418C587.578 558.783 587.129 559.115 586.621 559.414C586.035 559.766 585.469 560.033 584.922 560.215C584.375 560.397 583.6 560.488 582.598 560.488C580.892 560.488 579.59 559.935 578.691 558.828C577.806 557.708 577.363 556.087 577.363 553.965V544.746C577.363 544.277 577.272 543.887 577.09 543.574C576.921 543.249 576.667 542.969 576.328 542.734C576.094 542.578 575.801 542.467 575.449 542.402C575.098 542.324 574.727 542.272 574.336 542.246V540.977L580.762 540.508L581.055 540.781V554.16C581.055 555.553 581.367 556.602 581.992 557.305C582.617 558.008 583.366 558.359 584.238 558.359C584.954 558.359 585.592 558.249 586.152 558.027C586.712 557.806 587.181 557.546 587.559 557.246C587.91 556.973 588.216 556.686 588.477 556.387C588.75 556.074 588.958 555.788 589.102 555.527V544.609C589.102 544.18 589.01 543.802 588.828 543.477C588.646 543.138 588.392 542.852 588.066 542.617C587.832 542.461 587.48 542.37 587.012 542.344C586.556 542.305 586.042 542.272 585.469 542.246V540.977L592.461 540.508L592.754 540.781V556.074C592.754 556.517 592.845 556.895 593.027 557.207C593.21 557.52 593.464 557.786 593.789 558.008C594.023 558.151 594.303 558.249 594.629 558.301C594.954 558.34 595.312 558.366 595.703 558.379V559.648ZM615.176 555.469C614.368 557.005 613.288 558.229 611.934 559.141C610.579 560.052 609.023 560.508 607.266 560.508C605.716 560.508 604.355 560.234 603.184 559.688C602.025 559.141 601.068 558.398 600.312 557.461C599.557 556.523 598.991 555.43 598.613 554.18C598.249 552.93 598.066 551.608 598.066 550.215C598.066 548.965 598.262 547.741 598.652 546.543C599.056 545.332 599.642 544.245 600.41 543.281C601.152 542.357 602.07 541.615 603.164 541.055C604.271 540.482 605.508 540.195 606.875 540.195C608.281 540.195 609.486 540.417 610.488 540.859C611.491 541.302 612.305 541.908 612.93 542.676C613.529 543.405 613.971 544.264 614.258 545.254C614.557 546.243 614.707 547.318 614.707 548.477V549.766H601.953C601.953 551.029 602.07 552.174 602.305 553.203C602.552 554.232 602.936 555.137 603.457 555.918C603.965 556.673 604.629 557.272 605.449 557.715C606.27 558.145 607.246 558.359 608.379 558.359C609.538 558.359 610.534 558.092 611.367 557.559C612.214 557.012 613.027 556.035 613.809 554.629L615.176 555.469ZM610.859 548.125C610.859 547.396 610.794 546.615 610.664 545.781C610.547 544.948 610.352 544.251 610.078 543.691C609.779 543.092 609.368 542.604 608.848 542.227C608.327 541.849 607.656 541.66 606.836 541.66C605.469 541.66 604.329 542.233 603.418 543.379C602.52 544.512 602.031 546.094 601.953 548.125H610.859ZM632.148 543.223C632.148 543.887 631.986 544.479 631.66 545C631.335 545.508 630.833 545.762 630.156 545.762C629.427 545.762 628.867 545.573 628.477 545.195C628.099 544.818 627.91 544.401 627.91 543.945C627.91 543.659 627.93 543.398 627.969 543.164C628.021 542.93 628.066 542.695 628.105 542.461C627.493 542.461 626.777 542.708 625.957 543.203C625.137 543.698 624.44 544.401 623.867 545.312V556.523C623.867 556.979 623.952 557.35 624.121 557.637C624.303 557.923 624.583 558.138 624.961 558.281C625.286 558.411 625.703 558.509 626.211 558.574C626.732 558.639 627.181 558.685 627.559 558.711V560H617.402V558.711C617.702 558.685 618.008 558.659 618.32 558.633C618.646 558.607 618.926 558.555 619.16 558.477C619.525 558.359 619.792 558.158 619.961 557.871C620.143 557.572 620.234 557.188 620.234 556.719V544.824C620.234 544.421 620.137 544.023 619.941 543.633C619.759 543.242 619.499 542.93 619.16 542.695C618.913 542.539 618.62 542.428 618.281 542.363C617.943 542.285 617.578 542.233 617.188 542.207V540.938L623.594 540.508L623.867 540.781V543.496H623.965C624.772 542.441 625.671 541.641 626.66 541.094C627.65 540.547 628.555 540.273 629.375 540.273C630.195 540.273 630.859 540.54 631.367 541.074C631.888 541.608 632.148 542.324 632.148 543.223ZM632.344 566.289C632.344 565.638 632.52 565.104 632.871 564.688C633.236 564.284 633.685 564.082 634.219 564.082C634.635 564.082 634.993 564.16 635.293 564.316C635.592 564.473 635.859 564.674 636.094 564.922C636.289 565.117 636.497 565.384 636.719 565.723C636.94 566.061 637.116 566.341 637.246 566.562C637.897 566.211 638.672 565.293 639.57 563.809C640.482 562.324 641.139 561.022 641.543 559.902C640.306 556.816 639.186 554.056 638.184 551.621C637.181 549.186 636.133 546.667 635.039 544.062C634.792 543.464 634.375 543.001 633.789 542.676C633.203 542.337 632.617 542.122 632.031 542.031V540.742H640.82V542.109C640.43 542.122 639.961 542.207 639.414 542.363C638.867 542.507 638.594 542.676 638.594 542.871C638.594 542.949 638.62 543.079 638.672 543.262C638.737 543.444 638.809 543.633 638.887 543.828C639.382 545.117 640.137 546.979 641.152 549.414C642.168 551.836 642.956 553.776 643.516 555.234C644.102 553.841 644.707 552.402 645.332 550.918C645.97 549.421 646.68 547.656 647.461 545.625C647.552 545.378 647.682 545.039 647.852 544.609C648.021 544.167 648.105 543.789 648.105 543.477C648.105 543.138 647.806 542.826 647.207 542.539C646.621 542.24 646.061 542.057 645.527 541.992V540.742H652.676V541.953C652.285 542.018 651.771 542.246 651.133 542.637C650.495 543.014 650.02 543.555 649.707 544.258C648.158 547.852 646.777 551.126 645.566 554.082C644.368 557.038 643.457 559.212 642.832 560.605C642.012 562.428 641.276 563.848 640.625 564.863C639.987 565.892 639.362 566.699 638.75 567.285C638.151 567.832 637.604 568.197 637.109 568.379C636.628 568.574 636.126 568.672 635.605 568.672C634.59 568.672 633.789 568.431 633.203 567.949C632.63 567.467 632.344 566.914 632.344 566.289ZM684.238 559.648L677.52 560.078L677.227 559.805V558.008L677.07 557.969C676.393 558.724 675.553 559.342 674.551 559.824C673.561 560.306 672.539 560.547 671.484 560.547C670.391 560.547 669.329 560.306 668.301 559.824C667.285 559.329 666.4 558.639 665.645 557.754C664.876 556.855 664.264 555.775 663.809 554.512C663.366 553.249 663.145 551.855 663.145 550.332C663.145 548.939 663.385 547.617 663.867 546.367C664.349 545.117 665.013 544.023 665.859 543.086C666.654 542.214 667.624 541.517 668.77 540.996C669.928 540.475 671.107 540.215 672.305 540.215C673.203 540.215 674.082 540.332 674.941 540.566C675.814 540.788 676.562 541.074 677.188 541.426V534.727C677.188 534.18 677.096 533.685 676.914 533.242C676.732 532.786 676.478 532.441 676.152 532.207C675.788 531.96 675.293 531.784 674.668 531.68C674.056 531.562 673.392 531.478 672.676 531.426V530.215L680.547 529.766L680.84 530.059V556.035C680.84 556.491 680.924 556.882 681.094 557.207C681.276 557.52 681.536 557.786 681.875 558.008C682.122 558.164 682.48 558.262 682.949 558.301C683.418 558.34 683.848 558.366 684.238 558.379V559.648ZM677.188 556.27V545C677.083 544.661 676.914 544.297 676.68 543.906C676.445 543.516 676.152 543.158 675.801 542.832C675.423 542.507 674.98 542.24 674.473 542.031C673.965 541.81 673.372 541.699 672.695 541.699C671.914 541.699 671.191 541.901 670.527 542.305C669.876 542.708 669.297 543.288 668.789 544.043C668.307 544.772 667.923 545.703 667.637 546.836C667.363 547.956 667.227 549.199 667.227 550.566C667.227 551.66 667.331 552.656 667.539 553.555C667.747 554.44 668.099 555.267 668.594 556.035C669.049 556.764 669.629 557.35 670.332 557.793C671.048 558.236 671.895 558.457 672.871 558.457C673.913 558.457 674.772 558.229 675.449 557.773C676.139 557.318 676.719 556.816 677.188 556.27ZM703.223 555.469C702.415 557.005 701.335 558.229 699.98 559.141C698.626 560.052 697.07 560.508 695.312 560.508C693.763 560.508 692.402 560.234 691.23 559.688C690.072 559.141 689.115 558.398 688.359 557.461C687.604 556.523 687.038 555.43 686.66 554.18C686.296 552.93 686.113 551.608 686.113 550.215C686.113 548.965 686.309 547.741 686.699 546.543C687.103 545.332 687.689 544.245 688.457 543.281C689.199 542.357 690.117 541.615 691.211 541.055C692.318 540.482 693.555 540.195 694.922 540.195C696.328 540.195 697.533 540.417 698.535 540.859C699.538 541.302 700.352 541.908 700.977 542.676C701.576 543.405 702.018 544.264 702.305 545.254C702.604 546.243 702.754 547.318 702.754 548.477V549.766H690C690 551.029 690.117 552.174 690.352 553.203C690.599 554.232 690.983 555.137 691.504 555.918C692.012 556.673 692.676 557.272 693.496 557.715C694.316 558.145 695.293 558.359 696.426 558.359C697.585 558.359 698.581 558.092 699.414 557.559C700.26 557.012 701.074 556.035 701.855 554.629L703.223 555.469ZM698.906 548.125C698.906 547.396 698.841 546.615 698.711 545.781C698.594 544.948 698.398 544.251 698.125 543.691C697.826 543.092 697.415 542.604 696.895 542.227C696.374 541.849 695.703 541.66 694.883 541.66C693.516 541.66 692.376 542.233 691.465 543.379C690.566 544.512 690.078 546.094 690 548.125H698.906ZM714.473 560H705.078V558.711C705.378 558.685 705.697 558.659 706.035 558.633C706.374 558.594 706.654 558.542 706.875 558.477C707.24 558.359 707.513 558.158 707.695 557.871C707.878 557.572 707.969 557.188 707.969 556.719V534.414C707.969 533.945 707.865 533.509 707.656 533.105C707.461 532.689 707.201 532.363 706.875 532.129C706.641 531.973 706.211 531.829 705.586 531.699C704.961 531.569 704.46 531.491 704.082 531.465V530.215L711.328 529.766L711.602 530.059V556.484C711.602 556.94 711.686 557.318 711.855 557.617C712.025 557.904 712.298 558.125 712.676 558.281C712.962 558.411 713.242 558.509 713.516 558.574C713.802 558.639 714.121 558.685 714.473 558.711V560ZM726.25 560H716.934V558.711C717.233 558.685 717.539 558.659 717.852 558.633C718.177 558.607 718.457 558.555 718.691 558.477C719.056 558.359 719.323 558.158 719.492 557.871C719.674 557.572 719.766 557.188 719.766 556.719V544.824C719.766 544.408 719.668 544.03 719.473 543.691C719.29 543.34 719.03 543.047 718.691 542.812C718.444 542.656 718.086 542.526 717.617 542.422C717.148 542.305 716.719 542.233 716.328 542.207V540.938L723.125 540.508L723.398 540.781V556.484C723.398 556.94 723.483 557.318 723.652 557.617C723.835 557.917 724.115 558.138 724.492 558.281C724.779 558.398 725.059 558.496 725.332 558.574C725.605 558.639 725.911 558.685 726.25 558.711V560ZM723.789 532.91C723.789 533.652 723.542 534.303 723.047 534.863C722.565 535.41 721.966 535.684 721.25 535.684C720.586 535.684 720.007 535.423 719.512 534.902C719.03 534.368 718.789 533.763 718.789 533.086C718.789 532.37 719.03 531.745 719.512 531.211C720.007 530.677 720.586 530.41 721.25 530.41C721.992 530.41 722.598 530.664 723.066 531.172C723.548 531.667 723.789 532.246 723.789 532.91ZM761.602 560H752.207V558.711C752.507 558.685 752.806 558.659 753.105 558.633C753.418 558.607 753.691 558.555 753.926 558.477C754.29 558.359 754.557 558.158 754.727 557.871C754.909 557.572 755 557.188 755 556.719V546.777C755 545.423 754.688 544.382 754.062 543.652C753.451 542.91 752.682 542.539 751.758 542.539C751.12 542.539 750.521 542.637 749.961 542.832C749.401 543.027 748.887 543.301 748.418 543.652C748.04 543.939 747.721 544.251 747.461 544.59C747.214 544.915 747.025 545.189 746.895 545.41V556.523C746.895 556.979 746.973 557.357 747.129 557.656C747.285 557.943 747.552 558.164 747.93 558.32C748.229 558.438 748.496 558.529 748.73 558.594C748.978 558.646 749.297 558.685 749.688 558.711V560H740.488V558.711C740.788 558.685 741.074 558.659 741.348 558.633C741.634 558.607 741.895 558.555 742.129 558.477C742.493 558.359 742.76 558.158 742.93 557.871C743.112 557.572 743.203 557.188 743.203 556.719V546.777C743.203 545.423 742.891 544.382 742.266 543.652C741.654 542.91 740.885 542.539 739.961 542.539C739.323 542.539 738.724 542.643 738.164 542.852C737.604 543.047 737.09 543.32 736.621 543.672C736.243 543.958 735.924 544.284 735.664 544.648C735.404 545 735.208 545.267 735.078 545.449V556.484C735.078 556.927 735.169 557.298 735.352 557.598C735.534 557.897 735.807 558.125 736.172 558.281C736.445 558.411 736.725 558.509 737.012 558.574C737.298 558.639 737.617 558.685 737.969 558.711V560H728.613V558.711C728.913 558.685 729.219 558.659 729.531 558.633C729.857 558.607 730.137 558.555 730.371 558.477C730.736 558.359 731.003 558.158 731.172 557.871C731.354 557.572 731.445 557.188 731.445 556.719V544.746C731.445 544.329 731.348 543.958 731.152 543.633C730.97 543.294 730.71 543.008 730.371 542.773C730.124 542.617 729.818 542.493 729.453 542.402C729.089 542.298 728.711 542.233 728.32 542.207V540.938L734.766 540.508L735.039 540.781V543.535H735.176C735.501 543.21 735.898 542.826 736.367 542.383C736.836 541.94 737.272 541.582 737.676 541.309C738.132 540.996 738.698 540.736 739.375 540.527C740.065 540.319 740.807 540.215 741.602 540.215C742.852 540.215 743.926 540.553 744.824 541.23C745.723 541.895 746.367 542.702 746.758 543.652C747.227 543.197 747.637 542.799 747.988 542.461C748.353 542.109 748.828 541.738 749.414 541.348C749.909 541.009 750.488 540.736 751.152 540.527C751.829 540.319 752.578 540.215 753.398 540.215C755.026 540.215 756.315 540.749 757.266 541.816C758.216 542.884 758.691 544.525 758.691 546.738V556.523C758.691 556.979 758.77 557.357 758.926 557.656C759.082 557.943 759.349 558.164 759.727 558.32C760.026 558.438 760.319 558.529 760.605 558.594C760.905 558.646 761.237 558.685 761.602 558.711V560ZM773.203 560H763.887V558.711C764.186 558.685 764.492 558.659 764.805 558.633C765.13 558.607 765.41 558.555 765.645 558.477C766.009 558.359 766.276 558.158 766.445 557.871C766.628 557.572 766.719 557.188 766.719 556.719V544.824C766.719 544.408 766.621 544.03 766.426 543.691C766.243 543.34 765.983 543.047 765.645 542.812C765.397 542.656 765.039 542.526 764.57 542.422C764.102 542.305 763.672 542.233 763.281 542.207V540.938L770.078 540.508L770.352 540.781V556.484C770.352 556.94 770.436 557.318 770.605 557.617C770.788 557.917 771.068 558.138 771.445 558.281C771.732 558.398 772.012 558.496 772.285 558.574C772.559 558.639 772.865 558.685 773.203 558.711V560ZM770.742 532.91C770.742 533.652 770.495 534.303 770 534.863C769.518 535.41 768.919 535.684 768.203 535.684C767.539 535.684 766.96 535.423 766.465 534.902C765.983 534.368 765.742 533.763 765.742 533.086C765.742 532.37 765.983 531.745 766.465 531.211C766.96 530.677 767.539 530.41 768.203 530.41C768.945 530.41 769.551 530.664 770.02 531.172C770.501 531.667 770.742 532.246 770.742 532.91ZM787.461 559.16C786.615 559.512 785.814 559.805 785.059 560.039C784.303 560.286 783.379 560.41 782.285 560.41C780.671 560.41 779.531 560.007 778.867 559.199C778.216 558.379 777.891 557.227 777.891 555.742V542.695H774.414V540.82H777.969V534.824H781.523V540.82H787.051V542.695H781.562V553.457C781.562 554.264 781.589 554.941 781.641 555.488C781.706 556.022 781.849 556.491 782.07 556.895C782.279 557.272 782.591 557.559 783.008 557.754C783.424 557.949 783.984 558.047 784.688 558.047C785.013 558.047 785.488 558.021 786.113 557.969C786.751 557.904 787.201 557.826 787.461 557.734V559.16ZM806.504 555.469C805.697 557.005 804.616 558.229 803.262 559.141C801.908 560.052 800.352 560.508 798.594 560.508C797.044 560.508 795.684 560.234 794.512 559.688C793.353 559.141 792.396 558.398 791.641 557.461C790.885 556.523 790.319 555.43 789.941 554.18C789.577 552.93 789.395 551.608 789.395 550.215C789.395 548.965 789.59 547.741 789.98 546.543C790.384 545.332 790.97 544.245 791.738 543.281C792.48 542.357 793.398 541.615 794.492 541.055C795.599 540.482 796.836 540.195 798.203 540.195C799.609 540.195 800.814 540.417 801.816 540.859C802.819 541.302 803.633 541.908 804.258 542.676C804.857 543.405 805.299 544.264 805.586 545.254C805.885 546.243 806.035 547.318 806.035 548.477V549.766H793.281C793.281 551.029 793.398 552.174 793.633 553.203C793.88 554.232 794.264 555.137 794.785 555.918C795.293 556.673 795.957 557.272 796.777 557.715C797.598 558.145 798.574 558.359 799.707 558.359C800.866 558.359 801.862 558.092 802.695 557.559C803.542 557.012 804.355 556.035 805.137 554.629L806.504 555.469ZM802.188 548.125C802.188 547.396 802.122 546.615 801.992 545.781C801.875 544.948 801.68 544.251 801.406 543.691C801.107 543.092 800.697 542.604 800.176 542.227C799.655 541.849 798.984 541.66 798.164 541.66C796.797 541.66 795.658 542.233 794.746 543.379C793.848 544.512 793.359 546.094 793.281 548.125H802.188ZM823.477 543.223C823.477 543.887 823.314 544.479 822.988 545C822.663 545.508 822.161 545.762 821.484 545.762C820.755 545.762 820.195 545.573 819.805 545.195C819.427 544.818 819.238 544.401 819.238 543.945C819.238 543.659 819.258 543.398 819.297 543.164C819.349 542.93 819.395 542.695 819.434 542.461C818.822 542.461 818.105 542.708 817.285 543.203C816.465 543.698 815.768 544.401 815.195 545.312V556.523C815.195 556.979 815.28 557.35 815.449 557.637C815.632 557.923 815.911 558.138 816.289 558.281C816.615 558.411 817.031 558.509 817.539 558.574C818.06 558.639 818.509 558.685 818.887 558.711V560H808.73V558.711C809.03 558.685 809.336 558.659 809.648 558.633C809.974 558.607 810.254 558.555 810.488 558.477C810.853 558.359 811.12 558.158 811.289 557.871C811.471 557.572 811.562 557.188 811.562 556.719V544.824C811.562 544.421 811.465 544.023 811.27 543.633C811.087 543.242 810.827 542.93 810.488 542.695C810.241 542.539 809.948 542.428 809.609 542.363C809.271 542.285 808.906 542.233 808.516 542.207V540.938L814.922 540.508L815.195 540.781V543.496H815.293C816.1 542.441 816.999 541.641 817.988 541.094C818.978 540.547 819.883 540.273 820.703 540.273C821.523 540.273 822.188 540.54 822.695 541.074C823.216 541.608 823.477 542.324 823.477 543.223Z" fill="#B20404"/>
<path id="Line 30" d="M223.586 334.414C224.367 335.195 225.633 335.195 226.414 334.414L239.142 321.686C239.923 320.905 239.923 319.639 239.142 318.858C238.361 318.077 237.095 318.077 236.314 318.858L225 330.172L213.686 318.858C212.905 318.077 211.639 318.077 210.858 318.858C210.077 319.639 210.077 320.905 210.858 321.686L223.586 334.414ZM223 79L223 333L227 333L227 79L223 79Z" fill="black"/>
<path id="item delimiter" d="M109.383 58H100.066V56.7109C100.366 56.6849 100.672 56.6589 100.984 56.6328C101.31 56.6068 101.59 56.5547 101.824 56.4766C102.189 56.3594 102.456 56.1576 102.625 55.8711C102.807 55.5716 102.898 55.1875 102.898 54.7188V42.8242C102.898 42.4076 102.801 42.0299 102.605 41.6914C102.423 41.3398 102.163 41.0469 101.824 40.8125C101.577 40.6562 101.219 40.526 100.75 40.4219C100.281 40.3047 99.8516 40.2331 99.4609 40.207V38.9375L106.258 38.5078L106.531 38.7812V54.4844C106.531 54.9401 106.616 55.3177 106.785 55.6172C106.967 55.9167 107.247 56.138 107.625 56.2812C107.911 56.3984 108.191 56.4961 108.465 56.5742C108.738 56.6393 109.044 56.6849 109.383 56.7109V58ZM106.922 30.9102C106.922 31.6523 106.674 32.3034 106.18 32.8633C105.698 33.4102 105.099 33.6836 104.383 33.6836C103.719 33.6836 103.139 33.4232 102.645 32.9023C102.163 32.3685 101.922 31.763 101.922 31.0859C101.922 30.3698 102.163 29.7448 102.645 29.2109C103.139 28.6771 103.719 28.4102 104.383 28.4102C105.125 28.4102 105.73 28.6641 106.199 29.1719C106.681 29.6667 106.922 30.2461 106.922 30.9102ZM123.641 57.1602C122.794 57.5117 121.993 57.8047 121.238 58.0391C120.483 58.2865 119.559 58.4102 118.465 58.4102C116.85 58.4102 115.711 58.0065 115.047 57.1992C114.396 56.3789 114.07 55.2266 114.07 53.7422V40.6953H110.594V38.8203H114.148V32.8242H117.703V38.8203H123.23V40.6953H117.742V51.457C117.742 52.2643 117.768 52.9414 117.82 53.4883C117.885 54.0221 118.029 54.4909 118.25 54.8945C118.458 55.2721 118.771 55.5586 119.188 55.7539C119.604 55.9492 120.164 56.0469 120.867 56.0469C121.193 56.0469 121.668 56.0208 122.293 55.9688C122.931 55.9036 123.38 55.8255 123.641 55.7344V57.1602ZM142.684 53.4688C141.876 55.0052 140.796 56.2292 139.441 57.1406C138.087 58.0521 136.531 58.5078 134.773 58.5078C133.224 58.5078 131.863 58.2344 130.691 57.6875C129.533 57.1406 128.576 56.3984 127.82 55.4609C127.065 54.5234 126.499 53.4297 126.121 52.1797C125.757 50.9297 125.574 49.6081 125.574 48.2148C125.574 46.9648 125.77 45.7409 126.16 44.543C126.564 43.332 127.15 42.2448 127.918 41.2812C128.66 40.3568 129.578 39.6146 130.672 39.0547C131.779 38.4818 133.016 38.1953 134.383 38.1953C135.789 38.1953 136.993 38.4167 137.996 38.8594C138.999 39.3021 139.812 39.9076 140.438 40.6758C141.036 41.4049 141.479 42.2643 141.766 43.2539C142.065 44.2435 142.215 45.3177 142.215 46.4766V47.7656H129.461C129.461 49.0286 129.578 50.1745 129.812 51.2031C130.06 52.2318 130.444 53.1367 130.965 53.918C131.473 54.6732 132.137 55.2721 132.957 55.7148C133.777 56.1445 134.754 56.3594 135.887 56.3594C137.046 56.3594 138.042 56.0924 138.875 55.5586C139.721 55.0117 140.535 54.0352 141.316 52.6289L142.684 53.4688ZM138.367 46.125C138.367 45.3958 138.302 44.6146 138.172 43.7812C138.055 42.9479 137.859 42.2513 137.586 41.6914C137.286 41.0924 136.876 40.6042 136.355 40.2266C135.835 39.849 135.164 39.6602 134.344 39.6602C132.977 39.6602 131.837 40.2331 130.926 41.3789C130.027 42.5117 129.539 44.0938 129.461 46.125H138.367ZM177.898 58H168.504V56.7109C168.803 56.6849 169.103 56.6589 169.402 56.6328C169.715 56.6068 169.988 56.5547 170.223 56.4766C170.587 56.3594 170.854 56.1576 171.023 55.8711C171.206 55.5716 171.297 55.1875 171.297 54.7188V44.7773C171.297 43.4232 170.984 42.3815 170.359 41.6523C169.747 40.9102 168.979 40.5391 168.055 40.5391C167.417 40.5391 166.818 40.6367 166.258 40.832C165.698 41.0273 165.184 41.3008 164.715 41.6523C164.337 41.9388 164.018 42.2513 163.758 42.5898C163.51 42.9154 163.322 43.1888 163.191 43.4102V54.5234C163.191 54.9792 163.27 55.3568 163.426 55.6562C163.582 55.9427 163.849 56.1641 164.227 56.3203C164.526 56.4375 164.793 56.5286 165.027 56.5938C165.275 56.6458 165.594 56.6849 165.984 56.7109V58H156.785V56.7109C157.085 56.6849 157.371 56.6589 157.645 56.6328C157.931 56.6068 158.191 56.5547 158.426 56.4766C158.79 56.3594 159.057 56.1576 159.227 55.8711C159.409 55.5716 159.5 55.1875 159.5 54.7188V44.7773C159.5 43.4232 159.188 42.3815 158.562 41.6523C157.951 40.9102 157.182 40.5391 156.258 40.5391C155.62 40.5391 155.021 40.6432 154.461 40.8516C153.901 41.0469 153.387 41.3203 152.918 41.6719C152.54 41.9583 152.221 42.2839 151.961 42.6484C151.701 43 151.505 43.2669 151.375 43.4492V54.4844C151.375 54.9271 151.466 55.2982 151.648 55.5977C151.831 55.8971 152.104 56.125 152.469 56.2812C152.742 56.4115 153.022 56.5091 153.309 56.5742C153.595 56.6393 153.914 56.6849 154.266 56.7109V58H144.91V56.7109C145.21 56.6849 145.516 56.6589 145.828 56.6328C146.154 56.6068 146.434 56.5547 146.668 56.4766C147.033 56.3594 147.299 56.1576 147.469 55.8711C147.651 55.5716 147.742 55.1875 147.742 54.7188V42.7461C147.742 42.3294 147.645 41.9583 147.449 41.6328C147.267 41.2943 147.007 41.0078 146.668 40.7734C146.421 40.6172 146.115 40.4935 145.75 40.4023C145.385 40.2982 145.008 40.2331 144.617 40.207V38.9375L151.062 38.5078L151.336 38.7812V41.5352H151.473C151.798 41.2096 152.195 40.8255 152.664 40.3828C153.133 39.9401 153.569 39.582 153.973 39.3086C154.428 38.9961 154.995 38.7357 155.672 38.5273C156.362 38.319 157.104 38.2148 157.898 38.2148C159.148 38.2148 160.223 38.5534 161.121 39.2305C162.02 39.8945 162.664 40.7018 163.055 41.6523C163.523 41.1966 163.934 40.7995 164.285 40.4609C164.65 40.1094 165.125 39.7383 165.711 39.3477C166.206 39.0091 166.785 38.7357 167.449 38.5273C168.126 38.319 168.875 38.2148 169.695 38.2148C171.323 38.2148 172.612 38.7487 173.562 39.8164C174.513 40.8841 174.988 42.5247 174.988 44.7383V54.5234C174.988 54.9792 175.066 55.3568 175.223 55.6562C175.379 55.9427 175.646 56.1641 176.023 56.3203C176.323 56.4375 176.616 56.5286 176.902 56.5938C177.202 56.6458 177.534 56.6849 177.898 56.7109V58ZM210.887 57.6484L204.168 58.0781L203.875 57.8047V56.0078L203.719 55.9688C203.042 56.724 202.202 57.3424 201.199 57.8242C200.21 58.306 199.188 58.5469 198.133 58.5469C197.039 58.5469 195.978 58.306 194.949 57.8242C193.934 57.3294 193.048 56.6393 192.293 55.7539C191.525 54.8555 190.913 53.7747 190.457 52.5117C190.014 51.2487 189.793 49.8555 189.793 48.332C189.793 46.9388 190.034 45.6172 190.516 44.3672C190.997 43.1172 191.661 42.0234 192.508 41.0859C193.302 40.2135 194.272 39.5169 195.418 38.9961C196.577 38.4753 197.755 38.2148 198.953 38.2148C199.852 38.2148 200.73 38.332 201.59 38.5664C202.462 38.7878 203.211 39.0742 203.836 39.4258V32.7266C203.836 32.1797 203.745 31.6849 203.562 31.2422C203.38 30.7865 203.126 30.4414 202.801 30.207C202.436 29.9596 201.941 29.7839 201.316 29.6797C200.704 29.5625 200.04 29.4779 199.324 29.4258V28.2148L207.195 27.7656L207.488 28.0586V54.0352C207.488 54.4909 207.573 54.8815 207.742 55.207C207.924 55.5195 208.185 55.7865 208.523 56.0078C208.771 56.1641 209.129 56.2617 209.598 56.3008C210.066 56.3398 210.496 56.3659 210.887 56.3789V57.6484ZM203.836 54.2695V43C203.732 42.6615 203.562 42.2969 203.328 41.9062C203.094 41.5156 202.801 41.1576 202.449 40.832C202.072 40.5065 201.629 40.2396 201.121 40.0312C200.613 39.8099 200.021 39.6992 199.344 39.6992C198.562 39.6992 197.84 39.901 197.176 40.3047C196.525 40.7083 195.945 41.2878 195.438 42.043C194.956 42.7721 194.572 43.7031 194.285 44.8359C194.012 45.9557 193.875 47.1992 193.875 48.5664C193.875 49.6602 193.979 50.6562 194.188 51.5547C194.396 52.4401 194.747 53.2669 195.242 54.0352C195.698 54.7643 196.277 55.3503 196.98 55.793C197.697 56.2357 198.543 56.457 199.52 56.457C200.561 56.457 201.421 56.2292 202.098 55.7734C202.788 55.3177 203.367 54.8164 203.836 54.2695ZM229.871 53.4688C229.064 55.0052 227.983 56.2292 226.629 57.1406C225.275 58.0521 223.719 58.5078 221.961 58.5078C220.411 58.5078 219.051 58.2344 217.879 57.6875C216.72 57.1406 215.763 56.3984 215.008 55.4609C214.253 54.5234 213.686 53.4297 213.309 52.1797C212.944 50.9297 212.762 49.6081 212.762 48.2148C212.762 46.9648 212.957 45.7409 213.348 44.543C213.751 43.332 214.337 42.2448 215.105 41.2812C215.848 40.3568 216.766 39.6146 217.859 39.0547C218.966 38.4818 220.203 38.1953 221.57 38.1953C222.977 38.1953 224.181 38.4167 225.184 38.8594C226.186 39.3021 227 39.9076 227.625 40.6758C228.224 41.4049 228.667 42.2643 228.953 43.2539C229.253 44.2435 229.402 45.3177 229.402 46.4766V47.7656H216.648C216.648 49.0286 216.766 50.1745 217 51.2031C217.247 52.2318 217.632 53.1367 218.152 53.918C218.66 54.6732 219.324 55.2721 220.145 55.7148C220.965 56.1445 221.941 56.3594 223.074 56.3594C224.233 56.3594 225.229 56.0924 226.062 55.5586C226.909 55.0117 227.723 54.0352 228.504 52.6289L229.871 53.4688ZM225.555 46.125C225.555 45.3958 225.49 44.6146 225.359 43.7812C225.242 42.9479 225.047 42.2513 224.773 41.6914C224.474 41.0924 224.064 40.6042 223.543 40.2266C223.022 39.849 222.352 39.6602 221.531 39.6602C220.164 39.6602 219.025 40.2331 218.113 41.3789C217.215 42.5117 216.727 44.0938 216.648 46.125H225.555ZM241.121 58H231.727V56.7109C232.026 56.6849 232.345 56.6589 232.684 56.6328C233.022 56.5938 233.302 56.5417 233.523 56.4766C233.888 56.3594 234.161 56.1576 234.344 55.8711C234.526 55.5716 234.617 55.1875 234.617 54.7188V32.4141C234.617 31.9453 234.513 31.5091 234.305 31.1055C234.109 30.6888 233.849 30.3633 233.523 30.1289C233.289 29.9727 232.859 29.8294 232.234 29.6992C231.609 29.569 231.108 29.4909 230.73 29.4648V28.2148L237.977 27.7656L238.25 28.0586V54.4844C238.25 54.9401 238.335 55.3177 238.504 55.6172C238.673 55.9036 238.947 56.125 239.324 56.2812C239.611 56.4115 239.891 56.5091 240.164 56.5742C240.451 56.6393 240.77 56.6849 241.121 56.7109V58ZM252.898 58H243.582V56.7109C243.882 56.6849 244.188 56.6589 244.5 56.6328C244.826 56.6068 245.105 56.5547 245.34 56.4766C245.704 56.3594 245.971 56.1576 246.141 55.8711C246.323 55.5716 246.414 55.1875 246.414 54.7188V42.8242C246.414 42.4076 246.316 42.0299 246.121 41.6914C245.939 41.3398 245.678 41.0469 245.34 40.8125C245.092 40.6562 244.734 40.526 244.266 40.4219C243.797 40.3047 243.367 40.2331 242.977 40.207V38.9375L249.773 38.5078L250.047 38.7812V54.4844C250.047 54.9401 250.132 55.3177 250.301 55.6172C250.483 55.9167 250.763 56.138 251.141 56.2812C251.427 56.3984 251.707 56.4961 251.98 56.5742C252.254 56.6393 252.56 56.6849 252.898 56.7109V58ZM250.438 30.9102C250.438 31.6523 250.19 32.3034 249.695 32.8633C249.214 33.4102 248.615 33.6836 247.898 33.6836C247.234 33.6836 246.655 33.4232 246.16 32.9023C245.678 32.3685 245.438 31.763 245.438 31.0859C245.438 30.3698 245.678 29.7448 246.16 29.2109C246.655 28.6771 247.234 28.4102 247.898 28.4102C248.641 28.4102 249.246 28.6641 249.715 29.1719C250.197 29.6667 250.438 30.2461 250.438 30.9102ZM288.25 58H278.855V56.7109C279.155 56.6849 279.454 56.6589 279.754 56.6328C280.066 56.6068 280.34 56.5547 280.574 56.4766C280.939 56.3594 281.206 56.1576 281.375 55.8711C281.557 55.5716 281.648 55.1875 281.648 54.7188V44.7773C281.648 43.4232 281.336 42.3815 280.711 41.6523C280.099 40.9102 279.331 40.5391 278.406 40.5391C277.768 40.5391 277.169 40.6367 276.609 40.832C276.049 41.0273 275.535 41.3008 275.066 41.6523C274.689 41.9388 274.37 42.2513 274.109 42.5898C273.862 42.9154 273.673 43.1888 273.543 43.4102V54.5234C273.543 54.9792 273.621 55.3568 273.777 55.6562C273.934 55.9427 274.201 56.1641 274.578 56.3203C274.878 56.4375 275.145 56.5286 275.379 56.5938C275.626 56.6458 275.945 56.6849 276.336 56.7109V58H267.137V56.7109C267.436 56.6849 267.723 56.6589 267.996 56.6328C268.283 56.6068 268.543 56.5547 268.777 56.4766C269.142 56.3594 269.409 56.1576 269.578 55.8711C269.76 55.5716 269.852 55.1875 269.852 54.7188V44.7773C269.852 43.4232 269.539 42.3815 268.914 41.6523C268.302 40.9102 267.534 40.5391 266.609 40.5391C265.971 40.5391 265.372 40.6432 264.812 40.8516C264.253 41.0469 263.738 41.3203 263.27 41.6719C262.892 41.9583 262.573 42.2839 262.312 42.6484C262.052 43 261.857 43.2669 261.727 43.4492V54.4844C261.727 54.9271 261.818 55.2982 262 55.5977C262.182 55.8971 262.456 56.125 262.82 56.2812C263.094 56.4115 263.374 56.5091 263.66 56.5742C263.947 56.6393 264.266 56.6849 264.617 56.7109V58H255.262V56.7109C255.561 56.6849 255.867 56.6589 256.18 56.6328C256.505 56.6068 256.785 56.5547 257.02 56.4766C257.384 56.3594 257.651 56.1576 257.82 55.8711C258.003 55.5716 258.094 55.1875 258.094 54.7188V42.7461C258.094 42.3294 257.996 41.9583 257.801 41.6328C257.618 41.2943 257.358 41.0078 257.02 40.7734C256.772 40.6172 256.466 40.4935 256.102 40.4023C255.737 40.2982 255.359 40.2331 254.969 40.207V38.9375L261.414 38.5078L261.688 38.7812V41.5352H261.824C262.15 41.2096 262.547 40.8255 263.016 40.3828C263.484 39.9401 263.921 39.582 264.324 39.3086C264.78 38.9961 265.346 38.7357 266.023 38.5273C266.714 38.319 267.456 38.2148 268.25 38.2148C269.5 38.2148 270.574 38.5534 271.473 39.2305C272.371 39.8945 273.016 40.7018 273.406 41.6523C273.875 41.1966 274.285 40.7995 274.637 40.4609C275.001 40.1094 275.477 39.7383 276.062 39.3477C276.557 39.0091 277.137 38.7357 277.801 38.5273C278.478 38.319 279.227 38.2148 280.047 38.2148C281.674 38.2148 282.964 38.7487 283.914 39.8164C284.865 40.8841 285.34 42.5247 285.34 44.7383V54.5234C285.34 54.9792 285.418 55.3568 285.574 55.6562C285.73 55.9427 285.997 56.1641 286.375 56.3203C286.674 56.4375 286.967 56.5286 287.254 56.5938C287.553 56.6458 287.885 56.6849 288.25 56.7109V58ZM299.852 58H290.535V56.7109C290.835 56.6849 291.141 56.6589 291.453 56.6328C291.779 56.6068 292.059 56.5547 292.293 56.4766C292.658 56.3594 292.924 56.1576 293.094 55.8711C293.276 55.5716 293.367 55.1875 293.367 54.7188V42.8242C293.367 42.4076 293.27 42.0299 293.074 41.6914C292.892 41.3398 292.632 41.0469 292.293 40.8125C292.046 40.6562 291.688 40.526 291.219 40.4219C290.75 40.3047 290.32 40.2331 289.93 40.207V38.9375L296.727 38.5078L297 38.7812V54.4844C297 54.9401 297.085 55.3177 297.254 55.6172C297.436 55.9167 297.716 56.138 298.094 56.2812C298.38 56.3984 298.66 56.4961 298.934 56.5742C299.207 56.6393 299.513 56.6849 299.852 56.7109V58ZM297.391 30.9102C297.391 31.6523 297.143 32.3034 296.648 32.8633C296.167 33.4102 295.568 33.6836 294.852 33.6836C294.188 33.6836 293.608 33.4232 293.113 32.9023C292.632 32.3685 292.391 31.763 292.391 31.0859C292.391 30.3698 292.632 29.7448 293.113 29.2109C293.608 28.6771 294.188 28.4102 294.852 28.4102C295.594 28.4102 296.199 28.6641 296.668 29.1719C297.15 29.6667 297.391 30.2461 297.391 30.9102ZM314.109 57.1602C313.263 57.5117 312.462 57.8047 311.707 58.0391C310.952 58.2865 310.027 58.4102 308.934 58.4102C307.319 58.4102 306.18 58.0065 305.516 57.1992C304.865 56.3789 304.539 55.2266 304.539 53.7422V40.6953H301.062V38.8203H304.617V32.8242H308.172V38.8203H313.699V40.6953H308.211V51.457C308.211 52.2643 308.237 52.9414 308.289 53.4883C308.354 54.0221 308.497 54.4909 308.719 54.8945C308.927 55.2721 309.24 55.5586 309.656 55.7539C310.073 55.9492 310.633 56.0469 311.336 56.0469C311.661 56.0469 312.137 56.0208 312.762 55.9688C313.4 55.9036 313.849 55.8255 314.109 55.7344V57.1602ZM333.152 53.4688C332.345 55.0052 331.264 56.2292 329.91 57.1406C328.556 58.0521 327 58.5078 325.242 58.5078C323.693 58.5078 322.332 58.2344 321.16 57.6875C320.001 57.1406 319.044 56.3984 318.289 55.4609C317.534 54.5234 316.967 53.4297 316.59 52.1797C316.225 50.9297 316.043 49.6081 316.043 48.2148C316.043 46.9648 316.238 45.7409 316.629 44.543C317.033 43.332 317.618 42.2448 318.387 41.2812C319.129 40.3568 320.047 39.6146 321.141 39.0547C322.247 38.4818 323.484 38.1953 324.852 38.1953C326.258 38.1953 327.462 38.4167 328.465 38.8594C329.467 39.3021 330.281 39.9076 330.906 40.6758C331.505 41.4049 331.948 42.2643 332.234 43.2539C332.534 44.2435 332.684 45.3177 332.684 46.4766V47.7656H319.93C319.93 49.0286 320.047 50.1745 320.281 51.2031C320.529 52.2318 320.913 53.1367 321.434 53.918C321.941 54.6732 322.605 55.2721 323.426 55.7148C324.246 56.1445 325.223 56.3594 326.355 56.3594C327.514 56.3594 328.51 56.0924 329.344 55.5586C330.19 55.0117 331.004 54.0352 331.785 52.6289L333.152 53.4688ZM328.836 46.125C328.836 45.3958 328.771 44.6146 328.641 43.7812C328.523 42.9479 328.328 42.2513 328.055 41.6914C327.755 41.0924 327.345 40.6042 326.824 40.2266C326.303 39.849 325.633 39.6602 324.812 39.6602C323.445 39.6602 322.306 40.2331 321.395 41.3789C320.496 42.5117 320.008 44.0938 319.93 46.125H328.836ZM350.125 41.2227C350.125 41.8867 349.962 42.4792 349.637 43C349.311 43.5078 348.81 43.7617 348.133 43.7617C347.404 43.7617 346.844 43.5729 346.453 43.1953C346.076 42.8177 345.887 42.401 345.887 41.9453C345.887 41.6589 345.906 41.3984 345.945 41.1641C345.997 40.9297 346.043 40.6953 346.082 40.4609C345.47 40.4609 344.754 40.7083 343.934 41.2031C343.113 41.6979 342.417 42.401 341.844 43.3125V54.5234C341.844 54.9792 341.928 55.3503 342.098 55.6367C342.28 55.9232 342.56 56.138 342.938 56.2812C343.263 56.4115 343.68 56.5091 344.188 56.5742C344.708 56.6393 345.158 56.6849 345.535 56.7109V58H335.379V56.7109C335.678 56.6849 335.984 56.6589 336.297 56.6328C336.622 56.6068 336.902 56.5547 337.137 56.4766C337.501 56.3594 337.768 56.1576 337.938 55.8711C338.12 55.5716 338.211 55.1875 338.211 54.7188V42.8242C338.211 42.4206 338.113 42.0234 337.918 41.6328C337.736 41.2422 337.475 40.9297 337.137 40.6953C336.889 40.5391 336.596 40.4284 336.258 40.3633C335.919 40.2852 335.555 40.2331 335.164 40.207V38.9375L341.57 38.5078L341.844 38.7812V41.4961H341.941C342.749 40.4414 343.647 39.6406 344.637 39.0938C345.626 38.5469 346.531 38.2734 347.352 38.2734C348.172 38.2734 348.836 38.5404 349.344 39.0742C349.865 39.6081 350.125 40.3242 350.125 41.2227Z" fill="black"/>
<path id="Line 28" d="M523.586 130.414C524.367 131.195 525.633 131.195 526.414 130.414L539.142 117.686C539.923 116.905 539.923 115.639 539.142 114.858C538.361 114.077 537.095 114.077 536.314 114.858L525 126.172L513.686 114.858C512.905 114.077 511.639 114.077 510.858 114.858C510.077 115.639 510.077 116.905 510.858 117.686L523.586 130.414ZM523 79L523 129L527 129L527 79L523 79Z" fill="#6B68E5"/>
<path id="item" d="M495.203 58H485.887V56.7109C486.186 56.6849 486.492 56.6589 486.805 56.6328C487.13 56.6068 487.41 56.5547 487.645 56.4766C488.009 56.3594 488.276 56.1576 488.445 55.8711C488.628 55.5716 488.719 55.1875 488.719 54.7188V42.8242C488.719 42.4076 488.621 42.0299 488.426 41.6914C488.243 41.3398 487.983 41.0469 487.645 40.8125C487.397 40.6562 487.039 40.526 486.57 40.4219C486.102 40.3047 485.672 40.2331 485.281 40.207V38.9375L492.078 38.5078L492.352 38.7812V54.4844C492.352 54.9401 492.436 55.3177 492.605 55.6172C492.788 55.9167 493.068 56.138 493.445 56.2812C493.732 56.3984 494.012 56.4961 494.285 56.5742C494.559 56.6393 494.865 56.6849 495.203 56.7109V58ZM492.742 30.9102C492.742 31.6523 492.495 32.3034 492 32.8633C491.518 33.4102 490.919 33.6836 490.203 33.6836C489.539 33.6836 488.96 33.4232 488.465 32.9023C487.983 32.3685 487.742 31.763 487.742 31.0859C487.742 30.3698 487.983 29.7448 488.465 29.2109C488.96 28.6771 489.539 28.4102 490.203 28.4102C490.945 28.4102 491.551 28.6641 492.02 29.1719C492.501 29.6667 492.742 30.2461 492.742 30.9102ZM509.461 57.1602C508.615 57.5117 507.814 57.8047 507.059 58.0391C506.303 58.2865 505.379 58.4102 504.285 58.4102C502.671 58.4102 501.531 58.0065 500.867 57.1992C500.216 56.3789 499.891 55.2266 499.891 53.7422V40.6953H496.414V38.8203H499.969V32.8242H503.523V38.8203H509.051V40.6953H503.562V51.457C503.562 52.2643 503.589 52.9414 503.641 53.4883C503.706 54.0221 503.849 54.4909 504.07 54.8945C504.279 55.2721 504.591 55.5586 505.008 55.7539C505.424 55.9492 505.984 56.0469 506.688 56.0469C507.013 56.0469 507.488 56.0208 508.113 55.9688C508.751 55.9036 509.201 55.8255 509.461 55.7344V57.1602ZM528.504 53.4688C527.697 55.0052 526.616 56.2292 525.262 57.1406C523.908 58.0521 522.352 58.5078 520.594 58.5078C519.044 58.5078 517.684 58.2344 516.512 57.6875C515.353 57.1406 514.396 56.3984 513.641 55.4609C512.885 54.5234 512.319 53.4297 511.941 52.1797C511.577 50.9297 511.395 49.6081 511.395 48.2148C511.395 46.9648 511.59 45.7409 511.98 44.543C512.384 43.332 512.97 42.2448 513.738 41.2812C514.48 40.3568 515.398 39.6146 516.492 39.0547C517.599 38.4818 518.836 38.1953 520.203 38.1953C521.609 38.1953 522.814 38.4167 523.816 38.8594C524.819 39.3021 525.633 39.9076 526.258 40.6758C526.857 41.4049 527.299 42.2643 527.586 43.2539C527.885 44.2435 528.035 45.3177 528.035 46.4766V47.7656H515.281C515.281 49.0286 515.398 50.1745 515.633 51.2031C515.88 52.2318 516.264 53.1367 516.785 53.918C517.293 54.6732 517.957 55.2721 518.777 55.7148C519.598 56.1445 520.574 56.3594 521.707 56.3594C522.866 56.3594 523.862 56.0924 524.695 55.5586C525.542 55.0117 526.355 54.0352 527.137 52.6289L528.504 53.4688ZM524.188 46.125C524.188 45.3958 524.122 44.6146 523.992 43.7812C523.875 42.9479 523.68 42.2513 523.406 41.6914C523.107 41.0924 522.697 40.6042 522.176 40.2266C521.655 39.849 520.984 39.6602 520.164 39.6602C518.797 39.6602 517.658 40.2331 516.746 41.3789C515.848 42.5117 515.359 44.0938 515.281 46.125H524.188ZM563.719 58H554.324V56.7109C554.624 56.6849 554.923 56.6589 555.223 56.6328C555.535 56.6068 555.809 56.5547 556.043 56.4766C556.408 56.3594 556.674 56.1576 556.844 55.8711C557.026 55.5716 557.117 55.1875 557.117 54.7188V44.7773C557.117 43.4232 556.805 42.3815 556.18 41.6523C555.568 40.9102 554.799 40.5391 553.875 40.5391C553.237 40.5391 552.638 40.6367 552.078 40.832C551.518 41.0273 551.004 41.3008 550.535 41.6523C550.158 41.9388 549.839 42.2513 549.578 42.5898C549.331 42.9154 549.142 43.1888 549.012 43.4102V54.5234C549.012 54.9792 549.09 55.3568 549.246 55.6562C549.402 55.9427 549.669 56.1641 550.047 56.3203C550.346 56.4375 550.613 56.5286 550.848 56.5938C551.095 56.6458 551.414 56.6849 551.805 56.7109V58H542.605V56.7109C542.905 56.6849 543.191 56.6589 543.465 56.6328C543.751 56.6068 544.012 56.5547 544.246 56.4766C544.611 56.3594 544.878 56.1576 545.047 55.8711C545.229 55.5716 545.32 55.1875 545.32 54.7188V44.7773C545.32 43.4232 545.008 42.3815 544.383 41.6523C543.771 40.9102 543.003 40.5391 542.078 40.5391C541.44 40.5391 540.841 40.6432 540.281 40.8516C539.721 41.0469 539.207 41.3203 538.738 41.6719C538.361 41.9583 538.042 42.2839 537.781 42.6484C537.521 43 537.326 43.2669 537.195 43.4492V54.4844C537.195 54.9271 537.286 55.2982 537.469 55.5977C537.651 55.8971 537.924 56.125 538.289 56.2812C538.562 56.4115 538.842 56.5091 539.129 56.5742C539.415 56.6393 539.734 56.6849 540.086 56.7109V58H530.73V56.7109C531.03 56.6849 531.336 56.6589 531.648 56.6328C531.974 56.6068 532.254 56.5547 532.488 56.4766C532.853 56.3594 533.12 56.1576 533.289 55.8711C533.471 55.5716 533.562 55.1875 533.562 54.7188V42.7461C533.562 42.3294 533.465 41.9583 533.27 41.6328C533.087 41.2943 532.827 41.0078 532.488 40.7734C532.241 40.6172 531.935 40.4935 531.57 40.4023C531.206 40.2982 530.828 40.2331 530.438 40.207V38.9375L536.883 38.5078L537.156 38.7812V41.5352H537.293C537.618 41.2096 538.016 40.8255 538.484 40.3828C538.953 39.9401 539.389 39.582 539.793 39.3086C540.249 38.9961 540.815 38.7357 541.492 38.5273C542.182 38.319 542.924 38.2148 543.719 38.2148C544.969 38.2148 546.043 38.5534 546.941 39.2305C547.84 39.8945 548.484 40.7018 548.875 41.6523C549.344 41.1966 549.754 40.7995 550.105 40.4609C550.47 40.1094 550.945 39.7383 551.531 39.3477C552.026 39.0091 552.605 38.7357 553.27 38.5273C553.947 38.319 554.695 38.2148 555.516 38.2148C557.143 38.2148 558.432 38.7487 559.383 39.8164C560.333 40.8841 560.809 42.5247 560.809 44.7383V54.5234C560.809 54.9792 560.887 55.3568 561.043 55.6562C561.199 55.9427 561.466 56.1641 561.844 56.3203C562.143 56.4375 562.436 56.5286 562.723 56.5938C563.022 56.6458 563.354 56.6849 563.719 56.7109V58Z" fill="#6B68E6"/>
<path id="Line 29" d="M851.414 679.414C852.195 678.633 852.195 677.367 851.414 676.586L838.686 663.858C837.905 663.077 836.639 663.077 835.858 663.858C835.077 664.639 835.077 665.905 835.858 666.686L847.172 678L835.858 689.314C835.077 690.095 835.077 691.361 835.858 692.142C836.639 692.923 837.905 692.923 838.686 692.142L851.414 679.414ZM757 680H850V676H757V680Z" fill="#327C73"/>
<path id="model&#226;&#128;&#153;s output" d="M501.57 686H492.176V684.711C492.475 684.685 492.775 684.659 493.074 684.633C493.387 684.607 493.66 684.555 493.895 684.477C494.259 684.359 494.526 684.158 494.695 683.871C494.878 683.572 494.969 683.188 494.969 682.719V672.777C494.969 671.423 494.656 670.382 494.031 669.652C493.419 668.91 492.651 668.539 491.727 668.539C491.089 668.539 490.49 668.637 489.93 668.832C489.37 669.027 488.855 669.301 488.387 669.652C488.009 669.939 487.69 670.251 487.43 670.59C487.182 670.915 486.993 671.189 486.863 671.41V682.523C486.863 682.979 486.941 683.357 487.098 683.656C487.254 683.943 487.521 684.164 487.898 684.32C488.198 684.438 488.465 684.529 488.699 684.594C488.947 684.646 489.266 684.685 489.656 684.711V686H480.457V684.711C480.757 684.685 481.043 684.659 481.316 684.633C481.603 684.607 481.863 684.555 482.098 684.477C482.462 684.359 482.729 684.158 482.898 683.871C483.081 683.572 483.172 683.188 483.172 682.719V672.777C483.172 671.423 482.859 670.382 482.234 669.652C481.622 668.91 480.854 668.539 479.93 668.539C479.292 668.539 478.693 668.643 478.133 668.852C477.573 669.047 477.059 669.32 476.59 669.672C476.212 669.958 475.893 670.284 475.633 670.648C475.372 671 475.177 671.267 475.047 671.449V682.484C475.047 682.927 475.138 683.298 475.32 683.598C475.503 683.897 475.776 684.125 476.141 684.281C476.414 684.411 476.694 684.509 476.98 684.574C477.267 684.639 477.586 684.685 477.938 684.711V686H468.582V684.711C468.882 684.685 469.188 684.659 469.5 684.633C469.826 684.607 470.105 684.555 470.34 684.477C470.704 684.359 470.971 684.158 471.141 683.871C471.323 683.572 471.414 683.188 471.414 682.719V670.746C471.414 670.329 471.316 669.958 471.121 669.633C470.939 669.294 470.678 669.008 470.34 668.773C470.092 668.617 469.786 668.493 469.422 668.402C469.057 668.298 468.68 668.233 468.289 668.207V666.938L474.734 666.508L475.008 666.781V669.535H475.145C475.47 669.21 475.867 668.826 476.336 668.383C476.805 667.94 477.241 667.582 477.645 667.309C478.1 666.996 478.667 666.736 479.344 666.527C480.034 666.319 480.776 666.215 481.57 666.215C482.82 666.215 483.895 666.553 484.793 667.23C485.691 667.895 486.336 668.702 486.727 669.652C487.195 669.197 487.605 668.799 487.957 668.461C488.322 668.109 488.797 667.738 489.383 667.348C489.878 667.009 490.457 666.736 491.121 666.527C491.798 666.319 492.547 666.215 493.367 666.215C494.995 666.215 496.284 666.749 497.234 667.816C498.185 668.884 498.66 670.525 498.66 672.738V682.523C498.66 682.979 498.738 683.357 498.895 683.656C499.051 683.943 499.318 684.164 499.695 684.32C499.995 684.438 500.288 684.529 500.574 684.594C500.874 684.646 501.206 684.685 501.57 684.711V686ZM522.586 676.176C522.586 677.53 522.371 678.865 521.941 680.18C521.512 681.482 520.9 682.589 520.105 683.5C519.207 684.542 518.165 685.316 516.98 685.824C515.796 686.332 514.467 686.586 512.996 686.586C511.772 686.586 510.607 686.358 509.5 685.902C508.393 685.434 507.41 684.757 506.551 683.871C505.704 682.999 505.027 681.938 504.52 680.688C504.025 679.424 503.777 678.012 503.777 676.449C503.777 673.441 504.65 670.98 506.395 669.066C508.152 667.152 510.451 666.195 513.289 666.195C515.984 666.195 518.204 667.107 519.949 668.93C521.707 670.74 522.586 673.155 522.586 676.176ZM518.543 676.215C518.543 675.238 518.445 674.21 518.25 673.129C518.055 672.035 517.762 671.111 517.371 670.355C516.954 669.548 516.408 668.904 515.73 668.422C515.053 667.927 514.227 667.68 513.25 667.68C512.247 667.68 511.388 667.927 510.672 668.422C509.969 668.917 509.396 669.594 508.953 670.453C508.536 671.247 508.243 672.152 508.074 673.168C507.905 674.184 507.82 675.167 507.82 676.117C507.82 677.367 507.918 678.526 508.113 679.594C508.322 680.648 508.647 681.592 509.09 682.426C509.533 683.259 510.086 683.917 510.75 684.398C511.427 684.867 512.26 685.102 513.25 685.102C514.878 685.102 516.167 684.314 517.117 682.738C518.068 681.163 518.543 678.988 518.543 676.215ZM546.473 685.648L539.754 686.078L539.461 685.805V684.008L539.305 683.969C538.628 684.724 537.788 685.342 536.785 685.824C535.796 686.306 534.773 686.547 533.719 686.547C532.625 686.547 531.564 686.306 530.535 685.824C529.52 685.329 528.634 684.639 527.879 683.754C527.111 682.855 526.499 681.775 526.043 680.512C525.6 679.249 525.379 677.855 525.379 676.332C525.379 674.939 525.62 673.617 526.102 672.367C526.583 671.117 527.247 670.023 528.094 669.086C528.888 668.214 529.858 667.517 531.004 666.996C532.163 666.475 533.341 666.215 534.539 666.215C535.438 666.215 536.316 666.332 537.176 666.566C538.048 666.788 538.797 667.074 539.422 667.426V660.727C539.422 660.18 539.331 659.685 539.148 659.242C538.966 658.786 538.712 658.441 538.387 658.207C538.022 657.96 537.527 657.784 536.902 657.68C536.29 657.562 535.626 657.478 534.91 657.426V656.215L542.781 655.766L543.074 656.059V682.035C543.074 682.491 543.159 682.882 543.328 683.207C543.51 683.52 543.771 683.786 544.109 684.008C544.357 684.164 544.715 684.262 545.184 684.301C545.652 684.34 546.082 684.366 546.473 684.379V685.648ZM539.422 682.27V671C539.318 670.661 539.148 670.297 538.914 669.906C538.68 669.516 538.387 669.158 538.035 668.832C537.658 668.507 537.215 668.24 536.707 668.031C536.199 667.81 535.607 667.699 534.93 667.699C534.148 667.699 533.426 667.901 532.762 668.305C532.111 668.708 531.531 669.288 531.023 670.043C530.542 670.772 530.158 671.703 529.871 672.836C529.598 673.956 529.461 675.199 529.461 676.566C529.461 677.66 529.565 678.656 529.773 679.555C529.982 680.44 530.333 681.267 530.828 682.035C531.284 682.764 531.863 683.35 532.566 683.793C533.283 684.236 534.129 684.457 535.105 684.457C536.147 684.457 537.007 684.229 537.684 683.773C538.374 683.318 538.953 682.816 539.422 682.27ZM565.457 681.469C564.65 683.005 563.569 684.229 562.215 685.141C560.861 686.052 559.305 686.508 557.547 686.508C555.997 686.508 554.637 686.234 553.465 685.688C552.306 685.141 551.349 684.398 550.594 683.461C549.839 682.523 549.272 681.43 548.895 680.18C548.53 678.93 548.348 677.608 548.348 676.215C548.348 674.965 548.543 673.741 548.934 672.543C549.337 671.332 549.923 670.245 550.691 669.281C551.434 668.357 552.352 667.615 553.445 667.055C554.552 666.482 555.789 666.195 557.156 666.195C558.562 666.195 559.767 666.417 560.77 666.859C561.772 667.302 562.586 667.908 563.211 668.676C563.81 669.405 564.253 670.264 564.539 671.254C564.839 672.243 564.988 673.318 564.988 674.477V675.766H552.234C552.234 677.029 552.352 678.174 552.586 679.203C552.833 680.232 553.217 681.137 553.738 681.918C554.246 682.673 554.91 683.272 555.73 683.715C556.551 684.145 557.527 684.359 558.66 684.359C559.819 684.359 560.815 684.092 561.648 683.559C562.495 683.012 563.309 682.035 564.09 680.629L565.457 681.469ZM561.141 674.125C561.141 673.396 561.076 672.615 560.945 671.781C560.828 670.948 560.633 670.251 560.359 669.691C560.06 669.092 559.65 668.604 559.129 668.227C558.608 667.849 557.938 667.66 557.117 667.66C555.75 667.66 554.611 668.233 553.699 669.379C552.801 670.512 552.312 672.094 552.234 674.125H561.141ZM576.707 686H567.312V684.711C567.612 684.685 567.931 684.659 568.27 684.633C568.608 684.594 568.888 684.542 569.109 684.477C569.474 684.359 569.747 684.158 569.93 683.871C570.112 683.572 570.203 683.188 570.203 682.719V660.414C570.203 659.945 570.099 659.509 569.891 659.105C569.695 658.689 569.435 658.363 569.109 658.129C568.875 657.973 568.445 657.829 567.82 657.699C567.195 657.569 566.694 657.491 566.316 657.465V656.215L573.562 655.766L573.836 656.059V682.484C573.836 682.94 573.921 683.318 574.09 683.617C574.259 683.904 574.533 684.125 574.91 684.281C575.197 684.411 575.477 684.509 575.75 684.574C576.036 684.639 576.355 684.685 576.707 684.711V686ZM585.301 660.121C585.301 660.98 585.112 661.768 584.734 662.484C584.37 663.188 583.927 663.799 583.406 664.32C582.885 664.854 582.312 665.336 581.688 665.766C581.062 666.182 580.561 666.488 580.184 666.684L579.52 665.531C580.053 665.219 580.561 664.9 581.043 664.574C581.538 664.236 581.915 663.917 582.176 663.617C582.527 663.227 582.807 662.823 583.016 662.406C583.224 661.977 583.354 661.417 583.406 660.727H582.469C581.648 660.727 581.01 660.518 580.555 660.102C580.099 659.685 579.871 659.105 579.871 658.363C579.871 657.829 580.079 657.328 580.496 656.859C580.913 656.378 581.479 656.137 582.195 656.137C583.302 656.137 584.096 656.508 584.578 657.25C585.06 657.979 585.301 658.936 585.301 660.121ZM600.906 676.566C601.44 677.035 601.85 677.576 602.137 678.188C602.423 678.799 602.566 679.548 602.566 680.434C602.566 682.217 601.896 683.676 600.555 684.809C599.227 685.941 597.501 686.508 595.379 686.508C594.259 686.508 593.224 686.306 592.273 685.902C591.336 685.499 590.665 685.128 590.262 684.789L589.871 686.059H588.406L588.211 679.359H589.559C589.663 679.867 589.884 680.46 590.223 681.137C590.561 681.814 590.971 682.426 591.453 682.973C591.961 683.546 592.566 684.027 593.27 684.418C593.986 684.809 594.786 685.004 595.672 685.004C596.922 685.004 597.885 684.724 598.562 684.164C599.24 683.591 599.578 682.777 599.578 681.723C599.578 681.176 599.467 680.707 599.246 680.316C599.038 679.913 598.725 679.561 598.309 679.262C597.879 678.962 597.352 678.695 596.727 678.461C596.102 678.214 595.405 677.973 594.637 677.738C594.025 677.556 593.341 677.309 592.586 676.996C591.844 676.671 591.206 676.293 590.672 675.863C590.099 675.408 589.63 674.848 589.266 674.184C588.901 673.52 588.719 672.738 588.719 671.84C588.719 670.264 589.305 668.93 590.477 667.836C591.648 666.742 593.217 666.195 595.184 666.195C595.939 666.195 596.707 666.293 597.488 666.488C598.283 666.684 598.927 666.918 599.422 667.191L599.871 666.176H601.277L601.57 672.367H600.223C599.949 670.987 599.357 669.867 598.445 669.008C597.547 668.135 596.447 667.699 595.145 667.699C594.077 667.699 593.237 667.966 592.625 668.5C592.013 669.034 591.707 669.678 591.707 670.434C591.707 671.02 591.805 671.508 592 671.898C592.208 672.289 592.514 672.621 592.918 672.895C593.309 673.155 593.797 673.402 594.383 673.637C594.982 673.858 595.717 674.112 596.59 674.398C597.449 674.672 598.257 674.991 599.012 675.355C599.78 675.72 600.411 676.124 600.906 676.566ZM633.914 676.176C633.914 677.53 633.699 678.865 633.27 680.18C632.84 681.482 632.228 682.589 631.434 683.5C630.535 684.542 629.493 685.316 628.309 685.824C627.124 686.332 625.796 686.586 624.324 686.586C623.1 686.586 621.935 686.358 620.828 685.902C619.721 685.434 618.738 684.757 617.879 683.871C617.033 682.999 616.355 681.938 615.848 680.688C615.353 679.424 615.105 678.012 615.105 676.449C615.105 673.441 615.978 670.98 617.723 669.066C619.48 667.152 621.779 666.195 624.617 666.195C627.312 666.195 629.533 667.107 631.277 668.93C633.035 670.74 633.914 673.155 633.914 676.176ZM629.871 676.215C629.871 675.238 629.773 674.21 629.578 673.129C629.383 672.035 629.09 671.111 628.699 670.355C628.283 669.548 627.736 668.904 627.059 668.422C626.382 667.927 625.555 667.68 624.578 667.68C623.576 667.68 622.716 667.927 622 668.422C621.297 668.917 620.724 669.594 620.281 670.453C619.865 671.247 619.572 672.152 619.402 673.168C619.233 674.184 619.148 675.167 619.148 676.117C619.148 677.367 619.246 678.526 619.441 679.594C619.65 680.648 619.975 681.592 620.418 682.426C620.861 683.259 621.414 683.917 622.078 684.398C622.755 684.867 623.589 685.102 624.578 685.102C626.206 685.102 627.495 684.314 628.445 682.738C629.396 681.163 629.871 678.988 629.871 676.215ZM657.352 685.648L651.082 686.078L650.789 685.805V683.363H650.672C650.359 683.689 650.008 684.04 649.617 684.418C649.227 684.783 648.777 685.115 648.27 685.414C647.684 685.766 647.117 686.033 646.57 686.215C646.023 686.397 645.249 686.488 644.246 686.488C642.54 686.488 641.238 685.935 640.34 684.828C639.454 683.708 639.012 682.087 639.012 679.965V670.746C639.012 670.277 638.921 669.887 638.738 669.574C638.569 669.249 638.315 668.969 637.977 668.734C637.742 668.578 637.449 668.467 637.098 668.402C636.746 668.324 636.375 668.272 635.984 668.246V666.977L642.41 666.508L642.703 666.781V680.16C642.703 681.553 643.016 682.602 643.641 683.305C644.266 684.008 645.014 684.359 645.887 684.359C646.603 684.359 647.241 684.249 647.801 684.027C648.361 683.806 648.829 683.546 649.207 683.246C649.559 682.973 649.865 682.686 650.125 682.387C650.398 682.074 650.607 681.788 650.75 681.527V670.609C650.75 670.18 650.659 669.802 650.477 669.477C650.294 669.138 650.04 668.852 649.715 668.617C649.48 668.461 649.129 668.37 648.66 668.344C648.204 668.305 647.69 668.272 647.117 668.246V666.977L654.109 666.508L654.402 666.781V682.074C654.402 682.517 654.493 682.895 654.676 683.207C654.858 683.52 655.112 683.786 655.438 684.008C655.672 684.151 655.952 684.249 656.277 684.301C656.603 684.34 656.961 684.366 657.352 684.379V685.648ZM671.609 685.16C670.763 685.512 669.962 685.805 669.207 686.039C668.452 686.286 667.527 686.41 666.434 686.41C664.819 686.41 663.68 686.007 663.016 685.199C662.365 684.379 662.039 683.227 662.039 681.742V668.695H658.562V666.82H662.117V660.824H665.672V666.82H671.199V668.695H665.711V679.457C665.711 680.264 665.737 680.941 665.789 681.488C665.854 682.022 665.997 682.491 666.219 682.895C666.427 683.272 666.74 683.559 667.156 683.754C667.573 683.949 668.133 684.047 668.836 684.047C669.161 684.047 669.637 684.021 670.262 683.969C670.9 683.904 671.349 683.826 671.609 683.734V685.16ZM691.141 669.027C691.909 669.939 692.501 671 692.918 672.211C693.348 673.409 693.562 674.783 693.562 676.332C693.562 677.855 693.309 679.249 692.801 680.512C692.293 681.762 691.622 682.829 690.789 683.715C689.917 684.613 688.947 685.303 687.879 685.785C686.811 686.267 685.678 686.508 684.48 686.508C683.322 686.508 682.371 686.378 681.629 686.117C680.887 685.857 680.281 685.551 679.812 685.199H679.656V690.98C679.656 691.449 679.747 691.84 679.93 692.152C680.112 692.465 680.392 692.693 680.77 692.836C681.082 692.953 681.525 693.064 682.098 693.168C682.684 693.285 683.165 693.35 683.543 693.363V694.672H672.781V693.363C673.185 693.337 673.576 693.305 673.953 693.266C674.331 693.227 674.669 693.161 674.969 693.07C675.359 692.94 675.633 692.712 675.789 692.387C675.945 692.061 676.023 691.677 676.023 691.234V670.746C676.023 670.355 675.926 669.978 675.73 669.613C675.535 669.249 675.281 668.956 674.969 668.734C674.734 668.578 674.409 668.461 673.992 668.383C673.576 668.292 673.172 668.233 672.781 668.207V666.938L679.344 666.508L679.617 666.742V668.91L679.773 668.949C680.451 668.168 681.29 667.517 682.293 666.996C683.296 666.475 684.292 666.215 685.281 666.215C686.479 666.215 687.573 666.469 688.562 666.977C689.565 667.484 690.424 668.168 691.141 669.027ZM687.957 682.875C688.478 682.068 688.862 681.13 689.109 680.062C689.357 678.995 689.48 677.803 689.48 676.488C689.48 675.525 689.376 674.542 689.168 673.539C688.96 672.536 688.634 671.664 688.191 670.922C687.749 670.167 687.169 669.555 686.453 669.086C685.737 668.617 684.878 668.383 683.875 668.383C682.911 668.383 682.091 668.598 681.414 669.027C680.737 669.444 680.151 669.945 679.656 670.531V681.918C679.773 682.27 679.962 682.634 680.223 683.012C680.496 683.389 680.796 683.715 681.121 683.988C681.525 684.314 681.961 684.581 682.43 684.789C682.898 684.984 683.471 685.082 684.148 685.082C684.878 685.082 685.581 684.893 686.258 684.516C686.935 684.125 687.501 683.578 687.957 682.875ZM717.039 685.648L710.77 686.078L710.477 685.805V683.363H710.359C710.047 683.689 709.695 684.04 709.305 684.418C708.914 684.783 708.465 685.115 707.957 685.414C707.371 685.766 706.805 686.033 706.258 686.215C705.711 686.397 704.936 686.488 703.934 686.488C702.228 686.488 700.926 685.935 700.027 684.828C699.142 683.708 698.699 682.087 698.699 679.965V670.746C698.699 670.277 698.608 669.887 698.426 669.574C698.257 669.249 698.003 668.969 697.664 668.734C697.43 668.578 697.137 668.467 696.785 668.402C696.434 668.324 696.062 668.272 695.672 668.246V666.977L702.098 666.508L702.391 666.781V680.16C702.391 681.553 702.703 682.602 703.328 683.305C703.953 684.008 704.702 684.359 705.574 684.359C706.29 684.359 706.928 684.249 707.488 684.027C708.048 683.806 708.517 683.546 708.895 683.246C709.246 682.973 709.552 682.686 709.812 682.387C710.086 682.074 710.294 681.788 710.438 681.527V670.609C710.438 670.18 710.346 669.802 710.164 669.477C709.982 669.138 709.728 668.852 709.402 668.617C709.168 668.461 708.816 668.37 708.348 668.344C707.892 668.305 707.378 668.272 706.805 668.246V666.977L713.797 666.508L714.09 666.781V682.074C714.09 682.517 714.181 682.895 714.363 683.207C714.546 683.52 714.799 683.786 715.125 684.008C715.359 684.151 715.639 684.249 715.965 684.301C716.29 684.34 716.648 684.366 717.039 684.379V685.648ZM731.297 685.16C730.451 685.512 729.65 685.805 728.895 686.039C728.139 686.286 727.215 686.41 726.121 686.41C724.507 686.41 723.367 686.007 722.703 685.199C722.052 684.379 721.727 683.227 721.727 681.742V668.695H718.25V666.82H721.805V660.824H725.359V666.82H730.887V668.695H725.398V679.457C725.398 680.264 725.424 680.941 725.477 681.488C725.542 682.022 725.685 682.491 725.906 682.895C726.115 683.272 726.427 683.559 726.844 683.754C727.26 683.949 727.82 684.047 728.523 684.047C728.849 684.047 729.324 684.021 729.949 683.969C730.587 683.904 731.036 683.826 731.297 683.734V685.16Z" fill="#327C73"/>
<rect id="Rectangle 81" x="1.5" y="151.5" width="1147" height="297" stroke="black" stroke-width="3"/>
<rect id="Rectangle 82" x="1.5" y="501.5" width="1147" height="295" stroke="black" stroke-width="3"/>
</g>
</svg>
