<svg width="3700" height="1200" viewBox="0 0 3700 1200" fill="none" xmlns="http://www.w3.org/2000/svg">
<g id="Frame 3" clip-path="url(#clip0_156_442)">
<g id="weighting-vector">
<rect id="2-wv-5" x="200" y="500.01" width="100" height="100" transform="rotate(-180 200 500.01)" fill="#AAAAAA"/>
<rect id="2-wv-4" x="200" y="400.01" width="100" height="100" transform="rotate(-180 200 400.01)" fill="black"/>
<rect id="2-wv-3" x="200" y="300.01" width="100" height="100" transform="rotate(-180 200 300.01)" fill="#AAAAAA"/>
<rect id="2-wv-2" x="200" y="200.01" width="100" height="100" transform="rotate(-180 200 200.01)" fill="black"/>
<rect id="2-wv-1" x="200" y="100.01" width="100" height="100" transform="rotate(-180 200 100.01)" fill="#AAAAAA"/>
</g>
<g id="erase-vector">
<rect id="2-ev-6" x="1000" y="201" width="100" height="100" transform="rotate(90 1000 201)" fill="black"/>
<rect id="2-ev-5" x="900" y="201.01" width="100" height="100" transform="rotate(90 900 201.01)" fill="black"/>
<rect id="2-ev-4" x="800" y="201.01" width="100" height="100" transform="rotate(90 800 201.01)" fill="black"/>
<rect id="2-ev-3" x="700" y="201.01" width="100" height="100" transform="rotate(90 700 201.01)" fill="black"/>
<rect id="2-ev-2" x="600" y="201.01" width="100" height="100" transform="rotate(90 600 201.01)" fill="black"/>
<rect id="2-ev-1" x="500" y="201.01" width="100" height="100" transform="rotate(90 500 201.01)" fill="black"/>
</g>
<g id="others">
<path id="Line 19" d="M1252.41 251.424C1253.2 250.643 1253.2 249.377 1252.41 248.596L1239.69 235.868C1238.91 235.087 1237.64 235.087 1236.86 235.868C1236.08 236.649 1236.08 237.915 1236.86 238.697L1248.17 250.01L1236.86 261.324C1236.08 262.105 1236.08 263.371 1236.86 264.152C1237.64 264.933 1238.91 264.933 1239.69 264.152L1252.41 251.424ZM1051 252.01H1251V248.01H1051V252.01Z" fill="black"/>
<path id="Line 23" d="M2152.41 251.414C2153.2 250.633 2153.2 249.367 2152.41 248.586L2139.69 235.858C2138.91 235.077 2137.64 235.077 2136.86 235.858C2136.08 236.639 2136.08 237.905 2136.86 238.686L2148.17 250L2136.86 261.314C2136.08 262.095 2136.08 263.361 2136.86 264.142C2137.64 264.923 2138.91 264.923 2139.69 264.142L2152.41 251.414ZM1951 252H2151V248H1951V252Z" fill="black"/>
<path id="Line 24" d="M3051.41 252.414C3052.2 251.633 3052.2 250.367 3051.41 249.586L3038.69 236.858C3037.91 236.077 3036.64 236.077 3035.86 236.858C3035.08 237.639 3035.08 238.905 3035.86 239.686L3047.17 251L3035.86 262.314C3035.08 263.095 3035.08 264.361 3035.86 265.142C3036.64 265.923 3037.91 265.923 3038.69 265.142L3051.41 252.414ZM2850 253H3050V249H2850V253Z" fill="black"/>
<path id="weight vector" d="M38.0752 556.5C37.3916 556.566 36.651 556.85 35.8535 557.355C35.0723 557.86 34.5026 558.616 34.1445 559.625C33.3307 562.018 32.5576 564.289 31.8252 566.437C31.109 568.569 30.3034 570.97 29.4082 573.639C29.1152 574.486 28.8141 575.397 28.5049 576.374C28.2119 577.35 27.9434 578.286 27.6992 579.181H25.5996L19.1299 561.457L12.6113 579.181H10.6094C9.38867 575.568 8.19238 571.987 7.02051 568.439C5.86491 564.875 4.83952 561.774 3.94434 559.137C3.68392 558.372 3.1875 557.77 2.45508 557.331C1.72266 556.891 1.01465 556.631 0.331055 556.549V554.938H11.0732V556.647C10.5361 556.663 9.9502 556.753 9.31543 556.916C8.69694 557.078 8.3877 557.347 8.3877 557.721C8.3877 557.786 8.41211 557.925 8.46094 558.136C8.52604 558.348 8.59928 558.576 8.68066 558.82C9.2015 560.529 9.78743 562.441 10.4385 564.557C11.1058 566.657 11.9603 569.391 13.002 572.76L19.1543 555.426H21.498L27.7725 572.516C28.4723 570.335 29.1641 568.227 29.8477 566.193C30.5475 564.142 31.1579 562.222 31.6787 560.431C31.7926 560.008 31.8984 559.625 31.9961 559.284C32.11 558.926 32.167 558.576 32.167 558.234C32.167 557.941 32.0368 557.681 31.7764 557.453C31.516 557.225 31.1986 557.038 30.8242 556.891C30.4987 556.761 30.1406 556.663 29.75 556.598C29.3757 556.533 29.099 556.5 28.9199 556.5V554.938H38.0752V556.5ZM60.4629 573.346C59.4538 575.267 58.1029 576.797 56.4102 577.936C54.7174 579.075 52.7725 579.645 50.5752 579.645C48.6383 579.645 46.9375 579.303 45.4727 578.62C44.0241 577.936 42.8278 577.008 41.8838 575.836C40.9398 574.665 40.2318 573.297 39.7598 571.735C39.304 570.172 39.0762 568.52 39.0762 566.779C39.0762 565.216 39.3203 563.686 39.8086 562.189C40.3132 560.675 41.0456 559.316 42.0059 558.112C42.9336 556.956 44.0811 556.028 45.4482 555.329C46.8317 554.612 48.3779 554.254 50.0869 554.254C51.8447 554.254 53.3503 554.531 54.6035 555.084C55.8568 555.638 56.874 556.395 57.6553 557.355C58.404 558.266 58.9574 559.341 59.3154 560.578C59.6898 561.815 59.877 563.157 59.877 564.606V566.217H43.9346C43.9346 567.796 44.0811 569.228 44.374 570.514C44.6833 571.8 45.1634 572.931 45.8145 573.908C46.4492 574.852 47.2793 575.6 48.3047 576.154C49.3301 576.691 50.5508 576.959 51.9668 576.959C53.4154 576.959 54.6605 576.626 55.7021 575.958C56.7601 575.275 57.7773 574.054 58.7539 572.296L60.4629 573.346ZM55.0674 564.167C55.0674 563.255 54.986 562.278 54.8232 561.237C54.6768 560.195 54.4326 559.324 54.0908 558.625C53.7165 557.876 53.2038 557.265 52.5527 556.793C51.9017 556.321 51.0635 556.085 50.0381 556.085C48.3291 556.085 46.9049 556.802 45.7656 558.234C44.6426 559.65 44.0322 561.627 43.9346 564.167H55.0674ZM74.9404 579.01H63.2949V577.399C63.6693 577.366 64.0518 577.334 64.4424 577.301C64.8493 577.269 65.1992 577.204 65.4922 577.106C65.9479 576.959 66.2816 576.707 66.4932 576.349C66.721 575.975 66.835 575.495 66.835 574.909V560.041C66.835 559.52 66.7129 559.048 66.4688 558.625C66.2409 558.185 65.9154 557.819 65.4922 557.526C65.1829 557.331 64.7354 557.168 64.1494 557.038C63.5635 556.891 63.0264 556.802 62.5381 556.769V555.182L71.0342 554.645L71.376 554.987V574.616C71.376 575.185 71.4818 575.657 71.6934 576.032C71.9212 576.406 72.2712 576.683 72.7432 576.862C73.1012 577.008 73.4512 577.13 73.793 577.228C74.1348 577.309 74.5173 577.366 74.9404 577.399V579.01ZM71.8643 545.148C71.8643 546.076 71.555 546.889 70.9365 547.589C70.3343 548.273 69.5856 548.615 68.6904 548.615C67.8604 548.615 67.1361 548.289 66.5176 547.638C65.9154 546.971 65.6143 546.214 65.6143 545.368C65.6143 544.472 65.9154 543.691 66.5176 543.024C67.1361 542.357 67.8604 542.023 68.6904 542.023C69.6182 542.023 70.375 542.34 70.9609 542.975C71.5632 543.594 71.8643 544.318 71.8643 545.148ZM98.5244 576.52C99.1755 577.139 99.6882 577.838 100.062 578.62C100.437 579.401 100.624 580.369 100.624 581.525C100.624 582.681 100.372 583.763 99.8672 584.772C99.3626 585.797 98.5977 586.684 97.5723 587.433C96.4818 588.198 95.1797 588.792 93.666 589.215C92.1523 589.639 90.2806 589.85 88.0508 589.85C84.4049 589.85 81.6787 589.313 79.8721 588.239C78.0654 587.181 77.1621 585.626 77.1621 583.576C77.1621 581.916 77.8132 580.605 79.1152 579.645C80.4173 578.685 82.0775 578.164 84.0957 578.083V577.741C83.6074 577.594 83.1029 577.415 82.582 577.204C82.0612 576.976 81.6136 576.715 81.2393 576.422C80.8161 576.081 80.4743 575.682 80.2139 575.226C79.9535 574.754 79.8232 574.176 79.8232 573.493C79.8232 572.63 80.1243 571.841 80.7266 571.125C81.3451 570.392 82.2728 569.765 83.5098 569.245V568.878C81.9473 568.146 80.7347 567.21 79.8721 566.071C79.0094 564.915 78.5781 563.581 78.5781 562.067C78.5781 559.788 79.4245 557.917 81.1172 556.452C82.8262 554.987 85.0072 554.254 87.6602 554.254C88.3926 554.254 89.1169 554.328 89.833 554.474C90.5654 554.621 91.306 554.808 92.0547 555.036H100.453V557.379H94.7891V557.526C95.3913 558.226 95.8389 558.999 96.1318 559.845C96.4248 560.692 96.5713 561.522 96.5713 562.335C96.5713 564.451 95.7087 566.242 93.9834 567.707C92.2744 569.171 90.2806 569.904 88.002 569.904H85.0479C84.6735 570.034 84.2829 570.27 83.876 570.612C83.4691 570.954 83.2656 571.417 83.2656 572.003C83.2656 572.606 83.4365 573.069 83.7783 573.395C84.1201 573.704 84.5352 573.916 85.0234 574.03C85.4954 574.16 86.0407 574.241 86.6592 574.274C87.2939 574.306 87.945 574.331 88.6123 574.347C89.3285 574.363 90.305 574.412 91.542 574.494C92.7952 574.575 93.6823 574.624 94.2031 574.64C94.9518 574.673 95.7005 574.852 96.4492 575.177C97.2142 575.503 97.9059 575.95 98.5244 576.52ZM91.9326 562.238C91.9326 560.333 91.542 558.82 90.7607 557.697C89.9958 556.557 88.9134 555.988 87.5137 555.988C86.7487 555.988 86.0895 556.151 85.5361 556.476C84.999 556.785 84.5596 557.233 84.2178 557.819C83.8923 558.356 83.6562 559.007 83.5098 559.772C83.3796 560.521 83.3145 561.294 83.3145 562.091C83.3145 563.898 83.7051 565.371 84.4863 566.51C85.2839 567.65 86.3092 568.219 87.5625 568.219C88.9622 568.219 90.0365 567.658 90.7852 566.535C91.5501 565.395 91.9326 563.963 91.9326 562.238ZM96.6201 582.428C96.6201 581.517 96.4085 580.768 95.9854 580.182C95.5622 579.596 94.9193 579.197 94.0566 578.986C93.6009 578.921 92.665 578.847 91.249 578.766C89.833 578.685 88.1891 578.644 86.3174 578.644C84.5596 578.986 83.3063 579.556 82.5576 580.353C81.8252 581.167 81.459 582.208 81.459 583.478C81.459 584.048 81.5811 584.593 81.8252 585.114C82.0693 585.635 82.4925 586.115 83.0947 586.554C83.6644 586.977 84.4294 587.319 85.3896 587.58C86.3499 587.856 87.5218 587.995 88.9053 587.995C91.2979 587.995 93.1777 587.531 94.5449 586.603C95.9284 585.692 96.6201 584.3 96.6201 582.428ZM129.53 579.01H117.714V577.399C118.088 577.366 118.503 577.334 118.959 577.301C119.415 577.269 119.789 577.204 120.082 577.106C120.538 576.959 120.871 576.707 121.083 576.349C121.311 575.975 121.425 575.495 121.425 574.909V562.531C121.425 560.822 121.018 559.503 120.204 558.576C119.407 557.648 118.43 557.184 117.274 557.184C116.428 557.184 115.639 557.322 114.906 557.599C114.19 557.86 113.547 558.185 112.978 558.576C112.424 558.983 112.001 559.389 111.708 559.796C111.415 560.203 111.187 560.545 111.024 560.822V574.665C111.024 575.218 111.13 575.674 111.342 576.032C111.57 576.39 111.911 576.667 112.367 576.862C112.725 577.025 113.091 577.147 113.466 577.228C113.856 577.309 114.28 577.366 114.735 577.399V579.01H102.919V577.399C103.293 577.366 103.684 577.334 104.091 577.301C104.498 577.252 104.84 577.187 105.116 577.106C105.572 576.959 105.914 576.707 106.142 576.349C106.369 575.975 106.483 575.495 106.483 574.909V546.881C106.483 546.328 106.353 545.775 106.093 545.221C105.849 544.668 105.523 544.253 105.116 543.976C104.823 543.764 104.302 543.618 103.554 543.537C102.821 543.439 102.227 543.374 101.771 543.341V541.779L110.683 541.217L111.024 541.583V558.38H111.122C111.659 557.843 112.147 557.371 112.587 556.964C113.026 556.541 113.604 556.102 114.32 555.646C114.939 555.255 115.663 554.93 116.493 554.669C117.34 554.409 118.284 554.279 119.325 554.279C121.474 554.279 123.126 554.962 124.281 556.33C125.437 557.681 126.015 559.634 126.015 562.189V574.713C126.015 575.283 126.112 575.747 126.308 576.105C126.519 576.447 126.861 576.715 127.333 576.911C127.707 577.057 128.041 577.171 128.334 577.252C128.643 577.318 129.042 577.366 129.53 577.399V579.01ZM147.353 577.96C146.295 578.4 145.294 578.766 144.35 579.059C143.406 579.368 142.25 579.523 140.883 579.523C138.865 579.523 137.44 579.018 136.61 578.009C135.797 576.984 135.39 575.543 135.39 573.688V557.379H131.044V555.036H135.487V547.541H139.931V555.036H146.84V557.379H139.979V570.832C139.979 571.841 140.012 572.687 140.077 573.371C140.159 574.038 140.338 574.624 140.614 575.128C140.875 575.6 141.265 575.958 141.786 576.203C142.307 576.447 143.007 576.569 143.886 576.569C144.293 576.569 144.887 576.536 145.668 576.471C146.465 576.39 147.027 576.292 147.353 576.178V577.96ZM185.609 556.427C184.877 556.557 184.177 556.826 183.51 557.233C182.859 557.624 182.297 558.323 181.825 559.333C180.865 561.514 179.872 563.792 178.847 566.168C177.821 568.528 176.755 571.011 175.648 573.615C175.323 574.363 174.973 575.25 174.599 576.276C174.241 577.301 173.907 578.286 173.598 579.23H171.693C170.147 575.405 168.723 571.922 167.421 568.781C166.119 565.623 164.768 562.392 163.368 559.088C163.043 558.34 162.514 557.762 161.781 557.355C161.065 556.932 160.341 556.663 159.608 556.549V554.938H170.741V556.647C170.253 556.663 169.643 556.769 168.91 556.964C168.178 557.143 167.812 557.396 167.812 557.721C167.812 557.77 167.852 557.9 167.934 558.112C168.015 558.307 168.096 558.535 168.178 558.795C168.845 560.456 169.789 562.775 171.01 565.753C172.23 568.732 173.223 571.133 173.988 572.956C174.574 571.556 175.307 569.814 176.186 567.731C177.081 565.648 178.041 563.32 179.066 560.749C179.229 560.309 179.384 559.902 179.53 559.528C179.677 559.137 179.75 558.747 179.75 558.356C179.75 558.079 179.612 557.835 179.335 557.624C179.075 557.396 178.757 557.2 178.383 557.038C178.008 556.875 177.642 556.753 177.284 556.671C176.926 556.59 176.633 556.533 176.405 556.5V554.938H185.609V556.427ZM208.07 573.346C207.061 575.267 205.71 576.797 204.018 577.936C202.325 579.075 200.38 579.645 198.183 579.645C196.246 579.645 194.545 579.303 193.08 578.62C191.632 577.936 190.435 577.008 189.491 575.836C188.547 574.665 187.839 573.297 187.367 571.735C186.911 570.172 186.684 568.52 186.684 566.779C186.684 565.216 186.928 563.686 187.416 562.189C187.921 560.675 188.653 559.316 189.613 558.112C190.541 556.956 191.688 556.028 193.056 555.329C194.439 554.612 195.985 554.254 197.694 554.254C199.452 554.254 200.958 554.531 202.211 555.084C203.464 555.638 204.481 556.395 205.263 557.355C206.011 558.266 206.565 559.341 206.923 560.578C207.297 561.815 207.484 563.157 207.484 564.606V566.217H191.542C191.542 567.796 191.688 569.228 191.981 570.514C192.291 571.8 192.771 572.931 193.422 573.908C194.057 574.852 194.887 575.6 195.912 576.154C196.938 576.691 198.158 576.959 199.574 576.959C201.023 576.959 202.268 576.626 203.31 575.958C204.368 575.275 205.385 574.054 206.361 572.296L208.07 573.346ZM202.675 564.167C202.675 563.255 202.593 562.278 202.431 561.237C202.284 560.195 202.04 559.324 201.698 558.625C201.324 557.876 200.811 557.265 200.16 556.793C199.509 556.321 198.671 556.085 197.646 556.085C195.937 556.085 194.512 556.802 193.373 558.234C192.25 559.65 191.64 561.627 191.542 564.167H202.675ZM221.986 579.645C218.503 579.645 215.777 578.489 213.808 576.178C211.838 573.867 210.854 570.766 210.854 566.876C210.854 565.184 211.114 563.605 211.635 562.14C212.172 560.659 212.945 559.316 213.954 558.112C214.914 556.956 216.119 556.028 217.567 555.329C219.016 554.612 220.595 554.254 222.304 554.254C224.664 554.254 226.584 554.824 228.065 555.963C229.547 557.086 230.287 558.625 230.287 560.578C230.287 561.391 230.092 562.116 229.701 562.75C229.311 563.369 228.668 563.678 227.772 563.678C226.812 563.678 226.063 563.434 225.526 562.946C225.006 562.458 224.745 561.912 224.745 561.31C224.745 560.578 224.843 559.829 225.038 559.064C225.233 558.283 225.347 557.713 225.38 557.355C225.087 556.85 224.647 556.517 224.062 556.354C223.492 556.175 222.873 556.085 222.206 556.085C221.425 556.085 220.676 556.256 219.96 556.598C219.26 556.924 218.576 557.534 217.909 558.429C217.307 559.243 216.819 560.342 216.444 561.725C216.07 563.109 215.883 564.761 215.883 566.681C215.883 569.708 216.55 572.182 217.885 574.103C219.236 576.007 221.002 576.959 223.183 576.959C224.761 576.959 226.08 576.577 227.138 575.812C228.212 575.047 229.205 573.9 230.116 572.37L231.679 573.395C230.604 575.316 229.188 576.837 227.431 577.96C225.673 579.083 223.858 579.645 221.986 579.645ZM248.427 577.96C247.369 578.4 246.368 578.766 245.424 579.059C244.48 579.368 243.324 579.523 241.957 579.523C239.939 579.523 238.515 579.018 237.685 578.009C236.871 576.984 236.464 575.543 236.464 573.688V557.379H232.118V555.036H236.562V547.541H241.005V555.036H247.914V557.379H241.054V570.832C241.054 571.841 241.086 572.687 241.151 573.371C241.233 574.038 241.412 574.624 241.688 575.128C241.949 575.6 242.34 575.958 242.86 576.203C243.381 576.447 244.081 576.569 244.96 576.569C245.367 576.569 245.961 576.536 246.742 576.471C247.54 576.39 248.101 576.292 248.427 576.178V577.96ZM274.306 566.73C274.306 568.423 274.037 570.091 273.5 571.735C272.963 573.362 272.198 574.746 271.205 575.885C270.082 577.187 268.78 578.156 267.299 578.791C265.818 579.425 264.158 579.743 262.318 579.743C260.788 579.743 259.332 579.458 257.948 578.888C256.565 578.302 255.336 577.456 254.262 576.349C253.204 575.259 252.357 573.932 251.723 572.37C251.104 570.791 250.795 569.025 250.795 567.072C250.795 563.312 251.885 560.236 254.066 557.843C256.264 555.451 259.136 554.254 262.685 554.254C266.054 554.254 268.829 555.394 271.01 557.672C273.207 559.935 274.306 562.954 274.306 566.73ZM269.252 566.779C269.252 565.558 269.13 564.272 268.886 562.921C268.642 561.554 268.275 560.399 267.787 559.455C267.266 558.445 266.583 557.64 265.736 557.038C264.89 556.419 263.856 556.11 262.636 556.11C261.382 556.11 260.308 556.419 259.413 557.038C258.534 557.656 257.818 558.502 257.265 559.577C256.744 560.569 256.378 561.701 256.166 562.97C255.954 564.24 255.849 565.469 255.849 566.657C255.849 568.219 255.971 569.668 256.215 571.002C256.475 572.321 256.882 573.501 257.436 574.542C257.989 575.584 258.681 576.406 259.511 577.008C260.357 577.594 261.399 577.887 262.636 577.887C264.67 577.887 266.282 576.903 267.47 574.933C268.658 572.964 269.252 570.246 269.252 566.779ZM296.229 558.039C296.229 558.869 296.026 559.609 295.619 560.26C295.212 560.895 294.586 561.212 293.739 561.212C292.828 561.212 292.128 560.976 291.64 560.504C291.168 560.032 290.932 559.512 290.932 558.942C290.932 558.584 290.956 558.258 291.005 557.965C291.07 557.672 291.127 557.379 291.176 557.086C290.411 557.086 289.516 557.396 288.49 558.014C287.465 558.633 286.594 559.512 285.878 560.651V574.665C285.878 575.234 285.984 575.698 286.195 576.056C286.423 576.414 286.773 576.683 287.245 576.862C287.652 577.025 288.173 577.147 288.808 577.228C289.459 577.309 290.02 577.366 290.492 577.399V579.01H277.797V577.399C278.171 577.366 278.554 577.334 278.944 577.301C279.351 577.269 279.701 577.204 279.994 577.106C280.45 576.959 280.784 576.707 280.995 576.349C281.223 575.975 281.337 575.495 281.337 574.909V560.041C281.337 559.536 281.215 559.04 280.971 558.551C280.743 558.063 280.417 557.672 279.994 557.379C279.685 557.184 279.319 557.046 278.896 556.964C278.472 556.867 278.017 556.802 277.528 556.769V555.182L285.536 554.645L285.878 554.987V558.38H286C287.009 557.062 288.132 556.061 289.369 555.377C290.606 554.694 291.737 554.352 292.763 554.352C293.788 554.352 294.618 554.686 295.253 555.353C295.904 556.02 296.229 556.916 296.229 558.039Z" fill="black"/>
<path id="erase vector" d="M590.145 573.336C589.135 575.257 587.785 576.786 586.092 577.926C584.399 579.065 582.454 579.635 580.257 579.635C578.32 579.635 576.619 579.293 575.154 578.609C573.706 577.926 572.509 576.998 571.565 575.826C570.621 574.654 569.913 573.287 569.441 571.725C568.986 570.162 568.758 568.51 568.758 566.769C568.758 565.206 569.002 563.676 569.49 562.179C569.995 560.665 570.727 559.306 571.688 558.102C572.615 556.946 573.763 556.018 575.13 555.318C576.513 554.602 578.06 554.244 579.769 554.244C581.526 554.244 583.032 554.521 584.285 555.074C585.538 555.628 586.556 556.384 587.337 557.345C588.086 558.256 588.639 559.33 588.997 560.567C589.371 561.804 589.559 563.147 589.559 564.596V566.207H573.616C573.616 567.786 573.763 569.218 574.056 570.504C574.365 571.79 574.845 572.921 575.496 573.897C576.131 574.841 576.961 575.59 577.986 576.144C579.012 576.681 580.232 576.949 581.648 576.949C583.097 576.949 584.342 576.616 585.384 575.948C586.442 575.265 587.459 574.044 588.436 572.286L590.145 573.336ZM584.749 564.156C584.749 563.245 584.668 562.268 584.505 561.227C584.358 560.185 584.114 559.314 583.772 558.614C583.398 557.866 582.885 557.255 582.234 556.783C581.583 556.311 580.745 556.075 579.72 556.075C578.011 556.075 576.587 556.791 575.447 558.224C574.324 559.64 573.714 561.617 573.616 564.156H584.749ZM611.36 558.028C611.36 558.858 611.157 559.599 610.75 560.25C610.343 560.885 609.716 561.202 608.87 561.202C607.959 561.202 607.259 560.966 606.771 560.494C606.299 560.022 606.062 559.501 606.062 558.932C606.062 558.574 606.087 558.248 606.136 557.955C606.201 557.662 606.258 557.369 606.307 557.076C605.542 557.076 604.646 557.385 603.621 558.004C602.596 558.622 601.725 559.501 601.009 560.641V574.654C601.009 575.224 601.115 575.688 601.326 576.046C601.554 576.404 601.904 576.673 602.376 576.852C602.783 577.014 603.304 577.136 603.938 577.218C604.59 577.299 605.151 577.356 605.623 577.389V579H592.928V577.389C593.302 577.356 593.685 577.324 594.075 577.291C594.482 577.258 594.832 577.193 595.125 577.096C595.581 576.949 595.914 576.697 596.126 576.339C596.354 575.965 596.468 575.484 596.468 574.898V560.03C596.468 559.526 596.346 559.029 596.102 558.541C595.874 558.053 595.548 557.662 595.125 557.369C594.816 557.174 594.45 557.035 594.026 556.954C593.603 556.856 593.147 556.791 592.659 556.759V555.172L600.667 554.635L601.009 554.977V558.37H601.131C602.14 557.052 603.263 556.051 604.5 555.367C605.737 554.684 606.868 554.342 607.894 554.342C608.919 554.342 609.749 554.675 610.384 555.343C611.035 556.01 611.36 556.905 611.36 558.028ZM636.238 578.561C635.473 578.837 634.798 579.057 634.212 579.22C633.642 579.399 632.991 579.488 632.259 579.488C630.989 579.488 629.972 579.195 629.207 578.609C628.458 578.007 627.978 577.136 627.767 575.997H627.62C626.562 577.169 625.423 578.064 624.202 578.683C622.998 579.301 621.541 579.61 619.832 579.61C618.025 579.61 616.536 579.057 615.364 577.95C614.209 576.843 613.631 575.395 613.631 573.604C613.631 572.677 613.761 571.847 614.021 571.114C614.282 570.382 614.673 569.723 615.193 569.137C615.6 568.648 616.137 568.217 616.805 567.843C617.472 567.452 618.099 567.143 618.685 566.915C619.417 566.638 620.898 566.126 623.128 565.377C625.374 564.628 626.888 564.042 627.669 563.619V561.202C627.669 560.991 627.62 560.584 627.522 559.981C627.441 559.379 627.254 558.81 626.961 558.272C626.635 557.67 626.172 557.149 625.569 556.71C624.983 556.254 624.145 556.026 623.055 556.026C622.306 556.026 621.606 556.157 620.955 556.417C620.32 556.661 619.873 556.922 619.612 557.198C619.612 557.524 619.686 558.004 619.832 558.639C619.995 559.273 620.076 559.859 620.076 560.396C620.076 560.966 619.816 561.487 619.295 561.959C618.79 562.431 618.082 562.667 617.171 562.667C616.357 562.667 615.755 562.382 615.364 561.812C614.99 561.227 614.803 560.576 614.803 559.859C614.803 559.111 615.063 558.395 615.584 557.711C616.121 557.027 616.813 556.417 617.659 555.88C618.392 555.424 619.279 555.042 620.32 554.732C621.362 554.407 622.379 554.244 623.372 554.244C624.739 554.244 625.927 554.342 626.937 554.537C627.962 554.716 628.89 555.115 629.72 555.733C630.55 556.336 631.176 557.158 631.6 558.199C632.039 559.225 632.259 560.551 632.259 562.179C632.259 564.506 632.234 566.573 632.186 568.38C632.137 570.17 632.112 572.132 632.112 574.264C632.112 574.898 632.218 575.403 632.43 575.777C632.658 576.152 632.999 576.469 633.455 576.729C633.699 576.876 634.082 576.957 634.603 576.974C635.14 576.99 635.685 576.998 636.238 576.998V578.561ZM627.718 565.67C626.334 566.077 625.122 566.476 624.08 566.866C623.038 567.257 622.07 567.745 621.175 568.331C620.361 568.884 619.718 569.544 619.246 570.309C618.774 571.057 618.538 571.952 618.538 572.994C618.538 574.345 618.888 575.338 619.588 575.973C620.304 576.607 621.207 576.925 622.298 576.925C623.453 576.925 624.471 576.648 625.35 576.095C626.229 575.525 626.969 574.858 627.571 574.093L627.718 565.67ZM654.524 567.208C655.192 567.794 655.704 568.469 656.062 569.234C656.421 569.999 656.6 570.935 656.6 572.042C656.6 574.272 655.761 576.095 654.085 577.511C652.425 578.927 650.268 579.635 647.615 579.635C646.215 579.635 644.922 579.382 643.733 578.878C642.562 578.373 641.723 577.91 641.219 577.486L640.73 579.073H638.899L638.655 570.699H640.34C640.47 571.334 640.747 572.075 641.17 572.921C641.593 573.767 642.106 574.532 642.708 575.216C643.343 575.932 644.1 576.534 644.979 577.022C645.874 577.511 646.875 577.755 647.981 577.755C649.544 577.755 650.748 577.405 651.595 576.705C652.441 575.989 652.864 574.972 652.864 573.653C652.864 572.97 652.726 572.384 652.449 571.896C652.189 571.391 651.798 570.951 651.277 570.577C650.74 570.203 650.081 569.869 649.3 569.576C648.519 569.267 647.648 568.966 646.688 568.673C645.923 568.445 645.068 568.136 644.124 567.745C643.196 567.338 642.399 566.866 641.731 566.329C641.015 565.759 640.429 565.06 639.974 564.229C639.518 563.399 639.29 562.423 639.29 561.3C639.29 559.33 640.022 557.662 641.487 556.295C642.952 554.928 644.913 554.244 647.371 554.244C648.315 554.244 649.275 554.366 650.252 554.61C651.245 554.854 652.05 555.147 652.669 555.489L653.23 554.22H654.988L655.354 561.959H653.67C653.328 560.234 652.588 558.834 651.448 557.76C650.325 556.669 648.95 556.124 647.322 556.124C645.988 556.124 644.938 556.458 644.173 557.125C643.408 557.792 643.025 558.598 643.025 559.542C643.025 560.274 643.147 560.885 643.392 561.373C643.652 561.861 644.035 562.276 644.539 562.618C645.027 562.944 645.638 563.253 646.37 563.546C647.119 563.823 648.038 564.14 649.129 564.498C650.203 564.84 651.212 565.239 652.156 565.694C653.117 566.15 653.906 566.655 654.524 567.208ZM681.648 573.336C680.639 575.257 679.288 576.786 677.596 577.926C675.903 579.065 673.958 579.635 671.761 579.635C669.824 579.635 668.123 579.293 666.658 578.609C665.21 577.926 664.013 576.998 663.069 575.826C662.125 574.654 661.417 573.287 660.945 571.725C660.49 570.162 660.262 568.51 660.262 566.769C660.262 565.206 660.506 563.676 660.994 562.179C661.499 560.665 662.231 559.306 663.191 558.102C664.119 556.946 665.267 556.018 666.634 555.318C668.017 554.602 669.563 554.244 671.272 554.244C673.03 554.244 674.536 554.521 675.789 555.074C677.042 555.628 678.06 556.384 678.841 557.345C679.59 558.256 680.143 559.33 680.501 560.567C680.875 561.804 681.062 563.147 681.062 564.596V566.207H665.12C665.12 567.786 665.267 569.218 665.56 570.504C665.869 571.79 666.349 572.921 667 573.897C667.635 574.841 668.465 575.59 669.49 576.144C670.516 576.681 671.736 576.949 673.152 576.949C674.601 576.949 675.846 576.616 676.888 575.948C677.946 575.265 678.963 574.044 679.939 572.286L681.648 573.336ZM676.253 564.156C676.253 563.245 676.172 562.268 676.009 561.227C675.862 560.185 675.618 559.314 675.276 558.614C674.902 557.866 674.389 557.255 673.738 556.783C673.087 556.311 672.249 556.075 671.224 556.075C669.515 556.075 668.09 556.791 666.951 558.224C665.828 559.64 665.218 561.617 665.12 564.156H676.253ZM720.271 556.417C719.539 556.547 718.839 556.816 718.172 557.223C717.521 557.613 716.959 558.313 716.487 559.322C715.527 561.503 714.534 563.782 713.509 566.158C712.483 568.518 711.417 571 710.311 573.604C709.985 574.353 709.635 575.24 709.261 576.266C708.903 577.291 708.569 578.276 708.26 579.22H706.355C704.809 575.395 703.385 571.912 702.083 568.771C700.781 565.613 699.43 562.382 698.03 559.078C697.705 558.329 697.176 557.752 696.443 557.345C695.727 556.922 695.003 556.653 694.271 556.539V554.928H705.403V556.637C704.915 556.653 704.305 556.759 703.572 556.954C702.84 557.133 702.474 557.385 702.474 557.711C702.474 557.76 702.514 557.89 702.596 558.102C702.677 558.297 702.758 558.525 702.84 558.785C703.507 560.445 704.451 562.765 705.672 565.743C706.893 568.722 707.885 571.122 708.65 572.945C709.236 571.546 709.969 569.804 710.848 567.721C711.743 565.637 712.703 563.31 713.729 560.738C713.891 560.299 714.046 559.892 714.192 559.518C714.339 559.127 714.412 558.736 714.412 558.346C714.412 558.069 714.274 557.825 713.997 557.613C713.737 557.385 713.419 557.19 713.045 557.027C712.671 556.865 712.304 556.743 711.946 556.661C711.588 556.58 711.295 556.523 711.067 556.49V554.928H720.271V556.417ZM742.732 573.336C741.723 575.257 740.372 576.786 738.68 577.926C736.987 579.065 735.042 579.635 732.845 579.635C730.908 579.635 729.207 579.293 727.742 578.609C726.294 577.926 725.097 576.998 724.153 575.826C723.209 574.654 722.501 573.287 722.029 571.725C721.574 570.162 721.346 568.51 721.346 566.769C721.346 565.206 721.59 563.676 722.078 562.179C722.583 560.665 723.315 559.306 724.275 558.102C725.203 556.946 726.351 556.018 727.718 555.318C729.101 554.602 730.647 554.244 732.356 554.244C734.114 554.244 735.62 554.521 736.873 555.074C738.126 555.628 739.144 556.384 739.925 557.345C740.674 558.256 741.227 559.33 741.585 560.567C741.959 561.804 742.146 563.147 742.146 564.596V566.207H726.204C726.204 567.786 726.351 569.218 726.644 570.504C726.953 571.79 727.433 572.921 728.084 573.897C728.719 574.841 729.549 575.59 730.574 576.144C731.6 576.681 732.82 576.949 734.236 576.949C735.685 576.949 736.93 576.616 737.972 575.948C739.03 575.265 740.047 574.044 741.023 572.286L742.732 573.336ZM737.337 564.156C737.337 563.245 737.256 562.268 737.093 561.227C736.946 560.185 736.702 559.314 736.36 558.614C735.986 557.866 735.473 557.255 734.822 556.783C734.171 556.311 733.333 556.075 732.308 556.075C730.599 556.075 729.174 556.791 728.035 558.224C726.912 559.64 726.302 561.617 726.204 564.156H737.337ZM756.648 579.635C753.165 579.635 750.439 578.479 748.47 576.168C746.5 573.857 745.516 570.756 745.516 566.866C745.516 565.174 745.776 563.595 746.297 562.13C746.834 560.649 747.607 559.306 748.616 558.102C749.576 556.946 750.781 556.018 752.229 555.318C753.678 554.602 755.257 554.244 756.966 554.244C759.326 554.244 761.246 554.814 762.728 555.953C764.209 557.076 764.949 558.614 764.949 560.567C764.949 561.381 764.754 562.105 764.363 562.74C763.973 563.359 763.33 563.668 762.435 563.668C761.474 563.668 760.726 563.424 760.188 562.936C759.668 562.447 759.407 561.902 759.407 561.3C759.407 560.567 759.505 559.819 759.7 559.054C759.896 558.272 760.009 557.703 760.042 557.345C759.749 556.84 759.31 556.507 758.724 556.344C758.154 556.165 757.535 556.075 756.868 556.075C756.087 556.075 755.338 556.246 754.622 556.588C753.922 556.913 753.239 557.524 752.571 558.419C751.969 559.233 751.481 560.331 751.106 561.715C750.732 563.098 750.545 564.75 750.545 566.671C750.545 569.698 751.212 572.172 752.547 574.093C753.898 575.997 755.664 576.949 757.845 576.949C759.424 576.949 760.742 576.567 761.8 575.802C762.874 575.037 763.867 573.889 764.778 572.359L766.341 573.385C765.267 575.305 763.851 576.827 762.093 577.95C760.335 579.073 758.52 579.635 756.648 579.635ZM783.089 577.95C782.031 578.39 781.03 578.756 780.086 579.049C779.142 579.358 777.986 579.513 776.619 579.513C774.601 579.513 773.177 579.008 772.347 577.999C771.533 576.974 771.126 575.533 771.126 573.678V557.369H766.78V555.025H771.224V547.53H775.667V555.025H782.576V557.369H775.716V570.821C775.716 571.83 775.748 572.677 775.813 573.36C775.895 574.028 776.074 574.614 776.351 575.118C776.611 575.59 777.002 575.948 777.522 576.192C778.043 576.437 778.743 576.559 779.622 576.559C780.029 576.559 780.623 576.526 781.404 576.461C782.202 576.38 782.763 576.282 783.089 576.168V577.95ZM808.968 566.72C808.968 568.412 808.699 570.081 808.162 571.725C807.625 573.352 806.86 574.736 805.867 575.875C804.744 577.177 803.442 578.146 801.961 578.78C800.48 579.415 798.82 579.732 796.98 579.732C795.451 579.732 793.994 579.448 792.61 578.878C791.227 578.292 789.998 577.446 788.924 576.339C787.866 575.248 787.02 573.922 786.385 572.359C785.766 570.781 785.457 569.015 785.457 567.062C785.457 563.302 786.548 560.226 788.729 557.833C790.926 555.44 793.799 554.244 797.347 554.244C800.716 554.244 803.491 555.383 805.672 557.662C807.869 559.924 808.968 562.944 808.968 566.72ZM803.914 566.769C803.914 565.548 803.792 564.262 803.548 562.911C803.304 561.544 802.938 560.388 802.449 559.444C801.928 558.435 801.245 557.63 800.398 557.027C799.552 556.409 798.519 556.1 797.298 556.1C796.045 556.1 794.97 556.409 794.075 557.027C793.196 557.646 792.48 558.492 791.927 559.566C791.406 560.559 791.04 561.69 790.828 562.96C790.617 564.229 790.511 565.458 790.511 566.646C790.511 568.209 790.633 569.658 790.877 570.992C791.137 572.311 791.544 573.491 792.098 574.532C792.651 575.574 793.343 576.396 794.173 576.998C795.019 577.584 796.061 577.877 797.298 577.877C799.332 577.877 800.944 576.892 802.132 574.923C803.32 572.953 803.914 570.235 803.914 566.769ZM830.892 558.028C830.892 558.858 830.688 559.599 830.281 560.25C829.874 560.885 829.248 561.202 828.401 561.202C827.49 561.202 826.79 560.966 826.302 560.494C825.83 560.022 825.594 559.501 825.594 558.932C825.594 558.574 825.618 558.248 825.667 557.955C825.732 557.662 825.789 557.369 825.838 557.076C825.073 557.076 824.178 557.385 823.152 558.004C822.127 558.622 821.256 559.501 820.54 560.641V574.654C820.54 575.224 820.646 575.688 820.857 576.046C821.085 576.404 821.435 576.673 821.907 576.852C822.314 577.014 822.835 577.136 823.47 577.218C824.121 577.299 824.682 577.356 825.154 577.389V579H812.459V577.389C812.833 577.356 813.216 577.324 813.606 577.291C814.013 577.258 814.363 577.193 814.656 577.096C815.112 576.949 815.446 576.697 815.657 576.339C815.885 575.965 815.999 575.484 815.999 574.898V560.03C815.999 559.526 815.877 559.029 815.633 558.541C815.405 558.053 815.079 557.662 814.656 557.369C814.347 557.174 813.981 557.035 813.558 556.954C813.134 556.856 812.679 556.791 812.19 556.759V555.172L820.198 554.635L820.54 554.977V558.37H820.662C821.671 557.052 822.794 556.051 824.031 555.367C825.268 554.684 826.399 554.342 827.425 554.342C828.45 554.342 829.28 554.675 829.915 555.343C830.566 556.01 830.892 556.905 830.892 558.028Z" fill="black"/>
<g id="Group 7">
<line id="Line 1" x1="285.586" y1="264.741" x2="314.741" y2="235.586" stroke="black" stroke-width="4"/>
<line id="Line 2" x1="285.414" y1="235.586" x2="314.569" y2="264.741" stroke="black" stroke-width="4"/>
</g>
<g id="Group 8">
<line id="Line 1_2" x1="2485.59" y1="615.741" x2="2514.74" y2="586.586" stroke="black" stroke-width="4"/>
<line id="Line 2_2" x1="2485.41" y1="586.586" x2="2514.57" y2="615.741" stroke="black" stroke-width="4"/>
</g>
</g>
<g id="erase-matrix">
<g id="2-em1">
<rect id="2-em-16" width="100.806" height="100" transform="matrix(-2.18734e-07 -1 -1 2.18381e-07 1900 100.807)" fill="black"/>
<rect id="2-em-15" width="100.806" height="100" transform="matrix(-2.18734e-07 -1 -1 2.18381e-07 1800 100.806)" fill="black"/>
<rect id="2-em-14" width="100.806" height="100" transform="matrix(-2.18734e-07 -1 -1 2.18381e-07 1700 100.806)" fill="black"/>
<rect id="2-em-13" width="100.806" height="100" transform="matrix(-2.18734e-07 -1 -1 2.18381e-07 1600 100.806)" fill="black"/>
<rect id="2-em-12" width="100.806" height="100" transform="matrix(-2.18734e-07 -1 -1 2.18381e-07 1500 100.806)" fill="black"/>
<rect id="2-em-11" width="100.806" height="100" transform="matrix(-2.18734e-07 -1 -1 2.18381e-07 1400 100.806)" fill="black"/>
</g>
<g id="2-em2">
<rect id="2-em-26" width="100.806" height="100" transform="matrix(-2.18822e-07 -1 -1 2.18292e-07 1900 200.605)" fill="black"/>
<rect id="2-em-25" width="99.7982" height="100" transform="matrix(-2.18822e-07 -1 -1 2.18292e-07 1800 200.604)" fill="black"/>
<rect id="2-em-24" width="99.7982" height="100" transform="matrix(-2.18822e-07 -1 -1 2.18292e-07 1700 200.604)" fill="black"/>
<rect id="2-em-23" width="99.7982" height="100" transform="matrix(-2.18822e-07 -1 -1 2.18292e-07 1600 200.604)" fill="black"/>
<rect id="2-em-22" width="99.7982" height="100" transform="matrix(-2.18822e-07 -1 -1 2.18292e-07 1500 200.604)" fill="black"/>
<rect id="2-em-21" width="99.7982" height="100" transform="matrix(-2.18822e-07 -1 -1 2.18292e-07 1400 200.604)" fill="black"/>
</g>
<g id="2-em3">
<rect id="2-em-36" width="99.7982" height="100" transform="matrix(-2.18822e-07 -1 -1 2.18292e-07 1900 300.403)" fill="black"/>
<rect id="2-em-35" width="99.7982" height="100" transform="matrix(-2.18822e-07 -1 -1 2.18292e-07 1800 300.403)" fill="black"/>
<rect id="2-em-34" width="99.7982" height="100" transform="matrix(-2.18822e-07 -1 -1 2.18292e-07 1700 300.403)" fill="black"/>
<rect id="2-em-33" width="99.7982" height="100" transform="matrix(-2.18822e-07 -1 -1 2.18292e-07 1600 300.403)" fill="black"/>
<rect id="2-em-32" width="99.7982" height="100" transform="matrix(-2.18822e-07 -1 -1 2.18292e-07 1500 300.403)" fill="black"/>
<rect id="2-em-31" width="99.7982" height="100" transform="matrix(-2.18822e-07 -1 -1 2.18292e-07 1400 300.403)" fill="black"/>
</g>
<g id="2-em4">
<rect id="2-em-46" width="99.7982" height="100" transform="matrix(-2.18822e-07 -1 -1 2.18292e-07 1900 400.201)" fill="black"/>
<rect id="2-em-45" width="99.7982" height="100" transform="matrix(-2.18822e-07 -1 -1 2.18292e-07 1800 400.201)" fill="black"/>
<rect id="2-em-44" width="99.7982" height="100" transform="matrix(-2.18822e-07 -1 -1 2.18292e-07 1700 400.201)" fill="black"/>
<rect id="2-em-43" width="99.7982" height="100" transform="matrix(-2.18822e-07 -1 -1 2.18292e-07 1600 400.201)" fill="black"/>
<rect id="2-em-42" width="99.7982" height="100" transform="matrix(-2.18822e-07 -1 -1 2.18292e-07 1500 400.201)" fill="black"/>
<rect id="2-em-41" width="99.7982" height="100" transform="matrix(-2.18822e-07 -1 -1 2.18292e-07 1400 400.201)" fill="black"/>
</g>
<g id="2-em5">
<rect id="2-em-56" width="99.7982" height="100" transform="matrix(-2.18734e-07 -1 -1 2.18381e-07 1900 500)" fill="black"/>
<rect id="2-em-55" width="99.7982" height="100" transform="matrix(-2.18822e-07 -1 -1 2.18292e-07 1800 500)" fill="black"/>
<rect id="2-em-54" width="99.7982" height="100" transform="matrix(-2.18822e-07 -1 -1 2.18292e-07 1700 500)" fill="black"/>
<rect id="2-em-53" width="99.7982" height="100" transform="matrix(-2.18822e-07 -1 -1 2.18292e-07 1600 500)" fill="black"/>
<rect id="2-em-52" width="99.7982" height="100" transform="matrix(-2.18822e-07 -1 -1 2.18292e-07 1500 500)" fill="black"/>
<rect id="2-em-51" width="99.7982" height="100" transform="matrix(-2.18734e-07 -1 -1 2.18381e-07 1400 500)" fill="black"/>
</g>
</g>
<g id="inverted-erase-matrix">
<g id="2-iem-1">
<rect id="2-iem-16" width="99.9995" height="100" transform="matrix(-2.18125e-07 -1 -1 2.19002e-07 2802 100)" fill="black"/>
<rect id="2-iem-15" width="99.9995" height="100" transform="matrix(-2.17246e-07 -1 -1 2.19881e-07 2702 99.9995)" fill="black"/>
<rect id="2-iem-14" width="99.9995" height="100" transform="matrix(-2.17246e-07 -1 -1 2.19881e-07 2602 99.9995)" fill="black"/>
<rect id="2-iem-13" width="99.9995" height="100" transform="matrix(-2.17246e-07 -1 -1 2.19881e-07 2502 99.9995)" fill="black"/>
<rect id="2-iem-12" width="99.9995" height="100" transform="matrix(-2.17246e-07 -1 -1 2.19881e-07 2402 99.9995)" fill="black"/>
<rect id="2-iem-11" width="99.9995" height="100" transform="matrix(-2.17246e-07 -1 -1 2.19881e-07 2302 99.9995)" fill="black"/>
</g>
<g id="2-iem-2">
<rect id="2-iem-26" width="99.9995" height="100" transform="matrix(-2.18125e-07 -1 -1 2.19002e-07 2802 200)" fill="black"/>
<rect id="2-iem-25" width="99.9995" height="100" transform="matrix(-2.17246e-07 -1 -1 2.19881e-07 2702 200)" fill="black"/>
<rect id="2-iem-24" width="99.9995" height="100" transform="matrix(-2.17246e-07 -1 -1 2.19881e-07 2602 200)" fill="black"/>
<rect id="2-iem-23" width="99.9995" height="100" transform="matrix(-2.17246e-07 -1 -1 2.19881e-07 2502 200)" fill="black"/>
<rect id="2-iem-22" width="99.9995" height="100" transform="matrix(-2.17246e-07 -1 -1 2.19881e-07 2402 200)" fill="black"/>
<rect id="2-iem-21" width="99.9995" height="100" transform="matrix(-2.17246e-07 -1 -1 2.19881e-07 2302 200)" fill="black"/>
</g>
<g id="2-iem-3">
<rect id="2-iem-36" width="99.9995" height="100" transform="matrix(-2.18125e-07 -1 -1 2.19002e-07 2802 300)" fill="black"/>
<rect id="2-iem-35" width="99.9995" height="100" transform="matrix(-2.17246e-07 -1 -1 2.19881e-07 2702 300)" fill="black"/>
<rect id="2-iem-34" width="99.9995" height="100" transform="matrix(-2.17246e-07 -1 -1 2.19881e-07 2602 300)" fill="black"/>
<rect id="2-iem-33" width="99.9995" height="100" transform="matrix(-2.17246e-07 -1 -1 2.19881e-07 2502 300)" fill="black"/>
<rect id="2-iem-32" width="99.9995" height="100" transform="matrix(-2.17246e-07 -1 -1 2.19881e-07 2402 300)" fill="black"/>
<rect id="2-iem-31" width="99.9995" height="100" transform="matrix(-2.17246e-07 -1 -1 2.19881e-07 2302 300)" fill="black"/>
</g>
<g id="2-iem-4">
<rect id="2-iem-46" width="99.9995" height="100" transform="matrix(-2.18125e-07 -1 -1 2.19002e-07 2802 400)" fill="black"/>
<rect id="2-iem-45" width="99.9995" height="100" transform="matrix(-2.17246e-07 -1 -1 2.19881e-07 2702 400)" fill="black"/>
<rect id="2-iem-44" width="99.9995" height="100" transform="matrix(-2.17246e-07 -1 -1 2.19881e-07 2602 400)" fill="black"/>
<rect id="2-iem-43" width="99.9995" height="100" transform="matrix(-2.17246e-07 -1 -1 2.19881e-07 2502 400)" fill="black"/>
<rect id="2-iem-42" width="99.9995" height="100" transform="matrix(-2.17246e-07 -1 -1 2.19881e-07 2402 400)" fill="black"/>
<rect id="2-iem-41" width="99.9995" height="100" transform="matrix(-2.17246e-07 -1 -1 2.19881e-07 2302 400)" fill="black"/>
</g>
<g id="2-iem-5">
<rect id="2-iem-56" width="99.9995" height="100" transform="matrix(-2.18125e-07 -1 -1 2.19002e-07 2802 500)" fill="black"/>
<rect id="2-iem-55" width="99.9995" height="100" transform="matrix(-2.17246e-07 -1 -1 2.19881e-07 2702 500)" fill="black"/>
<rect id="2-iem-54" width="99.9995" height="100" transform="matrix(-2.17246e-07 -1 -1 2.19881e-07 2602 500)" fill="black"/>
<rect id="2-iem-53" width="99.9995" height="100" transform="matrix(-2.17246e-07 -1 -1 2.19881e-07 2502 500)" fill="black"/>
<rect id="2-iem-52" width="99.9995" height="100" transform="matrix(-2.17246e-07 -1 -1 2.19881e-07 2402 500)" fill="black"/>
<rect id="2-iem-51" width="99.9995" height="100" transform="matrix(-2.17246e-07 -1 -1 2.19881e-07 2302 500)" fill="black"/>
</g>
</g>
<g id="memory-matrix">
<g id="2-mm1">
<rect id="2-mm-16" width="99.9995" height="100" transform="matrix(-2.18125e-07 -1 -1 2.19002e-07 2800 800)" fill="black"/>
<rect id="2-mm-15" width="99.9995" height="100" transform="matrix(-2.17246e-07 -1 -1 2.19881e-07 2700 800)" fill="black"/>
<rect id="2-mm-14" width="99.9995" height="100" transform="matrix(-2.17246e-07 -1 -1 2.19881e-07 2600 800)" fill="black"/>
<rect id="2-mm-13" width="99.9995" height="100" transform="matrix(-2.17246e-07 -1 -1 2.19881e-07 2500 800)" fill="black"/>
<rect id="2-mm-12" width="99.9995" height="100" transform="matrix(-2.17246e-07 -1 -1 2.19881e-07 2400 800)" fill="black"/>
<rect id="2-mm-11" width="99.9995" height="100" transform="matrix(-2.17246e-07 -1 -1 2.19881e-07 2300 800)" fill="black"/>
</g>
<g id="2-mm2">
<rect id="2-mm-26" width="99.9995" height="100" transform="matrix(-2.18125e-07 -1 -1 2.19002e-07 2800 900)" fill="black"/>
<rect id="2-mm-25" width="99.9995" height="100" transform="matrix(-2.17246e-07 -1 -1 2.19881e-07 2700 900)" fill="black"/>
<rect id="2-mm-24" width="99.9995" height="100" transform="matrix(-2.17246e-07 -1 -1 2.19881e-07 2600 900)" fill="black"/>
<rect id="2-mm-23" width="99.9995" height="100" transform="matrix(-2.17246e-07 -1 -1 2.19881e-07 2500 900)" fill="black"/>
<rect id="2-mm-22" width="99.9995" height="100" transform="matrix(-2.17246e-07 -1 -1 2.19881e-07 2400 900)" fill="black"/>
<rect id="2-mm-21" width="99.9995" height="100" transform="matrix(-2.17246e-07 -1 -1 2.19881e-07 2300 900)" fill="black"/>
</g>
<g id="2-mm3">
<rect id="2-mm-36" width="99.9995" height="100" transform="matrix(-2.18125e-07 -1 -1 2.19002e-07 2800 1000)" fill="black"/>
<rect id="2-mm-35" width="99.9995" height="100" transform="matrix(-2.17246e-07 -1 -1 2.19881e-07 2700 1000)" fill="black"/>
<rect id="2-mm-34" width="99.9995" height="100" transform="matrix(-2.17246e-07 -1 -1 2.19881e-07 2600 1000)" fill="black"/>
<rect id="2-mm-33" width="99.9995" height="100" transform="matrix(-2.17246e-07 -1 -1 2.19881e-07 2500 1000)" fill="black"/>
<rect id="2-mm-32" width="99.9995" height="100" transform="matrix(-2.17246e-07 -1 -1 2.19881e-07 2400 1000)" fill="black"/>
<rect id="2-mm-31" width="99.9995" height="100" transform="matrix(-2.17246e-07 -1 -1 2.19881e-07 2300 1000)" fill="black"/>
</g>
<g id="2-mm4">
<rect id="2-mm-46" width="99.9995" height="100" transform="matrix(-2.18125e-07 -1 -1 2.19002e-07 2800 1100)" fill="black"/>
<rect id="2-mm-45" width="99.9995" height="100" transform="matrix(-2.17683e-07 -1 -1 2.1944e-07 2700 1100)" fill="black"/>
<rect id="2-mm-44" width="99.9995" height="100" transform="matrix(-2.17683e-07 -1 -1 2.1944e-07 2600 1100)" fill="black"/>
<rect id="2-mm-43" width="99.9995" height="100" transform="matrix(-2.17683e-07 -1 -1 2.1944e-07 2500 1100)" fill="black"/>
<rect id="2-mm-42" width="99.9995" height="100" transform="matrix(-2.17683e-07 -1 -1 2.1944e-07 2400 1100)" fill="black"/>
<rect id="2-mm-41" width="99.9995" height="100" transform="matrix(-2.17683e-07 -1 -1 2.1944e-07 2300 1100)" fill="black"/>
</g>
<g id="2-mm5">
<rect id="2-mm-56" width="99.9995" height="100" transform="matrix(-2.18125e-07 -1 -1 2.19002e-07 2800 1200)" fill="black"/>
<rect id="2-mm-55" width="99.9995" height="100" transform="matrix(-2.17683e-07 -1 -1 2.1944e-07 2700 1200)" fill="black"/>
<rect id="2-mm-54" width="99.9995" height="100" transform="matrix(-2.17683e-07 -1 -1 2.1944e-07 2600 1200)" fill="black"/>
<rect id="2-mm-53" width="99.9995" height="100" transform="matrix(-2.17683e-07 -1 -1 2.1944e-07 2500 1200)" fill="black"/>
<rect id="2-mm-52" width="99.9995" height="100" transform="matrix(-2.17683e-07 -1 -1 2.1944e-07 2400 1200)" fill="black"/>
<rect id="2-mm-51" width="99.9995" height="100" transform="matrix(-2.17683e-07 -1 -1 2.1944e-07 2300 1200)" fill="black"/>
</g>
</g>
<g id="erased-memory-matrix">
<g id="2-emm1">
<rect id="2-emm-16" width="99" height="100" transform="matrix(-2.18998e-07 -1 -1 2.1812e-07 3700 99.0005)" fill="black"/>
<rect id="2-emm-15" width="99" height="100" transform="matrix(-2.18557e-07 -1 -1 2.18557e-07 3600 99)" fill="black"/>
<rect id="2-emm-14" width="99" height="100" transform="matrix(-2.18557e-07 -1 -1 2.18557e-07 3500 99)" fill="black"/>
<rect id="2-emm-13" width="99" height="100" transform="matrix(-2.18557e-07 -1 -1 2.18557e-07 3400 99)" fill="black"/>
<rect id="2-emm-12" width="99" height="100" transform="matrix(-2.18557e-07 -1 -1 2.18557e-07 3300 99)" fill="black"/>
<rect id="2-emm-11" width="99" height="100" transform="matrix(-2.18557e-07 -1 -1 2.18557e-07 3200 99)" fill="black"/>
</g>
<g id="2-emm2">
<rect id="2-emm-26" width="99" height="100" transform="matrix(-2.18998e-07 -1 -1 2.1812e-07 3700 198.001)" fill="black"/>
<rect id="2-emm-25" width="99" height="100" transform="matrix(-2.18557e-07 -1 -1 2.18557e-07 3600 198)" fill="black"/>
<rect id="2-emm-24" width="99" height="100" transform="matrix(-2.18557e-07 -1 -1 2.18557e-07 3500 198)" fill="black"/>
<rect id="2-emm-23" width="99" height="100" transform="matrix(-2.18557e-07 -1 -1 2.18557e-07 3400 198)" fill="black"/>
<rect id="2-emm-22" width="99" height="100" transform="matrix(-2.18557e-07 -1 -1 2.18557e-07 3300 198)" fill="black"/>
<rect id="2-emm-21" width="99" height="100" transform="matrix(-2.18557e-07 -1 -1 2.18557e-07 3200 198)" fill="black"/>
</g>
<g id="2-emm3">
<rect id="2-emm-36" width="99" height="100" transform="matrix(-2.18998e-07 -1 -1 2.1812e-07 3700 297.001)" fill="black"/>
<rect id="2-emm-35" width="99" height="100" transform="matrix(-2.18557e-07 -1 -1 2.18557e-07 3600 297.001)" fill="black"/>
<rect id="2-emm-34" width="99" height="100" transform="matrix(-2.18557e-07 -1 -1 2.18557e-07 3500 297.001)" fill="black"/>
<rect id="2-emm-33" width="99" height="100" transform="matrix(-2.18557e-07 -1 -1 2.18557e-07 3400 297.001)" fill="black"/>
<rect id="2-emm-32" width="99" height="100" transform="matrix(-2.18557e-07 -1 -1 2.18557e-07 3300 297.001)" fill="black"/>
<rect id="2-emm-31" width="99" height="100" transform="matrix(-2.18557e-07 -1 -1 2.18557e-07 3200 297.001)" fill="black"/>
</g>
<g id="2-emm4">
<rect id="2-emm-46" width="99" height="100" transform="matrix(-2.18998e-07 -1 -1 2.1812e-07 3700 396.002)" fill="black"/>
<rect id="2-emm-45" width="99" height="100" transform="matrix(-2.18557e-07 -1 -1 2.18557e-07 3600 396.001)" fill="black"/>
<rect id="2-emm-44" width="99" height="100" transform="matrix(-2.18557e-07 -1 -1 2.18557e-07 3500 396.001)" fill="black"/>
<rect id="2-emm-43" width="99" height="100" transform="matrix(-2.18557e-07 -1 -1 2.18557e-07 3400 396.001)" fill="black"/>
<rect id="2-emm-42" width="99" height="100" transform="matrix(-2.18557e-07 -1 -1 2.18557e-07 3300 396.001)" fill="black"/>
<rect id="2-emm-41" width="99" height="100" transform="matrix(-2.18557e-07 -1 -1 2.18557e-07 3200 396.001)" fill="black"/>
</g>
<g id="2-emm5">
<rect id="2-emm-56" width="99" height="100" transform="matrix(-2.18998e-07 -1 -1 2.1812e-07 3700 495.002)" fill="black"/>
<rect id="2-emm-55" width="99" height="100" transform="matrix(-2.18557e-07 -1 -1 2.18557e-07 3600 495.002)" fill="black"/>
<rect id="2-emm-54" width="99" height="100" transform="matrix(-2.18557e-07 -1 -1 2.18557e-07 3500 495.002)" fill="black"/>
<rect id="2-emm-53" width="99" height="100" transform="matrix(-2.18557e-07 -1 -1 2.18557e-07 3400 495.002)" fill="black"/>
<rect id="2-emm-52" width="99" height="100" transform="matrix(-2.18557e-07 -1 -1 2.18557e-07 3300 495.002)" fill="black"/>
<rect id="2-emm-51" width="99" height="100" transform="matrix(-2.18557e-07 -1 -1 2.18557e-07 3200 495.002)" fill="black"/>
</g>
</g>
<path id="memory matrix" d="M2008.67 932H1996.92V930.389C1997.3 930.356 1997.67 930.324 1998.05 930.291C1998.44 930.258 1998.78 930.193 1999.07 930.096C1999.53 929.949 1999.86 929.697 2000.07 929.339C2000.3 928.965 2000.42 928.484 2000.42 927.898V915.472C2000.42 913.779 2000.02 912.477 1999.24 911.565C1998.48 910.638 1997.52 910.174 1996.36 910.174C1995.56 910.174 1994.82 910.296 1994.12 910.54C1993.42 910.784 1992.77 911.126 1992.19 911.565C1991.72 911.924 1991.32 912.314 1990.99 912.737C1990.68 913.144 1990.45 913.486 1990.28 913.763V927.654C1990.28 928.224 1990.38 928.696 1990.58 929.07C1990.77 929.428 1991.11 929.705 1991.58 929.9C1991.95 930.047 1992.29 930.161 1992.58 930.242C1992.89 930.307 1993.29 930.356 1993.77 930.389V932H1982.28V930.389C1982.65 930.356 1983.01 930.324 1983.35 930.291C1983.71 930.258 1984.03 930.193 1984.33 930.096C1984.78 929.949 1985.12 929.697 1985.33 929.339C1985.56 928.965 1985.67 928.484 1985.67 927.898V915.472C1985.67 913.779 1985.28 912.477 1984.5 911.565C1983.73 910.638 1982.77 910.174 1981.62 910.174C1980.82 910.174 1980.07 910.304 1979.37 910.564C1978.67 910.809 1978.03 911.15 1977.44 911.59C1976.97 911.948 1976.57 912.355 1976.25 912.811C1975.92 913.25 1975.68 913.584 1975.51 913.812V927.605C1975.51 928.159 1975.63 928.623 1975.85 928.997C1976.08 929.371 1976.42 929.656 1976.88 929.852C1977.22 930.014 1977.57 930.136 1977.93 930.218C1978.29 930.299 1978.69 930.356 1979.13 930.389V932H1967.43V930.389C1967.81 930.356 1968.19 930.324 1968.58 930.291C1968.99 930.258 1969.34 930.193 1969.63 930.096C1970.08 929.949 1970.42 929.697 1970.63 929.339C1970.86 928.965 1970.97 928.484 1970.97 927.898V912.933C1970.97 912.412 1970.85 911.948 1970.61 911.541C1970.38 911.118 1970.05 910.76 1969.63 910.467C1969.32 910.271 1968.94 910.117 1968.48 910.003C1968.03 909.873 1967.55 909.791 1967.07 909.759V908.172L1975.12 907.635L1975.46 907.977V911.419H1975.63C1976.04 911.012 1976.54 910.532 1977.12 909.979C1977.71 909.425 1978.26 908.978 1978.76 908.636C1979.33 908.245 1980.04 907.92 1980.88 907.659C1981.75 907.399 1982.67 907.269 1983.67 907.269C1985.23 907.269 1986.57 907.692 1987.7 908.538C1988.82 909.368 1989.62 910.377 1990.11 911.565C1990.7 910.996 1991.21 910.499 1991.65 910.076C1992.11 909.637 1992.7 909.173 1993.43 908.685C1994.05 908.261 1994.78 907.92 1995.61 907.659C1996.45 907.399 1997.39 907.269 1998.41 907.269C2000.45 907.269 2002.06 907.936 2003.25 909.271C2004.44 910.605 2005.03 912.656 2005.03 915.423V927.654C2005.03 928.224 2005.13 928.696 2005.32 929.07C2005.52 929.428 2005.85 929.705 2006.32 929.9C2006.7 930.047 2007.06 930.161 2007.42 930.242C2007.8 930.307 2008.21 930.356 2008.67 930.389V932ZM2032.86 926.336C2031.85 928.257 2030.5 929.786 2028.81 930.926C2027.12 932.065 2025.17 932.635 2022.97 932.635C2021.04 932.635 2019.34 932.293 2017.87 931.609C2016.42 930.926 2015.23 929.998 2014.28 928.826C2013.34 927.654 2012.63 926.287 2012.16 924.725C2011.7 923.162 2011.47 921.51 2011.47 919.769C2011.47 918.206 2011.72 916.676 2012.21 915.179C2012.71 913.665 2013.44 912.306 2014.4 911.102C2015.33 909.946 2016.48 909.018 2017.85 908.318C2019.23 907.602 2020.78 907.244 2022.49 907.244C2024.24 907.244 2025.75 907.521 2027 908.074C2028.26 908.628 2029.27 909.384 2030.05 910.345C2030.8 911.256 2031.36 912.33 2031.71 913.567C2032.09 914.804 2032.28 916.147 2032.28 917.596V919.207H2016.33C2016.33 920.786 2016.48 922.218 2016.77 923.504C2017.08 924.79 2017.56 925.921 2018.21 926.897C2018.85 927.841 2019.68 928.59 2020.7 929.144C2021.73 929.681 2022.95 929.949 2024.37 929.949C2025.81 929.949 2027.06 929.616 2028.1 928.948C2029.16 928.265 2030.18 927.044 2031.15 925.286L2032.86 926.336ZM2027.47 917.156C2027.47 916.245 2027.38 915.268 2027.22 914.227C2027.08 913.185 2026.83 912.314 2026.49 911.614C2026.11 910.866 2025.6 910.255 2024.95 909.783C2024.3 909.311 2023.46 909.075 2022.44 909.075C2020.73 909.075 2019.3 909.791 2018.16 911.224C2017.04 912.64 2016.43 914.617 2016.33 917.156H2027.47ZM2076.88 932H2065.14V930.389C2065.51 930.356 2065.89 930.324 2066.26 930.291C2066.65 930.258 2066.99 930.193 2067.29 930.096C2067.74 929.949 2068.07 929.697 2068.29 929.339C2068.51 928.965 2068.63 928.484 2068.63 927.898V915.472C2068.63 913.779 2068.24 912.477 2067.46 911.565C2066.69 910.638 2065.73 910.174 2064.58 910.174C2063.78 910.174 2063.03 910.296 2062.33 910.54C2061.63 910.784 2060.99 911.126 2060.4 911.565C2059.93 911.924 2059.53 912.314 2059.2 912.737C2058.89 913.144 2058.66 913.486 2058.5 913.763V927.654C2058.5 928.224 2058.59 928.696 2058.79 929.07C2058.98 929.428 2059.32 929.705 2059.79 929.9C2060.16 930.047 2060.5 930.161 2060.79 930.242C2061.1 930.307 2061.5 930.356 2061.99 930.389V932H2050.49V930.389C2050.86 930.356 2051.22 930.324 2051.56 930.291C2051.92 930.258 2052.25 930.193 2052.54 930.096C2052.99 929.949 2053.33 929.697 2053.54 929.339C2053.77 928.965 2053.88 928.484 2053.88 927.898V915.472C2053.88 913.779 2053.49 912.477 2052.71 911.565C2051.94 910.638 2050.98 910.174 2049.83 910.174C2049.03 910.174 2048.28 910.304 2047.58 910.564C2046.88 910.809 2046.24 911.15 2045.65 911.59C2045.18 911.948 2044.78 912.355 2044.46 912.811C2044.13 913.25 2043.89 913.584 2043.73 913.812V927.605C2043.73 928.159 2043.84 928.623 2044.07 928.997C2044.3 929.371 2044.64 929.656 2045.09 929.852C2045.43 930.014 2045.78 930.136 2046.14 930.218C2046.5 930.299 2046.9 930.356 2047.34 930.389V932H2035.64V930.389C2036.02 930.356 2036.4 930.324 2036.79 930.291C2037.2 930.258 2037.55 930.193 2037.84 930.096C2038.3 929.949 2038.63 929.697 2038.84 929.339C2039.07 928.965 2039.18 928.484 2039.18 927.898V912.933C2039.18 912.412 2039.06 911.948 2038.82 911.541C2038.59 911.118 2038.26 910.76 2037.84 910.467C2037.53 910.271 2037.15 910.117 2036.69 910.003C2036.24 909.873 2035.77 909.791 2035.28 909.759V908.172L2043.33 907.635L2043.68 907.977V911.419H2043.85C2044.25 911.012 2044.75 910.532 2045.34 909.979C2045.92 909.425 2046.47 908.978 2046.97 908.636C2047.54 908.245 2048.25 907.92 2049.1 907.659C2049.96 907.399 2050.89 907.269 2051.88 907.269C2053.44 907.269 2054.79 907.692 2055.91 908.538C2057.03 909.368 2057.84 910.377 2058.33 911.565C2058.91 910.996 2059.42 910.499 2059.86 910.076C2060.32 909.637 2060.91 909.173 2061.65 908.685C2062.26 908.261 2062.99 907.92 2063.82 907.659C2064.66 907.399 2065.6 907.269 2066.63 907.269C2068.66 907.269 2070.27 907.936 2071.46 909.271C2072.65 910.605 2073.24 912.656 2073.24 915.423V927.654C2073.24 928.224 2073.34 928.696 2073.54 929.07C2073.73 929.428 2074.06 929.705 2074.54 929.9C2074.91 930.047 2075.28 930.161 2075.63 930.242C2076.01 930.307 2076.42 930.356 2076.88 930.389V932ZM2103.15 919.72C2103.15 921.412 2102.88 923.081 2102.34 924.725C2101.81 926.352 2101.04 927.736 2100.05 928.875C2098.93 930.177 2097.62 931.146 2096.14 931.78C2094.66 932.415 2093 932.732 2091.16 932.732C2089.63 932.732 2088.18 932.448 2086.79 931.878C2085.41 931.292 2084.18 930.446 2083.11 929.339C2082.05 928.248 2081.2 926.922 2080.57 925.359C2079.95 923.781 2079.64 922.015 2079.64 920.062C2079.64 916.302 2080.73 913.226 2082.91 910.833C2085.11 908.44 2087.98 907.244 2091.53 907.244C2094.9 907.244 2097.67 908.383 2099.85 910.662C2102.05 912.924 2103.15 915.944 2103.15 919.72ZM2098.1 919.769C2098.1 918.548 2097.97 917.262 2097.73 915.911C2097.49 914.544 2097.12 913.388 2096.63 912.444C2096.11 911.435 2095.43 910.63 2094.58 910.027C2093.73 909.409 2092.7 909.1 2091.48 909.1C2090.23 909.1 2089.15 909.409 2088.26 910.027C2087.38 910.646 2086.66 911.492 2086.11 912.566C2085.59 913.559 2085.22 914.69 2085.01 915.96C2084.8 917.229 2084.69 918.458 2084.69 919.646C2084.69 921.209 2084.81 922.658 2085.06 923.992C2085.32 925.311 2085.73 926.491 2086.28 927.532C2086.83 928.574 2087.52 929.396 2088.35 929.998C2089.2 930.584 2090.24 930.877 2091.48 930.877C2093.51 930.877 2095.13 929.892 2096.31 927.923C2097.5 925.953 2098.1 923.235 2098.1 919.769ZM2125.07 911.028C2125.07 911.858 2124.87 912.599 2124.46 913.25C2124.06 913.885 2123.43 914.202 2122.58 914.202C2121.67 914.202 2120.97 913.966 2120.48 913.494C2120.01 913.022 2119.78 912.501 2119.78 911.932C2119.78 911.574 2119.8 911.248 2119.85 910.955C2119.91 910.662 2119.97 910.369 2120.02 910.076C2119.25 910.076 2118.36 910.385 2117.33 911.004C2116.31 911.622 2115.44 912.501 2114.72 913.641V927.654C2114.72 928.224 2114.83 928.688 2115.04 929.046C2115.27 929.404 2115.62 929.673 2116.09 929.852C2116.5 930.014 2117.02 930.136 2117.65 930.218C2118.3 930.299 2118.86 930.356 2119.34 930.389V932H2106.64V930.389C2107.01 930.356 2107.4 930.324 2107.79 930.291C2108.19 930.258 2108.54 930.193 2108.84 930.096C2109.29 929.949 2109.63 929.697 2109.84 929.339C2110.07 928.965 2110.18 928.484 2110.18 927.898V913.03C2110.18 912.526 2110.06 912.029 2109.81 911.541C2109.59 911.053 2109.26 910.662 2108.84 910.369C2108.53 910.174 2108.16 910.035 2107.74 909.954C2107.32 909.856 2106.86 909.791 2106.37 909.759V908.172L2114.38 907.635L2114.72 907.977V911.37H2114.84C2115.85 910.052 2116.98 909.051 2118.21 908.367C2119.45 907.684 2120.58 907.342 2121.61 907.342C2122.63 907.342 2123.46 907.675 2124.1 908.343C2124.75 909.01 2125.07 909.905 2125.07 911.028ZM2125.32 939.861C2125.32 939.048 2125.54 938.38 2125.98 937.859C2126.43 937.355 2126.99 937.103 2127.66 937.103C2128.18 937.103 2128.63 937.2 2129 937.396C2129.38 937.591 2129.71 937.843 2130 938.152C2130.25 938.396 2130.51 938.73 2130.79 939.153C2131.06 939.576 2131.28 939.926 2131.45 940.203C2132.26 939.764 2133.23 938.616 2134.35 936.761C2135.49 934.905 2136.31 933.278 2136.82 931.878C2135.27 928.021 2133.87 924.57 2132.62 921.526C2131.36 918.483 2130.05 915.333 2128.69 912.078C2128.38 911.329 2127.86 910.752 2127.12 910.345C2126.39 909.922 2125.66 909.653 2124.93 909.539V907.928H2135.91V909.637C2135.42 909.653 2134.84 909.759 2134.16 909.954C2133.47 910.133 2133.13 910.345 2133.13 910.589C2133.13 910.687 2133.16 910.849 2133.23 911.077C2133.31 911.305 2133.4 911.541 2133.5 911.785C2134.11 913.396 2135.06 915.724 2136.33 918.768C2137.6 921.795 2138.58 924.22 2139.28 926.043C2140.01 924.301 2140.77 922.503 2141.55 920.647C2142.35 918.776 2143.24 916.57 2144.21 914.031C2144.33 913.722 2144.49 913.299 2144.7 912.762C2144.91 912.208 2145.02 911.736 2145.02 911.346C2145.02 910.923 2144.65 910.532 2143.9 910.174C2143.16 909.799 2142.46 909.572 2141.8 909.49V907.928H2150.73V909.441C2150.24 909.523 2149.6 909.808 2148.8 910.296C2148.01 910.768 2147.41 911.443 2147.02 912.322C2145.08 916.814 2143.36 920.908 2141.85 924.603C2140.35 928.297 2139.21 931.015 2138.43 932.757C2137.4 935.035 2136.48 936.81 2135.67 938.079C2134.87 939.365 2134.09 940.374 2133.33 941.106C2132.58 941.79 2131.89 942.246 2131.27 942.474C2130.67 942.718 2130.05 942.84 2129.39 942.84C2128.12 942.84 2127.12 942.539 2126.39 941.937C2125.68 941.334 2125.32 940.643 2125.32 939.861ZM2046.07 989H2034.33V987.389C2034.7 987.356 2035.07 987.324 2035.45 987.291C2035.84 987.258 2036.18 987.193 2036.47 987.096C2036.93 986.949 2037.26 986.697 2037.48 986.339C2037.7 985.965 2037.82 985.484 2037.82 984.898V972.472C2037.82 970.779 2037.43 969.477 2036.65 968.565C2035.88 967.638 2034.92 967.174 2033.76 967.174C2032.97 967.174 2032.22 967.296 2031.52 967.54C2030.82 967.784 2030.18 968.126 2029.59 968.565C2029.12 968.924 2028.72 969.314 2028.39 969.737C2028.08 970.144 2027.85 970.486 2027.69 970.763V984.654C2027.69 985.224 2027.78 985.696 2027.98 986.07C2028.17 986.428 2028.51 986.705 2028.98 986.9C2029.35 987.047 2029.69 987.161 2029.98 987.242C2030.29 987.307 2030.69 987.356 2031.18 987.389V989H2019.68V987.389C2020.05 987.356 2020.41 987.324 2020.75 987.291C2021.11 987.258 2021.44 987.193 2021.73 987.096C2022.18 986.949 2022.52 986.697 2022.73 986.339C2022.96 985.965 2023.07 985.484 2023.07 984.898V972.472C2023.07 970.779 2022.68 969.477 2021.9 968.565C2021.13 967.638 2020.17 967.174 2019.02 967.174C2018.22 967.174 2017.47 967.304 2016.77 967.564C2016.07 967.809 2015.43 968.15 2014.84 968.59C2014.37 968.948 2013.97 969.355 2013.65 969.811C2013.32 970.25 2013.08 970.584 2012.92 970.812V984.605C2012.92 985.159 2013.03 985.623 2013.26 985.997C2013.48 986.371 2013.83 986.656 2014.28 986.852C2014.62 987.014 2014.97 987.136 2015.33 987.218C2015.69 987.299 2016.09 987.356 2016.53 987.389V989H2004.83V987.389C2005.21 987.356 2005.59 987.324 2005.98 987.291C2006.39 987.258 2006.74 987.193 2007.03 987.096C2007.49 986.949 2007.82 986.697 2008.03 986.339C2008.26 985.965 2008.37 985.484 2008.37 984.898V969.933C2008.37 969.412 2008.25 968.948 2008.01 968.541C2007.78 968.118 2007.45 967.76 2007.03 967.467C2006.72 967.271 2006.34 967.117 2005.88 967.003C2005.43 966.873 2004.96 966.791 2004.47 966.759V965.172L2012.52 964.635L2012.87 964.977V968.419H2013.04C2013.44 968.012 2013.94 967.532 2014.53 966.979C2015.11 966.425 2015.66 965.978 2016.16 965.636C2016.73 965.245 2017.44 964.92 2018.29 964.659C2019.15 964.399 2020.08 964.269 2021.07 964.269C2022.63 964.269 2023.97 964.692 2025.1 965.538C2026.22 966.368 2027.03 967.377 2027.51 968.565C2028.1 967.996 2028.61 967.499 2029.05 967.076C2029.51 966.637 2030.1 966.173 2030.83 965.685C2031.45 965.261 2032.18 964.92 2033.01 964.659C2033.85 964.399 2034.79 964.269 2035.82 964.269C2037.85 964.269 2039.46 964.936 2040.65 966.271C2041.84 967.605 2042.43 969.656 2042.43 972.423V984.654C2042.43 985.224 2042.53 985.696 2042.72 986.07C2042.92 986.428 2043.25 986.705 2043.73 986.9C2044.1 987.047 2044.47 987.161 2044.82 987.242C2045.2 987.307 2045.61 987.356 2046.07 987.389V989ZM2071.68 988.561C2070.91 988.837 2070.24 989.057 2069.65 989.22C2069.08 989.399 2068.43 989.488 2067.7 989.488C2066.43 989.488 2065.41 989.195 2064.65 988.609C2063.9 988.007 2063.42 987.136 2063.21 985.997H2063.06C2062 987.169 2060.86 988.064 2059.64 988.683C2058.44 989.301 2056.98 989.61 2055.27 989.61C2053.47 989.61 2051.98 989.057 2050.81 987.95C2049.65 986.843 2049.07 985.395 2049.07 983.604C2049.07 982.677 2049.2 981.847 2049.46 981.114C2049.72 980.382 2050.11 979.723 2050.63 979.137C2051.04 978.648 2051.58 978.217 2052.25 977.843C2052.91 977.452 2053.54 977.143 2054.13 976.915C2054.86 976.638 2056.34 976.126 2058.57 975.377C2060.82 974.628 2062.33 974.042 2063.11 973.619V971.202C2063.11 970.991 2063.06 970.584 2062.96 969.981C2062.88 969.379 2062.7 968.81 2062.4 968.272C2062.08 967.67 2061.61 967.149 2061.01 966.71C2060.42 966.254 2059.59 966.026 2058.5 966.026C2057.75 966.026 2057.05 966.157 2056.4 966.417C2055.76 966.661 2055.31 966.922 2055.05 967.198C2055.05 967.524 2055.13 968.004 2055.27 968.639C2055.44 969.273 2055.52 969.859 2055.52 970.396C2055.52 970.966 2055.26 971.487 2054.74 971.959C2054.23 972.431 2053.52 972.667 2052.61 972.667C2051.8 972.667 2051.2 972.382 2050.81 971.812C2050.43 971.227 2050.24 970.576 2050.24 969.859C2050.24 969.111 2050.5 968.395 2051.03 967.711C2051.56 967.027 2052.25 966.417 2053.1 965.88C2053.83 965.424 2054.72 965.042 2055.76 964.732C2056.8 964.407 2057.82 964.244 2058.81 964.244C2060.18 964.244 2061.37 964.342 2062.38 964.537C2063.4 964.716 2064.33 965.115 2065.16 965.733C2065.99 966.336 2066.62 967.158 2067.04 968.199C2067.48 969.225 2067.7 970.551 2067.7 972.179C2067.7 974.506 2067.68 976.573 2067.63 978.38C2067.58 980.17 2067.55 982.132 2067.55 984.264C2067.55 984.898 2067.66 985.403 2067.87 985.777C2068.1 986.152 2068.44 986.469 2068.9 986.729C2069.14 986.876 2069.52 986.957 2070.04 986.974C2070.58 986.99 2071.13 986.998 2071.68 986.998V988.561ZM2063.16 975.67C2061.78 976.077 2060.56 976.476 2059.52 976.866C2058.48 977.257 2057.51 977.745 2056.62 978.331C2055.8 978.884 2055.16 979.544 2054.69 980.309C2054.22 981.057 2053.98 981.952 2053.98 982.994C2053.98 984.345 2054.33 985.338 2055.03 985.973C2055.75 986.607 2056.65 986.925 2057.74 986.925C2058.89 986.925 2059.91 986.648 2060.79 986.095C2061.67 985.525 2062.41 984.858 2063.01 984.093L2063.16 975.67ZM2088.94 987.95C2087.88 988.39 2086.88 988.756 2085.94 989.049C2084.99 989.358 2083.84 989.513 2082.47 989.513C2080.45 989.513 2079.03 989.008 2078.2 987.999C2077.38 986.974 2076.98 985.533 2076.98 983.678V967.369H2072.63V965.025H2077.08V957.53H2081.52V965.025H2088.43V967.369H2081.57V980.821C2081.57 981.83 2081.6 982.677 2081.67 983.36C2081.75 984.028 2081.93 984.614 2082.2 985.118C2082.46 985.59 2082.85 985.948 2083.37 986.192C2083.89 986.437 2084.59 986.559 2085.47 986.559C2085.88 986.559 2086.47 986.526 2087.26 986.461C2088.05 986.38 2088.61 986.282 2088.94 986.168V987.95ZM2109.79 968.028C2109.79 968.858 2109.59 969.599 2109.18 970.25C2108.77 970.885 2108.15 971.202 2107.3 971.202C2106.39 971.202 2105.69 970.966 2105.2 970.494C2104.73 970.022 2104.49 969.501 2104.49 968.932C2104.49 968.574 2104.52 968.248 2104.57 967.955C2104.63 967.662 2104.69 967.369 2104.74 967.076C2103.97 967.076 2103.08 967.385 2102.05 968.004C2101.03 968.622 2100.15 969.501 2099.44 970.641V984.654C2099.44 985.224 2099.54 985.688 2099.76 986.046C2099.98 986.404 2100.33 986.673 2100.81 986.852C2101.21 987.014 2101.73 987.136 2102.37 987.218C2103.02 987.299 2103.58 987.356 2104.05 987.389V989H2091.36V987.389C2091.73 987.356 2092.11 987.324 2092.5 987.291C2092.91 987.258 2093.26 987.193 2093.55 987.096C2094.01 986.949 2094.34 986.697 2094.56 986.339C2094.78 985.965 2094.9 985.484 2094.9 984.898V970.03C2094.9 969.526 2094.78 969.029 2094.53 968.541C2094.3 968.053 2093.98 967.662 2093.55 967.369C2093.25 967.174 2092.88 967.035 2092.46 966.954C2092.03 966.856 2091.58 966.791 2091.09 966.759V965.172L2099.1 964.635L2099.44 964.977V968.37H2099.56C2100.57 967.052 2101.69 966.051 2102.93 965.367C2104.17 964.684 2105.3 964.342 2106.32 964.342C2107.35 964.342 2108.18 964.675 2108.81 965.343C2109.46 966.01 2109.79 966.905 2109.79 968.028ZM2123.56 989H2111.91V987.389C2112.29 987.356 2112.67 987.324 2113.06 987.291C2113.47 987.258 2113.82 987.193 2114.11 987.096C2114.57 986.949 2114.9 986.697 2115.11 986.339C2115.34 985.965 2115.45 985.484 2115.45 984.898V970.03C2115.45 969.509 2115.33 969.037 2115.09 968.614C2114.86 968.175 2114.53 967.809 2114.11 967.516C2113.8 967.32 2113.35 967.158 2112.77 967.027C2112.18 966.881 2111.65 966.791 2111.16 966.759V965.172L2119.65 964.635L2120 964.977V984.605C2120 985.175 2120.1 985.647 2120.31 986.021C2120.54 986.396 2120.89 986.673 2121.36 986.852C2121.72 986.998 2122.07 987.12 2122.41 987.218C2122.75 987.299 2123.14 987.356 2123.56 987.389V989ZM2120.48 955.138C2120.48 956.065 2120.17 956.879 2119.56 957.579C2118.95 958.263 2118.2 958.604 2117.31 958.604C2116.48 958.604 2115.76 958.279 2115.14 957.628C2114.53 956.961 2114.23 956.204 2114.23 955.357C2114.23 954.462 2114.53 953.681 2115.14 953.014C2115.76 952.346 2116.48 952.013 2117.31 952.013C2118.24 952.013 2118.99 952.33 2119.58 952.965C2120.18 953.583 2120.48 954.308 2120.48 955.138ZM2149.71 989H2138.67V987.389C2139.4 987.307 2140.02 987.226 2140.53 987.145C2141.05 987.063 2141.31 986.852 2141.31 986.51C2141.31 986.363 2141.23 986.135 2141.06 985.826C2140.9 985.517 2140.74 985.232 2140.58 984.972C2140.17 984.337 2139.61 983.491 2138.89 982.433C2138.19 981.358 2137.33 980.081 2136.3 978.6C2135.46 979.658 2134.68 980.691 2133.96 981.7C2133.24 982.693 2132.5 983.751 2131.71 984.874C2131.6 985.037 2131.48 985.24 2131.35 985.484C2131.23 985.729 2131.18 985.924 2131.18 986.07C2131.18 986.428 2131.4 986.729 2131.86 986.974C2132.33 987.201 2133.03 987.356 2133.96 987.438V989H2125.05V987.486C2126.16 987.161 2127.04 986.77 2127.71 986.314C2128.39 985.842 2129.02 985.265 2129.59 984.581C2130.09 983.93 2130.79 983.035 2131.69 981.896C2132.6 980.756 2133.77 979.21 2135.21 977.257C2134.38 976.069 2133.36 974.62 2132.15 972.911C2130.97 971.186 2129.98 969.754 2129.2 968.614C2128.78 967.996 2128.29 967.499 2127.73 967.125C2127.2 966.734 2126.43 966.539 2125.44 966.539V964.928H2135.91V966.539C2135.39 966.539 2134.88 966.572 2134.38 966.637C2133.87 966.702 2133.62 966.848 2133.62 967.076C2133.62 967.223 2133.67 967.385 2133.76 967.564C2133.86 967.743 2133.98 967.939 2134.13 968.15C2134.49 968.704 2135.04 969.558 2135.79 970.714C2136.56 971.869 2137.38 973.09 2138.26 974.376C2138.83 973.595 2139.49 972.683 2140.23 971.642C2141 970.6 2141.7 969.607 2142.33 968.663C2142.4 968.549 2142.46 968.411 2142.53 968.248C2142.59 968.069 2142.63 967.898 2142.63 967.735C2142.63 967.394 2142.34 967.125 2141.77 966.93C2141.22 966.718 2140.69 966.572 2140.19 966.49V964.928H2149.07V966.441C2147.82 966.767 2146.84 967.158 2146.14 967.613C2145.44 968.053 2144.85 968.565 2144.36 969.151C2143.82 969.819 2143.18 970.641 2142.43 971.617C2141.7 972.594 2140.67 973.961 2139.33 975.719C2140.81 977.802 2142.02 979.511 2142.94 980.846C2143.87 982.18 2144.81 983.556 2145.75 984.972C2146.22 985.688 2146.74 986.257 2147.31 986.681C2147.9 987.088 2148.7 987.324 2149.71 987.389V989Z" fill="black"/>
<path id="erased memory" d="M3252.26 573.336C3251.25 575.257 3249.9 576.786 3248.21 577.926C3246.51 579.065 3244.57 579.635 3242.37 579.635C3240.43 579.635 3238.73 579.293 3237.27 578.609C3235.82 577.926 3234.62 576.998 3233.68 575.826C3232.74 574.654 3232.03 573.287 3231.56 571.725C3231.1 570.162 3230.87 568.51 3230.87 566.769C3230.87 565.206 3231.12 563.676 3231.6 562.179C3232.11 560.665 3232.84 559.306 3233.8 558.102C3234.73 556.946 3235.88 556.018 3237.24 555.318C3238.63 554.602 3240.17 554.244 3241.88 554.244C3243.64 554.244 3245.15 554.521 3246.4 555.074C3247.65 555.628 3248.67 556.384 3249.45 557.345C3250.2 558.256 3250.75 559.33 3251.11 560.567C3251.49 561.804 3251.67 563.147 3251.67 564.596V566.207H3235.73C3235.73 567.786 3235.88 569.218 3236.17 570.504C3236.48 571.79 3236.96 572.921 3237.61 573.897C3238.25 574.841 3239.08 575.59 3240.1 576.144C3241.13 576.681 3242.35 576.949 3243.76 576.949C3245.21 576.949 3246.46 576.616 3247.5 575.948C3248.56 575.265 3249.57 574.044 3250.55 572.286L3252.26 573.336ZM3246.86 564.156C3246.86 563.245 3246.78 562.268 3246.62 561.227C3246.47 560.185 3246.23 559.314 3245.89 558.614C3245.51 557.866 3245 557.255 3244.35 556.783C3243.7 556.311 3242.86 556.075 3241.83 556.075C3240.12 556.075 3238.7 556.791 3237.56 558.224C3236.44 559.64 3235.83 561.617 3235.73 564.156H3246.86ZM3273.47 558.028C3273.47 558.858 3273.27 559.599 3272.86 560.25C3272.46 560.885 3271.83 561.202 3270.98 561.202C3270.07 561.202 3269.37 560.966 3268.88 560.494C3268.41 560.022 3268.18 559.501 3268.18 558.932C3268.18 558.574 3268.2 558.248 3268.25 557.955C3268.32 557.662 3268.37 557.369 3268.42 557.076C3267.66 557.076 3266.76 557.385 3265.74 558.004C3264.71 558.622 3263.84 559.501 3263.12 560.641V574.654C3263.12 575.224 3263.23 575.688 3263.44 576.046C3263.67 576.404 3264.02 576.673 3264.49 576.852C3264.9 577.014 3265.42 577.136 3266.05 577.218C3266.7 577.299 3267.27 577.356 3267.74 577.389V579H3255.04V577.389C3255.42 577.356 3255.8 577.324 3256.19 577.291C3256.6 577.258 3256.95 577.193 3257.24 577.096C3257.69 576.949 3258.03 576.697 3258.24 576.339C3258.47 575.965 3258.58 575.484 3258.58 574.898V560.03C3258.58 559.526 3258.46 559.029 3258.22 558.541C3257.99 558.053 3257.66 557.662 3257.24 557.369C3256.93 557.174 3256.56 557.035 3256.14 556.954C3255.72 556.856 3255.26 556.791 3254.77 556.759V555.172L3262.78 554.635L3263.12 554.977V558.37H3263.25C3264.25 557.052 3265.38 556.051 3266.61 555.367C3267.85 554.684 3268.98 554.342 3270.01 554.342C3271.03 554.342 3271.86 554.675 3272.5 555.343C3273.15 556.01 3273.47 556.905 3273.47 558.028ZM3298.35 578.561C3297.59 578.837 3296.91 579.057 3296.33 579.22C3295.76 579.399 3295.11 579.488 3294.37 579.488C3293.1 579.488 3292.09 579.195 3291.32 578.609C3290.57 578.007 3290.09 577.136 3289.88 575.997H3289.73C3288.68 577.169 3287.54 578.064 3286.32 578.683C3285.11 579.301 3283.66 579.61 3281.95 579.61C3280.14 579.61 3278.65 579.057 3277.48 577.95C3276.32 576.843 3275.75 575.395 3275.75 573.604C3275.75 572.677 3275.88 571.847 3276.14 571.114C3276.4 570.382 3276.79 569.723 3277.31 569.137C3277.71 568.648 3278.25 568.217 3278.92 567.843C3279.59 567.452 3280.21 567.143 3280.8 566.915C3281.53 566.638 3283.01 566.126 3285.24 565.377C3287.49 564.628 3289 564.042 3289.78 563.619V561.202C3289.78 560.991 3289.73 560.584 3289.64 559.981C3289.56 559.379 3289.37 558.81 3289.08 558.272C3288.75 557.67 3288.29 557.149 3287.68 556.71C3287.1 556.254 3286.26 556.026 3285.17 556.026C3284.42 556.026 3283.72 556.157 3283.07 556.417C3282.43 556.661 3281.99 556.922 3281.73 557.198C3281.73 557.524 3281.8 558.004 3281.95 558.639C3282.11 559.273 3282.19 559.859 3282.19 560.396C3282.19 560.966 3281.93 561.487 3281.41 561.959C3280.9 562.431 3280.2 562.667 3279.29 562.667C3278.47 562.667 3277.87 562.382 3277.48 561.812C3277.1 561.227 3276.92 560.576 3276.92 559.859C3276.92 559.111 3277.18 558.395 3277.7 557.711C3278.24 557.027 3278.93 556.417 3279.77 555.88C3280.51 555.424 3281.39 555.042 3282.43 554.732C3283.48 554.407 3284.49 554.244 3285.49 554.244C3286.85 554.244 3288.04 554.342 3289.05 554.537C3290.08 554.716 3291 555.115 3291.83 555.733C3292.66 556.336 3293.29 557.158 3293.71 558.199C3294.15 559.225 3294.37 560.551 3294.37 562.179C3294.37 564.506 3294.35 566.573 3294.3 568.38C3294.25 570.17 3294.23 572.132 3294.23 574.264C3294.23 574.898 3294.33 575.403 3294.54 575.777C3294.77 576.152 3295.11 576.469 3295.57 576.729C3295.81 576.876 3296.2 576.957 3296.72 576.974C3297.25 576.99 3297.8 576.998 3298.35 576.998V578.561ZM3289.83 565.67C3288.45 566.077 3287.24 566.476 3286.19 566.866C3285.15 567.257 3284.18 567.745 3283.29 568.331C3282.48 568.884 3281.83 569.544 3281.36 570.309C3280.89 571.057 3280.65 571.952 3280.65 572.994C3280.65 574.345 3281 575.338 3281.7 575.973C3282.42 576.607 3283.32 576.925 3284.41 576.925C3285.57 576.925 3286.58 576.648 3287.46 576.095C3288.34 575.525 3289.08 574.858 3289.69 574.093L3289.83 565.67ZM3316.64 567.208C3317.31 567.794 3317.82 568.469 3318.18 569.234C3318.53 569.999 3318.71 570.935 3318.71 572.042C3318.71 574.272 3317.88 576.095 3316.2 577.511C3314.54 578.927 3312.38 579.635 3309.73 579.635C3308.33 579.635 3307.04 579.382 3305.85 578.878C3304.68 578.373 3303.84 577.91 3303.33 577.486L3302.84 579.073H3301.01L3300.77 570.699H3302.45C3302.58 571.334 3302.86 572.075 3303.28 572.921C3303.71 573.767 3304.22 574.532 3304.82 575.216C3305.46 575.932 3306.21 576.534 3307.09 577.022C3307.99 577.511 3308.99 577.755 3310.1 577.755C3311.66 577.755 3312.86 577.405 3313.71 576.705C3314.56 575.989 3314.98 574.972 3314.98 573.653C3314.98 572.97 3314.84 572.384 3314.56 571.896C3314.3 571.391 3313.91 570.951 3313.39 570.577C3312.85 570.203 3312.2 569.869 3311.41 569.576C3310.63 569.267 3309.76 568.966 3308.8 568.673C3308.04 568.445 3307.18 568.136 3306.24 567.745C3305.31 567.338 3304.51 566.866 3303.85 566.329C3303.13 565.759 3302.54 565.06 3302.09 564.229C3301.63 563.399 3301.4 562.423 3301.4 561.3C3301.4 559.33 3302.14 557.662 3303.6 556.295C3305.07 554.928 3307.03 554.244 3309.49 554.244C3310.43 554.244 3311.39 554.366 3312.37 554.61C3313.36 554.854 3314.16 555.147 3314.78 555.489L3315.34 554.22H3317.1L3317.47 561.959H3315.78C3315.44 560.234 3314.7 558.834 3313.56 557.76C3312.44 556.669 3311.06 556.124 3309.44 556.124C3308.1 556.124 3307.05 556.458 3306.29 557.125C3305.52 557.792 3305.14 558.598 3305.14 559.542C3305.14 560.274 3305.26 560.885 3305.51 561.373C3305.77 561.861 3306.15 562.276 3306.65 562.618C3307.14 562.944 3307.75 563.253 3308.48 563.546C3309.23 563.823 3310.15 564.14 3311.24 564.498C3312.32 564.84 3313.33 565.239 3314.27 565.694C3315.23 566.15 3316.02 566.655 3316.64 567.208ZM3343.76 573.336C3342.75 575.257 3341.4 576.786 3339.71 577.926C3338.02 579.065 3336.07 579.635 3333.88 579.635C3331.94 579.635 3330.24 579.293 3328.77 578.609C3327.32 577.926 3326.13 576.998 3325.18 575.826C3324.24 574.654 3323.53 573.287 3323.06 571.725C3322.6 570.162 3322.38 568.51 3322.38 566.769C3322.38 565.206 3322.62 563.676 3323.11 562.179C3323.61 560.665 3324.35 559.306 3325.31 558.102C3326.23 556.946 3327.38 556.018 3328.75 555.318C3330.13 554.602 3331.68 554.244 3333.39 554.244C3335.14 554.244 3336.65 554.521 3337.9 555.074C3339.16 555.628 3340.17 556.384 3340.96 557.345C3341.7 558.256 3342.26 559.33 3342.62 560.567C3342.99 561.804 3343.18 563.147 3343.18 564.596V566.207H3327.23C3327.23 567.786 3327.38 569.218 3327.67 570.504C3327.98 571.79 3328.46 572.921 3329.11 573.897C3329.75 574.841 3330.58 575.59 3331.6 576.144C3332.63 576.681 3333.85 576.949 3335.27 576.949C3336.72 576.949 3337.96 576.616 3339 575.948C3340.06 575.265 3341.08 574.044 3342.05 572.286L3343.76 573.336ZM3338.37 564.156C3338.37 563.245 3338.29 562.268 3338.12 561.227C3337.98 560.185 3337.73 559.314 3337.39 558.614C3337.02 557.866 3336.5 557.255 3335.85 556.783C3335.2 556.311 3334.36 556.075 3333.34 556.075C3331.63 556.075 3330.2 556.791 3329.07 558.224C3327.94 559.64 3327.33 561.617 3327.23 564.156H3338.37ZM3372.91 578.561L3364.51 579.098L3364.15 578.756V576.51L3363.95 576.461C3363.11 577.405 3362.06 578.178 3360.8 578.78C3359.57 579.382 3358.29 579.684 3356.97 579.684C3355.6 579.684 3354.28 579.382 3352.99 578.78C3351.72 578.162 3350.61 577.299 3349.67 576.192C3348.71 575.069 3347.95 573.718 3347.38 572.14C3346.82 570.561 3346.55 568.819 3346.55 566.915C3346.55 565.174 3346.85 563.521 3347.45 561.959C3348.05 560.396 3348.88 559.029 3349.94 557.857C3350.93 556.767 3352.14 555.896 3353.58 555.245C3355.03 554.594 3356.5 554.269 3358 554.269C3359.12 554.269 3360.22 554.415 3361.29 554.708C3362.38 554.985 3363.32 555.343 3364.1 555.782V547.408C3364.1 546.725 3363.99 546.106 3363.76 545.553C3363.53 544.983 3363.21 544.552 3362.81 544.259C3362.35 543.95 3361.73 543.73 3360.95 543.6C3360.19 543.453 3359.36 543.347 3358.46 543.282V541.769L3368.3 541.207L3368.67 541.573V574.044C3368.67 574.614 3368.77 575.102 3368.98 575.509C3369.21 575.899 3369.54 576.233 3369.96 576.51C3370.27 576.705 3370.72 576.827 3371.3 576.876C3371.89 576.925 3372.42 576.957 3372.91 576.974V578.561ZM3364.1 574.337V560.25C3363.97 559.827 3363.76 559.371 3363.46 558.883C3363.17 558.395 3362.81 557.947 3362.37 557.54C3361.89 557.133 3361.34 556.799 3360.71 556.539C3360.07 556.262 3359.33 556.124 3358.48 556.124C3357.51 556.124 3356.6 556.376 3355.77 556.881C3354.96 557.385 3354.24 558.11 3353.6 559.054C3353 559.965 3352.52 561.129 3352.16 562.545C3351.82 563.945 3351.65 565.499 3351.65 567.208C3351.65 568.575 3351.78 569.82 3352.04 570.943C3352.3 572.05 3352.74 573.084 3353.36 574.044C3353.93 574.955 3354.65 575.688 3355.53 576.241C3356.43 576.795 3357.48 577.071 3358.7 577.071C3360.01 577.071 3361.08 576.786 3361.93 576.217C3362.79 575.647 3363.51 575.021 3364.1 574.337ZM3428.55 579H3416.81V577.389C3417.18 577.356 3417.56 577.324 3417.93 577.291C3418.32 577.258 3418.67 577.193 3418.96 577.096C3419.41 576.949 3419.75 576.697 3419.96 576.339C3420.19 575.965 3420.3 575.484 3420.3 574.898V562.472C3420.3 560.779 3419.91 559.477 3419.13 558.565C3418.36 557.638 3417.4 557.174 3416.25 557.174C3415.45 557.174 3414.7 557.296 3414 557.54C3413.3 557.784 3412.66 558.126 3412.07 558.565C3411.6 558.924 3411.2 559.314 3410.88 559.737C3410.57 560.144 3410.33 560.486 3410.17 560.763V574.654C3410.17 575.224 3410.27 575.696 3410.46 576.07C3410.66 576.428 3410.99 576.705 3411.46 576.9C3411.84 577.047 3412.17 577.161 3412.46 577.242C3412.77 577.307 3413.17 577.356 3413.66 577.389V579H3402.16V577.389C3402.54 577.356 3402.89 577.324 3403.24 577.291C3403.59 577.258 3403.92 577.193 3404.21 577.096C3404.67 576.949 3405 576.697 3405.21 576.339C3405.44 575.965 3405.55 575.484 3405.55 574.898V562.472C3405.55 560.779 3405.16 559.477 3404.38 558.565C3403.62 557.638 3402.66 557.174 3401.5 557.174C3400.7 557.174 3399.96 557.304 3399.26 557.564C3398.56 557.809 3397.91 558.15 3397.33 558.59C3396.86 558.948 3396.46 559.355 3396.13 559.811C3395.81 560.25 3395.56 560.584 3395.4 560.812V574.605C3395.4 575.159 3395.51 575.623 3395.74 575.997C3395.97 576.371 3396.31 576.656 3396.77 576.852C3397.11 577.014 3397.46 577.136 3397.82 577.218C3398.17 577.299 3398.57 577.356 3399.01 577.389V579H3387.32V577.389C3387.69 577.356 3388.07 577.324 3388.46 577.291C3388.87 577.258 3389.22 577.193 3389.51 577.096C3389.97 576.949 3390.3 576.697 3390.52 576.339C3390.74 575.965 3390.86 575.484 3390.86 574.898V559.933C3390.86 559.412 3390.74 558.948 3390.49 558.541C3390.26 558.118 3389.94 557.76 3389.51 557.467C3389.21 557.271 3388.82 557.117 3388.37 557.003C3387.91 556.873 3387.44 556.791 3386.95 556.759V555.172L3395.01 554.635L3395.35 554.977V558.419H3395.52C3395.93 558.012 3396.42 557.532 3397.01 556.979C3397.6 556.425 3398.14 555.978 3398.65 555.636C3399.22 555.245 3399.92 554.92 3400.77 554.659C3401.63 554.399 3402.56 554.269 3403.55 554.269C3405.12 554.269 3406.46 554.692 3407.58 555.538C3408.7 556.368 3409.51 557.377 3410 558.565C3410.58 557.996 3411.1 557.499 3411.54 557.076C3411.99 556.637 3412.59 556.173 3413.32 555.685C3413.94 555.261 3414.66 554.92 3415.49 554.659C3416.34 554.399 3417.27 554.269 3418.3 554.269C3420.33 554.269 3421.94 554.936 3423.13 556.271C3424.32 557.605 3424.92 559.656 3424.92 562.423V574.654C3424.92 575.224 3425.01 575.696 3425.21 576.07C3425.4 576.428 3425.74 576.705 3426.21 576.9C3426.58 577.047 3426.95 577.161 3427.31 577.242C3427.68 577.307 3428.1 577.356 3428.55 577.389V579ZM3452.75 573.336C3451.74 575.257 3450.39 576.786 3448.69 577.926C3447 579.065 3445.06 579.635 3442.86 579.635C3440.92 579.635 3439.22 579.293 3437.76 578.609C3436.31 577.926 3435.11 576.998 3434.17 575.826C3433.22 574.654 3432.52 573.287 3432.04 571.725C3431.59 570.162 3431.36 568.51 3431.36 566.769C3431.36 565.206 3431.6 563.676 3432.09 562.179C3432.6 560.665 3433.33 559.306 3434.29 558.102C3435.22 556.946 3436.37 556.018 3437.73 555.318C3439.12 554.602 3440.66 554.244 3442.37 554.244C3444.13 554.244 3445.63 554.521 3446.89 555.074C3448.14 555.628 3449.16 556.384 3449.94 557.345C3450.69 558.256 3451.24 559.33 3451.6 560.567C3451.97 561.804 3452.16 563.147 3452.16 564.596V566.207H3436.22C3436.22 567.786 3436.37 569.218 3436.66 570.504C3436.97 571.79 3437.45 572.921 3438.1 573.897C3438.73 574.841 3439.56 575.59 3440.59 576.144C3441.61 576.681 3442.83 576.949 3444.25 576.949C3445.7 576.949 3446.94 576.616 3447.99 575.948C3449.04 575.265 3450.06 574.044 3451.04 572.286L3452.75 573.336ZM3447.35 564.156C3447.35 563.245 3447.27 562.268 3447.11 561.227C3446.96 560.185 3446.72 559.314 3446.38 558.614C3446 557.866 3445.49 557.255 3444.84 556.783C3444.19 556.311 3443.35 556.075 3442.32 556.075C3440.61 556.075 3439.19 556.791 3438.05 558.224C3436.93 559.64 3436.32 561.617 3436.22 564.156H3447.35ZM3496.77 579H3485.02V577.389C3485.4 577.356 3485.77 577.324 3486.15 577.291C3486.54 577.258 3486.88 577.193 3487.17 577.096C3487.63 576.949 3487.96 576.697 3488.17 576.339C3488.4 575.965 3488.51 575.484 3488.51 574.898V562.472C3488.51 560.779 3488.12 559.477 3487.34 558.565C3486.58 557.638 3485.62 557.174 3484.46 557.174C3483.66 557.174 3482.91 557.296 3482.21 557.54C3481.51 557.784 3480.87 558.126 3480.29 558.565C3479.81 558.924 3479.42 559.314 3479.09 559.737C3478.78 560.144 3478.54 560.486 3478.38 560.763V574.654C3478.38 575.224 3478.48 575.696 3478.67 576.07C3478.87 576.428 3479.2 576.705 3479.68 576.9C3480.05 577.047 3480.38 577.161 3480.68 577.242C3480.99 577.307 3481.38 577.356 3481.87 577.389V579H3470.37V577.389C3470.75 577.356 3471.11 577.324 3471.45 577.291C3471.81 577.258 3472.13 577.193 3472.42 577.096C3472.88 576.949 3473.21 576.697 3473.43 576.339C3473.65 575.965 3473.77 575.484 3473.77 574.898V562.472C3473.77 560.779 3473.38 559.477 3472.6 558.565C3471.83 557.638 3470.87 557.174 3469.71 557.174C3468.92 557.174 3468.17 557.304 3467.47 557.564C3466.77 557.809 3466.13 558.15 3465.54 558.59C3465.07 558.948 3464.67 559.355 3464.34 559.811C3464.02 560.25 3463.77 560.584 3463.61 560.812V574.605C3463.61 575.159 3463.73 575.623 3463.95 575.997C3464.18 576.371 3464.52 576.656 3464.98 576.852C3465.32 577.014 3465.67 577.136 3466.03 577.218C3466.39 577.299 3466.79 577.356 3467.22 577.389V579H3455.53V577.389C3455.9 577.356 3456.29 577.324 3456.68 577.291C3457.08 577.258 3457.43 577.193 3457.73 577.096C3458.18 576.949 3458.52 576.697 3458.73 576.339C3458.96 575.965 3459.07 575.484 3459.07 574.898V559.933C3459.07 559.412 3458.95 558.948 3458.7 558.541C3458.48 558.118 3458.15 557.76 3457.73 557.467C3457.42 557.271 3457.04 557.117 3456.58 557.003C3456.12 556.873 3455.65 556.791 3455.16 556.759V555.172L3463.22 554.635L3463.56 554.977V558.419H3463.73C3464.14 558.012 3464.64 557.532 3465.22 556.979C3465.81 556.425 3466.35 555.978 3466.86 555.636C3467.43 555.245 3468.14 554.92 3468.98 554.659C3469.85 554.399 3470.77 554.269 3471.77 554.269C3473.33 554.269 3474.67 554.692 3475.79 555.538C3476.92 556.368 3477.72 557.377 3478.21 558.565C3478.8 557.996 3479.31 557.499 3479.75 557.076C3480.2 556.637 3480.8 556.173 3481.53 555.685C3482.15 555.261 3482.87 554.92 3483.7 554.659C3484.55 554.399 3485.49 554.269 3486.51 554.269C3488.55 554.269 3490.16 554.936 3491.35 556.271C3492.53 557.605 3493.13 559.656 3493.13 562.423V574.654C3493.13 575.224 3493.23 575.696 3493.42 576.07C3493.62 576.428 3493.95 576.705 3494.42 576.9C3494.8 577.047 3495.16 577.161 3495.52 577.242C3495.89 577.307 3496.31 577.356 3496.77 577.389V579ZM3523.04 566.72C3523.04 568.412 3522.77 570.081 3522.23 571.725C3521.69 573.352 3520.93 574.736 3519.93 575.875C3518.81 577.177 3517.51 578.146 3516.03 578.78C3514.55 579.415 3512.89 579.732 3511.05 579.732C3509.52 579.732 3508.06 579.448 3506.68 578.878C3505.29 578.292 3504.07 577.446 3502.99 576.339C3501.93 575.248 3501.09 573.922 3500.45 572.359C3499.83 570.781 3499.52 569.015 3499.52 567.062C3499.52 563.302 3500.61 560.226 3502.8 557.833C3504.99 555.44 3507.87 554.244 3511.41 554.244C3514.78 554.244 3517.56 555.383 3519.74 557.662C3521.94 559.924 3523.04 562.944 3523.04 566.72ZM3517.98 566.769C3517.98 565.548 3517.86 564.262 3517.62 562.911C3517.37 561.544 3517 560.388 3516.52 559.444C3516 558.435 3515.31 557.63 3514.47 557.027C3513.62 556.409 3512.59 556.1 3511.37 556.1C3510.11 556.1 3509.04 556.409 3508.14 557.027C3507.26 557.646 3506.55 558.492 3505.99 559.566C3505.47 560.559 3505.11 561.69 3504.9 562.96C3504.68 564.229 3504.58 565.458 3504.58 566.646C3504.58 568.209 3504.7 569.658 3504.94 570.992C3505.2 572.311 3505.61 573.491 3506.17 574.532C3506.72 575.574 3507.41 576.396 3508.24 576.998C3509.09 577.584 3510.13 577.877 3511.37 577.877C3513.4 577.877 3515.01 576.892 3516.2 574.923C3517.39 572.953 3517.98 570.235 3517.98 566.769ZM3544.96 558.028C3544.96 558.858 3544.76 559.599 3544.35 560.25C3543.94 560.885 3543.32 561.202 3542.47 561.202C3541.56 561.202 3540.86 560.966 3540.37 560.494C3539.9 560.022 3539.66 559.501 3539.66 558.932C3539.66 558.574 3539.69 558.248 3539.73 557.955C3539.8 557.662 3539.86 557.369 3539.91 557.076C3539.14 557.076 3538.25 557.385 3537.22 558.004C3536.19 558.622 3535.32 559.501 3534.61 560.641V574.654C3534.61 575.224 3534.71 575.688 3534.92 576.046C3535.15 576.404 3535.5 576.673 3535.97 576.852C3536.38 577.014 3536.9 577.136 3537.54 577.218C3538.19 577.299 3538.75 577.356 3539.22 577.389V579H3526.53V577.389C3526.9 577.356 3527.28 577.324 3527.67 577.291C3528.08 577.258 3528.43 577.193 3528.72 577.096C3529.18 576.949 3529.51 576.697 3529.72 576.339C3529.95 575.965 3530.07 575.484 3530.07 574.898V560.03C3530.07 559.526 3529.94 559.029 3529.7 558.541C3529.47 558.053 3529.15 557.662 3528.72 557.369C3528.41 557.174 3528.05 557.035 3527.62 556.954C3527.2 556.856 3526.75 556.791 3526.26 556.759V555.172L3534.27 554.635L3534.61 554.977V558.37H3534.73C3535.74 557.052 3536.86 556.051 3538.1 555.367C3539.34 554.684 3540.47 554.342 3541.49 554.342C3542.52 554.342 3543.35 554.675 3543.98 555.343C3544.63 556.01 3544.96 556.905 3544.96 558.028ZM3545.2 586.861C3545.2 586.048 3545.42 585.38 3545.86 584.859C3546.32 584.355 3546.88 584.103 3547.55 584.103C3548.07 584.103 3548.52 584.2 3548.89 584.396C3549.26 584.591 3549.6 584.843 3549.89 585.152C3550.13 585.396 3550.4 585.73 3550.67 586.153C3550.95 586.576 3551.17 586.926 3551.33 587.203C3552.14 586.764 3553.11 585.616 3554.24 583.761C3555.38 581.905 3556.2 580.278 3556.7 578.878C3555.16 575.021 3553.76 571.57 3552.5 568.526C3551.25 565.483 3549.94 562.333 3548.57 559.078C3548.26 558.329 3547.74 557.752 3547.01 557.345C3546.28 556.922 3545.54 556.653 3544.81 556.539V554.928H3555.8V556.637C3555.31 556.653 3554.72 556.759 3554.04 556.954C3553.36 557.133 3553.02 557.345 3553.02 557.589C3553.02 557.687 3553.05 557.849 3553.11 558.077C3553.19 558.305 3553.28 558.541 3553.38 558.785C3554 560.396 3554.94 562.724 3556.21 565.768C3557.48 568.795 3558.47 571.22 3559.17 573.043C3559.9 571.301 3560.66 569.503 3561.44 567.647C3562.24 565.776 3563.12 563.57 3564.1 561.031C3564.21 560.722 3564.38 560.299 3564.59 559.762C3564.8 559.208 3564.91 558.736 3564.91 558.346C3564.91 557.923 3564.53 557.532 3563.78 557.174C3563.05 556.799 3562.35 556.572 3561.68 556.49V554.928H3570.62V556.441C3570.13 556.523 3569.49 556.808 3568.69 557.296C3567.89 557.768 3567.3 558.443 3566.91 559.322C3564.97 563.814 3563.25 567.908 3561.73 571.603C3560.23 575.297 3559.09 578.015 3558.31 579.757C3557.29 582.035 3556.37 583.81 3555.55 585.079C3554.76 586.365 3553.98 587.374 3553.21 588.106C3552.46 588.79 3551.78 589.246 3551.16 589.474C3550.56 589.718 3549.93 589.84 3549.28 589.84C3548.01 589.84 3547.01 589.539 3546.28 588.937C3545.56 588.334 3545.2 587.643 3545.2 586.861Z" fill="black"/>
</g>
<defs>
<clipPath id="clip0_156_442">
<rect width="3700" height="1200" fill="white"/>
</clipPath>
</defs>
</svg>
