<svg width="3100" height="600" viewBox="0 0 3100 600" fill="none" xmlns="http://www.w3.org/2000/svg">
<g id="Frame 2">
<g id="weighting-vector">
<rect id="3-wv-5" x="200" y="500.01" width="100" height="100" transform="rotate(-180 200 500.01)" fill="#AAAAAA"/>
<rect id="3-wv-4" x="200" y="400.01" width="100" height="100" transform="rotate(-180 200 400.01)" fill="black"/>
<rect id="3-wv-3" x="200" y="300.01" width="100" height="100" transform="rotate(-180 200 300.01)" fill="#AAAAAA"/>
<rect id="3-wv-2" x="200" y="200.01" width="100" height="100" transform="rotate(-180 200 200.01)" fill="black"/>
<rect id="3-wv-1" x="200" y="100.01" width="100" height="100" transform="rotate(-180 200 100.01)" fill="#AAAAAA"/>
</g>
<g id="memory-matrix">
<g id="3-m1">
<rect id="3-mm-16" width="101.01" height="100" transform="matrix(-2.18557e-07 -1 -1 2.18557e-07 1003 101.01)" fill="black"/>
<rect id="3-mm-15" width="101.01" height="100" transform="matrix(-2.18557e-07 -1 -1 2.18557e-07 903 101.01)" fill="black"/>
<rect id="3-mm-14" width="101.01" height="100" transform="matrix(-2.18557e-07 -1 -1 2.18557e-07 803 101.01)" fill="black"/>
<rect id="3-mm-13" width="101.01" height="100" transform="matrix(-2.18557e-07 -1 -1 2.18557e-07 703 101.01)" fill="black"/>
<rect id="3-mm-12" width="101.01" height="100" transform="matrix(-2.18557e-07 -1 -1 2.18557e-07 603 101.01)" fill="black"/>
<rect id="3-mm-11" width="101.01" height="100" transform="matrix(-2.18557e-07 -1 -1 2.18557e-07 503 101.01)" fill="black"/>
</g>
<g id="3-m2">
<rect id="3-mm-26" width="101.01" height="100" transform="matrix(-2.18557e-07 -1 -1 2.18557e-07 1003 201.01)" fill="black"/>
<rect id="3-mm-25" width="100" height="100" transform="matrix(-2.18557e-07 -1 -1 2.18557e-07 903 201.01)" fill="black"/>
<rect id="3-mm-24" width="100" height="100" transform="matrix(-2.18557e-07 -1 -1 2.18557e-07 803 201.01)" fill="black"/>
<rect id="3-mm-23" width="100" height="100" transform="matrix(-2.18557e-07 -1 -1 2.18557e-07 703 201.01)" fill="black"/>
<rect id="3-mm-22" width="100" height="100" transform="matrix(-2.18557e-07 -1 -1 2.18557e-07 603 201.01)" fill="black"/>
<rect id="3-mm-21" width="100" height="100" transform="matrix(-2.18557e-07 -1 -1 2.18557e-07 503 201.01)" fill="black"/>
</g>
<g id="3-m3">
<rect id="3-mm-36" width="100" height="100" transform="matrix(-2.18557e-07 -1 -1 2.18557e-07 1003 301.01)" fill="black"/>
<rect id="3-mm-35" width="100" height="100" transform="matrix(-2.18557e-07 -1 -1 2.18557e-07 903 301.01)" fill="black"/>
<rect id="3-mm-34" width="100" height="100" transform="matrix(-2.18557e-07 -1 -1 2.18557e-07 803 301.01)" fill="black"/>
<rect id="3-mm-33" width="100" height="100" transform="matrix(-2.18557e-07 -1 -1 2.18557e-07 703 301.01)" fill="black"/>
<rect id="3-mm-32" width="100" height="100" transform="matrix(-2.18557e-07 -1 -1 2.18557e-07 603 301.01)" fill="black"/>
<rect id="3-mm-31" width="100" height="100" transform="matrix(-2.18557e-07 -1 -1 2.18557e-07 503 301.01)" fill="black"/>
</g>
<g id="3-m4">
<rect id="3-mm-46" width="100" height="100" transform="matrix(-2.18557e-07 -1 -1 2.18557e-07 1003 401.01)" fill="black"/>
<rect id="3-mm-45" width="100" height="100" transform="matrix(-2.18557e-07 -1 -1 2.18557e-07 903 401.01)" fill="black"/>
<rect id="3-mm-44" width="100" height="100" transform="matrix(-2.18557e-07 -1 -1 2.18557e-07 803 401.01)" fill="black"/>
<rect id="3-mm-43" width="100" height="100" transform="matrix(-2.18557e-07 -1 -1 2.18557e-07 703 401.01)" fill="black"/>
<rect id="3-mm-42" width="100" height="100" transform="matrix(-2.18557e-07 -1 -1 2.18557e-07 603 401.01)" fill="black"/>
<rect id="3-mm-41" width="100" height="100" transform="matrix(-2.18557e-07 -1 -1 2.18557e-07 503 401.01)" fill="black"/>
</g>
<g id="3-m5">
<rect id="3-mm-56" width="100" height="100" transform="matrix(-2.18557e-07 -1 -1 2.18557e-07 1003 501.01)" fill="black"/>
<rect id="3-mm-55" width="100" height="100" transform="matrix(-2.18557e-07 -1 -1 2.18557e-07 903 501.01)" fill="black"/>
<rect id="3-mm-54" width="100" height="100" transform="matrix(-2.18557e-07 -1 -1 2.18557e-07 803 501.01)" fill="black"/>
<rect id="3-mm-53" width="100" height="100" transform="matrix(-2.18557e-07 -1 -1 2.18557e-07 703 501.01)" fill="black"/>
<rect id="3-mm-52" width="100" height="100" transform="matrix(-2.18557e-07 -1 -1 2.18557e-07 603 501.01)" fill="black"/>
<rect id="3-mm-51" width="100" height="100" transform="matrix(-2.18557e-07 -1 -1 2.18557e-07 503 501.01)" fill="black"/>
</g>
</g>
<g id="read-matrix">
<g id="3-rm1">
<rect id="3-rm-16" width="99" height="100" transform="matrix(-2.18998e-07 -1 -1 2.1812e-07 1900 100.01)" fill="black"/>
<rect id="3-rm-15" width="99" height="100" transform="matrix(-2.18557e-07 -1 -1 2.18557e-07 1800 100.01)" fill="black"/>
<rect id="3-rm-14" width="99" height="100" transform="matrix(-2.18557e-07 -1 -1 2.18557e-07 1700 100.01)" fill="black"/>
<rect id="3-rm-13" width="99" height="100" transform="matrix(-2.18557e-07 -1 -1 2.18557e-07 1600 100.01)" fill="black"/>
<rect id="3-rm-12" width="99" height="100" transform="matrix(-2.18557e-07 -1 -1 2.18557e-07 1500 100.01)" fill="black"/>
<rect id="3-rm-11" width="99" height="100" transform="matrix(-2.18557e-07 -1 -1 2.18557e-07 1400 100.01)" fill="black"/>
</g>
<g id="3-rm2">
<rect id="3-rm-26" width="99" height="100" transform="matrix(-2.18998e-07 -1 -1 2.1812e-07 1900 199.011)" fill="black"/>
<rect id="3-rm-25" width="99" height="100" transform="matrix(-2.18557e-07 -1 -1 2.18557e-07 1800 199.011)" fill="black"/>
<rect id="3-rm-24" width="99" height="100" transform="matrix(-2.18557e-07 -1 -1 2.18557e-07 1700 199.011)" fill="black"/>
<rect id="3-rm-23" width="99" height="100" transform="matrix(-2.18557e-07 -1 -1 2.18557e-07 1600 199.011)" fill="black"/>
<rect id="3-rm-22" width="99" height="100" transform="matrix(-2.18557e-07 -1 -1 2.18557e-07 1500 199.011)" fill="black"/>
<rect id="3-rm-21" width="99" height="100" transform="matrix(-2.18557e-07 -1 -1 2.18557e-07 1400 199.011)" fill="black"/>
</g>
<g id="3-rm3">
<rect id="3-rm-36" width="99" height="100" transform="matrix(-2.18998e-07 -1 -1 2.1812e-07 1900 298.011)" fill="black"/>
<rect id="3-rm-35" width="99" height="100" transform="matrix(-2.18557e-07 -1 -1 2.18557e-07 1800 298.011)" fill="black"/>
<rect id="3-rm-34" width="99" height="100" transform="matrix(-2.18557e-07 -1 -1 2.18557e-07 1700 298.011)" fill="black"/>
<rect id="3-rm-33" width="99" height="100" transform="matrix(-2.18557e-07 -1 -1 2.18557e-07 1600 298.011)" fill="black"/>
<rect id="3-rm-32" width="99" height="100" transform="matrix(-2.18557e-07 -1 -1 2.18557e-07 1500 298.011)" fill="black"/>
<rect id="3-rm-31" width="99" height="100" transform="matrix(-2.18557e-07 -1 -1 2.18557e-07 1400 298.011)" fill="black"/>
</g>
<g id="3-rm4">
<rect id="3-rm-46" width="99" height="100" transform="matrix(-2.18998e-07 -1 -1 2.1812e-07 1900 397.012)" fill="black"/>
<rect id="3-rm-45" width="99" height="100" transform="matrix(-2.18557e-07 -1 -1 2.18557e-07 1800 397.012)" fill="black"/>
<rect id="3-rm-44" width="99" height="100" transform="matrix(-2.18557e-07 -1 -1 2.18557e-07 1700 397.012)" fill="black"/>
<rect id="3-rm-43" width="99" height="100" transform="matrix(-2.18557e-07 -1 -1 2.18557e-07 1600 397.012)" fill="black"/>
<rect id="3-rm-42" width="99" height="100" transform="matrix(-2.18557e-07 -1 -1 2.18557e-07 1500 397.012)" fill="black"/>
<rect id="3-rm-41" width="99" height="100" transform="matrix(-2.18557e-07 -1 -1 2.18557e-07 1400 397.012)" fill="black"/>
</g>
<g id="3-rm5">
<rect id="3-rm-56" width="99" height="100" transform="matrix(-2.18998e-07 -1 -1 2.1812e-07 1900 496.012)" fill="black"/>
<rect id="3-rm-55" width="99" height="100" transform="matrix(-2.18557e-07 -1 -1 2.18557e-07 1800 496.012)" fill="black"/>
<rect id="3-rm-54" width="99" height="100" transform="matrix(-2.18557e-07 -1 -1 2.18557e-07 1700 496.012)" fill="black"/>
<rect id="3-rm-53" width="99" height="100" transform="matrix(-2.18557e-07 -1 -1 2.18557e-07 1600 496.012)" fill="black"/>
<rect id="3-rm-52" width="99" height="100" transform="matrix(-2.18557e-07 -1 -1 2.18557e-07 1500 496.012)" fill="black"/>
<rect id="3-rm-51" width="99" height="100" transform="matrix(-2.18557e-07 -1 -1 2.18557e-07 1400 496.012)" fill="black"/>
</g>
</g>
<g id="read-vector">
<rect id="3-rv-6" x="3100" y="201" width="100" height="100" transform="rotate(90 3100 201)" fill="black"/>
<rect id="3-rv-5" x="3000" y="201.01" width="100" height="100" transform="rotate(90 3000 201.01)" fill="black"/>
<rect id="3-rv-4" x="2900" y="201.01" width="100" height="100" transform="rotate(90 2900 201.01)" fill="black"/>
<rect id="3-rv-3" x="2800" y="201.01" width="100" height="100" transform="rotate(90 2800 201.01)" fill="black"/>
<rect id="3-rv-2" x="2700" y="201.01" width="100" height="100" transform="rotate(90 2700 201.01)" fill="black"/>
<rect id="3-rv-1" x="2600" y="201.01" width="100" height="100" transform="rotate(90 2600 201.01)" fill="black"/>
</g>
<g id="others">
<path id="Line 14" d="M1252.41 54.4245C1253.2 53.6434 1253.2 52.3771 1252.41 51.596L1239.69 38.8681C1238.91 38.0871 1237.64 38.0871 1236.86 38.8681C1236.08 39.6492 1236.08 40.9155 1236.86 41.6965L1248.17 53.0103L1236.86 64.324C1236.08 65.105 1236.08 66.3713 1236.86 67.1524C1237.64 67.9334 1238.91 67.9334 1239.69 67.1524L1252.41 54.4245ZM1051 55.0103H1251V51.0103H1051V55.0103Z" fill="black"/>
<path id="Line 18" d="M1252.41 152.424C1253.2 151.643 1253.2 150.377 1252.41 149.596L1239.69 136.868C1238.91 136.087 1237.64 136.087 1236.86 136.868C1236.08 137.649 1236.08 138.915 1236.86 139.697L1248.17 151.01L1236.86 162.324C1236.08 163.105 1236.08 164.371 1236.86 165.152C1237.64 165.933 1238.91 165.933 1239.69 165.152L1252.41 152.424ZM1051 153.01H1251V149.01H1051V153.01Z" fill="black"/>
<path id="Line 19" d="M1252.41 251.424C1253.2 250.643 1253.2 249.377 1252.41 248.596L1239.69 235.868C1238.91 235.087 1237.64 235.087 1236.86 235.868C1236.08 236.649 1236.08 237.915 1236.86 238.697L1248.17 250.01L1236.86 261.324C1236.08 262.105 1236.08 263.371 1236.86 264.152C1237.64 264.933 1238.91 264.933 1239.69 264.152L1252.41 251.424ZM1051 252.01H1251V248.01H1051V252.01Z" fill="black"/>
<path id="Line 22" d="M2451.41 252.424C2452.2 251.643 2452.2 250.377 2451.41 249.596L2438.69 236.868C2437.91 236.087 2436.64 236.087 2435.86 236.868C2435.08 237.649 2435.08 238.915 2435.86 239.697L2447.17 251.01L2435.86 262.324C2435.08 263.105 2435.08 264.371 2435.86 265.152C2436.64 265.933 2437.91 265.933 2438.69 265.152L2451.41 252.424ZM2350 253.01H2450V249.01H2350V253.01Z" fill="black"/>
<path id="Line 20" d="M1251.41 352.424C1252.2 351.643 1252.2 350.377 1251.41 349.596L1238.69 336.868C1237.91 336.087 1236.64 336.087 1235.86 336.868C1235.08 337.649 1235.08 338.915 1235.86 339.697L1247.17 351.01L1235.86 362.324C1235.08 363.105 1235.08 364.371 1235.86 365.152C1236.64 365.933 1237.91 365.933 1238.69 365.152L1251.41 352.424ZM1050 353.01H1250V349.01H1050V353.01Z" fill="black"/>
<path id="Line 21" d="M1251.41 452.424C1252.2 451.643 1252.2 450.377 1251.41 449.596L1238.69 436.868C1237.91 436.087 1236.64 436.087 1235.86 436.868C1235.08 437.649 1235.08 438.915 1235.86 439.697L1247.17 451.01L1235.86 462.324C1235.08 463.105 1235.08 464.371 1235.86 465.152C1236.64 465.933 1237.91 465.933 1238.69 465.152L1251.41 452.424ZM1050 453.01H1250V449.01H1050V453.01Z" fill="black"/>
<path id="weight vector" d="M38.0752 556.5C37.3916 556.566 36.651 556.85 35.8535 557.355C35.0723 557.86 34.5026 558.616 34.1445 559.625C33.3307 562.018 32.5576 564.289 31.8252 566.437C31.109 568.569 30.3034 570.97 29.4082 573.639C29.1152 574.486 28.8141 575.397 28.5049 576.374C28.2119 577.35 27.9434 578.286 27.6992 579.181H25.5996L19.1299 561.457L12.6113 579.181H10.6094C9.38867 575.568 8.19238 571.987 7.02051 568.439C5.86491 564.875 4.83952 561.774 3.94434 559.137C3.68392 558.372 3.1875 557.77 2.45508 557.331C1.72266 556.891 1.01465 556.631 0.331055 556.549V554.938H11.0732V556.647C10.5361 556.663 9.9502 556.753 9.31543 556.916C8.69694 557.078 8.3877 557.347 8.3877 557.721C8.3877 557.786 8.41211 557.925 8.46094 558.136C8.52604 558.348 8.59928 558.576 8.68066 558.82C9.2015 560.529 9.78743 562.441 10.4385 564.557C11.1058 566.657 11.9603 569.391 13.002 572.76L19.1543 555.426H21.498L27.7725 572.516C28.4723 570.335 29.1641 568.227 29.8477 566.193C30.5475 564.142 31.1579 562.222 31.6787 560.431C31.7926 560.008 31.8984 559.625 31.9961 559.284C32.11 558.926 32.167 558.576 32.167 558.234C32.167 557.941 32.0368 557.681 31.7764 557.453C31.516 557.225 31.1986 557.038 30.8242 556.891C30.4987 556.761 30.1406 556.663 29.75 556.598C29.3757 556.533 29.099 556.5 28.9199 556.5V554.938H38.0752V556.5ZM60.4629 573.346C59.4538 575.267 58.1029 576.797 56.4102 577.936C54.7174 579.075 52.7725 579.645 50.5752 579.645C48.6383 579.645 46.9375 579.303 45.4727 578.62C44.0241 577.936 42.8278 577.008 41.8838 575.836C40.9398 574.665 40.2318 573.297 39.7598 571.735C39.304 570.172 39.0762 568.52 39.0762 566.779C39.0762 565.216 39.3203 563.686 39.8086 562.189C40.3132 560.675 41.0456 559.316 42.0059 558.112C42.9336 556.956 44.0811 556.028 45.4482 555.329C46.8317 554.612 48.3779 554.254 50.0869 554.254C51.8447 554.254 53.3503 554.531 54.6035 555.084C55.8568 555.638 56.874 556.395 57.6553 557.355C58.404 558.266 58.9574 559.341 59.3154 560.578C59.6898 561.815 59.877 563.157 59.877 564.606V566.217H43.9346C43.9346 567.796 44.0811 569.228 44.374 570.514C44.6833 571.8 45.1634 572.931 45.8145 573.908C46.4492 574.852 47.2793 575.6 48.3047 576.154C49.3301 576.691 50.5508 576.959 51.9668 576.959C53.4154 576.959 54.6605 576.626 55.7021 575.958C56.7601 575.275 57.7773 574.054 58.7539 572.296L60.4629 573.346ZM55.0674 564.167C55.0674 563.255 54.986 562.278 54.8232 561.237C54.6768 560.195 54.4326 559.324 54.0908 558.625C53.7165 557.876 53.2038 557.265 52.5527 556.793C51.9017 556.321 51.0635 556.085 50.0381 556.085C48.3291 556.085 46.9049 556.802 45.7656 558.234C44.6426 559.65 44.0322 561.627 43.9346 564.167H55.0674ZM74.9404 579.01H63.2949V577.399C63.6693 577.366 64.0518 577.334 64.4424 577.301C64.8493 577.269 65.1992 577.204 65.4922 577.106C65.9479 576.959 66.2816 576.707 66.4932 576.349C66.721 575.975 66.835 575.495 66.835 574.909V560.041C66.835 559.52 66.7129 559.048 66.4688 558.625C66.2409 558.185 65.9154 557.819 65.4922 557.526C65.1829 557.331 64.7354 557.168 64.1494 557.038C63.5635 556.891 63.0264 556.802 62.5381 556.769V555.182L71.0342 554.645L71.376 554.987V574.616C71.376 575.185 71.4818 575.657 71.6934 576.032C71.9212 576.406 72.2712 576.683 72.7432 576.862C73.1012 577.008 73.4512 577.13 73.793 577.228C74.1348 577.309 74.5173 577.366 74.9404 577.399V579.01ZM71.8643 545.148C71.8643 546.076 71.555 546.889 70.9365 547.589C70.3343 548.273 69.5856 548.615 68.6904 548.615C67.8604 548.615 67.1361 548.289 66.5176 547.638C65.9154 546.971 65.6143 546.214 65.6143 545.368C65.6143 544.472 65.9154 543.691 66.5176 543.024C67.1361 542.357 67.8604 542.023 68.6904 542.023C69.6182 542.023 70.375 542.34 70.9609 542.975C71.5632 543.594 71.8643 544.318 71.8643 545.148ZM98.5244 576.52C99.1755 577.139 99.6882 577.838 100.062 578.62C100.437 579.401 100.624 580.369 100.624 581.525C100.624 582.681 100.372 583.763 99.8672 584.772C99.3626 585.797 98.5977 586.684 97.5723 587.433C96.4818 588.198 95.1797 588.792 93.666 589.215C92.1523 589.639 90.2806 589.85 88.0508 589.85C84.4049 589.85 81.6787 589.313 79.8721 588.239C78.0654 587.181 77.1621 585.626 77.1621 583.576C77.1621 581.916 77.8132 580.605 79.1152 579.645C80.4173 578.685 82.0775 578.164 84.0957 578.083V577.741C83.6074 577.594 83.1029 577.415 82.582 577.204C82.0612 576.976 81.6136 576.715 81.2393 576.422C80.8161 576.081 80.4743 575.682 80.2139 575.226C79.9535 574.754 79.8232 574.176 79.8232 573.493C79.8232 572.63 80.1243 571.841 80.7266 571.125C81.3451 570.392 82.2728 569.765 83.5098 569.245V568.878C81.9473 568.146 80.7347 567.21 79.8721 566.071C79.0094 564.915 78.5781 563.581 78.5781 562.067C78.5781 559.788 79.4245 557.917 81.1172 556.452C82.8262 554.987 85.0072 554.254 87.6602 554.254C88.3926 554.254 89.1169 554.328 89.833 554.474C90.5654 554.621 91.306 554.808 92.0547 555.036H100.453V557.379H94.7891V557.526C95.3913 558.226 95.8389 558.999 96.1318 559.845C96.4248 560.692 96.5713 561.522 96.5713 562.335C96.5713 564.451 95.7087 566.242 93.9834 567.707C92.2744 569.171 90.2806 569.904 88.002 569.904H85.0479C84.6735 570.034 84.2829 570.27 83.876 570.612C83.4691 570.954 83.2656 571.417 83.2656 572.003C83.2656 572.606 83.4365 573.069 83.7783 573.395C84.1201 573.704 84.5352 573.916 85.0234 574.03C85.4954 574.16 86.0407 574.241 86.6592 574.274C87.2939 574.306 87.945 574.331 88.6123 574.347C89.3285 574.363 90.305 574.412 91.542 574.494C92.7952 574.575 93.6823 574.624 94.2031 574.64C94.9518 574.673 95.7005 574.852 96.4492 575.177C97.2142 575.503 97.9059 575.95 98.5244 576.52ZM91.9326 562.238C91.9326 560.333 91.542 558.82 90.7607 557.697C89.9958 556.557 88.9134 555.988 87.5137 555.988C86.7487 555.988 86.0895 556.151 85.5361 556.476C84.999 556.785 84.5596 557.233 84.2178 557.819C83.8923 558.356 83.6562 559.007 83.5098 559.772C83.3796 560.521 83.3145 561.294 83.3145 562.091C83.3145 563.898 83.7051 565.371 84.4863 566.51C85.2839 567.65 86.3092 568.219 87.5625 568.219C88.9622 568.219 90.0365 567.658 90.7852 566.535C91.5501 565.395 91.9326 563.963 91.9326 562.238ZM96.6201 582.428C96.6201 581.517 96.4085 580.768 95.9854 580.182C95.5622 579.596 94.9193 579.197 94.0566 578.986C93.6009 578.921 92.665 578.847 91.249 578.766C89.833 578.685 88.1891 578.644 86.3174 578.644C84.5596 578.986 83.3063 579.556 82.5576 580.353C81.8252 581.167 81.459 582.208 81.459 583.478C81.459 584.048 81.5811 584.593 81.8252 585.114C82.0693 585.635 82.4925 586.115 83.0947 586.554C83.6644 586.977 84.4294 587.319 85.3896 587.58C86.3499 587.856 87.5218 587.995 88.9053 587.995C91.2979 587.995 93.1777 587.531 94.5449 586.603C95.9284 585.692 96.6201 584.3 96.6201 582.428ZM129.53 579.01H117.714V577.399C118.088 577.366 118.503 577.334 118.959 577.301C119.415 577.269 119.789 577.204 120.082 577.106C120.538 576.959 120.871 576.707 121.083 576.349C121.311 575.975 121.425 575.495 121.425 574.909V562.531C121.425 560.822 121.018 559.503 120.204 558.576C119.407 557.648 118.43 557.184 117.274 557.184C116.428 557.184 115.639 557.322 114.906 557.599C114.19 557.86 113.547 558.185 112.978 558.576C112.424 558.983 112.001 559.389 111.708 559.796C111.415 560.203 111.187 560.545 111.024 560.822V574.665C111.024 575.218 111.13 575.674 111.342 576.032C111.57 576.39 111.911 576.667 112.367 576.862C112.725 577.025 113.091 577.147 113.466 577.228C113.856 577.309 114.28 577.366 114.735 577.399V579.01H102.919V577.399C103.293 577.366 103.684 577.334 104.091 577.301C104.498 577.252 104.84 577.187 105.116 577.106C105.572 576.959 105.914 576.707 106.142 576.349C106.369 575.975 106.483 575.495 106.483 574.909V546.881C106.483 546.328 106.353 545.775 106.093 545.221C105.849 544.668 105.523 544.253 105.116 543.976C104.823 543.764 104.302 543.618 103.554 543.537C102.821 543.439 102.227 543.374 101.771 543.341V541.779L110.683 541.217L111.024 541.583V558.38H111.122C111.659 557.843 112.147 557.371 112.587 556.964C113.026 556.541 113.604 556.102 114.32 555.646C114.939 555.255 115.663 554.93 116.493 554.669C117.34 554.409 118.284 554.279 119.325 554.279C121.474 554.279 123.126 554.962 124.281 556.33C125.437 557.681 126.015 559.634 126.015 562.189V574.713C126.015 575.283 126.112 575.747 126.308 576.105C126.519 576.447 126.861 576.715 127.333 576.911C127.707 577.057 128.041 577.171 128.334 577.252C128.643 577.318 129.042 577.366 129.53 577.399V579.01ZM147.353 577.96C146.295 578.4 145.294 578.766 144.35 579.059C143.406 579.368 142.25 579.523 140.883 579.523C138.865 579.523 137.44 579.018 136.61 578.009C135.797 576.984 135.39 575.543 135.39 573.688V557.379H131.044V555.036H135.487V547.541H139.931V555.036H146.84V557.379H139.979V570.832C139.979 571.841 140.012 572.687 140.077 573.371C140.159 574.038 140.338 574.624 140.614 575.128C140.875 575.6 141.265 575.958 141.786 576.203C142.307 576.447 143.007 576.569 143.886 576.569C144.293 576.569 144.887 576.536 145.668 576.471C146.465 576.39 147.027 576.292 147.353 576.178V577.96ZM185.609 556.427C184.877 556.557 184.177 556.826 183.51 557.233C182.859 557.624 182.297 558.323 181.825 559.333C180.865 561.514 179.872 563.792 178.847 566.168C177.821 568.528 176.755 571.011 175.648 573.615C175.323 574.363 174.973 575.25 174.599 576.276C174.241 577.301 173.907 578.286 173.598 579.23H171.693C170.147 575.405 168.723 571.922 167.421 568.781C166.119 565.623 164.768 562.392 163.368 559.088C163.043 558.34 162.514 557.762 161.781 557.355C161.065 556.932 160.341 556.663 159.608 556.549V554.938H170.741V556.647C170.253 556.663 169.643 556.769 168.91 556.964C168.178 557.143 167.812 557.396 167.812 557.721C167.812 557.77 167.852 557.9 167.934 558.112C168.015 558.307 168.096 558.535 168.178 558.795C168.845 560.456 169.789 562.775 171.01 565.753C172.23 568.732 173.223 571.133 173.988 572.956C174.574 571.556 175.307 569.814 176.186 567.731C177.081 565.648 178.041 563.32 179.066 560.749C179.229 560.309 179.384 559.902 179.53 559.528C179.677 559.137 179.75 558.747 179.75 558.356C179.75 558.079 179.612 557.835 179.335 557.624C179.075 557.396 178.757 557.2 178.383 557.038C178.008 556.875 177.642 556.753 177.284 556.671C176.926 556.59 176.633 556.533 176.405 556.5V554.938H185.609V556.427ZM208.07 573.346C207.061 575.267 205.71 576.797 204.018 577.936C202.325 579.075 200.38 579.645 198.183 579.645C196.246 579.645 194.545 579.303 193.08 578.62C191.632 577.936 190.435 577.008 189.491 575.836C188.547 574.665 187.839 573.297 187.367 571.735C186.911 570.172 186.684 568.52 186.684 566.779C186.684 565.216 186.928 563.686 187.416 562.189C187.921 560.675 188.653 559.316 189.613 558.112C190.541 556.956 191.688 556.028 193.056 555.329C194.439 554.612 195.985 554.254 197.694 554.254C199.452 554.254 200.958 554.531 202.211 555.084C203.464 555.638 204.481 556.395 205.263 557.355C206.011 558.266 206.565 559.341 206.923 560.578C207.297 561.815 207.484 563.157 207.484 564.606V566.217H191.542C191.542 567.796 191.688 569.228 191.981 570.514C192.291 571.8 192.771 572.931 193.422 573.908C194.057 574.852 194.887 575.6 195.912 576.154C196.938 576.691 198.158 576.959 199.574 576.959C201.023 576.959 202.268 576.626 203.31 575.958C204.368 575.275 205.385 574.054 206.361 572.296L208.07 573.346ZM202.675 564.167C202.675 563.255 202.593 562.278 202.431 561.237C202.284 560.195 202.04 559.324 201.698 558.625C201.324 557.876 200.811 557.265 200.16 556.793C199.509 556.321 198.671 556.085 197.646 556.085C195.937 556.085 194.512 556.802 193.373 558.234C192.25 559.65 191.64 561.627 191.542 564.167H202.675ZM221.986 579.645C218.503 579.645 215.777 578.489 213.808 576.178C211.838 573.867 210.854 570.766 210.854 566.876C210.854 565.184 211.114 563.605 211.635 562.14C212.172 560.659 212.945 559.316 213.954 558.112C214.914 556.956 216.119 556.028 217.567 555.329C219.016 554.612 220.595 554.254 222.304 554.254C224.664 554.254 226.584 554.824 228.065 555.963C229.547 557.086 230.287 558.625 230.287 560.578C230.287 561.391 230.092 562.116 229.701 562.75C229.311 563.369 228.668 563.678 227.772 563.678C226.812 563.678 226.063 563.434 225.526 562.946C225.006 562.458 224.745 561.912 224.745 561.31C224.745 560.578 224.843 559.829 225.038 559.064C225.233 558.283 225.347 557.713 225.38 557.355C225.087 556.85 224.647 556.517 224.062 556.354C223.492 556.175 222.873 556.085 222.206 556.085C221.425 556.085 220.676 556.256 219.96 556.598C219.26 556.924 218.576 557.534 217.909 558.429C217.307 559.243 216.819 560.342 216.444 561.725C216.07 563.109 215.883 564.761 215.883 566.681C215.883 569.708 216.55 572.182 217.885 574.103C219.236 576.007 221.002 576.959 223.183 576.959C224.761 576.959 226.08 576.577 227.138 575.812C228.212 575.047 229.205 573.9 230.116 572.37L231.679 573.395C230.604 575.316 229.188 576.837 227.431 577.96C225.673 579.083 223.858 579.645 221.986 579.645ZM248.427 577.96C247.369 578.4 246.368 578.766 245.424 579.059C244.48 579.368 243.324 579.523 241.957 579.523C239.939 579.523 238.515 579.018 237.685 578.009C236.871 576.984 236.464 575.543 236.464 573.688V557.379H232.118V555.036H236.562V547.541H241.005V555.036H247.914V557.379H241.054V570.832C241.054 571.841 241.086 572.687 241.151 573.371C241.233 574.038 241.412 574.624 241.688 575.128C241.949 575.6 242.34 575.958 242.86 576.203C243.381 576.447 244.081 576.569 244.96 576.569C245.367 576.569 245.961 576.536 246.742 576.471C247.54 576.39 248.101 576.292 248.427 576.178V577.96ZM274.306 566.73C274.306 568.423 274.037 570.091 273.5 571.735C272.963 573.362 272.198 574.746 271.205 575.885C270.082 577.187 268.78 578.156 267.299 578.791C265.818 579.425 264.158 579.743 262.318 579.743C260.788 579.743 259.332 579.458 257.948 578.888C256.565 578.302 255.336 577.456 254.262 576.349C253.204 575.259 252.357 573.932 251.723 572.37C251.104 570.791 250.795 569.025 250.795 567.072C250.795 563.312 251.885 560.236 254.066 557.843C256.264 555.451 259.136 554.254 262.685 554.254C266.054 554.254 268.829 555.394 271.01 557.672C273.207 559.935 274.306 562.954 274.306 566.73ZM269.252 566.779C269.252 565.558 269.13 564.272 268.886 562.921C268.642 561.554 268.275 560.399 267.787 559.455C267.266 558.445 266.583 557.64 265.736 557.038C264.89 556.419 263.856 556.11 262.636 556.11C261.382 556.11 260.308 556.419 259.413 557.038C258.534 557.656 257.818 558.502 257.265 559.577C256.744 560.569 256.378 561.701 256.166 562.97C255.954 564.24 255.849 565.469 255.849 566.657C255.849 568.219 255.971 569.668 256.215 571.002C256.475 572.321 256.882 573.501 257.436 574.542C257.989 575.584 258.681 576.406 259.511 577.008C260.357 577.594 261.399 577.887 262.636 577.887C264.67 577.887 266.282 576.903 267.47 574.933C268.658 572.964 269.252 570.246 269.252 566.779ZM296.229 558.039C296.229 558.869 296.026 559.609 295.619 560.26C295.212 560.895 294.586 561.212 293.739 561.212C292.828 561.212 292.128 560.976 291.64 560.504C291.168 560.032 290.932 559.512 290.932 558.942C290.932 558.584 290.956 558.258 291.005 557.965C291.07 557.672 291.127 557.379 291.176 557.086C290.411 557.086 289.516 557.396 288.49 558.014C287.465 558.633 286.594 559.512 285.878 560.651V574.665C285.878 575.234 285.984 575.698 286.195 576.056C286.423 576.414 286.773 576.683 287.245 576.862C287.652 577.025 288.173 577.147 288.808 577.228C289.459 577.309 290.02 577.366 290.492 577.399V579.01H277.797V577.399C278.171 577.366 278.554 577.334 278.944 577.301C279.351 577.269 279.701 577.204 279.994 577.106C280.45 576.959 280.784 576.707 280.995 576.349C281.223 575.975 281.337 575.495 281.337 574.909V560.041C281.337 559.536 281.215 559.04 280.971 558.551C280.743 558.063 280.417 557.672 279.994 557.379C279.685 557.184 279.319 557.046 278.896 556.964C278.472 556.867 278.017 556.802 277.528 556.769V555.182L285.536 554.645L285.878 554.987V558.38H286C287.009 557.062 288.132 556.061 289.369 555.377C290.606 554.694 291.737 554.352 292.763 554.352C293.788 554.352 294.618 554.686 295.253 555.353C295.904 556.02 296.229 556.916 296.229 558.039Z" fill="black"/>
<path id="memory matrix" d="M573.993 579.01H562.25V577.399C562.624 577.366 562.999 577.334 563.373 577.301C563.764 577.269 564.105 577.204 564.398 577.106C564.854 576.959 565.188 576.707 565.399 576.349C565.627 575.975 565.741 575.495 565.741 574.909V562.482C565.741 560.789 565.351 559.487 564.569 558.576C563.804 557.648 562.844 557.184 561.688 557.184C560.891 557.184 560.142 557.306 559.442 557.55C558.743 557.794 558.1 558.136 557.514 558.576C557.042 558.934 556.643 559.324 556.317 559.748C556.008 560.154 555.772 560.496 555.609 560.773V574.665C555.609 575.234 555.707 575.706 555.902 576.081C556.098 576.439 556.431 576.715 556.903 576.911C557.278 577.057 557.611 577.171 557.904 577.252C558.214 577.318 558.612 577.366 559.101 577.399V579.01H547.602V577.399C547.976 577.366 548.334 577.334 548.676 577.301C549.034 577.269 549.359 577.204 549.652 577.106C550.108 576.959 550.442 576.707 550.653 576.349C550.881 575.975 550.995 575.495 550.995 574.909V562.482C550.995 560.789 550.604 559.487 549.823 558.576C549.058 557.648 548.098 557.184 546.942 557.184C546.145 557.184 545.396 557.314 544.696 557.575C543.996 557.819 543.354 558.161 542.768 558.6C542.296 558.958 541.897 559.365 541.571 559.821C541.246 560.26 541.002 560.594 540.839 560.822V574.616C540.839 575.169 540.953 575.633 541.181 576.007C541.409 576.382 541.75 576.667 542.206 576.862C542.548 577.025 542.898 577.147 543.256 577.228C543.614 577.309 544.013 577.366 544.452 577.399V579.01H532.758V577.399C533.132 577.366 533.515 577.334 533.905 577.301C534.312 577.269 534.662 577.204 534.955 577.106C535.411 576.959 535.744 576.707 535.956 576.349C536.184 575.975 536.298 575.495 536.298 574.909V559.943C536.298 559.422 536.176 558.958 535.932 558.551C535.704 558.128 535.378 557.77 534.955 557.477C534.646 557.282 534.263 557.127 533.808 557.013C533.352 556.883 532.88 556.802 532.392 556.769V555.182L540.448 554.645L540.79 554.987V558.429H540.961C541.368 558.022 541.864 557.542 542.45 556.989C543.036 556.435 543.581 555.988 544.086 555.646C544.656 555.255 545.364 554.93 546.21 554.669C547.073 554.409 548 554.279 548.993 554.279C550.556 554.279 551.898 554.702 553.021 555.548C554.145 556.378 554.95 557.388 555.438 558.576C556.024 558.006 556.537 557.51 556.977 557.086C557.432 556.647 558.026 556.183 558.759 555.695C559.377 555.272 560.102 554.93 560.932 554.669C561.778 554.409 562.714 554.279 563.739 554.279C565.774 554.279 567.385 554.946 568.573 556.281C569.761 557.615 570.355 559.666 570.355 562.433V574.665C570.355 575.234 570.453 575.706 570.648 576.081C570.844 576.439 571.177 576.715 571.649 576.911C572.024 577.057 572.39 577.171 572.748 577.252C573.122 577.318 573.537 577.366 573.993 577.399V579.01ZM598.188 573.346C597.178 575.267 595.827 576.797 594.135 577.936C592.442 579.075 590.497 579.645 588.3 579.645C586.363 579.645 584.662 579.303 583.197 578.62C581.749 577.936 580.552 577.008 579.608 575.836C578.664 574.665 577.956 573.297 577.484 571.735C577.029 570.172 576.801 568.52 576.801 566.779C576.801 565.216 577.045 563.686 577.533 562.189C578.038 560.675 578.77 559.316 579.73 558.112C580.658 556.956 581.806 556.028 583.173 555.329C584.556 554.612 586.103 554.254 587.812 554.254C589.569 554.254 591.075 554.531 592.328 555.084C593.581 555.638 594.599 556.395 595.38 557.355C596.129 558.266 596.682 559.341 597.04 560.578C597.414 561.815 597.602 563.157 597.602 564.606V566.217H581.659C581.659 567.796 581.806 569.228 582.099 570.514C582.408 571.8 582.888 572.931 583.539 573.908C584.174 574.852 585.004 575.6 586.029 576.154C587.055 576.691 588.275 576.959 589.691 576.959C591.14 576.959 592.385 576.626 593.427 575.958C594.485 575.275 595.502 574.054 596.479 572.296L598.188 573.346ZM592.792 564.167C592.792 563.255 592.711 562.278 592.548 561.237C592.401 560.195 592.157 559.324 591.815 558.625C591.441 557.876 590.928 557.265 590.277 556.793C589.626 556.321 588.788 556.085 587.763 556.085C586.054 556.085 584.63 556.802 583.49 558.234C582.367 559.65 581.757 561.627 581.659 564.167H592.792ZM642.206 579.01H630.463V577.399C630.837 577.366 631.212 577.334 631.586 577.301C631.977 577.269 632.318 577.204 632.611 577.106C633.067 576.959 633.401 576.707 633.612 576.349C633.84 575.975 633.954 575.495 633.954 574.909V562.482C633.954 560.789 633.563 559.487 632.782 558.576C632.017 557.648 631.057 557.184 629.901 557.184C629.104 557.184 628.355 557.306 627.655 557.55C626.955 557.794 626.312 558.136 625.727 558.576C625.255 558.934 624.856 559.324 624.53 559.748C624.221 560.154 623.985 560.496 623.822 560.773V574.665C623.822 575.234 623.92 575.706 624.115 576.081C624.311 576.439 624.644 576.715 625.116 576.911C625.491 577.057 625.824 577.171 626.117 577.252C626.426 577.318 626.825 577.366 627.313 577.399V579.01H615.814V577.399C616.189 577.366 616.547 577.334 616.889 577.301C617.247 577.269 617.572 577.204 617.865 577.106C618.321 576.959 618.655 576.707 618.866 576.349C619.094 575.975 619.208 575.495 619.208 574.909V562.482C619.208 560.789 618.817 559.487 618.036 558.576C617.271 557.648 616.311 557.184 615.155 557.184C614.358 557.184 613.609 557.314 612.909 557.575C612.209 557.819 611.566 558.161 610.98 558.6C610.508 558.958 610.11 559.365 609.784 559.821C609.459 560.26 609.215 560.594 609.052 560.822V574.616C609.052 575.169 609.166 575.633 609.394 576.007C609.621 576.382 609.963 576.667 610.419 576.862C610.761 577.025 611.111 577.147 611.469 577.228C611.827 577.309 612.226 577.366 612.665 577.399V579.01H600.971V577.399C601.345 577.366 601.728 577.334 602.118 577.301C602.525 577.269 602.875 577.204 603.168 577.106C603.624 576.959 603.957 576.707 604.169 576.349C604.397 575.975 604.511 575.495 604.511 574.909V559.943C604.511 559.422 604.389 558.958 604.145 558.551C603.917 558.128 603.591 557.77 603.168 557.477C602.859 557.282 602.476 557.127 602.021 557.013C601.565 556.883 601.093 556.802 600.604 556.769V555.182L608.661 554.645L609.003 554.987V558.429H609.174C609.581 558.022 610.077 557.542 610.663 556.989C611.249 556.435 611.794 555.988 612.299 555.646C612.868 555.255 613.576 554.93 614.423 554.669C615.285 554.409 616.213 554.279 617.206 554.279C618.769 554.279 620.111 554.702 621.234 555.548C622.357 556.378 623.163 557.388 623.651 558.576C624.237 558.006 624.75 557.51 625.189 557.086C625.645 556.647 626.239 556.183 626.972 555.695C627.59 555.272 628.314 554.93 629.145 554.669C629.991 554.409 630.927 554.279 631.952 554.279C633.987 554.279 635.598 554.946 636.786 556.281C637.974 557.615 638.568 559.666 638.568 562.433V574.665C638.568 575.234 638.666 575.706 638.861 576.081C639.057 576.439 639.39 576.715 639.862 576.911C640.237 577.057 640.603 577.171 640.961 577.252C641.335 577.318 641.75 577.366 642.206 577.399V579.01ZM668.476 566.73C668.476 568.423 668.207 570.091 667.67 571.735C667.133 573.362 666.368 574.746 665.375 575.885C664.252 577.187 662.95 578.156 661.469 578.791C659.988 579.425 658.327 579.743 656.488 579.743C654.958 579.743 653.502 579.458 652.118 578.888C650.735 578.302 649.506 577.456 648.432 576.349C647.374 575.259 646.527 573.932 645.893 572.37C645.274 570.791 644.965 569.025 644.965 567.072C644.965 563.312 646.055 560.236 648.236 557.843C650.434 555.451 653.306 554.254 656.854 554.254C660.224 554.254 662.999 555.394 665.18 557.672C667.377 559.935 668.476 562.954 668.476 566.73ZM663.422 566.779C663.422 565.558 663.3 564.272 663.056 562.921C662.812 561.554 662.445 560.399 661.957 559.455C661.436 558.445 660.753 557.64 659.906 557.038C659.06 556.419 658.026 556.11 656.806 556.11C655.552 556.11 654.478 556.419 653.583 557.038C652.704 557.656 651.988 558.502 651.435 559.577C650.914 560.569 650.548 561.701 650.336 562.97C650.124 564.24 650.019 565.469 650.019 566.657C650.019 568.219 650.141 569.668 650.385 571.002C650.645 572.321 651.052 573.501 651.605 574.542C652.159 575.584 652.851 576.406 653.681 577.008C654.527 577.594 655.569 577.887 656.806 577.887C658.84 577.887 660.451 576.903 661.64 574.933C662.828 572.964 663.422 570.246 663.422 566.779ZM690.399 558.039C690.399 558.869 690.196 559.609 689.789 560.26C689.382 560.895 688.756 561.212 687.909 561.212C686.998 561.212 686.298 560.976 685.81 560.504C685.338 560.032 685.102 559.512 685.102 558.942C685.102 558.584 685.126 558.258 685.175 557.965C685.24 557.672 685.297 557.379 685.346 557.086C684.581 557.086 683.686 557.396 682.66 558.014C681.635 558.633 680.764 559.512 680.048 560.651V574.665C680.048 575.234 680.154 575.698 680.365 576.056C680.593 576.414 680.943 576.683 681.415 576.862C681.822 577.025 682.343 577.147 682.978 577.228C683.629 577.309 684.19 577.366 684.662 577.399V579.01H671.967V577.399C672.341 577.366 672.724 577.334 673.114 577.301C673.521 577.269 673.871 577.204 674.164 577.106C674.62 576.959 674.953 576.707 675.165 576.349C675.393 575.975 675.507 575.495 675.507 574.909V560.041C675.507 559.536 675.385 559.04 675.141 558.551C674.913 558.063 674.587 557.672 674.164 557.379C673.855 557.184 673.489 557.046 673.065 556.964C672.642 556.867 672.187 556.802 671.698 556.769V555.182L679.706 554.645L680.048 554.987V558.38H680.17C681.179 557.062 682.302 556.061 683.539 555.377C684.776 554.694 685.907 554.352 686.933 554.352C687.958 554.352 688.788 554.686 689.423 555.353C690.074 556.02 690.399 556.916 690.399 558.039ZM690.644 586.872C690.644 586.058 690.863 585.39 691.303 584.87C691.758 584.365 692.32 584.113 692.987 584.113C693.508 584.113 693.956 584.21 694.33 584.406C694.704 584.601 695.038 584.853 695.331 585.163C695.575 585.407 695.836 585.74 696.112 586.164C696.389 586.587 696.609 586.937 696.771 587.213C697.585 586.774 698.554 585.626 699.677 583.771C700.816 581.916 701.638 580.288 702.143 578.888C700.596 575.031 699.197 571.58 697.943 568.537C696.69 565.493 695.38 562.344 694.013 559.088C693.703 558.34 693.183 557.762 692.45 557.355C691.718 556.932 690.985 556.663 690.253 556.549V554.938H701.239V556.647C700.751 556.663 700.165 556.769 699.481 556.964C698.798 557.143 698.456 557.355 698.456 557.599C698.456 557.697 698.489 557.86 698.554 558.087C698.635 558.315 698.725 558.551 698.822 558.795C699.441 560.407 700.385 562.734 701.654 565.778C702.924 568.805 703.909 571.23 704.608 573.053C705.341 571.312 706.098 569.513 706.879 567.658C707.676 565.786 708.563 563.581 709.54 561.042C709.654 560.732 709.817 560.309 710.028 559.772C710.24 559.219 710.346 558.747 710.346 558.356C710.346 557.933 709.971 557.542 709.223 557.184C708.49 556.81 707.79 556.582 707.123 556.5V554.938H716.059V556.452C715.57 556.533 714.927 556.818 714.13 557.306C713.332 557.778 712.738 558.454 712.348 559.333C710.411 563.825 708.686 567.918 707.172 571.613C705.674 575.307 704.535 578.026 703.754 579.767C702.729 582.046 701.809 583.82 700.995 585.089C700.198 586.375 699.416 587.384 698.651 588.117C697.903 588.8 697.219 589.256 696.601 589.484C695.998 589.728 695.372 589.85 694.721 589.85C693.451 589.85 692.45 589.549 691.718 588.947C691.002 588.345 690.644 587.653 690.644 586.872ZM770.38 579.01H758.637V577.399C759.011 577.366 759.385 577.334 759.76 577.301C760.15 577.269 760.492 577.204 760.785 577.106C761.241 576.959 761.575 576.707 761.786 576.349C762.014 575.975 762.128 575.495 762.128 574.909V562.482C762.128 560.789 761.737 559.487 760.956 558.576C760.191 557.648 759.231 557.184 758.075 557.184C757.278 557.184 756.529 557.306 755.829 557.55C755.129 557.794 754.486 558.136 753.9 558.576C753.428 558.934 753.03 559.324 752.704 559.748C752.395 560.154 752.159 560.496 751.996 560.773V574.665C751.996 575.234 752.094 575.706 752.289 576.081C752.484 576.439 752.818 576.715 753.29 576.911C753.664 577.057 753.998 577.171 754.291 577.252C754.6 577.318 754.999 577.366 755.487 577.399V579.01H743.988V577.399C744.363 577.366 744.721 577.334 745.062 577.301C745.421 577.269 745.746 577.204 746.039 577.106C746.495 576.959 746.828 576.707 747.04 576.349C747.268 575.975 747.382 575.495 747.382 574.909V562.482C747.382 560.789 746.991 559.487 746.21 558.576C745.445 557.648 744.485 557.184 743.329 557.184C742.532 557.184 741.783 557.314 741.083 557.575C740.383 557.819 739.74 558.161 739.154 558.6C738.682 558.958 738.284 559.365 737.958 559.821C737.632 560.26 737.388 560.594 737.226 560.822V574.616C737.226 575.169 737.34 575.633 737.567 576.007C737.795 576.382 738.137 576.667 738.593 576.862C738.935 577.025 739.285 577.147 739.643 577.228C740.001 577.309 740.399 577.366 740.839 577.399V579.01H729.145V577.399C729.519 577.366 729.901 577.334 730.292 577.301C730.699 577.269 731.049 577.204 731.342 577.106C731.798 576.959 732.131 576.707 732.343 576.349C732.571 575.975 732.685 575.495 732.685 574.909V559.943C732.685 559.422 732.562 558.958 732.318 558.551C732.09 558.128 731.765 557.77 731.342 557.477C731.033 557.282 730.65 557.127 730.194 557.013C729.739 556.883 729.267 556.802 728.778 556.769V555.182L736.835 554.645L737.177 554.987V558.429H737.348C737.755 558.022 738.251 557.542 738.837 556.989C739.423 556.435 739.968 555.988 740.473 555.646C741.042 555.255 741.75 554.93 742.597 554.669C743.459 554.409 744.387 554.279 745.38 554.279C746.942 554.279 748.285 554.702 749.408 555.548C750.531 556.378 751.337 557.388 751.825 558.576C752.411 558.006 752.924 557.51 753.363 557.086C753.819 556.647 754.413 556.183 755.146 555.695C755.764 555.272 756.488 554.93 757.318 554.669C758.165 554.409 759.101 554.279 760.126 554.279C762.16 554.279 763.772 554.946 764.96 556.281C766.148 557.615 766.742 559.666 766.742 562.433V574.665C766.742 575.234 766.84 575.706 767.035 576.081C767.23 576.439 767.564 576.715 768.036 576.911C768.41 577.057 768.777 577.171 769.135 577.252C769.509 577.318 769.924 577.366 770.38 577.399V579.01ZM795.99 578.571C795.225 578.847 794.55 579.067 793.964 579.23C793.394 579.409 792.743 579.499 792.011 579.499C790.741 579.499 789.724 579.206 788.959 578.62C788.21 578.017 787.73 577.147 787.519 576.007H787.372C786.314 577.179 785.175 578.074 783.954 578.693C782.75 579.311 781.293 579.621 779.584 579.621C777.777 579.621 776.288 579.067 775.116 577.96C773.961 576.854 773.383 575.405 773.383 573.615C773.383 572.687 773.513 571.857 773.773 571.125C774.034 570.392 774.424 569.733 774.945 569.147C775.352 568.659 775.889 568.227 776.557 567.853C777.224 567.462 777.851 567.153 778.437 566.925C779.169 566.649 780.65 566.136 782.88 565.387C785.126 564.639 786.64 564.053 787.421 563.629V561.212C787.421 561.001 787.372 560.594 787.274 559.992C787.193 559.389 787.006 558.82 786.713 558.283C786.387 557.681 785.924 557.16 785.321 556.72C784.735 556.264 783.897 556.037 782.807 556.037C782.058 556.037 781.358 556.167 780.707 556.427C780.072 556.671 779.625 556.932 779.364 557.208C779.364 557.534 779.438 558.014 779.584 558.649C779.747 559.284 779.828 559.87 779.828 560.407C779.828 560.976 779.568 561.497 779.047 561.969C778.542 562.441 777.834 562.677 776.923 562.677C776.109 562.677 775.507 562.392 775.116 561.823C774.742 561.237 774.555 560.586 774.555 559.87C774.555 559.121 774.815 558.405 775.336 557.721C775.873 557.038 776.565 556.427 777.411 555.89C778.144 555.434 779.031 555.052 780.072 554.743C781.114 554.417 782.131 554.254 783.124 554.254C784.491 554.254 785.679 554.352 786.688 554.547C787.714 554.726 788.642 555.125 789.472 555.744C790.302 556.346 790.928 557.168 791.352 558.209C791.791 559.235 792.011 560.561 792.011 562.189C792.011 564.516 791.986 566.583 791.938 568.39C791.889 570.181 791.864 572.142 791.864 574.274C791.864 574.909 791.97 575.413 792.182 575.788C792.41 576.162 792.751 576.479 793.207 576.74C793.451 576.886 793.834 576.968 794.354 576.984C794.892 577 795.437 577.008 795.99 577.008V578.571ZM787.47 565.68C786.086 566.087 784.874 566.486 783.832 566.876C782.79 567.267 781.822 567.755 780.927 568.341C780.113 568.895 779.47 569.554 778.998 570.319C778.526 571.068 778.29 571.963 778.29 573.004C778.29 574.355 778.64 575.348 779.34 575.983C780.056 576.618 780.959 576.935 782.05 576.935C783.205 576.935 784.223 576.658 785.102 576.105C785.98 575.535 786.721 574.868 787.323 574.103L787.47 565.68ZM813.251 577.96C812.193 578.4 811.192 578.766 810.248 579.059C809.304 579.368 808.148 579.523 806.781 579.523C804.763 579.523 803.339 579.018 802.509 578.009C801.695 576.984 801.288 575.543 801.288 573.688V557.379H796.942V555.036H801.386V547.541H805.829V555.036H812.738V557.379H805.878V570.832C805.878 571.841 805.91 572.687 805.976 573.371C806.057 574.038 806.236 574.624 806.513 575.128C806.773 575.6 807.164 575.958 807.685 576.203C808.205 576.447 808.905 576.569 809.784 576.569C810.191 576.569 810.785 576.536 811.566 576.471C812.364 576.39 812.925 576.292 813.251 576.178V577.96ZM834.101 558.039C834.101 558.869 833.897 559.609 833.49 560.26C833.083 560.895 832.457 561.212 831.61 561.212C830.699 561.212 829.999 560.976 829.511 560.504C829.039 560.032 828.803 559.512 828.803 558.942C828.803 558.584 828.827 558.258 828.876 557.965C828.941 557.672 828.998 557.379 829.047 557.086C828.282 557.086 827.387 557.396 826.361 558.014C825.336 558.633 824.465 559.512 823.749 560.651V574.665C823.749 575.234 823.855 575.698 824.066 576.056C824.294 576.414 824.644 576.683 825.116 576.862C825.523 577.025 826.044 577.147 826.679 577.228C827.33 577.309 827.891 577.366 828.363 577.399V579.01H815.668V577.399C816.042 577.366 816.425 577.334 816.815 577.301C817.222 577.269 817.572 577.204 817.865 577.106C818.321 576.959 818.655 576.707 818.866 576.349C819.094 575.975 819.208 575.495 819.208 574.909V560.041C819.208 559.536 819.086 559.04 818.842 558.551C818.614 558.063 818.288 557.672 817.865 557.379C817.556 557.184 817.19 557.046 816.767 556.964C816.343 556.867 815.888 556.802 815.399 556.769V555.182L823.407 554.645L823.749 554.987V558.38H823.871C824.88 557.062 826.003 556.061 827.24 555.377C828.477 554.694 829.608 554.352 830.634 554.352C831.659 554.352 832.489 554.686 833.124 555.353C833.775 556.02 834.101 556.916 834.101 558.039ZM847.87 579.01H836.225V577.399C836.599 577.366 836.981 577.334 837.372 577.301C837.779 577.269 838.129 577.204 838.422 577.106C838.878 576.959 839.211 576.707 839.423 576.349C839.651 575.975 839.765 575.495 839.765 574.909V560.041C839.765 559.52 839.643 559.048 839.398 558.625C839.171 558.185 838.845 557.819 838.422 557.526C838.113 557.331 837.665 557.168 837.079 557.038C836.493 556.891 835.956 556.802 835.468 556.769V555.182L843.964 554.645L844.306 554.987V574.616C844.306 575.185 844.411 575.657 844.623 576.032C844.851 576.406 845.201 576.683 845.673 576.862C846.031 577.008 846.381 577.13 846.723 577.228C847.064 577.309 847.447 577.366 847.87 577.399V579.01ZM844.794 545.148C844.794 546.076 844.485 546.889 843.866 547.589C843.264 548.273 842.515 548.615 841.62 548.615C840.79 548.615 840.066 548.289 839.447 547.638C838.845 546.971 838.544 546.214 838.544 545.368C838.544 544.472 838.845 543.691 839.447 543.024C840.066 542.357 840.79 542.023 841.62 542.023C842.548 542.023 843.305 542.34 843.891 542.975C844.493 543.594 844.794 544.318 844.794 545.148ZM874.018 579.01H862.982V577.399C863.715 577.318 864.333 577.236 864.838 577.155C865.359 577.073 865.619 576.862 865.619 576.52C865.619 576.374 865.538 576.146 865.375 575.836C865.212 575.527 865.049 575.242 864.887 574.982C864.48 574.347 863.918 573.501 863.202 572.443C862.502 571.369 861.64 570.091 860.614 568.61C859.768 569.668 858.987 570.701 858.271 571.71C857.554 572.703 856.806 573.761 856.024 574.884C855.91 575.047 855.788 575.25 855.658 575.495C855.544 575.739 855.487 575.934 855.487 576.081C855.487 576.439 855.715 576.74 856.171 576.984C856.643 577.212 857.343 577.366 858.271 577.448V579.01H849.359V577.497C850.466 577.171 851.353 576.78 852.021 576.325C852.704 575.853 853.331 575.275 853.9 574.591C854.405 573.94 855.105 573.045 856 571.906C856.911 570.766 858.083 569.22 859.516 567.267C858.686 566.079 857.668 564.63 856.464 562.921C855.276 561.196 854.291 559.764 853.51 558.625C853.087 558.006 852.598 557.51 852.045 557.135C851.508 556.745 850.743 556.549 849.75 556.549V554.938H860.224V556.549C859.703 556.549 859.19 556.582 858.686 556.647C858.181 556.712 857.929 556.859 857.929 557.086C857.929 557.233 857.978 557.396 858.075 557.575C858.173 557.754 858.295 557.949 858.441 558.161C858.799 558.714 859.353 559.569 860.102 560.724C860.867 561.88 861.688 563.1 862.567 564.386C863.137 563.605 863.796 562.694 864.545 561.652C865.31 560.61 866.01 559.617 866.645 558.673C866.71 558.559 866.775 558.421 866.84 558.258C866.905 558.079 866.938 557.908 866.938 557.746C866.938 557.404 866.653 557.135 866.083 556.94C865.53 556.728 865.001 556.582 864.496 556.5V554.938H873.383V556.452C872.13 556.777 871.153 557.168 870.453 557.624C869.753 558.063 869.159 558.576 868.671 559.162C868.134 559.829 867.491 560.651 866.742 561.627C866.01 562.604 864.976 563.971 863.642 565.729C865.123 567.812 866.327 569.521 867.255 570.856C868.183 572.191 869.118 573.566 870.062 574.982C870.535 575.698 871.055 576.268 871.625 576.691C872.211 577.098 873.008 577.334 874.018 577.399V579.01Z" fill="black"/>
<g id="Group 7">
<line id="Line 1" x1="287.586" y1="470.751" x2="316.741" y2="441.596" stroke="black" stroke-width="4"/>
<line id="Line 2" x1="287.414" y1="441.596" x2="316.569" y2="470.751" stroke="black" stroke-width="4"/>
</g>
<g id="Group 8">
<line id="Line 1_2" x1="287.586" y1="362.751" x2="316.741" y2="333.596" stroke="black" stroke-width="4"/>
<line id="Line 2_2" x1="287.414" y1="333.596" x2="316.569" y2="362.751" stroke="black" stroke-width="4"/>
</g>
<g id="Group 9">
<line id="Line 1_3" x1="287.586" y1="262.751" x2="316.741" y2="233.596" stroke="black" stroke-width="4"/>
<line id="Line 2_3" x1="287.414" y1="233.596" x2="316.569" y2="262.751" stroke="black" stroke-width="4"/>
</g>
<g id="Group 12">
<line id="Line 1_4" x1="2280.12" y1="250.747" x2="2321.35" y2="250.747" stroke="black" stroke-width="4"/>
<line id="Line 2_4" x1="2300.62" y1="230.01" x2="2300.62" y2="271.241" stroke="black" stroke-width="4"/>
</g>
<g id="Group 10">
<line id="Line 1_5" x1="287.586" y1="163.751" x2="316.741" y2="134.596" stroke="black" stroke-width="4"/>
<line id="Line 2_5" x1="287.414" y1="134.596" x2="316.569" y2="163.751" stroke="black" stroke-width="4"/>
</g>
<g id="Group 11">
<line id="Line 1_6" x1="287.586" y1="62.7508" x2="316.741" y2="33.5961" stroke="black" stroke-width="4"/>
<line id="Line 2_6" x1="287.414" y1="33.596" x2="316.569" y2="62.7508" stroke="black" stroke-width="4"/>
</g>
<path id="Vector 8" d="M1951.5 52.0103C2074 52.0103 2099.5 231.01 2250 231.01" stroke="black" stroke-width="4"/>
<path id="Vector 9" d="M1951 151.01C2073.71 151.01 2099.25 241.01 2250 241.01" stroke="black" stroke-width="4"/>
<path id="Vector 11" d="M1951.5 451.01C2074 451.01 2099.5 272.01 2250 272.01" stroke="black" stroke-width="4"/>
<path id="Vector 12" d="M1951 352.01C2073.71 352.01 2099.25 262.01 2250 262.01" stroke="black" stroke-width="4"/>
<path id="Vector 10" d="M1949.5 251.51C2072.21 251.51 2099.25 251.51 2250 251.51" stroke="black" stroke-width="4"/>
</g>
</g>
</svg>
