<svg width="150" height="32" viewBox="0 0 150 32" fill="none" xmlns="http://www.w3.org/2000/svg">
<path d="M145.648 29.0256C139.95 22.2425 133.615 15.776 125.766 11.4457C119.02 7.72355 109.152 6.79251 101.527 6.15708C93.6581 5.50136 86.1878 7.87099 78.6582 7.87099" stroke="black" stroke-width="3" stroke-linecap="round"/>
<path d="M135.11 29.5518C138.997 29.5518 143.012 30.1449 146.855 29.9188C147.606 29.8746 147.222 25.5331 147.222 24.9845C147.222 23.3137 147.815 21.9015 148.323 20.3764" stroke="black" stroke-width="3" stroke-linecap="round"/>
<path d="M4.224 11C3.68 11 3.252 10.868 2.94 10.604C2.628 10.34 2.472 9.864 2.472 9.176V5.912H0.96V5.048H1.86C2.268 5.048 2.504 4.848 2.568 4.448L2.736 3.524H3.48V5.048H5.856V5.912H3.48V9.176C3.48 9.512 3.556 9.748 3.708 9.884C3.868 10.02 4.14 10.088 4.524 10.088H5.856V11H4.224ZM8.19131 11V2.36H9.19931V5.948C9.35931 5.644 9.62331 5.396 9.99131 5.204C10.3593 5.004 10.7633 4.904 11.2033 4.904C11.9313 4.904 12.4833 5.124 12.8593 5.564C13.2433 6.004 13.4353 6.62 13.4353 7.412V11H12.4273V7.544C12.4273 7.008 12.2953 6.592 12.0313 6.296C11.7753 6 11.4153 5.852 10.9513 5.852C10.6313 5.852 10.3393 5.924 10.0753 6.068C9.81131 6.212 9.59931 6.424 9.43931 6.704C9.27931 6.984 9.19931 7.328 9.19931 7.736V11H8.19131ZM17.4866 11.144C17.0146 11.144 16.6226 11.06 16.3106 10.892C15.9986 10.724 15.7666 10.504 15.6146 10.232C15.4626 9.952 15.3866 9.648 15.3866 9.32C15.3866 8.712 15.6066 8.252 16.0466 7.94C16.4946 7.62 17.0906 7.46 17.8346 7.46H19.4666V7.34C19.4666 6.3 18.9906 5.78 18.0386 5.78C17.6546 5.78 17.3306 5.864 17.0666 6.032C16.8106 6.2 16.6466 6.464 16.5746 6.824H15.5426C15.5826 6.424 15.7146 6.08 15.9386 5.792C16.1706 5.504 16.4666 5.284 16.8266 5.132C17.1866 4.98 17.5906 4.904 18.0386 4.904C18.8866 4.904 19.5026 5.128 19.8866 5.576C20.2786 6.016 20.4746 6.604 20.4746 7.34V11H19.6106L19.5266 10.076H19.4426C19.2666 10.364 19.0306 10.616 18.7346 10.832C18.4466 11.04 18.0306 11.144 17.4866 11.144ZM17.6666 10.256C18.0506 10.256 18.3746 10.164 18.6386 9.98C18.9106 9.796 19.1146 9.552 19.2506 9.248C19.3946 8.944 19.4666 8.612 19.4666 8.252H17.9186C17.3746 8.252 16.9906 8.344 16.7666 8.528C16.5506 8.712 16.4426 8.956 16.4426 9.26C16.4426 9.572 16.5466 9.816 16.7546 9.992C16.9626 10.168 17.2666 10.256 17.6666 10.256ZM25.8099 11C25.2659 11 24.8379 10.868 24.5259 10.604C24.2139 10.34 24.0579 9.864 24.0579 9.176V5.912H22.5459V5.048H23.4459C23.8539 5.048 24.0899 4.848 24.1539 4.448L24.3219 3.524H25.0659V5.048H27.4419V5.912H25.0659V9.176C25.0659 9.512 25.1419 9.748 25.2939 9.884C25.4539 10.02 25.7259 10.088 26.1099 10.088H27.4419V11H25.8099ZM31.4573 5.96L32.2613 2.6H33.5573L32.3693 5.96H31.4573ZM39.6366 11.144C38.8766 11.144 38.2606 10.968 37.7886 10.616C37.3246 10.256 37.0646 9.764 37.0086 9.14H38.0526C38.1006 9.468 38.2606 9.736 38.5326 9.944C38.8126 10.152 39.1886 10.256 39.6606 10.256C40.1086 10.256 40.4406 10.16 40.6566 9.968C40.8806 9.776 40.9926 9.556 40.9926 9.308C40.9926 8.972 40.8606 8.744 40.5966 8.624C40.3326 8.496 39.9366 8.4 39.4086 8.336C38.7766 8.264 38.2526 8.092 37.8366 7.82C37.4206 7.548 37.2126 7.14 37.2126 6.596C37.2126 6.108 37.4166 5.704 37.8246 5.384C38.2326 5.064 38.7886 4.904 39.4926 4.904C40.1886 4.904 40.7366 5.064 41.1366 5.384C41.5366 5.696 41.7646 6.144 41.8206 6.728H40.8246C40.8006 6.44 40.6606 6.212 40.4046 6.044C40.1566 5.868 39.8446 5.78 39.4686 5.78C39.0766 5.78 38.7726 5.856 38.5566 6.008C38.3406 6.152 38.2326 6.344 38.2326 6.584C38.2326 6.824 38.3526 7.024 38.5926 7.184C38.8406 7.336 39.2286 7.436 39.7566 7.484C40.1726 7.532 40.5526 7.612 40.8966 7.724C41.2406 7.836 41.5126 8.012 41.7126 8.252C41.9206 8.492 42.0246 8.828 42.0246 9.26C42.0326 9.62 41.9326 9.944 41.7246 10.232C41.5246 10.512 41.2446 10.736 40.8846 10.904C40.5246 11.064 40.1086 11.144 39.6366 11.144ZM50.8112 11V5.048H51.6392L51.7472 5.744H51.8072C51.9112 5.504 52.0672 5.304 52.2752 5.144C52.4912 4.984 52.7512 4.904 53.0552 4.904C53.3592 4.904 53.6152 4.98 53.8232 5.132C54.0392 5.276 54.1952 5.48 54.2912 5.744H54.3392C54.4432 5.504 54.6112 5.304 54.8432 5.144C55.0752 4.984 55.3552 4.904 55.6832 4.904C56.1392 4.904 56.4792 5.06 56.7032 5.372C56.9352 5.676 57.0512 6.084 57.0512 6.596V11H56.0672V6.752C56.0672 6.464 56.0072 6.236 55.8872 6.068C55.7752 5.9 55.5912 5.816 55.3352 5.816C55.0712 5.816 54.8552 5.916 54.6872 6.116C54.5192 6.316 54.4352 6.6 54.4352 6.968V11H53.4392V6.752C53.4392 6.464 53.3832 6.236 53.2712 6.068C53.1592 5.9 52.9752 5.816 52.7192 5.816C52.4552 5.816 52.2352 5.916 52.0592 6.116C51.8912 6.316 51.8072 6.6 51.8072 6.968V11H50.8112ZM61.2225 11.144C60.6625 11.144 60.1665 11.016 59.7345 10.76C59.3105 10.496 58.9745 10.132 58.7265 9.668C58.4785 9.196 58.3545 8.648 58.3545 8.024C58.3545 7.4 58.4745 6.856 58.7145 6.392C58.9625 5.92 59.3025 5.556 59.7345 5.3C60.1665 5.036 60.6705 4.904 61.2465 4.904C61.8225 4.904 62.3145 5.036 62.7225 5.3C63.1305 5.556 63.4425 5.896 63.6585 6.32C63.8745 6.744 63.9825 7.2 63.9825 7.688C63.9825 7.776 63.9785 7.864 63.9705 7.952C63.9705 8.04 63.9705 8.14 63.9705 8.252H59.3505C59.3745 8.692 59.4745 9.06 59.6505 9.356C59.8345 9.644 60.0625 9.86 60.3345 10.004C60.6145 10.148 60.9105 10.22 61.2225 10.22C61.6625 10.22 62.0065 10.128 62.2545 9.944C62.5025 9.76 62.6905 9.504 62.8185 9.176H63.8145C63.6785 9.728 63.3945 10.196 62.9625 10.58C62.5305 10.956 61.9505 11.144 61.2225 11.144ZM61.2225 5.804C60.7585 5.804 60.3505 5.944 59.9985 6.224C59.6545 6.504 59.4425 6.896 59.3625 7.4H62.9865C62.9545 6.904 62.7745 6.516 62.4465 6.236C62.1265 5.948 61.7185 5.804 61.2225 5.804ZM67.8778 8.012L67.7458 2.6H68.9698L68.8258 8.012H67.8778ZM68.3578 11.024C68.1098 11.024 67.8978 10.94 67.7218 10.772C67.5458 10.604 67.4578 10.396 67.4578 10.148C67.4578 9.908 67.5458 9.704 67.7218 9.536C67.8978 9.368 68.1098 9.284 68.3578 9.284C68.6138 9.284 68.8258 9.368 68.9938 9.536C69.1698 9.704 69.2578 9.908 69.2578 10.148C69.2578 10.396 69.1698 10.604 68.9938 10.772C68.8258 10.94 68.6138 11.024 68.3578 11.024Z" fill="black"/>
</svg>
