<svg width="569" height="79" viewBox="0 0 569 79" fill="none" xmlns="http://www.w3.org/2000/svg">
<path d="M18.48 79V31.24H2.16V23H45.12V31.24H28.72V79H18.48ZM90.8306 79V23H127.391V31.24H101.071V46.6H124.991V54.6H101.071V70.76H127.391V79H90.8306Z" fill="white"/>
<path d="M381.52 79V31.24H397.84V23H354.88V31.24H371.28V79H381.52ZM309.169 79V23H272.609V31.24H298.929V46.6H275.009V54.6H298.929V70.76H272.609V79H309.169ZM224.794 79V23H214.554L188.234 62.44V23H177.994V79H188.234L214.554 39.64V79H224.794Z" fill="white"/>
</svg>
