<svg width="2800" height="605" viewBox="0 0 2800 605" fill="none" xmlns="http://www.w3.org/2000/svg">
<g id="Frame 6" clip-path="url(#clip0_160_1358)">
<g id="weighting-vector">
<rect id="5-wv-5" x="1051" y="501" width="100" height="100" transform="rotate(-180 1051 501)" fill="#AAAAAA"/>
<rect id="5-wv-4" x="1051" y="401" width="100" height="100" transform="rotate(-180 1051 401)" fill="black"/>
<rect id="5-wv-3" x="1051" y="301" width="100" height="100" transform="rotate(-180 1051 301)" fill="#AAAAAA"/>
<rect id="5-wv-2" x="1051" y="201" width="100" height="100" transform="rotate(-180 1051 201)" fill="black"/>
<rect id="5-wv-1" x="1051" y="101" width="100" height="100" transform="rotate(-180 1051 101)" fill="#AAAAAA"/>
</g>
<rect id="shift-left-5" x="100" y="303" width="100" height="100" transform="rotate(-180 100 303)" fill="#999999"/>
<rect id="shift-noop-5" x="300" y="302" width="100" height="100" transform="rotate(-180 300 302)" fill="#999999"/>
<rect id="shift-right-5" x="500" y="302" width="100" height="100" transform="rotate(-180 500 302)" fill="#999999"/>
<g id="others">
<path id="weight vector" d="M891.075 571.49C890.392 571.555 889.651 571.84 888.854 572.345C888.072 572.849 887.503 573.606 887.145 574.615C886.331 577.008 885.558 579.278 884.825 581.427C884.109 583.559 883.303 585.96 882.408 588.629C882.115 589.475 881.814 590.387 881.505 591.363C881.212 592.34 880.943 593.276 880.699 594.171H878.6L872.13 576.446L865.611 594.171H863.609C862.389 590.558 861.192 586.977 860.021 583.429C858.865 579.864 857.84 576.764 856.944 574.127C856.684 573.362 856.188 572.76 855.455 572.32C854.723 571.881 854.015 571.62 853.331 571.539V569.928H864.073V571.637C863.536 571.653 862.95 571.743 862.315 571.905C861.697 572.068 861.388 572.337 861.388 572.711C861.388 572.776 861.412 572.914 861.461 573.126C861.526 573.338 861.599 573.565 861.681 573.81C862.201 575.519 862.787 577.431 863.438 579.547C864.106 581.646 864.96 584.381 866.002 587.75L872.154 570.416H874.498L880.772 587.506C881.472 585.325 882.164 583.217 882.848 581.183C883.548 579.132 884.158 577.211 884.679 575.421C884.793 574.998 884.898 574.615 884.996 574.273C885.11 573.915 885.167 573.565 885.167 573.224C885.167 572.931 885.037 572.67 884.776 572.442C884.516 572.215 884.199 572.027 883.824 571.881C883.499 571.751 883.141 571.653 882.75 571.588C882.376 571.523 882.099 571.49 881.92 571.49V569.928H891.075V571.49ZM913.463 588.336C912.454 590.257 911.103 591.786 909.41 592.926C907.717 594.065 905.772 594.635 903.575 594.635C901.638 594.635 899.938 594.293 898.473 593.609C897.024 592.926 895.828 591.998 894.884 590.826C893.94 589.654 893.232 588.287 892.76 586.725C892.304 585.162 892.076 583.51 892.076 581.769C892.076 580.206 892.32 578.676 892.809 577.179C893.313 575.665 894.046 574.306 895.006 573.102C895.934 571.946 897.081 571.018 898.448 570.318C899.832 569.602 901.378 569.244 903.087 569.244C904.845 569.244 906.35 569.521 907.604 570.074C908.857 570.628 909.874 571.384 910.655 572.345C911.404 573.256 911.957 574.33 912.315 575.567C912.69 576.804 912.877 578.147 912.877 579.596V581.207H896.935C896.935 582.786 897.081 584.218 897.374 585.504C897.683 586.79 898.163 587.921 898.814 588.897C899.449 589.841 900.279 590.59 901.305 591.144C902.33 591.681 903.551 591.949 904.967 591.949C906.415 591.949 907.66 591.616 908.702 590.948C909.76 590.265 910.777 589.044 911.754 587.286L913.463 588.336ZM908.067 579.156C908.067 578.245 907.986 577.268 907.823 576.227C907.677 575.185 907.433 574.314 907.091 573.614C906.716 572.866 906.204 572.255 905.553 571.783C904.902 571.311 904.063 571.075 903.038 571.075C901.329 571.075 899.905 571.791 898.766 573.224C897.643 574.64 897.032 576.617 896.935 579.156H908.067ZM927.94 594H916.295V592.389C916.669 592.356 917.052 592.324 917.442 592.291C917.849 592.258 918.199 592.193 918.492 592.096C918.948 591.949 919.282 591.697 919.493 591.339C919.721 590.965 919.835 590.484 919.835 589.898V575.03C919.835 574.509 919.713 574.037 919.469 573.614C919.241 573.175 918.915 572.809 918.492 572.516C918.183 572.32 917.735 572.158 917.149 572.027C916.563 571.881 916.026 571.791 915.538 571.759V570.172L924.034 569.635L924.376 569.977V589.605C924.376 590.175 924.482 590.647 924.693 591.021C924.921 591.396 925.271 591.673 925.743 591.852C926.101 591.998 926.451 592.12 926.793 592.218C927.135 592.299 927.517 592.356 927.94 592.389V594ZM924.864 560.138C924.864 561.065 924.555 561.879 923.937 562.579C923.334 563.263 922.586 563.604 921.69 563.604C920.86 563.604 920.136 563.279 919.518 562.628C918.915 561.961 918.614 561.204 918.614 560.357C918.614 559.462 918.915 558.681 919.518 558.014C920.136 557.346 920.86 557.013 921.69 557.013C922.618 557.013 923.375 557.33 923.961 557.965C924.563 558.583 924.864 559.308 924.864 560.138ZM951.524 591.51C952.175 592.128 952.688 592.828 953.062 593.609C953.437 594.391 953.624 595.359 953.624 596.515C953.624 597.67 953.372 598.753 952.867 599.762C952.363 600.787 951.598 601.674 950.572 602.423C949.482 603.188 948.18 603.782 946.666 604.205C945.152 604.628 943.281 604.84 941.051 604.84C937.405 604.84 934.679 604.303 932.872 603.229C931.065 602.171 930.162 600.616 930.162 598.565C930.162 596.905 930.813 595.595 932.115 594.635C933.417 593.674 935.077 593.154 937.096 593.072V592.73C936.607 592.584 936.103 592.405 935.582 592.193C935.061 591.965 934.614 591.705 934.239 591.412C933.816 591.07 933.474 590.672 933.214 590.216C932.953 589.744 932.823 589.166 932.823 588.482C932.823 587.62 933.124 586.83 933.727 586.114C934.345 585.382 935.273 584.755 936.51 584.234V583.868C934.947 583.136 933.735 582.2 932.872 581.061C932.009 579.905 931.578 578.57 931.578 577.057C931.578 574.778 932.424 572.906 934.117 571.441C935.826 569.977 938.007 569.244 940.66 569.244C941.393 569.244 942.117 569.317 942.833 569.464C943.565 569.61 944.306 569.798 945.055 570.025H953.453V572.369H947.789V572.516C948.391 573.215 948.839 573.989 949.132 574.835C949.425 575.681 949.571 576.511 949.571 577.325C949.571 579.441 948.709 581.231 946.983 582.696C945.274 584.161 943.281 584.894 941.002 584.894H938.048C937.674 585.024 937.283 585.26 936.876 585.602C936.469 585.943 936.266 586.407 936.266 586.993C936.266 587.595 936.437 588.059 936.778 588.385C937.12 588.694 937.535 588.906 938.023 589.02C938.495 589.15 939.041 589.231 939.659 589.264C940.294 589.296 940.945 589.321 941.612 589.337C942.328 589.353 943.305 589.402 944.542 589.483C945.795 589.565 946.682 589.614 947.203 589.63C947.952 589.662 948.701 589.841 949.449 590.167C950.214 590.493 950.906 590.94 951.524 591.51ZM944.933 577.228C944.933 575.323 944.542 573.81 943.761 572.687C942.996 571.547 941.913 570.978 940.514 570.978C939.749 570.978 939.09 571.14 938.536 571.466C937.999 571.775 937.56 572.223 937.218 572.809C936.892 573.346 936.656 573.997 936.51 574.762C936.38 575.51 936.314 576.284 936.314 577.081C936.314 578.888 936.705 580.361 937.486 581.5C938.284 582.639 939.309 583.209 940.562 583.209C941.962 583.209 943.036 582.647 943.785 581.524C944.55 580.385 944.933 578.953 944.933 577.228ZM949.62 597.418C949.62 596.507 949.409 595.758 948.985 595.172C948.562 594.586 947.919 594.187 947.057 593.976C946.601 593.91 945.665 593.837 944.249 593.756C942.833 593.674 941.189 593.634 939.317 593.634C937.56 593.976 936.306 594.545 935.558 595.343C934.825 596.157 934.459 597.198 934.459 598.468C934.459 599.037 934.581 599.583 934.825 600.104C935.069 600.624 935.493 601.104 936.095 601.544C936.664 601.967 937.429 602.309 938.39 602.569C939.35 602.846 940.522 602.984 941.905 602.984C944.298 602.984 946.178 602.521 947.545 601.593C948.928 600.681 949.62 599.29 949.62 597.418ZM982.53 594H970.714V592.389C971.088 592.356 971.503 592.324 971.959 592.291C972.415 592.258 972.789 592.193 973.082 592.096C973.538 591.949 973.871 591.697 974.083 591.339C974.311 590.965 974.425 590.484 974.425 589.898V577.521C974.425 575.812 974.018 574.493 973.204 573.565C972.407 572.638 971.43 572.174 970.274 572.174C969.428 572.174 968.639 572.312 967.906 572.589C967.19 572.849 966.547 573.175 965.978 573.565C965.424 573.972 965.001 574.379 964.708 574.786C964.415 575.193 964.187 575.535 964.024 575.812V589.654C964.024 590.208 964.13 590.663 964.342 591.021C964.57 591.38 964.911 591.656 965.367 591.852C965.725 592.014 966.091 592.136 966.466 592.218C966.856 592.299 967.28 592.356 967.735 592.389V594H955.919V592.389C956.293 592.356 956.684 592.324 957.091 592.291C957.498 592.242 957.84 592.177 958.116 592.096C958.572 591.949 958.914 591.697 959.142 591.339C959.369 590.965 959.483 590.484 959.483 589.898V561.871C959.483 561.318 959.353 560.764 959.093 560.211C958.849 559.658 958.523 559.243 958.116 558.966C957.823 558.754 957.302 558.608 956.554 558.526C955.821 558.429 955.227 558.364 954.771 558.331V556.769L963.683 556.207L964.024 556.573V573.37H964.122C964.659 572.833 965.147 572.361 965.587 571.954C966.026 571.531 966.604 571.091 967.32 570.636C967.939 570.245 968.663 569.92 969.493 569.659C970.34 569.399 971.284 569.269 972.325 569.269C974.474 569.269 976.126 569.952 977.281 571.319C978.437 572.67 979.015 574.623 979.015 577.179V589.703C979.015 590.273 979.112 590.737 979.308 591.095C979.519 591.437 979.861 591.705 980.333 591.9C980.707 592.047 981.041 592.161 981.334 592.242C981.643 592.307 982.042 592.356 982.53 592.389V594ZM1000.35 592.95C999.295 593.39 998.294 593.756 997.35 594.049C996.406 594.358 995.25 594.513 993.883 594.513C991.865 594.513 990.44 594.008 989.61 592.999C988.797 591.974 988.39 590.533 988.39 588.678V572.369H984.044V570.025H988.487V562.53H992.931V570.025H999.84V572.369H992.979V585.821C992.979 586.83 993.012 587.677 993.077 588.36C993.159 589.028 993.338 589.614 993.614 590.118C993.875 590.59 994.265 590.948 994.786 591.192C995.307 591.437 996.007 591.559 996.886 591.559C997.293 591.559 997.887 591.526 998.668 591.461C999.465 591.38 1000.03 591.282 1000.35 591.168V592.95ZM1038.61 571.417C1037.88 571.547 1037.18 571.816 1036.51 572.223C1035.86 572.613 1035.3 573.313 1034.83 574.322C1033.86 576.503 1032.87 578.782 1031.85 581.158C1030.82 583.518 1029.76 586 1028.65 588.604C1028.32 589.353 1027.97 590.24 1027.6 591.266C1027.24 592.291 1026.91 593.276 1026.6 594.22H1024.69C1023.15 590.395 1021.72 586.912 1020.42 583.771C1019.12 580.613 1017.77 577.382 1016.37 574.078C1016.04 573.329 1015.51 572.752 1014.78 572.345C1014.07 571.922 1013.34 571.653 1012.61 571.539V569.928H1023.74V571.637C1023.25 571.653 1022.64 571.759 1021.91 571.954C1021.18 572.133 1020.81 572.385 1020.81 572.711C1020.81 572.76 1020.85 572.89 1020.93 573.102C1021.01 573.297 1021.1 573.525 1021.18 573.785C1021.85 575.445 1022.79 577.765 1024.01 580.743C1025.23 583.722 1026.22 586.122 1026.99 587.945C1027.57 586.546 1028.31 584.804 1029.19 582.721C1030.08 580.637 1031.04 578.31 1032.07 575.738C1032.23 575.299 1032.38 574.892 1032.53 574.518C1032.68 574.127 1032.75 573.736 1032.75 573.346C1032.75 573.069 1032.61 572.825 1032.33 572.613C1032.07 572.385 1031.76 572.19 1031.38 572.027C1031.01 571.865 1030.64 571.743 1030.28 571.661C1029.93 571.58 1029.63 571.523 1029.41 571.49V569.928H1038.61V571.417ZM1061.07 588.336C1060.06 590.257 1058.71 591.786 1057.02 592.926C1055.32 594.065 1053.38 594.635 1051.18 594.635C1049.25 594.635 1047.54 594.293 1046.08 593.609C1044.63 592.926 1043.44 591.998 1042.49 590.826C1041.55 589.654 1040.84 588.287 1040.37 586.725C1039.91 585.162 1039.68 583.51 1039.68 581.769C1039.68 580.206 1039.93 578.676 1040.42 577.179C1040.92 575.665 1041.65 574.306 1042.61 573.102C1043.54 571.946 1044.69 571.018 1046.06 570.318C1047.44 569.602 1048.99 569.244 1050.69 569.244C1052.45 569.244 1053.96 569.521 1055.21 570.074C1056.46 570.628 1057.48 571.384 1058.26 572.345C1059.01 573.256 1059.56 574.33 1059.92 575.567C1060.3 576.804 1060.48 578.147 1060.48 579.596V581.207H1044.54C1044.54 582.786 1044.69 584.218 1044.98 585.504C1045.29 586.79 1045.77 587.921 1046.42 588.897C1047.06 589.841 1047.89 590.59 1048.91 591.144C1049.94 591.681 1051.16 591.949 1052.57 591.949C1054.02 591.949 1055.27 591.616 1056.31 590.948C1057.37 590.265 1058.38 589.044 1059.36 587.286L1061.07 588.336ZM1055.67 579.156C1055.67 578.245 1055.59 577.268 1055.43 576.227C1055.28 575.185 1055.04 574.314 1054.7 573.614C1054.32 572.866 1053.81 572.255 1053.16 571.783C1052.51 571.311 1051.67 571.075 1050.65 571.075C1048.94 571.075 1047.51 571.791 1046.37 573.224C1045.25 574.64 1044.64 576.617 1044.54 579.156H1055.67ZM1074.99 594.635C1071.5 594.635 1068.78 593.479 1066.81 591.168C1064.84 588.857 1063.85 585.756 1063.85 581.866C1063.85 580.174 1064.11 578.595 1064.63 577.13C1065.17 575.649 1065.94 574.306 1066.95 573.102C1067.91 571.946 1069.12 571.018 1070.57 570.318C1072.02 569.602 1073.59 569.244 1075.3 569.244C1077.66 569.244 1079.58 569.814 1081.07 570.953C1082.55 572.076 1083.29 573.614 1083.29 575.567C1083.29 576.381 1083.09 577.105 1082.7 577.74C1082.31 578.359 1081.67 578.668 1080.77 578.668C1079.81 578.668 1079.06 578.424 1078.53 577.936C1078.01 577.447 1077.75 576.902 1077.75 576.3C1077.75 575.567 1077.84 574.819 1078.04 574.054C1078.23 573.272 1078.35 572.703 1078.38 572.345C1078.09 571.84 1077.65 571.507 1077.06 571.344C1076.49 571.165 1075.87 571.075 1075.21 571.075C1074.42 571.075 1073.68 571.246 1072.96 571.588C1072.26 571.913 1071.58 572.524 1070.91 573.419C1070.31 574.233 1069.82 575.331 1069.44 576.715C1069.07 578.098 1068.88 579.75 1068.88 581.671C1068.88 584.698 1069.55 587.172 1070.88 589.093C1072.24 590.997 1074 591.949 1076.18 591.949C1077.76 591.949 1079.08 591.567 1080.14 590.802C1081.21 590.037 1082.2 588.889 1083.12 587.359L1084.68 588.385C1083.6 590.305 1082.19 591.827 1080.43 592.95C1078.67 594.073 1076.86 594.635 1074.99 594.635ZM1101.43 592.95C1100.37 593.39 1099.37 593.756 1098.42 594.049C1097.48 594.358 1096.32 594.513 1094.96 594.513C1092.94 594.513 1091.51 594.008 1090.68 592.999C1089.87 591.974 1089.46 590.533 1089.46 588.678V572.369H1085.12V570.025H1089.56V562.53H1094V570.025H1100.91V572.369H1094.05V585.821C1094.05 586.83 1094.09 587.677 1094.15 588.36C1094.23 589.028 1094.41 589.614 1094.69 590.118C1094.95 590.59 1095.34 590.948 1095.86 591.192C1096.38 591.437 1097.08 591.559 1097.96 591.559C1098.37 591.559 1098.96 591.526 1099.74 591.461C1100.54 591.38 1101.1 591.282 1101.43 591.168V592.95ZM1127.31 581.72C1127.31 583.412 1127.04 585.081 1126.5 586.725C1125.96 588.352 1125.2 589.736 1124.21 590.875C1123.08 592.177 1121.78 593.146 1120.3 593.78C1118.82 594.415 1117.16 594.732 1115.32 594.732C1113.79 594.732 1112.33 594.448 1110.95 593.878C1109.56 593.292 1108.34 592.446 1107.26 591.339C1106.2 590.248 1105.36 588.922 1104.72 587.359C1104.1 585.781 1103.79 584.015 1103.79 582.062C1103.79 578.302 1104.89 575.226 1107.07 572.833C1109.26 570.44 1112.14 569.244 1115.68 569.244C1119.05 569.244 1121.83 570.383 1124.01 572.662C1126.21 574.924 1127.31 577.944 1127.31 581.72ZM1122.25 581.769C1122.25 580.548 1122.13 579.262 1121.89 577.911C1121.64 576.544 1121.28 575.388 1120.79 574.444C1120.27 573.435 1119.58 572.63 1118.74 572.027C1117.89 571.409 1116.86 571.1 1115.64 571.1C1114.38 571.1 1113.31 571.409 1112.41 572.027C1111.53 572.646 1110.82 573.492 1110.26 574.566C1109.74 575.559 1109.38 576.69 1109.17 577.96C1108.95 579.229 1108.85 580.458 1108.85 581.646C1108.85 583.209 1108.97 584.658 1109.21 585.992C1109.48 587.311 1109.88 588.491 1110.44 589.532C1110.99 590.574 1111.68 591.396 1112.51 591.998C1113.36 592.584 1114.4 592.877 1115.64 592.877C1117.67 592.877 1119.28 591.892 1120.47 589.923C1121.66 587.953 1122.25 585.235 1122.25 581.769ZM1149.23 573.028C1149.23 573.858 1149.03 574.599 1148.62 575.25C1148.21 575.885 1147.59 576.202 1146.74 576.202C1145.83 576.202 1145.13 575.966 1144.64 575.494C1144.17 575.022 1143.93 574.501 1143.93 573.932C1143.93 573.574 1143.96 573.248 1144 572.955C1144.07 572.662 1144.13 572.369 1144.18 572.076C1143.41 572.076 1142.52 572.385 1141.49 573.004C1140.46 573.622 1139.59 574.501 1138.88 575.641V589.654C1138.88 590.224 1138.98 590.688 1139.2 591.046C1139.42 591.404 1139.77 591.673 1140.25 591.852C1140.65 592.014 1141.17 592.136 1141.81 592.218C1142.46 592.299 1143.02 592.356 1143.49 592.389V594H1130.8V592.389C1131.17 592.356 1131.55 592.324 1131.94 592.291C1132.35 592.258 1132.7 592.193 1132.99 592.096C1133.45 591.949 1133.78 591.697 1134 591.339C1134.22 590.965 1134.34 590.484 1134.34 589.898V575.03C1134.34 574.526 1134.21 574.029 1133.97 573.541C1133.74 573.053 1133.42 572.662 1132.99 572.369C1132.68 572.174 1132.32 572.035 1131.9 571.954C1131.47 571.856 1131.02 571.791 1130.53 571.759V570.172L1138.54 569.635L1138.88 569.977V573.37H1139C1140.01 572.052 1141.13 571.051 1142.37 570.367C1143.61 569.684 1144.74 569.342 1145.76 569.342C1146.79 569.342 1147.62 569.675 1148.25 570.343C1148.9 571.01 1149.23 571.905 1149.23 573.028Z" fill="black"/>
</g>
<g id="others_2">
<path id="weight vector history through time" d="M1854.94 571.49C1854.26 571.555 1853.52 571.84 1852.72 572.345C1851.94 572.849 1851.37 573.606 1851.01 574.615C1850.2 577.008 1849.43 579.278 1848.69 581.427C1847.98 583.559 1847.17 585.96 1846.28 588.629C1845.98 589.475 1845.68 590.387 1845.37 591.363C1845.08 592.34 1844.81 593.276 1844.57 594.171H1842.47L1836 576.446L1829.48 594.171H1827.48C1826.26 590.558 1825.06 586.977 1823.89 583.429C1822.73 579.864 1821.71 576.764 1820.81 574.127C1820.55 573.362 1820.06 572.76 1819.32 572.32C1818.59 571.881 1817.88 571.62 1817.2 571.539V569.928H1827.94V571.637C1827.41 571.653 1826.82 571.743 1826.18 571.905C1825.57 572.068 1825.26 572.337 1825.26 572.711C1825.26 572.776 1825.28 572.914 1825.33 573.126C1825.4 573.338 1825.47 573.565 1825.55 573.81C1826.07 575.519 1826.66 577.431 1827.31 579.547C1827.97 581.646 1828.83 584.381 1829.87 587.75L1836.02 570.416H1838.37L1844.64 587.506C1845.34 585.325 1846.03 583.217 1846.72 581.183C1847.42 579.132 1848.03 577.211 1848.55 575.421C1848.66 574.998 1848.77 574.615 1848.87 574.273C1848.98 573.915 1849.04 573.565 1849.04 573.224C1849.04 572.931 1848.91 572.67 1848.65 572.442C1848.39 572.215 1848.07 572.027 1847.69 571.881C1847.37 571.751 1847.01 571.653 1846.62 571.588C1846.24 571.523 1845.97 571.49 1845.79 571.49V569.928H1854.94V571.49ZM1877.33 588.336C1876.32 590.257 1874.97 591.786 1873.28 592.926C1871.59 594.065 1869.64 594.635 1867.44 594.635C1865.51 594.635 1863.81 594.293 1862.34 593.609C1860.89 592.926 1859.7 591.998 1858.75 590.826C1857.81 589.654 1857.1 588.287 1856.63 586.725C1856.17 585.162 1855.95 583.51 1855.95 581.769C1855.95 580.206 1856.19 578.676 1856.68 577.179C1857.18 575.665 1857.91 574.306 1858.88 573.102C1859.8 571.946 1860.95 571.018 1862.32 570.318C1863.7 569.602 1865.25 569.244 1866.96 569.244C1868.71 569.244 1870.22 569.521 1871.47 570.074C1872.73 570.628 1873.74 571.384 1874.52 572.345C1875.27 573.256 1875.83 574.33 1876.18 575.567C1876.56 576.804 1876.75 578.147 1876.75 579.596V581.207H1860.8C1860.8 582.786 1860.95 584.218 1861.24 585.504C1861.55 586.79 1862.03 587.921 1862.68 588.897C1863.32 589.841 1864.15 590.59 1865.17 591.144C1866.2 591.681 1867.42 591.949 1868.84 591.949C1870.28 591.949 1871.53 591.616 1872.57 590.948C1873.63 590.265 1874.65 589.044 1875.62 587.286L1877.33 588.336ZM1871.94 579.156C1871.94 578.245 1871.86 577.268 1871.69 576.227C1871.55 575.185 1871.3 574.314 1870.96 573.614C1870.59 572.866 1870.07 572.255 1869.42 571.783C1868.77 571.311 1867.93 571.075 1866.91 571.075C1865.2 571.075 1863.77 571.791 1862.63 573.224C1861.51 574.64 1860.9 576.617 1860.8 579.156H1871.94ZM1891.81 594H1880.16V592.389C1880.54 592.356 1880.92 592.324 1881.31 592.291C1881.72 592.258 1882.07 592.193 1882.36 592.096C1882.82 591.949 1883.15 591.697 1883.36 591.339C1883.59 590.965 1883.7 590.484 1883.7 589.898V575.03C1883.7 574.509 1883.58 574.037 1883.34 573.614C1883.11 573.175 1882.78 572.809 1882.36 572.516C1882.05 572.32 1881.6 572.158 1881.02 572.027C1880.43 571.881 1879.9 571.791 1879.41 571.759V570.172L1887.9 569.635L1888.25 569.977V589.605C1888.25 590.175 1888.35 590.647 1888.56 591.021C1888.79 591.396 1889.14 591.673 1889.61 591.852C1889.97 591.998 1890.32 592.12 1890.66 592.218C1891 592.299 1891.39 592.356 1891.81 592.389V594ZM1888.73 560.138C1888.73 561.065 1888.42 561.879 1887.81 562.579C1887.2 563.263 1886.45 563.604 1885.56 563.604C1884.73 563.604 1884.01 563.279 1883.39 562.628C1882.78 561.961 1882.48 561.204 1882.48 560.357C1882.48 559.462 1882.78 558.681 1883.39 558.014C1884.01 557.346 1884.73 557.013 1885.56 557.013C1886.49 557.013 1887.24 557.33 1887.83 557.965C1888.43 558.583 1888.73 559.308 1888.73 560.138ZM1915.39 591.51C1916.04 592.128 1916.56 592.828 1916.93 593.609C1917.31 594.391 1917.49 595.359 1917.49 596.515C1917.49 597.67 1917.24 598.753 1916.74 599.762C1916.23 600.787 1915.47 601.674 1914.44 602.423C1913.35 603.188 1912.05 603.782 1910.54 604.205C1909.02 604.628 1907.15 604.84 1904.92 604.84C1901.27 604.84 1898.55 604.303 1896.74 603.229C1894.93 602.171 1894.03 600.616 1894.03 598.565C1894.03 596.905 1894.68 595.595 1895.98 594.635C1897.29 593.674 1898.95 593.154 1900.96 593.072V592.73C1900.48 592.584 1899.97 592.405 1899.45 592.193C1898.93 591.965 1898.48 591.705 1898.11 591.412C1897.69 591.07 1897.34 590.672 1897.08 590.216C1896.82 589.744 1896.69 589.166 1896.69 588.482C1896.69 587.62 1896.99 586.83 1897.6 586.114C1898.21 585.382 1899.14 584.755 1900.38 584.234V583.868C1898.82 583.136 1897.6 582.2 1896.74 581.061C1895.88 579.905 1895.45 578.57 1895.45 577.057C1895.45 574.778 1896.29 572.906 1897.99 571.441C1899.7 569.977 1901.88 569.244 1904.53 569.244C1905.26 569.244 1905.99 569.317 1906.7 569.464C1907.43 569.61 1908.18 569.798 1908.92 570.025H1917.32V572.369H1911.66V572.516C1912.26 573.215 1912.71 573.989 1913 574.835C1913.29 575.681 1913.44 576.511 1913.44 577.325C1913.44 579.441 1912.58 581.231 1910.85 582.696C1909.14 584.161 1907.15 584.894 1904.87 584.894H1901.92C1901.54 585.024 1901.15 585.26 1900.75 585.602C1900.34 585.943 1900.13 586.407 1900.13 586.993C1900.13 587.595 1900.31 588.059 1900.65 588.385C1900.99 588.694 1901.4 588.906 1901.89 589.02C1902.36 589.15 1902.91 589.231 1903.53 589.264C1904.16 589.296 1904.81 589.321 1905.48 589.337C1906.2 589.353 1907.17 589.402 1908.41 589.483C1909.66 589.565 1910.55 589.614 1911.07 589.63C1911.82 589.662 1912.57 589.841 1913.32 590.167C1914.08 590.493 1914.78 590.94 1915.39 591.51ZM1908.8 577.228C1908.8 575.323 1908.41 573.81 1907.63 572.687C1906.86 571.547 1905.78 570.978 1904.38 570.978C1903.62 570.978 1902.96 571.14 1902.41 571.466C1901.87 571.775 1901.43 572.223 1901.09 572.809C1900.76 573.346 1900.53 573.997 1900.38 574.762C1900.25 575.51 1900.18 576.284 1900.18 577.081C1900.18 578.888 1900.57 580.361 1901.36 581.5C1902.15 582.639 1903.18 583.209 1904.43 583.209C1905.83 583.209 1906.91 582.647 1907.65 581.524C1908.42 580.385 1908.8 578.953 1908.8 577.228ZM1913.49 597.418C1913.49 596.507 1913.28 595.758 1912.85 595.172C1912.43 594.586 1911.79 594.187 1910.93 593.976C1910.47 593.91 1909.53 593.837 1908.12 593.756C1906.7 593.674 1905.06 593.634 1903.19 593.634C1901.43 593.976 1900.18 594.545 1899.43 595.343C1898.69 596.157 1898.33 597.198 1898.33 598.468C1898.33 599.037 1898.45 599.583 1898.69 600.104C1898.94 600.624 1899.36 601.104 1899.96 601.544C1900.53 601.967 1901.3 602.309 1902.26 602.569C1903.22 602.846 1904.39 602.984 1905.77 602.984C1908.17 602.984 1910.05 602.521 1911.41 601.593C1912.8 600.681 1913.49 599.29 1913.49 597.418ZM1946.4 594H1934.58V592.389C1934.96 592.356 1935.37 592.324 1935.83 592.291C1936.28 592.258 1936.66 592.193 1936.95 592.096C1937.41 591.949 1937.74 591.697 1937.95 591.339C1938.18 590.965 1938.29 590.484 1938.29 589.898V577.521C1938.29 575.812 1937.89 574.493 1937.07 573.565C1936.28 572.638 1935.3 572.174 1934.14 572.174C1933.3 572.174 1932.51 572.312 1931.78 572.589C1931.06 572.849 1930.42 573.175 1929.85 573.565C1929.29 573.972 1928.87 574.379 1928.58 574.786C1928.28 575.193 1928.06 575.535 1927.89 575.812V589.654C1927.89 590.208 1928 590.663 1928.21 591.021C1928.44 591.38 1928.78 591.656 1929.24 591.852C1929.59 592.014 1929.96 592.136 1930.33 592.218C1930.73 592.299 1931.15 592.356 1931.6 592.389V594H1919.79V592.389C1920.16 592.356 1920.55 592.324 1920.96 592.291C1921.37 592.242 1921.71 592.177 1921.99 592.096C1922.44 591.949 1922.78 591.697 1923.01 591.339C1923.24 590.965 1923.35 590.484 1923.35 589.898V561.871C1923.35 561.318 1923.22 560.764 1922.96 560.211C1922.72 559.658 1922.39 559.243 1921.99 558.966C1921.69 558.754 1921.17 558.608 1920.42 558.526C1919.69 558.429 1919.1 558.364 1918.64 558.331V556.769L1927.55 556.207L1927.89 556.573V573.37H1927.99C1928.53 572.833 1929.02 572.361 1929.46 571.954C1929.9 571.531 1930.47 571.091 1931.19 570.636C1931.81 570.245 1932.53 569.92 1933.36 569.659C1934.21 569.399 1935.15 569.269 1936.19 569.269C1938.34 569.269 1939.99 569.952 1941.15 571.319C1942.31 572.67 1942.88 574.623 1942.88 577.179V589.703C1942.88 590.273 1942.98 590.737 1943.18 591.095C1943.39 591.437 1943.73 591.705 1944.2 591.9C1944.58 592.047 1944.91 592.161 1945.2 592.242C1945.51 592.307 1945.91 592.356 1946.4 592.389V594ZM1964.22 592.95C1963.16 593.39 1962.16 593.756 1961.22 594.049C1960.27 594.358 1959.12 594.513 1957.75 594.513C1955.73 594.513 1954.31 594.008 1953.48 592.999C1952.67 591.974 1952.26 590.533 1952.26 588.678V572.369H1947.91V570.025H1952.36V562.53H1956.8V570.025H1963.71V572.369H1956.85V585.821C1956.85 586.83 1956.88 587.677 1956.95 588.36C1957.03 589.028 1957.21 589.614 1957.48 590.118C1957.74 590.59 1958.13 590.948 1958.66 591.192C1959.18 591.437 1959.88 591.559 1960.75 591.559C1961.16 591.559 1961.76 591.526 1962.54 591.461C1963.33 591.38 1963.9 591.282 1964.22 591.168V592.95ZM2002.48 571.417C2001.75 571.547 2001.05 571.816 2000.38 572.223C1999.73 572.613 1999.17 573.313 1998.69 574.322C1997.73 576.503 1996.74 578.782 1995.72 581.158C1994.69 583.518 1993.62 586 1992.52 588.604C1992.19 589.353 1991.84 590.24 1991.47 591.266C1991.11 592.291 1990.78 593.276 1990.47 594.22H1988.56C1987.02 590.395 1985.59 586.912 1984.29 583.771C1982.99 580.613 1981.64 577.382 1980.24 574.078C1979.91 573.329 1979.38 572.752 1978.65 572.345C1977.93 571.922 1977.21 571.653 1976.48 571.539V569.928H1987.61V571.637C1987.12 571.653 1986.51 571.759 1985.78 571.954C1985.05 572.133 1984.68 572.385 1984.68 572.711C1984.68 572.76 1984.72 572.89 1984.8 573.102C1984.88 573.297 1984.97 573.525 1985.05 573.785C1985.71 575.445 1986.66 577.765 1987.88 580.743C1989.1 583.722 1990.09 586.122 1990.86 587.945C1991.44 586.546 1992.18 584.804 1993.05 582.721C1993.95 580.637 1994.91 578.31 1995.94 575.738C1996.1 575.299 1996.25 574.892 1996.4 574.518C1996.55 574.127 1996.62 573.736 1996.62 573.346C1996.62 573.069 1996.48 572.825 1996.2 572.613C1995.94 572.385 1995.63 572.19 1995.25 572.027C1994.88 571.865 1994.51 571.743 1994.15 571.661C1993.8 571.58 1993.5 571.523 1993.27 571.49V569.928H2002.48V571.417ZM2024.94 588.336C2023.93 590.257 2022.58 591.786 2020.89 592.926C2019.19 594.065 2017.25 594.635 2015.05 594.635C2013.11 594.635 2011.41 594.293 2009.95 593.609C2008.5 592.926 2007.3 591.998 2006.36 590.826C2005.42 589.654 2004.71 588.287 2004.24 586.725C2003.78 585.162 2003.55 583.51 2003.55 581.769C2003.55 580.206 2003.8 578.676 2004.29 577.179C2004.79 575.665 2005.52 574.306 2006.48 573.102C2007.41 571.946 2008.56 571.018 2009.92 570.318C2011.31 569.602 2012.85 569.244 2014.56 569.244C2016.32 569.244 2017.83 569.521 2019.08 570.074C2020.33 570.628 2021.35 571.384 2022.13 572.345C2022.88 573.256 2023.43 574.33 2023.79 575.567C2024.17 576.804 2024.35 578.147 2024.35 579.596V581.207H2008.41C2008.41 582.786 2008.56 584.218 2008.85 585.504C2009.16 586.79 2009.64 587.921 2010.29 588.897C2010.93 589.841 2011.76 590.59 2012.78 591.144C2013.81 591.681 2015.03 591.949 2016.44 591.949C2017.89 591.949 2019.14 591.616 2020.18 590.948C2021.24 590.265 2022.25 589.044 2023.23 587.286L2024.94 588.336ZM2019.54 579.156C2019.54 578.245 2019.46 577.268 2019.3 576.227C2019.15 575.185 2018.91 574.314 2018.57 573.614C2018.19 572.866 2017.68 572.255 2017.03 571.783C2016.38 571.311 2015.54 571.075 2014.51 571.075C2012.81 571.075 2011.38 571.791 2010.24 573.224C2009.12 574.64 2008.51 576.617 2008.41 579.156H2019.54ZM2038.86 594.635C2035.37 594.635 2032.65 593.479 2030.68 591.168C2028.71 588.857 2027.72 585.756 2027.72 581.866C2027.72 580.174 2027.98 578.595 2028.5 577.13C2029.04 575.649 2029.81 574.306 2030.82 573.102C2031.78 571.946 2032.99 571.018 2034.44 570.318C2035.89 569.602 2037.46 569.244 2039.17 569.244C2041.53 569.244 2043.45 569.814 2044.93 570.953C2046.42 572.076 2047.16 573.614 2047.16 575.567C2047.16 576.381 2046.96 577.105 2046.57 577.74C2046.18 578.359 2045.54 578.668 2044.64 578.668C2043.68 578.668 2042.93 578.424 2042.4 577.936C2041.87 577.447 2041.61 576.902 2041.61 576.3C2041.61 575.567 2041.71 574.819 2041.91 574.054C2042.1 573.272 2042.22 572.703 2042.25 572.345C2041.96 571.84 2041.52 571.507 2040.93 571.344C2040.36 571.165 2039.74 571.075 2039.08 571.075C2038.29 571.075 2037.55 571.246 2036.83 571.588C2036.13 571.913 2035.45 572.524 2034.78 573.419C2034.18 574.233 2033.69 575.331 2033.31 576.715C2032.94 578.098 2032.75 579.75 2032.75 581.671C2032.75 584.698 2033.42 587.172 2034.75 589.093C2036.1 590.997 2037.87 591.949 2040.05 591.949C2041.63 591.949 2042.95 591.567 2044.01 590.802C2045.08 590.037 2046.07 588.889 2046.99 587.359L2048.55 588.385C2047.47 590.305 2046.06 591.827 2044.3 592.95C2042.54 594.073 2040.73 594.635 2038.86 594.635ZM2065.3 592.95C2064.24 593.39 2063.24 593.756 2062.29 594.049C2061.35 594.358 2060.19 594.513 2058.83 594.513C2056.81 594.513 2055.38 594.008 2054.55 592.999C2053.74 591.974 2053.33 590.533 2053.33 588.678V572.369H2048.99V570.025H2053.43V562.53H2057.87V570.025H2064.78V572.369H2057.92V585.821C2057.92 586.83 2057.96 587.677 2058.02 588.36C2058.1 589.028 2058.28 589.614 2058.56 590.118C2058.82 590.59 2059.21 590.948 2059.73 591.192C2060.25 591.437 2060.95 591.559 2061.83 591.559C2062.24 591.559 2062.83 591.526 2063.61 591.461C2064.41 591.38 2064.97 591.282 2065.3 591.168V592.95ZM2091.17 581.72C2091.17 583.412 2090.91 585.081 2090.37 586.725C2089.83 588.352 2089.07 589.736 2088.07 590.875C2086.95 592.177 2085.65 593.146 2084.17 593.78C2082.69 594.415 2081.03 594.732 2079.19 594.732C2077.66 594.732 2076.2 594.448 2074.82 593.878C2073.43 593.292 2072.21 592.446 2071.13 591.339C2070.07 590.248 2069.23 588.922 2068.59 587.359C2067.97 585.781 2067.66 584.015 2067.66 582.062C2067.66 578.302 2068.75 575.226 2070.94 572.833C2073.13 570.44 2076.01 569.244 2079.55 569.244C2082.92 569.244 2085.7 570.383 2087.88 572.662C2090.08 574.924 2091.17 577.944 2091.17 581.72ZM2086.12 581.769C2086.12 580.548 2086 579.262 2085.75 577.911C2085.51 576.544 2085.14 575.388 2084.66 574.444C2084.14 573.435 2083.45 572.63 2082.61 572.027C2081.76 571.409 2080.73 571.1 2079.5 571.1C2078.25 571.1 2077.18 571.409 2076.28 572.027C2075.4 572.646 2074.69 573.492 2074.13 574.566C2073.61 575.559 2073.25 576.69 2073.04 577.96C2072.82 579.229 2072.72 580.458 2072.72 581.646C2072.72 583.209 2072.84 584.658 2073.08 585.992C2073.34 587.311 2073.75 588.491 2074.3 589.532C2074.86 590.574 2075.55 591.396 2076.38 591.998C2077.23 592.584 2078.27 592.877 2079.5 592.877C2081.54 592.877 2083.15 591.892 2084.34 589.923C2085.53 587.953 2086.12 585.235 2086.12 581.769ZM2113.1 573.028C2113.1 573.858 2112.9 574.599 2112.49 575.25C2112.08 575.885 2111.45 576.202 2110.61 576.202C2109.7 576.202 2109 575.966 2108.51 575.494C2108.04 575.022 2107.8 574.501 2107.8 573.932C2107.8 573.574 2107.83 573.248 2107.87 572.955C2107.94 572.662 2108 572.369 2108.04 572.076C2107.28 572.076 2106.38 572.385 2105.36 573.004C2104.33 573.622 2103.46 574.501 2102.75 575.641V589.654C2102.75 590.224 2102.85 590.688 2103.06 591.046C2103.29 591.404 2103.64 591.673 2104.11 591.852C2104.52 592.014 2105.04 592.136 2105.68 592.218C2106.33 592.299 2106.89 592.356 2107.36 592.389V594H2094.67V592.389C2095.04 592.356 2095.42 592.324 2095.81 592.291C2096.22 592.258 2096.57 592.193 2096.86 592.096C2097.32 591.949 2097.65 591.697 2097.86 591.339C2098.09 590.965 2098.21 590.484 2098.21 589.898V575.03C2098.21 574.526 2098.08 574.029 2097.84 573.541C2097.61 573.053 2097.29 572.662 2096.86 572.369C2096.55 572.174 2096.19 572.035 2095.76 571.954C2095.34 571.856 2094.89 571.791 2094.4 571.759V570.172L2102.41 569.635L2102.75 569.977V573.37H2102.87C2103.88 572.052 2105 571.051 2106.24 570.367C2107.48 569.684 2108.61 569.342 2109.63 569.342C2110.66 569.342 2111.49 569.675 2112.12 570.343C2112.77 571.01 2113.1 571.905 2113.1 573.028ZM2153.38 594H2141.57V592.389C2141.94 592.356 2142.35 592.324 2142.81 592.291C2143.27 592.258 2143.64 592.193 2143.93 592.096C2144.39 591.949 2144.72 591.697 2144.93 591.339C2145.16 590.965 2145.28 590.484 2145.28 589.898V577.521C2145.28 575.812 2144.87 574.493 2144.06 573.565C2143.26 572.638 2142.28 572.174 2141.13 572.174C2140.28 572.174 2139.49 572.312 2138.76 572.589C2138.04 572.849 2137.4 573.175 2136.83 573.565C2136.28 573.972 2135.85 574.379 2135.56 574.786C2135.27 575.193 2135.04 575.535 2134.88 575.812V589.654C2134.88 590.208 2134.98 590.663 2135.19 591.021C2135.42 591.38 2135.76 591.656 2136.22 591.852C2136.58 592.014 2136.94 592.136 2137.32 592.218C2137.71 592.299 2138.13 592.356 2138.59 592.389V594H2126.77V592.389C2127.14 592.356 2127.54 592.324 2127.94 592.291C2128.35 592.242 2128.69 592.177 2128.97 592.096C2129.42 591.949 2129.77 591.697 2129.99 591.339C2130.22 590.965 2130.33 590.484 2130.33 589.898V561.871C2130.33 561.318 2130.2 560.764 2129.94 560.211C2129.7 559.658 2129.37 559.243 2128.97 558.966C2128.67 558.754 2128.15 558.608 2127.41 558.526C2126.67 558.429 2126.08 558.364 2125.62 558.331V556.769L2134.53 556.207L2134.88 556.573V573.37H2134.97C2135.51 572.833 2136 572.361 2136.44 571.954C2136.88 571.531 2137.46 571.091 2138.17 570.636C2138.79 570.245 2139.51 569.92 2140.34 569.659C2141.19 569.399 2142.14 569.269 2143.18 569.269C2145.33 569.269 2146.98 569.952 2148.13 571.319C2149.29 572.67 2149.87 574.623 2149.87 577.179V589.703C2149.87 590.273 2149.96 590.737 2150.16 591.095C2150.37 591.437 2150.71 591.705 2151.18 591.9C2151.56 592.047 2151.89 592.161 2152.19 592.242C2152.49 592.307 2152.89 592.356 2153.38 592.389V594ZM2168.03 594H2156.38V592.389C2156.76 592.356 2157.14 592.324 2157.53 592.291C2157.94 592.258 2158.29 592.193 2158.58 592.096C2159.04 591.949 2159.37 591.697 2159.58 591.339C2159.81 590.965 2159.92 590.484 2159.92 589.898V575.03C2159.92 574.509 2159.8 574.037 2159.56 573.614C2159.33 573.175 2159.01 572.809 2158.58 572.516C2158.27 572.32 2157.83 572.158 2157.24 572.027C2156.65 571.881 2156.12 571.791 2155.63 571.759V570.172L2164.12 569.635L2164.47 569.977V589.605C2164.47 590.175 2164.57 590.647 2164.78 591.021C2165.01 591.396 2165.36 591.673 2165.83 591.852C2166.19 591.998 2166.54 592.12 2166.88 592.218C2167.22 592.299 2167.61 592.356 2168.03 592.389V594ZM2164.95 560.138C2164.95 561.065 2164.64 561.879 2164.03 562.579C2163.42 563.263 2162.68 563.604 2161.78 563.604C2160.95 563.604 2160.23 563.279 2159.61 562.628C2159.01 561.961 2158.7 561.204 2158.7 560.357C2158.7 559.462 2159.01 558.681 2159.61 558.014C2160.23 557.346 2160.95 557.013 2161.78 557.013C2162.71 557.013 2163.46 557.33 2164.05 557.965C2164.65 558.583 2164.95 559.308 2164.95 560.138ZM2186.88 582.208C2187.55 582.794 2188.06 583.469 2188.42 584.234C2188.77 584.999 2188.95 585.935 2188.95 587.042C2188.95 589.272 2188.11 591.095 2186.44 592.511C2184.78 593.927 2182.62 594.635 2179.97 594.635C2178.57 594.635 2177.28 594.382 2176.09 593.878C2174.92 593.373 2174.08 592.91 2173.57 592.486L2173.08 594.073H2171.25L2171.01 585.699H2172.69C2172.82 586.334 2173.1 587.075 2173.52 587.921C2173.95 588.767 2174.46 589.532 2175.06 590.216C2175.7 590.932 2176.45 591.534 2177.33 592.022C2178.23 592.511 2179.23 592.755 2180.33 592.755C2181.9 592.755 2183.1 592.405 2183.95 591.705C2184.79 590.989 2185.22 589.972 2185.22 588.653C2185.22 587.97 2185.08 587.384 2184.8 586.896C2184.54 586.391 2184.15 585.951 2183.63 585.577C2183.09 585.203 2182.43 584.869 2181.65 584.576C2180.87 584.267 2180 583.966 2179.04 583.673C2178.28 583.445 2177.42 583.136 2176.48 582.745C2175.55 582.338 2174.75 581.866 2174.08 581.329C2173.37 580.759 2172.78 580.06 2172.33 579.229C2171.87 578.399 2171.64 577.423 2171.64 576.3C2171.64 574.33 2172.38 572.662 2173.84 571.295C2175.31 569.928 2177.27 569.244 2179.72 569.244C2180.67 569.244 2181.63 569.366 2182.61 569.61C2183.6 569.854 2184.4 570.147 2185.02 570.489L2185.58 569.22H2187.34L2187.71 576.959H2186.02C2185.68 575.234 2184.94 573.834 2183.8 572.76C2182.68 571.669 2181.3 571.124 2179.68 571.124C2178.34 571.124 2177.29 571.458 2176.53 572.125C2175.76 572.792 2175.38 573.598 2175.38 574.542C2175.38 575.274 2175.5 575.885 2175.75 576.373C2176.01 576.861 2176.39 577.276 2176.89 577.618C2177.38 577.944 2177.99 578.253 2178.72 578.546C2179.47 578.823 2180.39 579.14 2181.48 579.498C2182.56 579.84 2183.57 580.239 2184.51 580.694C2185.47 581.15 2186.26 581.655 2186.88 582.208ZM2207.48 592.95C2206.43 593.39 2205.42 593.756 2204.48 594.049C2203.54 594.358 2202.38 594.513 2201.01 594.513C2199 594.513 2197.57 594.008 2196.74 592.999C2195.93 591.974 2195.52 590.533 2195.52 588.678V572.369H2191.17V570.025H2195.62V562.53H2200.06V570.025H2206.97V572.369H2200.11V585.821C2200.11 586.83 2200.14 587.677 2200.21 588.36C2200.29 589.028 2200.47 589.614 2200.75 590.118C2201.01 590.59 2201.4 590.948 2201.92 591.192C2202.44 591.437 2203.14 591.559 2204.02 591.559C2204.42 591.559 2205.02 591.526 2205.8 591.461C2206.6 591.38 2207.16 591.282 2207.48 591.168V592.95ZM2233.36 581.72C2233.36 583.412 2233.09 585.081 2232.56 586.725C2232.02 588.352 2231.25 589.736 2230.26 590.875C2229.14 592.177 2227.84 593.146 2226.36 593.78C2224.87 594.415 2223.21 594.732 2221.38 594.732C2219.85 594.732 2218.39 594.448 2217 593.878C2215.62 593.292 2214.39 592.446 2213.32 591.339C2212.26 590.248 2211.41 588.922 2210.78 587.359C2210.16 585.781 2209.85 584.015 2209.85 582.062C2209.85 578.302 2210.94 575.226 2213.12 572.833C2215.32 570.44 2218.19 569.244 2221.74 569.244C2225.11 569.244 2227.89 570.383 2230.07 572.662C2232.26 574.924 2233.36 577.944 2233.36 581.72ZM2228.31 581.769C2228.31 580.548 2228.19 579.262 2227.94 577.911C2227.7 576.544 2227.33 575.388 2226.84 574.444C2226.32 573.435 2225.64 572.63 2224.79 572.027C2223.95 571.409 2222.91 571.1 2221.69 571.1C2220.44 571.1 2219.36 571.409 2218.47 572.027C2217.59 572.646 2216.87 573.492 2216.32 574.566C2215.8 575.559 2215.43 576.69 2215.22 577.96C2215.01 579.229 2214.91 580.458 2214.91 581.646C2214.91 583.209 2215.03 584.658 2215.27 585.992C2215.53 587.311 2215.94 588.491 2216.49 589.532C2217.05 590.574 2217.74 591.396 2218.57 591.998C2219.41 592.584 2220.46 592.877 2221.69 592.877C2223.73 592.877 2225.34 591.892 2226.53 589.923C2227.71 587.953 2228.31 585.235 2228.31 581.769ZM2255.29 573.028C2255.29 573.858 2255.08 574.599 2254.68 575.25C2254.27 575.885 2253.64 576.202 2252.8 576.202C2251.88 576.202 2251.18 575.966 2250.7 575.494C2250.22 575.022 2249.99 574.501 2249.99 573.932C2249.99 573.574 2250.01 573.248 2250.06 572.955C2250.13 572.662 2250.18 572.369 2250.23 572.076C2249.47 572.076 2248.57 572.385 2247.55 573.004C2246.52 573.622 2245.65 574.501 2244.93 575.641V589.654C2244.93 590.224 2245.04 590.688 2245.25 591.046C2245.48 591.404 2245.83 591.673 2246.3 591.852C2246.71 592.014 2247.23 592.136 2247.86 592.218C2248.52 592.299 2249.08 592.356 2249.55 592.389V594H2236.85V592.389C2237.23 592.356 2237.61 592.324 2238 592.291C2238.41 592.258 2238.76 592.193 2239.05 592.096C2239.51 591.949 2239.84 591.697 2240.05 591.339C2240.28 590.965 2240.39 590.484 2240.39 589.898V575.03C2240.39 574.526 2240.27 574.029 2240.03 573.541C2239.8 573.053 2239.47 572.662 2239.05 572.369C2238.74 572.174 2238.38 572.035 2237.95 571.954C2237.53 571.856 2237.07 571.791 2236.58 571.759V570.172L2244.59 569.635L2244.93 569.977V573.37H2245.06C2246.07 572.052 2247.19 571.051 2248.43 570.367C2249.66 569.684 2250.79 569.342 2251.82 569.342C2252.84 569.342 2253.67 569.675 2254.31 570.343C2254.96 571.01 2255.29 571.905 2255.29 573.028ZM2255.53 601.861C2255.53 601.048 2255.75 600.38 2256.19 599.859C2256.65 599.355 2257.21 599.103 2257.87 599.103C2258.39 599.103 2258.84 599.2 2259.22 599.396C2259.59 599.591 2259.92 599.843 2260.22 600.152C2260.46 600.396 2260.72 600.73 2261 601.153C2261.28 601.576 2261.5 601.926 2261.66 602.203C2262.47 601.764 2263.44 600.616 2264.56 598.761C2265.7 596.905 2266.52 595.278 2267.03 593.878C2265.48 590.021 2264.08 586.57 2262.83 583.526C2261.58 580.483 2260.27 577.333 2258.9 574.078C2258.59 573.329 2258.07 572.752 2257.34 572.345C2256.6 571.922 2255.87 571.653 2255.14 571.539V569.928H2266.13V571.637C2265.64 571.653 2265.05 571.759 2264.37 571.954C2263.68 572.133 2263.34 572.345 2263.34 572.589C2263.34 572.687 2263.38 572.849 2263.44 573.077C2263.52 573.305 2263.61 573.541 2263.71 573.785C2264.33 575.396 2265.27 577.724 2266.54 580.768C2267.81 583.795 2268.8 586.22 2269.5 588.043C2270.23 586.301 2270.98 584.503 2271.77 582.647C2272.56 580.776 2273.45 578.57 2274.43 576.031C2274.54 575.722 2274.7 575.299 2274.92 574.762C2275.13 574.208 2275.23 573.736 2275.23 573.346C2275.23 572.923 2274.86 572.532 2274.11 572.174C2273.38 571.799 2272.68 571.572 2272.01 571.49V569.928H2280.95V571.441C2280.46 571.523 2279.81 571.808 2279.02 572.296C2278.22 572.768 2277.62 573.443 2277.23 574.322C2275.3 578.814 2273.57 582.908 2272.06 586.603C2270.56 590.297 2269.42 593.015 2268.64 594.757C2267.62 597.035 2266.7 598.81 2265.88 600.079C2265.08 601.365 2264.3 602.374 2263.54 603.106C2262.79 603.79 2262.11 604.246 2261.49 604.474C2260.89 604.718 2260.26 604.84 2259.61 604.84C2258.34 604.84 2257.34 604.539 2256.6 603.937C2255.89 603.334 2255.53 602.643 2255.53 601.861ZM2308.9 592.95C2307.84 593.39 2306.84 593.756 2305.9 594.049C2304.95 594.358 2303.8 594.513 2302.43 594.513C2300.41 594.513 2298.99 594.008 2298.16 592.999C2297.34 591.974 2296.94 590.533 2296.94 588.678V572.369H2292.59V570.025H2297.03V562.53H2301.48V570.025H2308.39V572.369H2301.53V585.821C2301.53 586.83 2301.56 587.677 2301.62 588.36C2301.71 589.028 2301.88 589.614 2302.16 590.118C2302.42 590.59 2302.81 590.948 2303.33 591.192C2303.85 591.437 2304.55 591.559 2305.43 591.559C2305.84 591.559 2306.43 591.526 2307.21 591.461C2308.01 591.38 2308.57 591.282 2308.9 591.168V592.95ZM2337.46 594H2325.65V592.389C2326.02 592.356 2326.44 592.324 2326.89 592.291C2327.35 592.258 2327.72 592.193 2328.02 592.096C2328.47 591.949 2328.81 591.697 2329.02 591.339C2329.24 590.965 2329.36 590.484 2329.36 589.898V577.521C2329.36 575.812 2328.95 574.493 2328.14 573.565C2327.34 572.638 2326.36 572.174 2325.21 572.174C2324.36 572.174 2323.57 572.312 2322.84 572.589C2322.12 572.849 2321.48 573.175 2320.91 573.565C2320.36 573.972 2319.93 574.379 2319.64 574.786C2319.35 575.193 2319.12 575.535 2318.96 575.812V589.654C2318.96 590.208 2319.06 590.663 2319.28 591.021C2319.5 591.38 2319.85 591.656 2320.3 591.852C2320.66 592.014 2321.03 592.136 2321.4 592.218C2321.79 592.299 2322.21 592.356 2322.67 592.389V594H2310.85V592.389C2311.23 592.356 2311.62 592.324 2312.02 592.291C2312.43 592.242 2312.77 592.177 2313.05 592.096C2313.51 591.949 2313.85 591.697 2314.08 591.339C2314.3 590.965 2314.42 590.484 2314.42 589.898V561.871C2314.42 561.318 2314.29 560.764 2314.03 560.211C2313.78 559.658 2313.46 559.243 2313.05 558.966C2312.76 558.754 2312.24 558.608 2311.49 558.526C2310.75 558.429 2310.16 558.364 2309.71 558.331V556.769L2318.62 556.207L2318.96 556.573V573.37H2319.06C2319.59 572.833 2320.08 572.361 2320.52 571.954C2320.96 571.531 2321.54 571.091 2322.25 570.636C2322.87 570.245 2323.6 569.92 2324.43 569.659C2325.27 569.399 2326.22 569.269 2327.26 569.269C2329.41 569.269 2331.06 569.952 2332.21 571.319C2333.37 572.67 2333.95 574.623 2333.95 577.179V589.703C2333.95 590.273 2334.05 590.737 2334.24 591.095C2334.45 591.437 2334.79 591.705 2335.27 591.9C2335.64 592.047 2335.97 592.161 2336.27 592.242C2336.58 592.307 2336.98 592.356 2337.46 592.389V594ZM2358.85 573.028C2358.85 573.858 2358.65 574.599 2358.24 575.25C2357.83 575.885 2357.21 576.202 2356.36 576.202C2355.45 576.202 2354.75 575.966 2354.26 575.494C2353.79 575.022 2353.55 574.501 2353.55 573.932C2353.55 573.574 2353.58 573.248 2353.63 572.955C2353.69 572.662 2353.75 572.369 2353.8 572.076C2353.03 572.076 2352.14 572.385 2351.11 573.004C2350.09 573.622 2349.22 574.501 2348.5 575.641V589.654C2348.5 590.224 2348.6 590.688 2348.82 591.046C2349.04 591.404 2349.39 591.673 2349.87 591.852C2350.27 592.014 2350.79 592.136 2351.43 592.218C2352.08 592.299 2352.64 592.356 2353.11 592.389V594H2340.42V592.389C2340.79 592.356 2341.17 592.324 2341.57 592.291C2341.97 592.258 2342.32 592.193 2342.62 592.096C2343.07 591.949 2343.4 591.697 2343.62 591.339C2343.84 590.965 2343.96 590.484 2343.96 589.898V575.03C2343.96 574.526 2343.84 574.029 2343.59 573.541C2343.36 573.053 2343.04 572.662 2342.62 572.369C2342.31 572.174 2341.94 572.035 2341.52 571.954C2341.09 571.856 2340.64 571.791 2340.15 571.759V570.172L2348.16 569.635L2348.5 569.977V573.37H2348.62C2349.63 572.052 2350.75 571.051 2351.99 570.367C2353.23 569.684 2354.36 569.342 2355.38 569.342C2356.41 569.342 2357.24 569.675 2357.87 570.343C2358.53 571.01 2358.85 571.905 2358.85 573.028ZM2384.39 581.72C2384.39 583.412 2384.12 585.081 2383.58 586.725C2383.04 588.352 2382.28 589.736 2381.29 590.875C2380.16 592.177 2378.86 593.146 2377.38 593.78C2375.9 594.415 2374.24 594.732 2372.4 594.732C2370.87 594.732 2369.41 594.448 2368.03 593.878C2366.65 593.292 2365.42 592.446 2364.34 591.339C2363.29 590.248 2362.44 588.922 2361.8 587.359C2361.19 585.781 2360.88 584.015 2360.88 582.062C2360.88 578.302 2361.97 575.226 2364.15 572.833C2366.35 570.44 2369.22 569.244 2372.77 569.244C2376.14 569.244 2378.91 570.383 2381.09 572.662C2383.29 574.924 2384.39 577.944 2384.39 581.72ZM2379.33 581.769C2379.33 580.548 2379.21 579.262 2378.97 577.911C2378.72 576.544 2378.36 575.388 2377.87 574.444C2377.35 573.435 2376.66 572.63 2375.82 572.027C2374.97 571.409 2373.94 571.1 2372.72 571.1C2371.46 571.1 2370.39 571.409 2369.5 572.027C2368.62 572.646 2367.9 573.492 2367.35 574.566C2366.83 575.559 2366.46 576.69 2366.25 577.96C2366.04 579.229 2365.93 580.458 2365.93 581.646C2365.93 583.209 2366.05 584.658 2366.3 585.992C2366.56 587.311 2366.96 588.491 2367.52 589.532C2368.07 590.574 2368.76 591.396 2369.59 591.998C2370.44 592.584 2371.48 592.877 2372.72 592.877C2374.75 592.877 2376.36 591.892 2377.55 589.923C2378.74 587.953 2379.33 585.235 2379.33 581.769ZM2413.68 593.561L2405.85 594.098L2405.48 593.756V590.704H2405.33C2404.94 591.111 2404.5 591.55 2404.02 592.022C2403.53 592.478 2402.97 592.893 2402.33 593.268C2401.6 593.707 2400.89 594.041 2400.21 594.269C2399.52 594.496 2398.56 594.61 2397.3 594.61C2395.17 594.61 2393.54 593.919 2392.42 592.535C2391.31 591.135 2390.76 589.109 2390.76 586.456V574.933C2390.76 574.347 2390.65 573.858 2390.42 573.468C2390.21 573.061 2389.89 572.711 2389.47 572.418C2389.17 572.223 2388.81 572.084 2388.37 572.003C2387.93 571.905 2387.46 571.84 2386.98 571.808V570.221L2395.01 569.635L2395.37 569.977V586.7C2395.37 588.442 2395.76 589.752 2396.55 590.631C2397.33 591.51 2398.26 591.949 2399.35 591.949C2400.25 591.949 2401.05 591.811 2401.75 591.534C2402.45 591.257 2403.03 590.932 2403.5 590.558C2403.94 590.216 2404.33 589.858 2404.65 589.483C2404.99 589.093 2405.25 588.735 2405.43 588.409V574.762C2405.43 574.225 2405.32 573.753 2405.09 573.346C2404.86 572.923 2404.55 572.564 2404.14 572.271C2403.85 572.076 2403.41 571.962 2402.82 571.93C2402.25 571.881 2401.61 571.84 2400.89 571.808V570.221L2409.63 569.635L2410 569.977V589.093C2410 589.646 2410.11 590.118 2410.34 590.509C2410.57 590.899 2410.89 591.233 2411.29 591.51C2411.58 591.689 2411.93 591.811 2412.34 591.876C2412.75 591.925 2413.2 591.957 2413.68 591.974V593.561ZM2437.27 591.51C2437.92 592.128 2438.43 592.828 2438.81 593.609C2439.18 594.391 2439.37 595.359 2439.37 596.515C2439.37 597.67 2439.12 598.753 2438.61 599.762C2438.11 600.787 2437.34 601.674 2436.32 602.423C2435.23 603.188 2433.92 603.782 2432.41 604.205C2430.9 604.628 2429.02 604.84 2426.79 604.84C2423.15 604.84 2420.42 604.303 2418.62 603.229C2416.81 602.171 2415.91 600.616 2415.91 598.565C2415.91 596.905 2416.56 595.595 2417.86 594.635C2419.16 593.674 2420.82 593.154 2422.84 593.072V592.73C2422.35 592.584 2421.85 592.405 2421.33 592.193C2420.81 591.965 2420.36 591.705 2419.98 591.412C2419.56 591.07 2419.22 590.672 2418.96 590.216C2418.7 589.744 2418.57 589.166 2418.57 588.482C2418.57 587.62 2418.87 586.83 2419.47 586.114C2420.09 585.382 2421.02 584.755 2422.25 584.234V583.868C2420.69 583.136 2419.48 582.2 2418.62 581.061C2417.75 579.905 2417.32 578.57 2417.32 577.057C2417.32 574.778 2418.17 572.906 2419.86 571.441C2421.57 569.977 2423.75 569.244 2426.4 569.244C2427.14 569.244 2427.86 569.317 2428.58 569.464C2429.31 569.61 2430.05 569.798 2430.8 570.025H2439.2V572.369H2433.53V572.516C2434.14 573.215 2434.58 573.989 2434.88 574.835C2435.17 575.681 2435.32 576.511 2435.32 577.325C2435.32 579.441 2434.45 581.231 2432.73 582.696C2431.02 584.161 2429.02 584.894 2426.75 584.894H2423.79C2423.42 585.024 2423.03 585.26 2422.62 585.602C2422.21 585.943 2422.01 586.407 2422.01 586.993C2422.01 587.595 2422.18 588.059 2422.52 588.385C2422.86 588.694 2423.28 588.906 2423.77 589.02C2424.24 589.15 2424.78 589.231 2425.4 589.264C2426.04 589.296 2426.69 589.321 2427.36 589.337C2428.07 589.353 2429.05 589.402 2430.29 589.483C2431.54 589.565 2432.43 589.614 2432.95 589.63C2433.7 589.662 2434.44 589.841 2435.19 590.167C2435.96 590.493 2436.65 590.94 2437.27 591.51ZM2430.68 577.228C2430.68 575.323 2430.29 573.81 2429.5 572.687C2428.74 571.547 2427.66 570.978 2426.26 570.978C2425.49 570.978 2424.83 571.14 2424.28 571.466C2423.74 571.775 2423.3 572.223 2422.96 572.809C2422.64 573.346 2422.4 573.997 2422.25 574.762C2422.12 575.51 2422.06 576.284 2422.06 577.081C2422.06 578.888 2422.45 580.361 2423.23 581.5C2424.03 582.639 2425.05 583.209 2426.31 583.209C2427.71 583.209 2428.78 582.647 2429.53 581.524C2430.29 580.385 2430.68 578.953 2430.68 577.228ZM2435.36 597.418C2435.36 596.507 2435.15 595.758 2434.73 595.172C2434.31 594.586 2433.66 594.187 2432.8 593.976C2432.35 593.91 2431.41 593.837 2429.99 593.756C2428.58 593.674 2426.93 593.634 2425.06 593.634C2423.3 593.976 2422.05 594.545 2421.3 595.343C2420.57 596.157 2420.2 597.198 2420.2 598.468C2420.2 599.037 2420.33 599.583 2420.57 600.104C2420.81 600.624 2421.24 601.104 2421.84 601.544C2422.41 601.967 2423.17 602.309 2424.13 602.569C2425.09 602.846 2426.27 602.984 2427.65 602.984C2430.04 602.984 2431.92 602.521 2433.29 601.593C2434.67 600.681 2435.36 599.29 2435.36 597.418ZM2468.27 594H2456.46V592.389C2456.83 592.356 2457.25 592.324 2457.7 592.291C2458.16 592.258 2458.53 592.193 2458.83 592.096C2459.28 591.949 2459.62 591.697 2459.83 591.339C2460.06 590.965 2460.17 590.484 2460.17 589.898V577.521C2460.17 575.812 2459.76 574.493 2458.95 573.565C2458.15 572.638 2457.17 572.174 2456.02 572.174C2455.17 572.174 2454.38 572.312 2453.65 572.589C2452.93 572.849 2452.29 573.175 2451.72 573.565C2451.17 573.972 2450.75 574.379 2450.45 574.786C2450.16 575.193 2449.93 575.535 2449.77 575.812V589.654C2449.77 590.208 2449.87 590.663 2450.09 591.021C2450.31 591.38 2450.66 591.656 2451.11 591.852C2451.47 592.014 2451.84 592.136 2452.21 592.218C2452.6 592.299 2453.02 592.356 2453.48 592.389V594H2441.66V592.389C2442.04 592.356 2442.43 592.324 2442.83 592.291C2443.24 592.242 2443.58 592.177 2443.86 592.096C2444.32 591.949 2444.66 591.697 2444.89 591.339C2445.11 590.965 2445.23 590.484 2445.23 589.898V561.871C2445.23 561.318 2445.1 560.764 2444.84 560.211C2444.59 559.658 2444.27 559.243 2443.86 558.966C2443.57 558.754 2443.05 558.608 2442.3 558.526C2441.57 558.429 2440.97 558.364 2440.52 558.331V556.769L2449.43 556.207L2449.77 556.573V573.37H2449.87C2450.4 572.833 2450.89 572.361 2451.33 571.954C2451.77 571.531 2452.35 571.091 2453.06 570.636C2453.68 570.245 2454.41 569.92 2455.24 569.659C2456.08 569.399 2457.03 569.269 2458.07 569.269C2460.22 569.269 2461.87 569.952 2463.03 571.319C2464.18 572.67 2464.76 574.623 2464.76 577.179V589.703C2464.76 590.273 2464.86 590.737 2465.05 591.095C2465.26 591.437 2465.61 591.705 2466.08 591.9C2466.45 592.047 2466.79 592.161 2467.08 592.242C2467.39 592.307 2467.79 592.356 2468.27 592.389V594ZM2498.16 592.95C2497.1 593.39 2496.1 593.756 2495.15 594.049C2494.21 594.358 2493.05 594.513 2491.69 594.513C2489.67 594.513 2488.25 594.008 2487.42 592.999C2486.6 591.974 2486.19 590.533 2486.19 588.678V572.369H2481.85V570.025H2486.29V562.53H2490.74V570.025H2497.64V572.369H2490.78V585.821C2490.78 586.83 2490.82 587.677 2490.88 588.36C2490.96 589.028 2491.14 589.614 2491.42 590.118C2491.68 590.59 2492.07 590.948 2492.59 591.192C2493.11 591.437 2493.81 591.559 2494.69 591.559C2495.1 591.559 2495.69 591.526 2496.47 591.461C2497.27 591.38 2497.83 591.282 2498.16 591.168V592.95ZM2512.27 594H2500.62V592.389C2501 592.356 2501.38 592.324 2501.77 592.291C2502.18 592.258 2502.53 592.193 2502.82 592.096C2503.28 591.949 2503.61 591.697 2503.82 591.339C2504.05 590.965 2504.16 590.484 2504.16 589.898V575.03C2504.16 574.509 2504.04 574.037 2503.8 573.614C2503.57 573.175 2503.24 572.809 2502.82 572.516C2502.51 572.32 2502.06 572.158 2501.48 572.027C2500.89 571.881 2500.35 571.791 2499.87 571.759V570.172L2508.36 569.635L2508.7 569.977V589.605C2508.7 590.175 2508.81 590.647 2509.02 591.021C2509.25 591.396 2509.6 591.673 2510.07 591.852C2510.43 591.998 2510.78 592.12 2511.12 592.218C2511.46 592.299 2511.85 592.356 2512.27 592.389V594ZM2509.19 560.138C2509.19 561.065 2508.88 561.879 2508.26 562.579C2507.66 563.263 2506.91 563.604 2506.02 563.604C2505.19 563.604 2504.46 563.279 2503.85 562.628C2503.24 561.961 2502.94 561.204 2502.94 560.357C2502.94 559.462 2503.24 558.681 2503.85 558.014C2504.46 557.346 2505.19 557.013 2506.02 557.013C2506.95 557.013 2507.7 557.33 2508.29 557.965C2508.89 558.583 2509.19 559.308 2509.19 560.138ZM2556.46 594H2544.71V592.389C2545.09 592.356 2545.46 592.324 2545.84 592.291C2546.23 592.258 2546.57 592.193 2546.86 592.096C2547.32 591.949 2547.65 591.697 2547.86 591.339C2548.09 590.965 2548.21 590.484 2548.21 589.898V577.472C2548.21 575.779 2547.82 574.477 2547.03 573.565C2546.27 572.638 2545.31 572.174 2544.15 572.174C2543.36 572.174 2542.61 572.296 2541.91 572.54C2541.21 572.784 2540.56 573.126 2539.98 573.565C2539.51 573.924 2539.11 574.314 2538.78 574.737C2538.47 575.144 2538.24 575.486 2538.07 575.763V589.654C2538.07 590.224 2538.17 590.696 2538.37 591.07C2538.56 591.428 2538.9 591.705 2539.37 591.9C2539.74 592.047 2540.08 592.161 2540.37 592.242C2540.68 592.307 2541.08 592.356 2541.57 592.389V594H2530.07V592.389C2530.44 592.356 2530.8 592.324 2531.14 592.291C2531.5 592.258 2531.82 592.193 2532.12 592.096C2532.57 591.949 2532.91 591.697 2533.12 591.339C2533.35 590.965 2533.46 590.484 2533.46 589.898V577.472C2533.46 575.779 2533.07 574.477 2532.29 573.565C2531.52 572.638 2530.56 572.174 2529.41 572.174C2528.61 572.174 2527.86 572.304 2527.16 572.564C2526.46 572.809 2525.82 573.15 2525.23 573.59C2524.76 573.948 2524.36 574.355 2524.04 574.811C2523.71 575.25 2523.47 575.584 2523.3 575.812V589.605C2523.3 590.159 2523.42 590.623 2523.65 590.997C2523.87 591.371 2524.22 591.656 2524.67 591.852C2525.01 592.014 2525.36 592.136 2525.72 592.218C2526.08 592.299 2526.48 592.356 2526.92 592.389V594H2515.22V592.389C2515.6 592.356 2515.98 592.324 2516.37 592.291C2516.78 592.258 2517.13 592.193 2517.42 592.096C2517.88 591.949 2518.21 591.697 2518.42 591.339C2518.65 590.965 2518.76 590.484 2518.76 589.898V574.933C2518.76 574.412 2518.64 573.948 2518.4 573.541C2518.17 573.118 2517.84 572.76 2517.42 572.467C2517.11 572.271 2516.73 572.117 2516.27 572.003C2515.82 571.873 2515.34 571.791 2514.86 571.759V570.172L2522.91 569.635L2523.25 569.977V573.419H2523.43C2523.83 573.012 2524.33 572.532 2524.92 571.979C2525.5 571.425 2526.05 570.978 2526.55 570.636C2527.12 570.245 2527.83 569.92 2528.67 569.659C2529.54 569.399 2530.47 569.269 2531.46 569.269C2533.02 569.269 2534.36 569.692 2535.49 570.538C2536.61 571.368 2537.42 572.377 2537.9 573.565C2538.49 572.996 2539 572.499 2539.44 572.076C2539.9 571.637 2540.49 571.173 2541.22 570.685C2541.84 570.261 2542.57 569.92 2543.4 569.659C2544.24 569.399 2545.18 569.269 2546.2 569.269C2548.24 569.269 2549.85 569.936 2551.04 571.271C2552.23 572.605 2552.82 574.656 2552.82 577.423V589.654C2552.82 590.224 2552.92 590.696 2553.11 591.07C2553.31 591.428 2553.64 591.705 2554.11 591.9C2554.49 592.047 2554.85 592.161 2555.21 592.242C2555.59 592.307 2556 592.356 2556.46 592.389V594ZM2580.65 588.336C2579.64 590.257 2578.29 591.786 2576.6 592.926C2574.91 594.065 2572.96 594.635 2570.76 594.635C2568.83 594.635 2567.13 594.293 2565.66 593.609C2564.21 592.926 2563.02 591.998 2562.07 590.826C2561.13 589.654 2560.42 588.287 2559.95 586.725C2559.49 585.162 2559.27 583.51 2559.27 581.769C2559.27 580.206 2559.51 578.676 2560 577.179C2560.5 575.665 2561.24 574.306 2562.2 573.102C2563.12 571.946 2564.27 571.018 2565.64 570.318C2567.02 569.602 2568.57 569.244 2570.28 569.244C2572.03 569.244 2573.54 569.521 2574.79 570.074C2576.05 570.628 2577.06 571.384 2577.84 572.345C2578.59 573.256 2579.15 574.33 2579.5 575.567C2579.88 576.804 2580.07 578.147 2580.07 579.596V581.207H2564.12C2564.12 582.786 2564.27 584.218 2564.56 585.504C2564.87 586.79 2565.35 587.921 2566 588.897C2566.64 589.841 2567.47 590.59 2568.49 591.144C2569.52 591.681 2570.74 591.949 2572.16 591.949C2573.6 591.949 2574.85 591.616 2575.89 590.948C2576.95 590.265 2577.97 589.044 2578.94 587.286L2580.65 588.336ZM2575.26 579.156C2575.26 578.245 2575.18 577.268 2575.01 576.227C2574.87 575.185 2574.62 574.314 2574.28 573.614C2573.91 572.866 2573.39 572.255 2572.74 571.783C2572.09 571.311 2571.25 571.075 2570.23 571.075C2568.52 571.075 2567.09 571.791 2565.96 573.224C2564.83 574.64 2564.22 576.617 2564.12 579.156H2575.26Z" fill="black"/>
</g>
<g id="others_3">
<path id="left" d="M25.5264 369H13.7832V367.389C14.1576 367.356 14.5563 367.324 14.9795 367.291C15.4027 367.242 15.7526 367.177 16.0293 367.096C16.485 366.949 16.8268 366.697 17.0547 366.339C17.2826 365.965 17.3965 365.484 17.3965 364.898V337.018C17.3965 336.432 17.2663 335.886 17.0059 335.382C16.7617 334.861 16.4362 334.454 16.0293 334.161C15.7363 333.966 15.1992 333.787 14.418 333.624C13.6367 333.461 13.0101 333.364 12.5381 333.331V331.769L21.5957 331.207L21.9375 331.573V364.605C21.9375 365.175 22.0433 365.647 22.2549 366.021C22.4665 366.38 22.8083 366.656 23.2803 366.852C23.6383 367.014 23.9883 367.136 24.3301 367.218C24.6882 367.299 25.0869 367.356 25.5264 367.389V369ZM49.9404 363.336C48.9313 365.257 47.5804 366.786 45.8877 367.926C44.195 369.065 42.25 369.635 40.0527 369.635C38.1159 369.635 36.415 369.293 34.9502 368.609C33.5016 367.926 32.3053 366.998 31.3613 365.826C30.4173 364.654 29.7093 363.287 29.2373 361.725C28.7816 360.162 28.5537 358.51 28.5537 356.769C28.5537 355.206 28.7979 353.676 29.2861 352.179C29.7907 350.665 30.5231 349.306 31.4834 348.102C32.4111 346.946 33.5586 346.018 34.9258 345.318C36.3092 344.602 37.8555 344.244 39.5645 344.244C41.3223 344.244 42.8278 344.521 44.0811 345.074C45.3343 345.628 46.3516 346.384 47.1328 347.345C47.8815 348.256 48.4349 349.33 48.793 350.567C49.1673 351.804 49.3545 353.147 49.3545 354.596V356.207H33.4121C33.4121 357.786 33.5586 359.218 33.8516 360.504C34.1608 361.79 34.641 362.921 35.292 363.897C35.9268 364.841 36.7568 365.59 37.7822 366.144C38.8076 366.681 40.0283 366.949 41.4443 366.949C42.8929 366.949 44.138 366.616 45.1797 365.948C46.2376 365.265 47.2549 364.044 48.2314 362.286L49.9404 363.336ZM44.5449 354.156C44.5449 353.245 44.4635 352.268 44.3008 351.227C44.1543 350.185 43.9102 349.314 43.5684 348.614C43.194 347.866 42.6813 347.255 42.0303 346.783C41.3792 346.311 40.541 346.075 39.5156 346.075C37.8066 346.075 36.3825 346.791 35.2432 348.224C34.1201 349.64 33.5098 351.617 33.4121 354.156H44.5449ZM70.6436 334.112C70.6436 334.845 70.4482 335.463 70.0576 335.968C69.667 336.472 69.0729 336.725 68.2754 336.725C67.7708 336.725 67.3232 336.619 66.9326 336.407C66.5583 336.196 66.2083 335.911 65.8828 335.553C65.5573 335.195 65.2562 334.788 64.9795 334.332C64.7028 333.876 64.4668 333.51 64.2715 333.233C63.181 333.282 62.3346 334.047 61.7324 335.528C61.1465 336.993 60.8535 339.337 60.8535 342.56V345.025H67.0547V347.369H60.8535V364.654C60.8535 365.224 60.9593 365.688 61.1709 366.046C61.3988 366.404 61.7487 366.673 62.2207 366.852C62.6113 366.998 63.1322 367.12 63.7832 367.218C64.4342 367.299 64.9958 367.356 65.4678 367.389V369H52.7725V367.389C53.1468 367.356 53.5293 367.324 53.9199 367.291C54.3268 367.258 54.6768 367.193 54.9697 367.096C55.4255 366.949 55.7591 366.697 55.9707 366.339C56.1986 365.965 56.3125 365.484 56.3125 364.898V347.369H51.5518V345.025H56.3125V343.487C56.3125 339.825 57.2565 336.863 59.1445 334.601C61.0488 332.322 63.4251 331.183 66.2734 331.183C67.722 331.183 68.8125 331.467 69.5449 332.037C70.2773 332.607 70.6436 333.299 70.6436 334.112ZM83.8516 367.95C82.7936 368.39 81.7926 368.756 80.8486 369.049C79.9046 369.358 78.749 369.513 77.3818 369.513C75.3636 369.513 73.9395 369.008 73.1094 367.999C72.2956 366.974 71.8887 365.533 71.8887 363.678V347.369H67.543V345.025H71.9863V337.53H76.4297V345.025H83.3389V347.369H76.4785V360.821C76.4785 361.83 76.5111 362.677 76.5762 363.36C76.6576 364.028 76.8366 364.614 77.1133 365.118C77.3737 365.59 77.7643 365.948 78.2852 366.192C78.806 366.437 79.5059 366.559 80.3848 366.559C80.7917 366.559 81.3857 366.526 82.167 366.461C82.9645 366.38 83.526 366.282 83.8516 366.168V367.95Z" fill="black"/>
<path id="no-op" d="M211.488 369H199.696V367.389C200.071 367.356 200.478 367.324 200.917 367.291C201.373 367.258 201.747 367.193 202.04 367.096C202.496 366.949 202.829 366.697 203.041 366.339C203.269 365.965 203.383 365.484 203.383 364.898V352.521C203.383 350.812 202.976 349.493 202.162 348.565C201.365 347.638 200.388 347.174 199.232 347.174C198.37 347.174 197.58 347.312 196.864 347.589C196.148 347.849 195.513 348.175 194.96 348.565C194.423 348.94 193.992 349.347 193.666 349.786C193.357 350.209 193.129 350.551 192.982 350.812V364.654C192.982 365.208 193.096 365.663 193.324 366.021C193.552 366.38 193.894 366.656 194.35 366.852C194.691 367.014 195.058 367.136 195.448 367.218C195.855 367.299 196.27 367.356 196.693 367.389V369H184.901V367.389C185.276 367.356 185.658 367.324 186.049 367.291C186.456 367.258 186.806 367.193 187.099 367.096C187.554 366.949 187.888 366.697 188.1 366.339C188.327 365.965 188.441 365.484 188.441 364.898V350.03C188.441 349.477 188.319 348.972 188.075 348.517C187.847 348.045 187.522 347.662 187.099 347.369C186.789 347.174 186.423 347.035 186 346.954C185.577 346.856 185.121 346.791 184.633 346.759V345.172L192.641 344.635L192.982 344.977V348.37H193.104C193.495 347.979 193.983 347.516 194.569 346.979C195.155 346.425 195.709 345.978 196.229 345.636C196.832 345.245 197.548 344.92 198.378 344.659C199.208 344.399 200.144 344.269 201.186 344.269C203.497 344.269 205.206 344.993 206.312 346.441C207.436 347.874 207.997 349.786 207.997 352.179V364.703C207.997 365.273 208.095 365.737 208.29 366.095C208.485 366.437 208.819 366.705 209.291 366.9C209.682 367.063 210.015 367.177 210.292 367.242C210.585 367.307 210.984 367.356 211.488 367.389V369ZM237.904 356.72C237.904 358.412 237.636 360.081 237.099 361.725C236.562 363.352 235.797 364.736 234.804 365.875C233.681 367.177 232.379 368.146 230.897 368.78C229.416 369.415 227.756 369.732 225.917 369.732C224.387 369.732 222.93 369.448 221.547 368.878C220.163 368.292 218.935 367.446 217.86 366.339C216.802 365.248 215.956 363.922 215.321 362.359C214.703 360.781 214.394 359.015 214.394 357.062C214.394 353.302 215.484 350.226 217.665 347.833C219.862 345.44 222.735 344.244 226.283 344.244C229.652 344.244 232.427 345.383 234.608 347.662C236.806 349.924 237.904 352.944 237.904 356.72ZM232.851 356.769C232.851 355.548 232.729 354.262 232.484 352.911C232.24 351.544 231.874 350.388 231.386 349.444C230.865 348.435 230.181 347.63 229.335 347.027C228.489 346.409 227.455 346.1 226.234 346.1C224.981 346.1 223.907 346.409 223.012 347.027C222.133 347.646 221.417 348.492 220.863 349.566C220.342 350.559 219.976 351.69 219.765 352.96C219.553 354.229 219.447 355.458 219.447 356.646C219.447 358.209 219.569 359.658 219.813 360.992C220.074 362.311 220.481 363.491 221.034 364.532C221.588 365.574 222.279 366.396 223.109 366.998C223.956 367.584 224.997 367.877 226.234 367.877C228.269 367.877 229.88 366.892 231.068 364.923C232.257 362.953 232.851 360.235 232.851 356.769ZM256.264 357.647H241.713V353.814H256.264V357.647ZM283.559 356.72C283.559 358.412 283.29 360.081 282.753 361.725C282.216 363.352 281.451 364.736 280.458 365.875C279.335 367.177 278.033 368.146 276.552 368.78C275.071 369.415 273.41 369.732 271.571 369.732C270.041 369.732 268.585 369.448 267.201 368.878C265.818 368.292 264.589 367.446 263.515 366.339C262.457 365.248 261.61 363.922 260.976 362.359C260.357 360.781 260.048 359.015 260.048 357.062C260.048 353.302 261.138 350.226 263.319 347.833C265.517 345.44 268.389 344.244 271.938 344.244C275.307 344.244 278.082 345.383 280.263 347.662C282.46 349.924 283.559 352.944 283.559 356.72ZM278.505 356.769C278.505 355.548 278.383 354.262 278.139 352.911C277.895 351.544 277.528 350.388 277.04 349.444C276.519 348.435 275.836 347.63 274.989 347.027C274.143 346.409 273.109 346.1 271.889 346.1C270.635 346.1 269.561 346.409 268.666 347.027C267.787 347.646 267.071 348.492 266.518 349.566C265.997 350.559 265.631 351.69 265.419 352.96C265.207 354.229 265.102 355.458 265.102 356.646C265.102 358.209 265.224 359.658 265.468 360.992C265.728 362.311 266.135 363.491 266.688 364.532C267.242 365.574 267.934 366.396 268.764 366.998C269.61 367.584 270.652 367.877 271.889 367.877C273.923 367.877 275.535 366.892 276.723 364.923C277.911 362.953 278.505 360.235 278.505 356.769ZM309.047 347.784C310.007 348.924 310.748 350.25 311.269 351.764C311.806 353.261 312.074 354.978 312.074 356.915C312.074 358.819 311.757 360.561 311.122 362.14C310.487 363.702 309.649 365.037 308.607 366.144C307.517 367.267 306.304 368.129 304.97 368.731C303.635 369.334 302.219 369.635 300.722 369.635C299.273 369.635 298.085 369.472 297.157 369.146C296.229 368.821 295.473 368.438 294.887 367.999H294.691V375.226C294.691 375.812 294.805 376.3 295.033 376.69C295.261 377.081 295.611 377.366 296.083 377.545C296.474 377.691 297.027 377.83 297.743 377.96C298.476 378.106 299.078 378.188 299.55 378.204V379.84H286.098V378.204C286.602 378.172 287.09 378.131 287.562 378.082C288.035 378.033 288.458 377.952 288.832 377.838C289.32 377.675 289.662 377.39 289.857 376.983C290.053 376.576 290.15 376.096 290.15 375.543V349.933C290.15 349.444 290.028 348.972 289.784 348.517C289.54 348.061 289.223 347.695 288.832 347.418C288.539 347.223 288.132 347.076 287.611 346.979C287.09 346.865 286.586 346.791 286.098 346.759V345.172L294.301 344.635L294.643 344.928V347.638L294.838 347.687C295.684 346.71 296.734 345.896 297.987 345.245C299.241 344.594 300.486 344.269 301.723 344.269C303.22 344.269 304.587 344.586 305.824 345.221C307.077 345.855 308.152 346.71 309.047 347.784ZM305.067 365.094C305.718 364.085 306.199 362.913 306.508 361.578C306.817 360.243 306.972 358.754 306.972 357.11C306.972 355.906 306.841 354.677 306.581 353.424C306.321 352.171 305.914 351.08 305.36 350.152C304.807 349.208 304.083 348.443 303.188 347.857C302.292 347.271 301.218 346.979 299.965 346.979C298.76 346.979 297.735 347.247 296.889 347.784C296.042 348.305 295.31 348.932 294.691 349.664V363.897C294.838 364.337 295.074 364.793 295.399 365.265C295.741 365.737 296.116 366.144 296.522 366.485C297.027 366.892 297.572 367.226 298.158 367.486C298.744 367.73 299.46 367.853 300.307 367.853C301.218 367.853 302.097 367.617 302.943 367.145C303.79 366.656 304.498 365.973 305.067 365.094Z" fill="black"/>
<path id="right" d="M417.675 348.028C417.675 348.858 417.471 349.599 417.064 350.25C416.658 350.885 416.031 351.202 415.185 351.202C414.273 351.202 413.573 350.966 413.085 350.494C412.613 350.022 412.377 349.501 412.377 348.932C412.377 348.574 412.401 348.248 412.45 347.955C412.515 347.662 412.572 347.369 412.621 347.076C411.856 347.076 410.961 347.385 409.936 348.004C408.91 348.622 408.039 349.501 407.323 350.641V364.654C407.323 365.224 407.429 365.688 407.641 366.046C407.868 366.404 408.218 366.673 408.69 366.852C409.097 367.014 409.618 367.136 410.253 367.218C410.904 367.299 411.465 367.356 411.938 367.389V369H399.242V367.389C399.617 367.356 399.999 367.324 400.39 367.291C400.797 367.258 401.146 367.193 401.439 367.096C401.895 366.949 402.229 366.697 402.44 366.339C402.668 365.965 402.782 365.484 402.782 364.898V350.03C402.782 349.526 402.66 349.029 402.416 348.541C402.188 348.053 401.863 347.662 401.439 347.369C401.13 347.174 400.764 347.035 400.341 346.954C399.918 346.856 399.462 346.791 398.974 346.759V345.172L406.981 344.635L407.323 344.977V348.37H407.445C408.454 347.052 409.577 346.051 410.814 345.367C412.051 344.684 413.183 344.342 414.208 344.342C415.233 344.342 416.063 344.675 416.698 345.343C417.349 346.01 417.675 346.905 417.675 348.028ZM431.444 369H419.799V367.389C420.173 367.356 420.556 367.324 420.946 367.291C421.353 367.258 421.703 367.193 421.996 367.096C422.452 366.949 422.785 366.697 422.997 366.339C423.225 365.965 423.339 365.484 423.339 364.898V350.03C423.339 349.509 423.217 349.037 422.973 348.614C422.745 348.175 422.419 347.809 421.996 347.516C421.687 347.32 421.239 347.158 420.653 347.027C420.067 346.881 419.53 346.791 419.042 346.759V345.172L427.538 344.635L427.88 344.977V364.605C427.88 365.175 427.986 365.647 428.197 366.021C428.425 366.396 428.775 366.673 429.247 366.852C429.605 366.998 429.955 367.12 430.297 367.218C430.639 367.299 431.021 367.356 431.444 367.389V369ZM428.368 335.138C428.368 336.065 428.059 336.879 427.44 337.579C426.838 338.263 426.09 338.604 425.194 338.604C424.364 338.604 423.64 338.279 423.021 337.628C422.419 336.961 422.118 336.204 422.118 335.357C422.118 334.462 422.419 333.681 423.021 333.014C423.64 332.346 424.364 332.013 425.194 332.013C426.122 332.013 426.879 332.33 427.465 332.965C428.067 333.583 428.368 334.308 428.368 335.138ZM455.028 366.51C455.679 367.128 456.192 367.828 456.566 368.609C456.941 369.391 457.128 370.359 457.128 371.515C457.128 372.67 456.876 373.753 456.371 374.762C455.867 375.787 455.102 376.674 454.076 377.423C452.986 378.188 451.684 378.782 450.17 379.205C448.656 379.628 446.785 379.84 444.555 379.84C440.909 379.84 438.183 379.303 436.376 378.229C434.569 377.171 433.666 375.616 433.666 373.565C433.666 371.905 434.317 370.595 435.619 369.635C436.921 368.674 438.581 368.154 440.6 368.072V367.73C440.111 367.584 439.607 367.405 439.086 367.193C438.565 366.965 438.118 366.705 437.743 366.412C437.32 366.07 436.978 365.672 436.718 365.216C436.457 364.744 436.327 364.166 436.327 363.482C436.327 362.62 436.628 361.83 437.23 361.114C437.849 360.382 438.777 359.755 440.014 359.234V358.868C438.451 358.136 437.239 357.2 436.376 356.061C435.513 354.905 435.082 353.57 435.082 352.057C435.082 349.778 435.928 347.906 437.621 346.441C439.33 344.977 441.511 344.244 444.164 344.244C444.896 344.244 445.621 344.317 446.337 344.464C447.069 344.61 447.81 344.798 448.559 345.025H456.957V347.369H451.293V347.516C451.895 348.215 452.343 348.989 452.636 349.835C452.929 350.681 453.075 351.511 453.075 352.325C453.075 354.441 452.213 356.231 450.487 357.696C448.778 359.161 446.785 359.894 444.506 359.894H441.552C441.177 360.024 440.787 360.26 440.38 360.602C439.973 360.943 439.77 361.407 439.77 361.993C439.77 362.595 439.94 363.059 440.282 363.385C440.624 363.694 441.039 363.906 441.527 364.02C441.999 364.15 442.545 364.231 443.163 364.264C443.798 364.296 444.449 364.321 445.116 364.337C445.832 364.353 446.809 364.402 448.046 364.483C449.299 364.565 450.186 364.614 450.707 364.63C451.456 364.662 452.204 364.841 452.953 365.167C453.718 365.493 454.41 365.94 455.028 366.51ZM448.437 352.228C448.437 350.323 448.046 348.81 447.265 347.687C446.5 346.547 445.417 345.978 444.018 345.978C443.253 345.978 442.593 346.14 442.04 346.466C441.503 346.775 441.063 347.223 440.722 347.809C440.396 348.346 440.16 348.997 440.014 349.762C439.883 350.51 439.818 351.284 439.818 352.081C439.818 353.888 440.209 355.361 440.99 356.5C441.788 357.639 442.813 358.209 444.066 358.209C445.466 358.209 446.54 357.647 447.289 356.524C448.054 355.385 448.437 353.953 448.437 352.228ZM453.124 372.418C453.124 371.507 452.912 370.758 452.489 370.172C452.066 369.586 451.423 369.187 450.561 368.976C450.105 368.91 449.169 368.837 447.753 368.756C446.337 368.674 444.693 368.634 442.821 368.634C441.063 368.976 439.81 369.545 439.062 370.343C438.329 371.157 437.963 372.198 437.963 373.468C437.963 374.037 438.085 374.583 438.329 375.104C438.573 375.624 438.996 376.104 439.599 376.544C440.168 376.967 440.933 377.309 441.894 377.569C442.854 377.846 444.026 377.984 445.409 377.984C447.802 377.984 449.682 377.521 451.049 376.593C452.432 375.681 453.124 374.29 453.124 372.418ZM486.034 369H474.218V367.389C474.592 367.356 475.007 367.324 475.463 367.291C475.919 367.258 476.293 367.193 476.586 367.096C477.042 366.949 477.375 366.697 477.587 366.339C477.815 365.965 477.929 365.484 477.929 364.898V352.521C477.929 350.812 477.522 349.493 476.708 348.565C475.91 347.638 474.934 347.174 473.778 347.174C472.932 347.174 472.143 347.312 471.41 347.589C470.694 347.849 470.051 348.175 469.481 348.565C468.928 348.972 468.505 349.379 468.212 349.786C467.919 350.193 467.691 350.535 467.528 350.812V364.654C467.528 365.208 467.634 365.663 467.846 366.021C468.074 366.38 468.415 366.656 468.871 366.852C469.229 367.014 469.595 367.136 469.97 367.218C470.36 367.299 470.784 367.356 471.239 367.389V369H459.423V367.389C459.797 367.356 460.188 367.324 460.595 367.291C461.002 367.242 461.343 367.177 461.62 367.096C462.076 366.949 462.418 366.697 462.646 366.339C462.873 365.965 462.987 365.484 462.987 364.898V336.871C462.987 336.318 462.857 335.764 462.597 335.211C462.353 334.658 462.027 334.243 461.62 333.966C461.327 333.754 460.806 333.608 460.058 333.526C459.325 333.429 458.731 333.364 458.275 333.331V331.769L467.187 331.207L467.528 331.573V348.37H467.626C468.163 347.833 468.651 347.361 469.091 346.954C469.53 346.531 470.108 346.091 470.824 345.636C471.443 345.245 472.167 344.92 472.997 344.659C473.843 344.399 474.787 344.269 475.829 344.269C477.978 344.269 479.63 344.952 480.785 346.319C481.941 347.67 482.519 349.623 482.519 352.179V364.703C482.519 365.273 482.616 365.737 482.812 366.095C483.023 366.437 483.365 366.705 483.837 366.9C484.211 367.047 484.545 367.161 484.838 367.242C485.147 367.307 485.546 367.356 486.034 367.389V369ZM503.856 367.95C502.799 368.39 501.798 368.756 500.854 369.049C499.91 369.358 498.754 369.513 497.387 369.513C495.368 369.513 493.944 369.008 493.114 367.999C492.3 366.974 491.894 365.533 491.894 363.678V347.369H487.548V345.025H491.991V337.53H496.435V345.025H503.344V347.369H496.483V360.821C496.483 361.83 496.516 362.677 496.581 363.36C496.662 364.028 496.841 364.614 497.118 365.118C497.379 365.59 497.769 365.948 498.29 366.192C498.811 366.437 499.511 366.559 500.39 366.559C500.797 366.559 501.391 366.526 502.172 366.461C502.969 366.38 503.531 366.282 503.856 366.168V367.95Z" fill="black"/>
</g>
<g id="weight-history">
<g id="5-wh1">
<rect id="5-wh-112" width="100.806" height="100" transform="matrix(-2.20087e-07 -1 -1 2.17068e-07 2800 100.807)" fill="black"/>
<rect id="5-wh-111" width="100.806" height="100" transform="matrix(-2.20087e-07 -1 -1 2.17068e-07 2700 100.807)" fill="black"/>
<rect id="5-wh-110" width="100.806" height="100" transform="matrix(-2.20087e-07 -1 -1 2.17068e-07 2600 100.807)" fill="black"/>
<rect id="5-wh-19" width="100.806" height="100" transform="matrix(-2.20087e-07 -1 -1 2.17068e-07 2500 100.807)" fill="black"/>
<rect id="5-wh-18" width="100.806" height="100" transform="matrix(-2.20087e-07 -1 -1 2.17068e-07 2400 100.807)" fill="black"/>
<rect id="5-wh-17" width="100.806" height="100" transform="matrix(-2.20087e-07 -1 -1 2.17068e-07 2300 100.807)" fill="black"/>
</g>
<g id="5-wh2">
<rect id="5-wh-212" width="100.806" height="100" transform="matrix(-2.18822e-07 -1 -1 2.18292e-07 2800 200.605)" fill="black"/>
<rect id="5-wh-211" width="99.7983" height="100" transform="matrix(-2.18822e-07 -1 -1 2.18292e-07 2700 200.605)" fill="black"/>
<rect id="5-wh-210" width="99.7983" height="100" transform="matrix(-2.18822e-07 -1 -1 2.18292e-07 2600 200.605)" fill="black"/>
<rect id="5-wh-29" width="99.7983" height="100" transform="matrix(-2.18822e-07 -1 -1 2.18292e-07 2500 200.605)" fill="black"/>
<rect id="5-wh-28" width="99.7983" height="100" transform="matrix(-2.18822e-07 -1 -1 2.18292e-07 2400 200.605)" fill="black"/>
<rect id="5-wh-27" width="99.7983" height="100" transform="matrix(-2.18822e-07 -1 -1 2.18292e-07 2300 200.605)" fill="black"/>
</g>
<g id="5-wh3">
<rect id="5-wh-312" width="99.7983" height="100" transform="matrix(-2.18822e-07 -1 -1 2.18292e-07 2800 300.404)" fill="black"/>
<rect id="5-wh-311" width="99.7983" height="100" transform="matrix(-2.18822e-07 -1 -1 2.18292e-07 2700 300.404)" fill="black"/>
<rect id="5-wh-310" width="99.7983" height="100" transform="matrix(-2.18822e-07 -1 -1 2.18292e-07 2600 300.404)" fill="black"/>
<rect id="5-wh-39" width="99.7983" height="100" transform="matrix(-2.18822e-07 -1 -1 2.18292e-07 2500 300.404)" fill="black"/>
<rect id="5-wh-38" width="99.7983" height="100" transform="matrix(-2.18822e-07 -1 -1 2.18292e-07 2400 300.404)" fill="black"/>
<rect id="5-wh-37" width="99.7983" height="100" transform="matrix(-2.18822e-07 -1 -1 2.18292e-07 2300 300.404)" fill="black"/>
</g>
<g id="5-wh4">
<rect id="5-wh-412" width="99.7983" height="100" transform="matrix(-2.18474e-07 -1 -1 2.18641e-07 2800 400.202)" fill="black"/>
<rect id="5-wh-411" width="99.7983" height="100" transform="matrix(-2.18474e-07 -1 -1 2.18641e-07 2700 400.202)" fill="black"/>
<rect id="5-wh-410" width="99.7983" height="100" transform="matrix(-2.18474e-07 -1 -1 2.18641e-07 2600 400.202)" fill="black"/>
<rect id="5-wh-49" width="99.7983" height="100" transform="matrix(-2.18474e-07 -1 -1 2.18641e-07 2500 400.202)" fill="black"/>
<rect id="5-wh-48" width="99.7983" height="100" transform="matrix(-2.18474e-07 -1 -1 2.18641e-07 2400 400.202)" fill="black"/>
<rect id="5-wh-47" width="99.7983" height="100" transform="matrix(-2.18474e-07 -1 -1 2.18641e-07 2300 400.202)" fill="black"/>
</g>
<g id="5-wh5">
<rect id="5-wh-512" width="99.7983" height="100" transform="matrix(-2.20447e-07 -1 -1 2.16732e-07 2800 500)" fill="black"/>
<rect id="5-wh-511" width="99.7983" height="100" transform="matrix(-2.20539e-07 -1 -1 2.16647e-07 2700 500)" fill="black"/>
<rect id="5-wh-510" width="99.7983" height="100" transform="matrix(-2.20539e-07 -1 -1 2.16647e-07 2600 500)" fill="black"/>
<rect id="5-wh-59" width="99.7983" height="100" transform="matrix(-2.20539e-07 -1 -1 2.16647e-07 2500 500)" fill="black"/>
<rect id="5-wh-58" width="99.7983" height="100" transform="matrix(-2.20539e-07 -1 -1 2.16647e-07 2400 500)" fill="black"/>
<rect id="5-wh-57" width="99.7983" height="100" transform="matrix(-2.20447e-07 -1 -1 2.16732e-07 2300 500)" fill="black"/>
</g>
</g>
<g id="weight-history_2">
<g id="5-wh1_2">
<rect id="5-wh-16" width="100.806" height="100" transform="matrix(-2.20087e-07 -1 -1 2.17068e-07 2200 100.807)" fill="black"/>
<rect id="5-wh-15" width="100.806" height="100" transform="matrix(-2.20087e-07 -1 -1 2.17068e-07 2100 100.807)" fill="black"/>
<rect id="5-wh-14" width="100.806" height="100" transform="matrix(-2.20087e-07 -1 -1 2.17068e-07 2000 100.807)" fill="black"/>
<rect id="5-wh-13" width="100.806" height="100" transform="matrix(-2.20087e-07 -1 -1 2.17068e-07 1900 100.807)" fill="black"/>
<rect id="5-wh-12" width="100.806" height="100" transform="matrix(-2.20087e-07 -1 -1 2.17068e-07 1800 100.807)" fill="black"/>
<rect id="5-wh-11" width="100.806" height="100" transform="matrix(-2.20087e-07 -1 -1 2.17068e-07 1700 100.807)" fill="black"/>
</g>
<g id="5-wh2_2">
<rect id="5-wh-26" width="100.806" height="100" transform="matrix(-2.18822e-07 -1 -1 2.18292e-07 2200 200.605)" fill="black"/>
<rect id="5-wh-25" width="99.7983" height="100" transform="matrix(-2.18822e-07 -1 -1 2.18292e-07 2100 200.605)" fill="black"/>
<rect id="5-wh-24" width="99.7983" height="100" transform="matrix(-2.18822e-07 -1 -1 2.18292e-07 2000 200.605)" fill="black"/>
<rect id="5-wh-23" width="99.7983" height="100" transform="matrix(-2.18822e-07 -1 -1 2.18292e-07 1900 200.605)" fill="black"/>
<rect id="5-wh-22" width="99.7983" height="100" transform="matrix(-2.18822e-07 -1 -1 2.18292e-07 1800 200.605)" fill="black"/>
<rect id="5-wh-21" width="99.7983" height="100" transform="matrix(-2.18822e-07 -1 -1 2.18292e-07 1700 200.605)" fill="black"/>
</g>
<g id="5-wh3_2">
<rect id="5-wh-36" width="99.7983" height="100" transform="matrix(-2.18822e-07 -1 -1 2.18292e-07 2200 300.404)" fill="black"/>
<rect id="5-wh-35" width="99.7983" height="100" transform="matrix(-2.18822e-07 -1 -1 2.18292e-07 2100 300.404)" fill="black"/>
<rect id="5-wh-34" width="99.7983" height="100" transform="matrix(-2.18822e-07 -1 -1 2.18292e-07 2000 300.404)" fill="black"/>
<rect id="5-wh-33" width="99.7983" height="100" transform="matrix(-2.18822e-07 -1 -1 2.18292e-07 1900 300.404)" fill="black"/>
<rect id="5-wh-32" width="99.7983" height="100" transform="matrix(-2.18822e-07 -1 -1 2.18292e-07 1800 300.404)" fill="black"/>
<rect id="5-wh-31" width="99.7983" height="100" transform="matrix(-2.18822e-07 -1 -1 2.18292e-07 1700 300.404)" fill="black"/>
</g>
<g id="5-wh4_2">
<rect id="5-wh-46" width="99.7983" height="100" transform="matrix(-2.18474e-07 -1 -1 2.18641e-07 2200 400.202)" fill="black"/>
<rect id="5-wh-45" width="99.7983" height="100" transform="matrix(-2.18474e-07 -1 -1 2.18641e-07 2100 400.202)" fill="black"/>
<rect id="5-wh-44" width="99.7983" height="100" transform="matrix(-2.18474e-07 -1 -1 2.18641e-07 2000 400.202)" fill="black"/>
<rect id="5-wh-43" width="99.7983" height="100" transform="matrix(-2.18474e-07 -1 -1 2.18641e-07 1900 400.202)" fill="black"/>
<rect id="5-wh-42" width="99.7983" height="100" transform="matrix(-2.18474e-07 -1 -1 2.18641e-07 1800 400.202)" fill="black"/>
<rect id="5-wh-41" width="99.7983" height="100" transform="matrix(-2.18474e-07 -1 -1 2.18641e-07 1700 400.202)" fill="black"/>
</g>
<g id="5-wh5_2">
<rect id="5-wh-56" width="99.7983" height="100" transform="matrix(-2.20447e-07 -1 -1 2.16732e-07 2200 500)" fill="black"/>
<rect id="5-wh-55" width="99.7983" height="100" transform="matrix(-2.20539e-07 -1 -1 2.16647e-07 2100 500)" fill="black"/>
<rect id="5-wh-54" width="99.7983" height="100" transform="matrix(-2.20539e-07 -1 -1 2.16647e-07 2000 500)" fill="black"/>
<rect id="5-wh-53" width="99.7983" height="100" transform="matrix(-2.20539e-07 -1 -1 2.16647e-07 1900 500)" fill="black"/>
<rect id="5-wh-52" width="99.7983" height="100" transform="matrix(-2.20539e-07 -1 -1 2.16647e-07 1800 500)" fill="black"/>
<rect id="5-wh-51" width="99.7983" height="100" transform="matrix(-2.20447e-07 -1 -1 2.16732e-07 1700 500)" fill="black"/>
</g>
</g>
</g>
<defs>
<clipPath id="clip0_160_1358">
<rect width="2800" height="605" fill="white"/>
</clipPath>
</defs>
</svg>
