<svg width="151" height="31" viewBox="0 0 151 31" fill="none" xmlns="http://www.w3.org/2000/svg">
<path d="M4.675 27.9832C10.3728 21.2002 16.7077 14.7336 24.5564 10.4034C31.3028 6.68117 41.1708 5.75014 48.796 5.1147C56.6646 4.45899 64.1349 6.82862 71.6646 6.82862" stroke="black" stroke-width="3" stroke-linecap="round"/>
<path d="M15.2124 28.5094C11.3258 28.5094 7.31035 29.1025 3.4679 28.8765C2.71661 28.8323 3.10089 24.4907 3.10089 23.9421C3.10089 22.2713 2.50821 20.8591 1.99984 19.334" stroke="black" stroke-width="3" stroke-linecap="round"/>
<path d="M83.224 11C82.68 11 82.252 10.868 81.94 10.604C81.628 10.34 81.472 9.864 81.472 9.176V5.912H79.96V5.048H80.86C81.268 5.048 81.504 4.848 81.568 4.448L81.736 3.524H82.48V5.048H84.856V5.912H82.48V9.176C82.48 9.512 82.556 9.748 82.708 9.884C82.868 10.02 83.14 10.088 83.524 10.088H84.856V11H83.224ZM87.1913 11V2.36H88.1993V5.948C88.3593 5.644 88.6233 5.396 88.9913 5.204C89.3593 5.004 89.7633 4.904 90.2033 4.904C90.9313 4.904 91.4833 5.124 91.8593 5.564C92.2433 6.004 92.4353 6.62 92.4353 7.412V11H91.4273V7.544C91.4273 7.008 91.2953 6.592 91.0313 6.296C90.7753 6 90.4153 5.852 89.9513 5.852C89.6313 5.852 89.3393 5.924 89.0753 6.068C88.8113 6.212 88.5993 6.424 88.4393 6.704C88.2793 6.984 88.1993 7.328 88.1993 7.736V11H87.1913ZM96.4866 11.144C96.0146 11.144 95.6226 11.06 95.3106 10.892C94.9986 10.724 94.7666 10.504 94.6146 10.232C94.4626 9.952 94.3866 9.648 94.3866 9.32C94.3866 8.712 94.6066 8.252 95.0466 7.94C95.4946 7.62 96.0906 7.46 96.8346 7.46H98.4666V7.34C98.4666 6.3 97.9906 5.78 97.0386 5.78C96.6546 5.78 96.3306 5.864 96.0666 6.032C95.8106 6.2 95.6466 6.464 95.5746 6.824H94.5426C94.5826 6.424 94.7146 6.08 94.9386 5.792C95.1706 5.504 95.4666 5.284 95.8266 5.132C96.1866 4.98 96.5906 4.904 97.0386 4.904C97.8866 4.904 98.5026 5.128 98.8866 5.576C99.2786 6.016 99.4746 6.604 99.4746 7.34V11H98.6106L98.5266 10.076H98.4426C98.2666 10.364 98.0306 10.616 97.7346 10.832C97.4466 11.04 97.0306 11.144 96.4866 11.144ZM96.6666 10.256C97.0506 10.256 97.3746 10.164 97.6386 9.98C97.9106 9.796 98.1146 9.552 98.2506 9.248C98.3946 8.944 98.4666 8.612 98.4666 8.252H96.9186C96.3746 8.252 95.9906 8.344 95.7666 8.528C95.5506 8.712 95.4426 8.956 95.4426 9.26C95.4426 9.572 95.5466 9.816 95.7546 9.992C95.9626 10.168 96.2666 10.256 96.6666 10.256ZM104.81 11C104.266 11 103.838 10.868 103.526 10.604C103.214 10.34 103.058 9.864 103.058 9.176V5.912H101.546V5.048H102.446C102.854 5.048 103.09 4.848 103.154 4.448L103.322 3.524H104.066V5.048H106.442V5.912H104.066V9.176C104.066 9.512 104.142 9.748 104.294 9.884C104.454 10.02 104.726 10.088 105.11 10.088H106.442V11H104.81ZM110.457 5.96L111.261 2.6H112.557L111.369 5.96H110.457ZM118.637 11.144C117.877 11.144 117.261 10.968 116.789 10.616C116.325 10.256 116.065 9.764 116.009 9.14H117.053C117.101 9.468 117.261 9.736 117.533 9.944C117.813 10.152 118.189 10.256 118.661 10.256C119.109 10.256 119.441 10.16 119.657 9.968C119.881 9.776 119.993 9.556 119.993 9.308C119.993 8.972 119.861 8.744 119.597 8.624C119.333 8.496 118.937 8.4 118.409 8.336C117.777 8.264 117.253 8.092 116.837 7.82C116.421 7.548 116.213 7.14 116.213 6.596C116.213 6.108 116.417 5.704 116.825 5.384C117.233 5.064 117.789 4.904 118.493 4.904C119.189 4.904 119.737 5.064 120.137 5.384C120.537 5.696 120.765 6.144 120.821 6.728H119.825C119.801 6.44 119.661 6.212 119.405 6.044C119.157 5.868 118.845 5.78 118.469 5.78C118.077 5.78 117.773 5.856 117.557 6.008C117.341 6.152 117.233 6.344 117.233 6.584C117.233 6.824 117.353 7.024 117.593 7.184C117.841 7.336 118.229 7.436 118.757 7.484C119.173 7.532 119.553 7.612 119.897 7.724C120.241 7.836 120.513 8.012 120.713 8.252C120.921 8.492 121.025 8.828 121.025 9.26C121.033 9.62 120.933 9.944 120.725 10.232C120.525 10.512 120.245 10.736 119.885 10.904C119.525 11.064 119.109 11.144 118.637 11.144ZM129.811 11V5.048H130.639L130.747 5.744H130.807C130.911 5.504 131.067 5.304 131.275 5.144C131.491 4.984 131.751 4.904 132.055 4.904C132.359 4.904 132.615 4.98 132.823 5.132C133.039 5.276 133.195 5.48 133.291 5.744H133.339C133.443 5.504 133.611 5.304 133.843 5.144C134.075 4.984 134.355 4.904 134.683 4.904C135.139 4.904 135.479 5.06 135.703 5.372C135.935 5.676 136.051 6.084 136.051 6.596V11H135.067V6.752C135.067 6.464 135.007 6.236 134.887 6.068C134.775 5.9 134.591 5.816 134.335 5.816C134.071 5.816 133.855 5.916 133.687 6.116C133.519 6.316 133.435 6.6 133.435 6.968V11H132.439V6.752C132.439 6.464 132.383 6.236 132.271 6.068C132.159 5.9 131.975 5.816 131.719 5.816C131.455 5.816 131.235 5.916 131.059 6.116C130.891 6.316 130.807 6.6 130.807 6.968V11H129.811ZM140.223 11.144C139.663 11.144 139.167 11.016 138.735 10.76C138.311 10.496 137.975 10.132 137.727 9.668C137.479 9.196 137.354 8.648 137.354 8.024C137.354 7.4 137.475 6.856 137.715 6.392C137.963 5.92 138.303 5.556 138.735 5.3C139.167 5.036 139.671 4.904 140.247 4.904C140.823 4.904 141.315 5.036 141.723 5.3C142.131 5.556 142.443 5.896 142.659 6.32C142.875 6.744 142.983 7.2 142.983 7.688C142.983 7.776 142.979 7.864 142.971 7.952C142.971 8.04 142.971 8.14 142.971 8.252H138.351C138.375 8.692 138.475 9.06 138.651 9.356C138.835 9.644 139.063 9.86 139.335 10.004C139.615 10.148 139.911 10.22 140.223 10.22C140.663 10.22 141.007 10.128 141.255 9.944C141.503 9.76 141.691 9.504 141.819 9.176H142.815C142.679 9.728 142.395 10.196 141.963 10.58C141.531 10.956 140.951 11.144 140.223 11.144ZM140.223 5.804C139.759 5.804 139.351 5.944 138.999 6.224C138.655 6.504 138.443 6.896 138.363 7.4H141.987C141.955 6.904 141.775 6.516 141.447 6.236C141.127 5.948 140.719 5.804 140.223 5.804ZM146.878 8.012L146.746 2.6H147.97L147.826 8.012H146.878ZM147.358 11.024C147.11 11.024 146.898 10.94 146.722 10.772C146.546 10.604 146.458 10.396 146.458 10.148C146.458 9.908 146.546 9.704 146.722 9.536C146.898 9.368 147.11 9.284 147.358 9.284C147.614 9.284 147.826 9.368 147.994 9.536C148.17 9.704 148.258 9.908 148.258 10.148C148.258 10.396 148.17 10.604 147.994 10.772C147.826 10.94 147.614 11.024 147.358 11.024Z" fill="black"/>
</svg>
