<svg width="444" height="23" viewBox="0 0 444 23" fill="none" xmlns="http://www.w3.org/2000/svg">
<path d="M2 19.9084C17.467 20.8395 29.1741 16.2641 38.4537 11.2172C40.2662 10.2314 43.571 8.88933 43.3937 7.44845C43.243 6.22368 39.6321 7.07698 38.7944 7.60228C34.1999 10.4835 38.3616 14.8193 43.053 16.9857C50.9287 20.6225 62.9992 20.7092 73.204 18.9085C81.7696 17.3971 95.5673 14.2307 99.7778 10.2173C101.759 8.32862 98.4682 8.02642 95.1785 8.14067C87.5852 8.4044 91.5005 13.9771 94.3268 15.4474C105.033 21.0168 126.116 22.6551 139.979 19.1777C145.15 17.8806 155.281 14.9497 156.758 11.9479C157.307 10.8335 156.524 8.36155 153.01 9.94813C149.011 11.7539 149.246 16.9223 153.862 18.4855C161.549 21.0885 177.889 20.4879 184.354 17.4471C190.566 14.5255 197.279 11.6185 200.537 7.79456C201.844 6.25952 199.497 3.33061 198.322 5.71791C194.625 13.2294 235.338 11.2161 242.016 9.67893C248.053 8.28919 251.884 5.90126 253.088 2.91059C253.676 1.44943 249.988 2.01339 248.829 2.75676C246.818 4.04707 245.238 6.06243 244.571 7.60228C239.891 18.4007 272.48 22.231 285.283 14.2168C288.824 12.0004 293.245 8.81529 295.163 6.21785C297.563 2.967 290.522 3.7744 289.031 6.06402C284.598 12.8689 320.38 13.4909 329.402 12.9477C335.202 12.5986 338.061 10.5051 342.945 9.52511C344.714 9.16998 350.798 13.8369 353.762 14.6398C365.678 17.8682 377.61 11.248 377.61 6.44859C377.61 4.60083 373.792 3.86355 373.096 6.06402C372.277 8.65295 372.322 11.5298 376.928 13.3323C387.095 17.3106 406.384 15.7551 418.663 15.7551C422.752 15.7551 439.918 16.9427 442 15.0628" stroke="#AAAAAA" stroke-width="3" stroke-linecap="round"/>
</svg>
