<svg width="1440" height="1024" viewBox="0 0 1440 1024" fill="none" xmlns="http://www.w3.org/2000/svg">
<rect width="1440" height="1024" fill="#F5D6A8"/>
<rect x="1060.06" y="306.679" width="27.65" height="389.733" transform="rotate(-7.7316 1060.06 306.679)" fill="#EDB039"/>
<path d="M1065.66 246.126L1087.19 302.996L1060.07 306.678L1065.66 246.126Z" fill="#FFEFD8"/>
<path d="M1074.11 268.232L1063.67 269.649L1065.88 246.76L1074.11 268.232Z" fill="#222222"/>
<circle cx="297.164" cy="445.411" r="154" transform="rotate(131.95 297.164 445.411)" fill="#2F4B2A"/>
<circle cx="297.164" cy="445.411" r="154" transform="rotate(131.95 297.164 445.411)" fill="#2F4B2A"/>
<circle cx="297.164" cy="445.411" r="154" transform="rotate(131.95 297.164 445.411)" fill="#2F4B2A"/>
<circle cx="297.164" cy="445.411" r="123.071" transform="rotate(131.95 297.164 445.411)" fill="#2F4B2A"/>
<circle cx="297.164" cy="445.411" r="123.071" transform="rotate(131.95 297.164 445.411)" fill="#2F4B2A"/>
<circle cx="297.164" cy="445.411" r="123.071" transform="rotate(131.95 297.164 445.411)" fill="#764930"/>
<rect x="254.429" y="581.794" width="81" height="42" rx="3" transform="rotate(113.516 254.429 581.794)" fill="#2F4B2A"/>
<rect x="375.42" y="455.969" width="36.0837" height="27.0628" rx="4" transform="rotate(111.331 375.42 455.969)" fill="white"/>
<rect x="356.345" y="372.82" width="29.8802" height="27.0628" rx="4" transform="rotate(148.291 356.345 372.82)" fill="white"/>
<rect x="250.641" y="444.085" width="34.4728" height="27.0628" rx="4" transform="rotate(133.637 250.641 444.085)" fill="white"/>
<rect x="281.454" y="487.604" width="24.7141" height="19.9524" rx="4" transform="rotate(108.343 281.454 487.604)" fill="white"/>
<rect x="303.702" y="439.357" width="34.9904" height="28.2487" rx="4" transform="rotate(-142.655 303.702 439.357)" fill="white"/>
<rect x="565" y="333" width="333" height="298" fill="#CA9A9A"/>
<path d="M600.951 606C566 562.5 568.164 417.396 566 333H897.532C902.325 382.092 886.547 549.467 920 606H600.951Z" fill="#E89E9E"/>
<path d="M607.087 414.353L607.096 414.593C607.101 414.713 607.109 414.932 607.121 415.252C607.152 415.551 607.134 415.862 607.067 416.185C607.019 416.507 606.9 416.802 606.71 417.069C606.519 417.317 606.224 417.448 605.824 417.463C605.045 417.493 604.573 417.2 604.41 416.586C604.425 416.466 604.43 416.335 604.425 416.195C604.419 416.035 604.412 415.866 604.406 415.686C604.403 415.606 604.392 415.316 604.373 414.816C604.353 414.297 604.311 413.738 604.249 413.14C604.206 412.541 604.125 411.984 604.005 411.468C603.884 410.932 603.722 410.598 603.516 410.466C603.045 410.164 602.629 410.019 602.269 410.033C601.789 410.051 601.385 410.217 601.057 410.529C600.748 410.821 600.499 411.391 600.312 412.239C600.302 412.52 600.294 412.84 600.288 413.201C600.281 413.541 600.266 413.932 600.243 414.373C600.256 414.713 600.28 415.092 600.316 415.511C600.351 415.91 600.399 416.369 600.458 416.887C600.473 417.266 600.335 417.592 600.045 417.863C599.755 418.114 599.419 418.247 599.04 418.262C598.74 418.273 598.497 418.202 598.311 418.049C598.125 417.896 597.977 417.692 597.867 417.436C597.778 417.179 597.707 416.901 597.656 416.603C597.624 416.304 597.603 416.005 597.591 415.705C597.583 415.485 597.585 415.265 597.596 415.044C597.607 414.804 597.628 414.563 597.659 414.321L597.789 411.434L597.974 409.986C597.925 409.748 597.835 409.491 597.705 409.216C597.574 408.941 597.506 408.723 597.5 408.563C597.487 408.224 597.605 407.909 597.854 407.619C598.123 407.329 598.458 407.176 598.857 407.161C599.137 407.15 599.349 407.202 599.494 407.317C599.637 407.411 599.877 407.662 600.213 408.07C600.606 407.875 600.921 407.753 601.16 407.703C601.397 407.634 601.676 407.594 601.996 407.582C603.035 407.542 603.954 407.757 604.752 408.227C605.57 408.676 606.1 409.467 606.343 410.598C606.419 411.016 606.483 411.364 606.533 411.642C606.604 411.919 606.664 412.187 606.714 412.446C606.764 412.704 606.815 412.982 606.866 413.28C606.917 413.559 606.99 413.916 607.087 414.353ZM622.267 413.565C622.636 413.791 622.827 414.074 622.84 414.414C622.846 414.593 622.804 414.785 622.711 414.989C622.618 415.172 622.495 415.347 622.341 415.513C622.186 415.659 622.021 415.786 621.845 415.892C621.669 415.999 621.491 416.056 621.311 416.063C621.149 416.009 620.955 415.916 620.73 415.785C620.504 415.633 620.278 415.472 620.051 415.3C619.824 415.109 619.606 414.897 619.397 414.665C619.208 414.432 619.059 414.197 618.95 413.961L618.759 414.479C618.407 415.213 617.833 415.915 617.038 416.586C616.046 416.804 615.469 416.916 615.31 416.922C614.93 416.936 614.468 416.894 613.924 416.794L612.23 415.688C611.485 415.036 611.09 414.12 611.045 412.941C611.029 412.521 611.071 412.06 611.172 411.555C611.292 411.03 611.463 410.504 611.683 409.975C611.923 409.445 612.213 408.924 612.554 408.41C612.894 407.897 613.297 407.431 613.761 407.014C614.333 406.772 614.885 406.57 615.42 406.41C615.953 406.23 616.359 406.114 616.637 406.063C617.001 405.629 617.443 405.402 617.962 405.383C618.262 405.371 618.528 405.511 618.759 405.803C619.009 406.073 619.223 406.425 619.4 406.859C619.596 407.292 619.755 407.776 619.875 408.312C619.995 408.828 620.084 409.325 620.142 409.803L620.592 411.377C620.731 411.872 620.938 412.294 621.211 412.644C621.505 412.993 621.856 413.3 622.267 413.565ZM617.583 410.411C617.543 410.392 617.369 409.768 617.062 408.539C616.962 408.543 616.812 408.549 616.612 408.556C616.412 408.564 616.175 408.633 615.9 408.763C615.644 408.873 615.361 409.074 615.052 409.366C614.762 409.637 614.487 410.048 614.228 410.598C613.838 411.394 613.658 412.181 613.688 412.961C614.053 413.607 614.602 414.107 615.336 414.459C615.553 414.391 615.731 414.314 615.867 414.229C616.024 414.143 616.16 414.027 616.275 413.883C616.389 413.738 616.493 413.564 616.585 413.361C616.697 413.136 616.816 412.862 616.944 412.536C617.186 412.067 617.351 411.66 617.438 411.317C617.544 410.952 617.593 410.65 617.583 410.411ZM632.578 405.397C632.805 405.568 632.927 405.894 632.946 406.373C632.979 407.253 632.666 407.705 632.007 407.73L631.887 407.735C631.588 407.766 631.239 407.809 630.841 407.864C630.442 407.9 629.994 407.957 629.496 408.036C629.469 408.357 629.445 408.788 629.426 409.329C629.405 409.85 629.409 410.481 629.437 411.22C629.44 411.28 629.442 411.34 629.444 411.4C629.467 411.459 629.479 411.529 629.482 411.609L629.535 412.988C629.547 413.308 629.607 413.565 629.714 413.762C629.841 413.937 629.986 414.061 630.149 414.135L630.999 414.373C631.666 414.568 632.011 414.955 632.033 415.535C632.046 415.874 631.918 416.179 631.648 416.45C631.398 416.72 631.063 416.862 630.644 416.878C630.524 416.883 630.313 416.861 630.011 416.812C629.728 416.743 629.424 416.655 629.1 416.547C628.796 416.438 628.5 416.3 628.213 416.13C627.947 415.96 627.759 415.767 627.651 415.551C627.414 415.1 627.215 414.627 627.057 414.133C626.897 413.619 626.806 413.082 626.785 412.522C626.761 411.903 626.755 411.462 626.765 411.202C626.775 410.941 626.786 410.711 626.799 410.51C626.811 410.309 626.822 410.069 626.831 409.788C626.84 409.508 626.833 409.048 626.809 408.408C626.43 408.463 625.875 408.604 625.143 408.832C624.704 408.849 624.32 408.753 623.992 408.545C623.683 408.317 623.521 408.013 623.507 407.633C623.496 407.353 623.566 407.091 623.717 406.845C623.888 406.598 624.239 406.374 624.772 406.174C624.95 406.107 625.108 406.061 625.247 406.036C625.406 406.01 625.555 405.984 625.695 405.959C625.854 405.933 626.023 405.916 626.203 405.909C626.382 405.883 626.601 405.844 626.859 405.794C626.86 405.294 626.869 404.733 626.885 404.112C626.921 403.47 626.988 402.877 627.088 402.333C627.207 401.788 627.38 401.331 627.606 400.962C627.851 400.573 628.184 400.37 628.603 400.354C629.323 400.327 629.775 400.64 629.96 401.293C629.961 401.313 629.936 401.454 629.886 401.716C629.855 401.958 629.816 402.229 629.767 402.531C629.719 402.833 629.67 403.126 629.62 403.408C629.591 403.689 629.578 403.87 629.581 403.949L629.547 405.422C629.686 405.397 629.816 405.382 629.936 405.377C630.055 405.352 630.184 405.338 630.324 405.332L630.594 405.322C630.734 405.317 630.864 405.312 630.984 405.307C631.103 405.283 631.212 405.268 631.312 405.265C631.912 405.242 632.334 405.286 632.578 405.397ZM646.11 414.909C646.021 415.192 645.832 415.48 645.543 415.771C645.253 416.062 644.969 416.213 644.689 416.224C644.11 416.246 643.714 415.85 643.503 415.038C643.292 414.225 643.158 413.07 643.101 411.571L643.091 411.301C643.062 410.541 642.981 409.994 642.848 409.659C642.735 409.303 642.656 409.076 642.612 408.977C642.374 408.506 642.025 408.279 641.565 408.297C641.286 408.307 640.998 408.378 640.703 408.51C640.407 408.621 640.142 408.761 639.908 408.93C639.674 409.079 639.469 409.227 639.295 409.374C639.14 409.52 639.044 409.624 639.006 409.685C638.972 409.826 638.941 410.068 638.914 410.409C638.907 410.75 638.902 411.14 638.898 411.581C638.895 412.021 638.892 412.471 638.89 412.932C638.887 413.392 638.883 413.813 638.878 414.193C638.892 414.573 638.904 414.873 638.912 415.093C638.92 415.312 638.934 415.402 638.952 415.361C638.913 415.903 638.493 416.189 637.694 416.22C637.094 416.243 636.698 416.068 636.503 415.695C636.329 415.321 636.224 414.675 636.189 413.755C636.18 413.515 636.175 413.375 636.173 413.335C636.192 413.295 636.208 413.204 636.223 413.063C636.237 412.903 636.256 412.622 636.281 412.221C636.306 411.819 636.33 411.138 636.353 410.176C636.358 409.776 636.364 409.415 636.372 409.095C636.379 408.754 636.368 408.465 636.339 408.225C636.331 408.006 636.324 407.826 636.318 407.686C636.312 407.526 636.297 407.396 636.274 407.297C636.291 407.237 636.304 407.046 636.312 406.725C636.34 406.404 636.356 406.053 636.362 405.673C636.387 405.292 636.414 404.93 636.441 404.589C636.468 404.248 636.499 404.016 636.534 403.895C636.518 403.475 636.51 402.995 636.51 402.455C636.508 401.894 636.558 401.372 636.66 400.888C636.762 400.404 636.926 399.997 637.154 399.668C637.401 399.319 637.754 399.135 638.214 399.118C638.993 399.088 639.402 399.573 639.44 400.572C639.461 401.132 639.382 401.935 639.202 402.983C639.182 403.524 639.148 403.946 639.1 404.248C639.071 404.549 639.041 404.81 639.009 405.032C638.978 405.253 638.956 405.464 638.943 405.665C638.931 405.865 638.932 406.145 638.945 406.505C639.429 406.066 639.9 405.808 640.357 405.731C640.814 405.633 641.242 405.577 641.641 405.562C642.641 405.524 643.451 405.783 644.073 406.34C644.694 406.897 645.181 407.839 645.531 409.166C645.57 409.645 645.594 410.025 645.605 410.304C645.635 410.564 645.666 410.863 645.699 411.202C645.751 411.52 645.808 411.958 645.869 412.516C645.93 413.074 646.011 413.872 646.11 414.909ZM661.233 412.081C661.602 412.307 661.793 412.59 661.805 412.93C661.812 413.11 661.77 413.302 661.677 413.505C661.584 413.689 661.461 413.864 661.307 414.03C661.152 414.176 660.987 414.302 660.811 414.409C660.635 414.516 660.457 414.573 660.277 414.579C660.115 414.526 659.921 414.433 659.696 414.301C659.47 414.15 659.244 413.988 659.017 413.817C658.79 413.625 658.572 413.413 658.363 413.181C658.174 412.948 658.025 412.714 657.915 412.478L657.725 412.995C657.373 413.729 656.799 414.432 656.004 415.102C655.011 415.32 654.435 415.432 654.275 415.438C653.896 415.453 653.434 415.41 652.89 415.311L651.196 414.205C650.451 413.552 650.056 412.637 650.011 411.458C649.995 411.038 650.037 410.576 650.138 410.072C650.258 409.547 650.428 409.02 650.649 408.491C650.889 407.962 651.179 407.44 651.52 406.927C651.86 406.414 652.263 405.948 652.727 405.53C653.299 405.288 653.851 405.087 654.386 404.927C654.919 404.746 655.325 404.631 655.603 404.58C655.967 404.146 656.409 403.919 656.928 403.899C657.228 403.888 657.494 404.028 657.725 404.319C657.975 404.59 658.189 404.942 658.366 405.375C658.562 405.808 658.721 406.293 658.841 406.828C658.961 407.344 659.05 407.841 659.108 408.319L659.558 409.893C659.697 410.388 659.903 410.811 660.177 411.161C660.47 411.51 660.822 411.817 661.233 412.081ZM656.549 408.927C656.509 408.909 656.335 408.285 656.028 407.056C655.928 407.059 655.778 407.065 655.578 407.073C655.378 407.08 655.141 407.149 654.866 407.28C654.609 407.39 654.327 407.591 654.018 407.883C653.728 408.154 653.453 408.565 653.194 409.115C652.804 409.91 652.624 410.698 652.654 411.477C653.018 412.124 653.568 412.623 654.302 412.976C654.519 412.907 654.697 412.83 654.833 412.745C654.99 412.659 655.126 412.544 655.241 412.399C655.355 412.255 655.459 412.081 655.551 411.877C655.662 411.653 655.782 411.378 655.91 411.053C656.152 410.583 656.317 410.177 656.404 409.833C656.51 409.469 656.559 409.167 656.549 408.927ZM674.216 411.797L674.225 412.037C674.23 412.157 674.238 412.377 674.25 412.696C674.282 412.995 674.263 413.306 674.196 413.629C674.148 413.951 674.029 414.246 673.839 414.513C673.648 414.761 673.353 414.892 672.953 414.907C672.174 414.937 671.702 414.645 671.539 414.031C671.554 413.91 671.559 413.78 671.554 413.64C671.548 413.48 671.542 413.31 671.535 413.13C671.532 413.05 671.521 412.76 671.502 412.261C671.482 411.741 671.441 411.182 671.378 410.584C671.335 409.985 671.254 409.428 671.134 408.912C671.014 408.376 670.851 408.042 670.646 407.91C670.174 407.608 669.758 407.464 669.398 407.477C668.918 407.496 668.514 407.661 668.186 407.974C667.877 408.266 667.629 408.836 667.441 409.683C667.431 409.964 667.424 410.284 667.417 410.645C667.41 410.985 667.395 411.376 667.372 411.818C667.385 412.157 667.409 412.537 667.445 412.956C667.48 413.354 667.528 413.813 667.588 414.331C667.602 414.711 667.464 415.036 667.174 415.308C666.884 415.559 666.549 415.692 666.169 415.706C665.869 415.717 665.626 415.647 665.44 415.494C665.254 415.341 665.106 415.136 664.997 414.88C664.907 414.623 664.836 414.346 664.785 414.048C664.753 413.749 664.732 413.449 664.721 413.149C664.712 412.929 664.714 412.709 664.725 412.489C664.736 412.248 664.757 412.007 664.788 411.766L664.918 408.879L665.103 407.431C665.054 407.192 664.964 406.936 664.834 406.66C664.703 406.385 664.635 406.168 664.629 406.008C664.616 405.668 664.734 405.353 664.983 405.063C665.252 404.773 665.587 404.62 665.986 404.605C666.266 404.594 666.478 404.646 666.623 404.761C666.766 404.855 667.006 405.107 667.342 405.514C667.735 405.319 668.05 405.197 668.289 405.148C668.526 405.079 668.805 405.038 669.125 405.026C670.164 404.986 671.083 405.202 671.881 405.672C672.699 406.121 673.229 406.911 673.473 408.043C673.549 408.46 673.612 408.808 673.662 409.086C673.733 409.364 673.793 409.632 673.843 409.89C673.893 410.148 673.944 410.426 673.995 410.725C674.046 411.003 674.119 411.36 674.216 411.797ZM701.285 403.982C701.242 404.424 700.848 405.389 700.104 406.879L699.281 408.921C699.119 409.388 698.974 409.784 698.846 410.109C698.718 410.434 698.599 410.719 698.488 410.963C698.397 411.187 698.295 411.391 698.182 411.575C698.088 411.739 697.984 411.903 697.87 412.067C697.779 412.311 697.649 412.566 697.479 412.833C697.308 413.08 697.107 413.317 696.876 413.546C696.644 413.775 696.391 413.965 696.117 414.116C695.842 414.266 695.555 414.347 695.255 414.359C694.416 414.391 693.796 413.884 693.396 412.838C693.167 412.607 692.945 412.305 692.731 411.933C692.517 411.561 692.323 411.198 692.149 410.844C691.996 410.49 691.864 410.185 691.754 409.929C691.644 409.653 691.578 409.495 691.556 409.456C691.297 408.965 691.155 408.38 691.129 407.701L691.12 407.461C690.704 406.516 690.48 405.644 690.45 404.844C690.435 404.465 690.575 404.179 690.868 403.988C691.18 403.796 691.537 403.692 691.937 403.677C692.176 403.668 692.368 403.721 692.513 403.835C692.677 403.929 692.803 404.084 692.891 404.301C692.998 404.497 693.088 404.744 693.159 405.042C693.231 405.339 693.314 405.676 693.408 406.053C693.573 406.707 693.714 407.252 693.83 407.688C693.967 408.123 694.102 408.508 694.235 408.843C694.388 409.178 694.56 409.512 694.753 409.844C694.945 410.157 695.19 410.528 695.486 410.957C695.964 410.379 696.279 409.706 696.43 408.94C696.56 408.675 696.66 408.421 696.731 408.178C696.821 407.914 696.939 407.58 697.083 407.174C697.228 406.768 697.438 406.25 697.715 405.619C697.99 404.968 698.398 404.132 698.94 403.11C699.149 402.822 699.414 402.672 699.733 402.66C700.093 402.646 700.438 402.773 700.769 403.041C701.099 403.308 701.27 403.592 701.281 403.892L701.285 403.982ZM709.201 399.657C709.247 399.816 709.272 399.965 709.278 400.105C709.302 400.744 709.133 401.291 708.77 401.745C708.179 402.008 707.584 402.151 706.985 402.174C706.596 401.948 706.266 401.691 705.995 401.401C705.743 401.09 705.611 400.785 705.599 400.485C705.59 400.225 705.865 399.574 706.426 398.532C706.687 398.562 706.958 398.582 707.239 398.591C707.539 398.6 707.811 398.64 708.054 398.71C708.317 398.78 708.541 398.892 708.727 399.045C708.932 399.177 709.09 399.381 709.201 399.657ZM708.432 404.7L708.447 405.09C708.45 405.19 708.455 405.3 708.459 405.42C708.464 405.54 708.448 405.65 708.412 405.752L708.223 407.11L708.234 407.38C708.238 407.5 708.234 407.66 708.222 407.861C708.21 408.061 708.187 408.262 708.155 408.464C708.142 408.664 708.13 408.855 708.117 409.035C708.103 409.216 708.099 409.366 708.104 409.486C708.107 409.586 708.111 409.666 708.113 409.726C708.135 409.785 708.148 409.865 708.152 409.965C708.159 410.145 708.146 410.345 708.115 410.567C708.082 410.768 708.071 410.999 708.081 411.258C708.09 411.498 708.13 411.747 708.2 412.004C708.014 412.912 707.571 413.379 706.872 413.406C705.893 413.443 705.368 412.543 705.298 410.704C705.274 410.084 705.281 409.474 705.318 408.872C705.355 408.25 705.403 407.678 705.463 407.155C705.523 406.632 705.586 406.18 705.652 405.797C705.736 405.393 705.804 405.081 705.856 404.858C706.139 404.407 706.55 404.172 707.09 404.151C707.61 404.131 708.057 404.314 708.432 404.7ZM722.006 409.858C721.969 410.479 721.781 411.057 721.441 411.59C721.12 412.103 720.79 412.626 720.45 413.159C720.237 413.347 719.923 413.51 719.508 413.645C719.114 413.801 718.718 413.926 718.321 414.021C717.925 414.116 717.577 414.189 717.279 414.241C717.001 414.291 716.882 414.316 716.922 414.314C716.722 414.322 716.46 414.292 716.138 414.224C715.835 414.176 715.533 414.117 715.23 414.048C714.948 413.999 714.706 413.938 714.503 413.866C714.321 413.813 714.24 413.786 714.259 413.785C714.079 413.772 713.847 413.721 713.563 413.632C713.279 413.522 713.004 413.403 712.739 413.273C712.493 413.122 712.277 412.97 712.091 412.817C711.884 412.645 711.778 412.479 711.772 412.319C711.766 412.159 711.8 411.997 711.874 411.835C711.947 411.652 712.05 411.488 712.185 411.342C712.319 411.177 712.454 411.052 712.591 410.967C712.747 410.861 712.905 410.805 713.065 410.798L715.163 411.499C715.547 411.605 715.921 411.68 716.283 411.727C716.664 411.752 717.034 411.758 717.394 411.744C717.734 411.732 718.031 411.66 718.287 411.53C718.561 411.38 718.765 411.212 718.898 411.027L719.313 410.11C719.26 409.752 719.099 409.478 718.832 409.288C718.584 409.097 718.268 408.939 717.883 408.814C717.518 408.688 717.123 408.572 716.699 408.469C716.275 408.365 715.879 408.22 715.512 408.033L714.192 407.273C713.751 406.749 713.5 405.928 713.437 404.81C713.531 404.106 713.809 403.535 714.273 403.097C714.292 403.076 714.419 402.981 714.652 402.812C714.885 402.623 715.246 402.359 715.733 402.021C715.813 402.018 716.062 401.988 716.48 401.932C716.918 401.875 717.516 401.793 718.272 401.684C718.612 401.671 719.45 401.879 720.788 402.309C721.057 402.558 721.201 402.913 721.218 403.373C721.232 403.733 721.154 404.046 720.984 404.313C720.833 404.558 720.598 404.687 720.278 404.7C719.938 404.713 719.556 404.647 719.13 404.503C718.723 404.339 718.34 404.263 717.98 404.277C717.481 404.296 717.023 404.363 716.607 404.479C716.21 404.574 716.018 404.782 716.03 405.102C716.048 405.561 716.258 405.833 716.662 405.918C719.746 406.481 721.527 407.794 722.006 409.858ZM730.25 398.856C730.296 399.014 730.322 399.164 730.327 399.303C730.351 399.943 730.182 400.49 729.819 400.944C729.228 401.207 728.633 401.349 728.034 401.372C727.645 401.147 727.315 400.889 727.044 400.599C726.792 400.289 726.66 399.983 726.649 399.684C726.639 399.424 726.914 398.773 727.475 397.731C727.736 397.761 728.007 397.781 728.288 397.79C728.588 397.798 728.86 397.838 729.103 397.909C729.366 397.979 729.59 398.091 729.776 398.244C729.981 398.376 730.139 398.58 730.25 398.856ZM729.481 403.899L729.496 404.289C729.5 404.389 729.504 404.499 729.508 404.618C729.513 404.738 729.497 404.849 729.461 404.95L729.273 406.309L729.283 406.578C729.287 406.698 729.283 406.859 729.271 407.059C729.259 407.26 729.236 407.461 729.204 407.662C729.192 407.863 729.179 408.053 729.166 408.234C729.153 408.415 729.148 408.565 729.153 408.685C729.157 408.785 729.16 408.865 729.162 408.925C729.184 408.984 729.197 409.063 729.201 409.163C729.208 409.343 729.196 409.544 729.164 409.765C729.132 409.967 729.12 410.197 729.13 410.457C729.139 410.697 729.179 410.946 729.249 411.203C729.063 412.111 728.621 412.578 727.921 412.605C726.942 412.642 726.417 411.741 726.347 409.903C726.324 409.283 726.33 408.672 726.367 408.07C726.404 407.449 726.452 406.876 726.512 406.354C726.572 405.831 726.635 405.378 726.701 404.996C726.785 404.592 726.854 404.279 726.905 404.057C727.188 403.606 727.6 403.37 728.139 403.35C728.659 403.33 729.106 403.513 729.481 403.899ZM742.186 401.224C742.413 401.395 742.535 401.721 742.554 402.2C742.587 403.08 742.274 403.532 741.615 403.557L741.495 403.562C741.196 403.593 740.847 403.636 740.449 403.692C740.05 403.727 739.602 403.784 739.104 403.863C739.077 404.184 739.053 404.615 739.034 405.156C739.013 405.678 739.017 406.308 739.046 407.047C739.048 407.107 739.05 407.167 739.052 407.227C739.075 407.286 739.087 407.356 739.09 407.436L739.143 408.815C739.155 409.135 739.215 409.393 739.322 409.589C739.449 409.764 739.594 409.889 739.757 409.962L740.607 410.2C741.275 410.395 741.62 410.782 741.642 411.362C741.655 411.701 741.526 412.007 741.256 412.277C741.006 412.547 740.671 412.69 740.252 412.706C740.132 412.71 739.921 412.688 739.619 412.64C739.336 412.57 739.032 412.482 738.708 412.374C738.404 412.266 738.108 412.127 737.821 411.957C737.555 411.788 737.367 411.595 737.259 411.378C737.022 410.927 736.824 410.454 736.665 409.96C736.505 409.446 736.414 408.909 736.393 408.349C736.37 407.73 736.363 407.29 736.373 407.029C736.383 406.768 736.394 406.538 736.407 406.337C736.419 406.137 736.43 405.896 736.439 405.615C736.449 405.335 736.441 404.875 736.417 404.235C736.038 404.29 735.483 404.431 734.752 404.659C734.312 404.676 733.928 404.58 733.6 404.373C733.291 404.144 733.129 403.84 733.115 403.46C733.104 403.181 733.174 402.918 733.325 402.672C733.496 402.425 733.847 402.202 734.38 402.001C734.558 401.934 734.716 401.888 734.855 401.863C735.014 401.837 735.164 401.811 735.303 401.786C735.462 401.76 735.631 401.743 735.811 401.737C735.99 401.71 736.209 401.671 736.467 401.622C736.468 401.121 736.477 400.56 736.493 399.939C736.529 399.297 736.596 398.705 736.696 398.16C736.815 397.615 736.988 397.158 737.214 396.79C737.459 396.4 737.792 396.197 738.212 396.181C738.931 396.154 739.383 396.467 739.568 397.12C739.569 397.14 739.544 397.281 739.494 397.543C739.463 397.785 739.424 398.056 739.375 398.359C739.327 398.661 739.278 398.953 739.228 399.235C739.199 399.516 739.186 399.697 739.189 399.777L739.155 401.249C739.294 401.224 739.424 401.209 739.544 401.204C739.663 401.18 739.792 401.165 739.932 401.159L740.202 401.149C740.342 401.144 740.472 401.139 740.592 401.134C740.711 401.11 740.82 401.096 740.92 401.092C741.52 401.069 741.942 401.113 742.186 401.224ZM753.448 408.661C753.411 409.282 753.223 409.86 752.883 410.393C752.563 410.906 752.232 411.429 751.892 411.962C751.679 412.15 751.365 412.313 750.95 412.448C750.556 412.604 750.16 412.729 749.763 412.824C749.367 412.919 749.019 412.992 748.721 413.044C748.443 413.094 748.324 413.119 748.364 413.117C748.164 413.125 747.902 413.095 747.58 413.027C747.278 412.978 746.975 412.92 746.672 412.851C746.39 412.802 746.148 412.741 745.945 412.669C745.763 412.616 745.682 412.589 745.702 412.588C745.521 412.575 745.289 412.524 745.005 412.435C744.721 412.325 744.446 412.206 744.181 412.076C743.935 411.925 743.719 411.773 743.533 411.62C743.326 411.448 743.22 411.282 743.214 411.122C743.208 410.962 743.242 410.8 743.316 410.638C743.389 410.455 743.493 410.291 743.627 410.145C743.761 409.98 743.896 409.855 744.033 409.77C744.189 409.664 744.347 409.608 744.507 409.601L746.605 410.302C746.99 410.408 747.363 410.483 747.725 410.53C748.106 410.555 748.476 410.561 748.836 410.547C749.176 410.535 749.473 410.463 749.729 410.333C750.003 410.183 750.207 410.015 750.34 409.83L750.755 408.913C750.702 408.555 750.541 408.281 750.274 408.091C750.026 407.9 749.71 407.742 749.325 407.617C748.96 407.491 748.565 407.375 748.141 407.272C747.717 407.168 747.321 407.023 746.954 406.836L745.634 406.076C745.194 405.552 744.942 404.731 744.88 403.613C744.973 402.909 745.251 402.338 745.715 401.9C745.734 401.879 745.861 401.784 746.094 401.615C746.327 401.426 746.688 401.162 747.175 400.824C747.255 400.821 747.504 400.791 747.922 400.735C748.36 400.678 748.958 400.596 749.714 400.487C750.054 400.474 750.892 400.682 752.23 401.112C752.499 401.361 752.643 401.716 752.66 402.176C752.674 402.536 752.596 402.849 752.426 403.115C752.275 403.361 752.04 403.49 751.72 403.503C751.381 403.516 750.998 403.45 750.572 403.306C750.165 403.142 749.782 403.066 749.423 403.08C748.923 403.099 748.465 403.166 748.049 403.282C747.653 403.377 747.46 403.585 747.472 403.905C747.49 404.364 747.7 404.636 748.104 404.721C751.188 405.284 752.969 406.597 753.448 408.661ZM608.905 449.489L608.912 449.669C608.904 449.989 608.876 450.301 608.827 450.603C608.799 450.904 608.72 451.207 608.592 451.512L608.041 452.824C607.89 453.05 607.649 453.3 607.319 453.572C606.989 453.845 606.629 454.099 606.237 454.334C605.846 454.569 605.453 454.774 605.06 454.949C604.665 455.104 604.338 455.187 604.079 455.197L603.779 455.208C603.679 455.212 603.54 455.237 603.361 455.284C603.202 455.31 603.033 455.347 602.855 455.393C602.697 455.44 602.548 455.485 602.41 455.53C602.272 455.576 602.172 455.6 602.113 455.602C602.124 455.902 602.122 456.102 602.105 456.203C602.109 456.302 602.104 456.443 602.091 456.623C602.099 456.823 602.101 457.143 602.098 457.584C602.115 458.024 602.142 458.743 602.18 459.742C602.191 460.022 602.173 460.353 602.128 460.735C602.082 461.117 602.019 461.57 601.939 462.093C601.688 462.323 601.352 462.446 600.933 462.462C600.533 462.477 600.23 462.398 600.023 462.226C599.816 462.054 599.668 461.839 599.578 461.583C599.508 461.325 599.468 461.066 599.459 460.807C599.469 460.566 599.472 460.366 599.466 460.206C599.451 459.826 599.459 459.516 599.49 459.274C599.522 459.053 599.53 458.742 599.515 458.343C599.507 458.123 599.487 457.883 599.458 457.624C599.448 457.385 599.438 457.115 599.427 456.815C599.409 456.355 599.403 455.925 599.408 455.525C599.432 455.123 599.457 454.732 599.483 454.351C599.388 453.954 599.322 453.266 599.284 452.287C599.251 451.408 599.273 450.686 599.352 450.123C599.208 449.488 599.097 448.942 599.019 448.484C598.961 448.006 598.927 447.627 598.916 447.347C598.899 446.888 598.996 446.544 599.207 446.316C599.419 446.087 599.784 445.963 600.304 445.944C600.664 445.93 600.946 445.989 601.151 446.122L601.465 446.47C601.817 446.256 602.25 446.08 602.765 445.94C603.28 445.78 603.827 445.689 604.406 445.667C605.765 445.616 606.827 445.905 607.592 446.537C608.375 447.147 608.813 448.132 608.905 449.489ZM606.145 450.345C606.193 450.023 606.213 449.752 606.205 449.532C606.191 449.172 606.05 448.877 605.781 448.647C605.531 448.397 605.146 448.281 604.627 448.301L604.327 448.312C603.927 448.328 603.667 448.317 603.545 448.282C603.048 448.361 602.51 448.682 601.931 449.244C601.932 449.284 601.947 449.404 601.974 449.603C602.002 449.802 602.022 450.081 602.036 450.441C602.054 450.901 602.038 451.292 601.991 451.614C601.943 451.936 601.924 452.227 601.934 452.486C601.938 452.586 601.942 452.696 601.946 452.816C601.951 452.936 601.983 452.995 602.043 452.993C602.103 452.99 602.213 452.976 602.372 452.95C602.53 452.904 602.689 452.858 602.847 452.812C603.004 452.746 603.153 452.7 603.292 452.675C603.45 452.629 603.55 452.605 603.59 452.604C603.709 452.599 603.848 452.564 604.006 452.498C604.183 452.431 604.351 452.364 604.509 452.298C604.686 452.232 604.834 452.166 604.951 452.101C605.089 452.036 605.188 452.002 605.248 452C605.713 451.602 606.012 451.05 606.145 450.345ZM620.558 444.992C620.885 445.18 621.059 445.554 621.081 446.113C621.097 446.533 621 446.897 620.792 447.205C620.583 447.513 620.289 447.675 619.91 447.689C619.67 447.698 619.418 447.648 619.153 447.538C618.908 447.407 618.646 447.347 618.366 447.358C618.126 447.367 617.888 447.426 617.652 447.535C617.435 447.623 617.183 447.823 616.894 448.134L616.029 449.068C616.035 449.208 616.04 449.347 616.045 449.487C616.071 449.627 616.086 449.776 616.092 449.936C616.102 450.176 616.101 450.426 616.091 450.687C616.101 450.946 616.101 451.227 616.093 451.527L616.467 454.245C616.442 455.166 615.989 455.644 615.11 455.677C614.65 455.695 614.305 455.568 614.075 455.297C613.844 455.005 613.678 454.601 613.578 454.085C613.479 453.568 613.415 452.96 613.389 452.26C613.382 451.56 613.353 450.791 613.301 449.952C613.213 448.695 613.159 448.066 613.139 448.067L613.14 448.097C613.049 447.8 612.979 447.543 612.931 447.324C612.882 447.086 612.854 446.877 612.847 446.697C612.833 446.337 612.952 446.043 613.203 445.813C613.454 445.563 613.829 445.429 614.329 445.41C614.649 445.398 615.038 445.633 615.497 446.116C615.943 445.739 616.282 445.455 616.515 445.266C616.768 445.077 616.973 444.939 617.13 444.853C617.307 444.766 617.475 444.72 617.635 444.713C617.794 444.687 618.003 444.669 618.263 444.66C618.482 444.631 618.683 444.634 618.864 444.667C619.065 444.699 619.277 444.731 619.498 444.763L620.558 444.992ZM628.557 440.755C628.603 440.913 628.629 441.063 628.634 441.202C628.659 441.842 628.489 442.389 628.126 442.843C627.536 443.106 626.941 443.248 626.341 443.271C625.952 443.046 625.622 442.788 625.351 442.498C625.099 442.188 624.968 441.882 624.956 441.583C624.946 441.323 625.222 440.672 625.782 439.63C626.044 439.66 626.315 439.68 626.595 439.689C626.896 439.698 627.167 439.737 627.41 439.808C627.673 439.878 627.898 439.99 628.084 440.143C628.289 440.275 628.447 440.479 628.557 440.755ZM627.789 445.798L627.803 446.188C627.807 446.288 627.811 446.398 627.816 446.517C627.82 446.637 627.805 446.748 627.768 446.849L627.58 448.208L627.59 448.477C627.595 448.597 627.591 448.758 627.579 448.958C627.566 449.159 627.544 449.36 627.511 449.561C627.499 449.762 627.486 449.952 627.473 450.133C627.46 450.314 627.456 450.464 627.46 450.584C627.464 450.684 627.467 450.764 627.469 450.824C627.492 450.883 627.505 450.963 627.509 451.062C627.515 451.242 627.503 451.443 627.471 451.664C627.439 451.866 627.428 452.096 627.438 452.356C627.447 452.596 627.486 452.845 627.556 453.102C627.371 454.01 626.928 454.477 626.229 454.504C625.249 454.541 624.725 453.64 624.655 451.802C624.631 451.182 624.638 450.571 624.675 449.969C624.711 449.348 624.76 448.775 624.82 448.253C624.88 447.73 624.943 447.277 625.008 446.895C625.093 446.491 625.161 446.178 625.213 445.956C625.496 445.505 625.907 445.269 626.447 445.249C626.966 445.229 627.414 445.412 627.789 445.798ZM643.166 451.007L643.175 451.247C643.179 451.366 643.188 451.586 643.2 451.906C643.231 452.205 643.213 452.516 643.145 452.839C643.098 453.161 642.979 453.456 642.789 453.723C642.598 453.97 642.303 454.102 641.903 454.117C641.124 454.147 640.652 453.854 640.489 453.24C640.504 453.12 640.509 452.989 640.504 452.849C640.498 452.689 640.491 452.52 640.484 452.34C640.481 452.26 640.47 451.97 640.451 451.47C640.431 450.951 640.39 450.392 640.327 449.794C640.285 449.195 640.203 448.638 640.084 448.122C639.963 447.586 639.8 447.252 639.595 447.12C639.123 446.818 638.708 446.673 638.348 446.687C637.868 446.705 637.464 446.871 637.136 447.183C636.827 447.475 636.578 448.045 636.39 448.893C636.381 449.174 636.373 449.494 636.367 449.855C636.36 450.195 636.345 450.586 636.321 451.027C636.334 451.367 636.359 451.746 636.395 452.165C636.43 452.564 636.477 453.023 636.537 453.541C636.552 453.92 636.414 454.246 636.124 454.517C635.833 454.768 635.498 454.901 635.118 454.916C634.819 454.927 634.576 454.856 634.39 454.703C634.204 454.55 634.056 454.346 633.946 454.09C633.856 453.833 633.786 453.555 633.734 453.257C633.703 452.958 633.682 452.659 633.67 452.359C633.662 452.139 633.663 451.919 633.675 451.698C633.686 451.458 633.707 451.217 633.738 450.975L633.868 448.088L634.053 446.64C634.004 446.402 633.914 446.145 633.783 445.87C633.653 445.595 633.585 445.377 633.578 445.217C633.565 444.878 633.684 444.563 633.933 444.273C634.202 443.983 634.536 443.83 634.936 443.815C635.216 443.804 635.428 443.856 635.572 443.971C635.716 444.065 635.956 444.316 636.292 444.724C636.684 444.529 637 444.407 637.238 444.357C637.476 444.288 637.755 444.248 638.074 444.236C639.114 444.196 640.032 444.411 640.831 444.881C641.649 445.33 642.179 446.121 642.422 447.252C642.498 447.67 642.561 448.018 642.612 448.296C642.683 448.573 642.743 448.841 642.793 449.1C642.843 449.358 642.893 449.636 642.945 449.934C642.995 450.213 643.069 450.57 643.166 451.007ZM657.202 450.923C656.852 451.737 656.257 452.4 655.416 452.912C654.574 453.404 653.624 453.671 652.564 453.711C652.424 453.716 652.194 453.705 651.872 453.677C651.551 453.65 651.188 453.583 650.784 453.479C650.4 453.373 649.994 453.229 649.567 453.045C649.159 452.84 648.778 452.574 648.426 452.248C648.072 451.901 647.776 451.482 647.537 450.99C647.298 450.499 647.166 449.914 647.14 449.234C647.086 448.336 647.175 447.512 647.406 446.762C647.658 446.012 648.069 445.246 648.64 444.464L649.552 443.198C650.642 442.396 651.887 441.968 653.286 441.915C654.045 441.886 654.65 442.003 655.101 442.266C655.571 442.529 655.816 442.92 655.836 443.439C655.851 443.839 655.714 444.174 655.424 444.446C655.153 444.696 654.788 444.83 654.328 444.848C654.308 444.848 654.228 444.841 654.087 444.827C653.966 444.791 653.825 444.757 653.663 444.723C653.502 444.689 653.341 444.665 653.18 444.651C653.019 444.617 652.888 444.602 652.788 444.606C652.328 444.624 651.808 444.884 651.227 445.386C650.665 445.888 650.235 446.665 649.934 447.717C649.811 448.162 649.755 448.524 649.766 448.804C649.787 449.364 649.954 449.798 650.265 450.106C650.597 450.414 650.957 450.65 651.343 450.816C651.729 450.961 652.083 451.058 652.405 451.105C652.726 451.133 652.897 451.147 652.917 451.146C653.197 451.135 653.473 451.045 653.747 450.874C654.021 450.704 654.264 450.514 654.476 450.306C654.708 450.097 654.892 449.92 655.026 449.775C655.16 449.609 655.217 449.527 655.197 449.528C655.39 449.34 655.616 449.242 655.876 449.232C656.196 449.22 656.492 449.379 656.765 449.708C657.057 450.018 657.209 450.342 657.222 450.682C657.226 450.782 657.219 450.862 657.202 450.923ZM670.868 452.084C670.253 452.748 669.554 453.315 668.772 453.785C667.99 454.275 667.189 454.535 666.37 454.567C665.63 454.595 664.676 454.511 663.508 454.315C663.098 454.071 662.687 453.776 662.273 453.432C661.859 453.067 661.484 452.671 661.147 452.244C660.81 451.796 660.532 451.316 660.312 450.804C660.092 450.272 659.971 449.727 659.949 449.167C659.943 449.007 659.945 448.797 659.955 448.536C659.965 448.256 659.975 447.985 659.985 447.725C660.014 447.443 660.035 447.202 660.047 447.002C660.06 446.801 660.066 446.701 660.066 446.701C660.441 446.046 660.837 445.4 661.253 444.764C661.688 444.107 662.306 443.523 663.108 443.012C664.396 442.683 665.33 442.507 665.91 442.485C666.209 442.474 666.47 442.484 666.691 442.516C666.912 442.527 667.124 442.579 667.328 442.672C667.551 442.743 667.765 442.865 667.972 443.037C668.199 443.209 668.457 443.429 668.748 443.698C669.081 444.026 669.339 444.246 669.524 444.359C669.728 444.472 669.832 444.578 669.836 444.678C669.906 446.516 669.384 447.787 668.27 448.49C667.777 448.689 667.135 448.913 666.344 449.164C665.552 449.394 664.47 449.625 663.098 449.858C663.407 450.606 663.798 451.162 664.272 451.524C664.746 451.886 665.273 452.056 665.853 452.034C666.712 452.002 667.772 451.451 669.032 450.382C669.225 450.195 669.472 450.095 669.771 450.084C670.091 450.072 670.376 450.181 670.625 450.412C670.894 450.642 671.035 450.936 671.049 451.296C671.058 451.556 670.998 451.818 670.868 452.084ZM667.237 445.797C666.833 445.192 666.372 444.899 665.852 444.919C665.632 444.928 665.394 444.967 665.136 445.037C664.879 445.106 664.612 445.207 664.337 445.337C664.081 445.447 663.836 445.586 663.602 445.755C663.389 445.924 663.216 446.12 663.084 446.346L662.819 447.256C663.496 447.171 664.094 447.098 664.612 447.038C665.13 446.978 665.577 446.901 665.954 446.807C666.331 446.712 666.626 446.591 666.841 446.443C667.055 446.295 667.187 446.079 667.237 445.797ZM681.802 441.55C682.028 441.722 682.151 442.047 682.169 442.527C682.203 443.406 681.89 443.858 681.23 443.884L681.11 443.888C680.811 443.919 680.463 443.963 680.064 444.018C679.665 444.053 679.217 444.11 678.72 444.189C678.692 444.511 678.668 444.942 678.649 445.483C678.629 446.004 678.633 446.634 678.661 447.374C678.663 447.434 678.666 447.494 678.668 447.554C678.69 447.613 678.703 447.682 678.706 447.762L678.758 449.141C678.77 449.461 678.83 449.719 678.938 449.915C679.065 450.09 679.209 450.215 679.372 450.289L680.222 450.527C680.89 450.721 681.235 451.109 681.257 451.688C681.27 452.028 681.141 452.333 680.872 452.603C680.622 452.873 680.287 453.016 679.867 453.032C679.747 453.037 679.536 453.015 679.234 452.966C678.951 452.897 678.648 452.808 678.323 452.7C678.019 452.592 677.724 452.453 677.437 452.284C677.17 452.114 676.983 451.921 676.874 451.705C676.637 451.254 676.439 450.781 676.28 450.286C676.12 449.772 676.03 449.235 676.009 448.676C675.985 448.056 675.978 447.616 675.988 447.355C675.998 447.095 676.01 446.864 676.022 446.664C676.034 446.463 676.045 446.222 676.055 445.942C676.064 445.661 676.056 445.201 676.032 444.562C675.654 444.616 675.099 444.757 674.367 444.985C673.927 445.002 673.543 444.907 673.215 444.699C672.906 444.471 672.745 444.167 672.73 443.787C672.72 443.507 672.79 443.244 672.94 442.998C673.111 442.752 673.463 442.528 673.996 442.328C674.173 442.261 674.332 442.215 674.471 442.189C674.63 442.163 674.779 442.138 674.918 442.112C675.077 442.086 675.247 442.07 675.427 442.063C675.606 442.036 675.824 441.998 676.083 441.948C676.084 441.448 676.092 440.887 676.109 440.266C676.144 439.624 676.212 439.031 676.311 438.487C676.431 437.942 676.603 437.485 676.829 437.116C677.075 436.726 677.407 436.524 677.827 436.508C678.546 436.48 678.999 436.793 679.184 437.447C679.184 437.467 679.16 437.608 679.11 437.87C679.079 438.111 679.039 438.383 678.991 438.685C678.942 438.987 678.893 439.279 678.844 439.561C678.815 439.842 678.801 440.023 678.804 440.103L678.77 441.575C678.91 441.55 679.039 441.535 679.159 441.531C679.278 441.506 679.408 441.491 679.548 441.486L679.817 441.476C679.957 441.47 680.087 441.465 680.207 441.461C680.326 441.436 680.436 441.422 680.536 441.418C681.135 441.395 681.557 441.439 681.802 441.55ZM692.866 451.696C692.613 451.886 692.2 452.082 691.628 452.284C691.054 452.466 690.46 452.629 689.845 452.772L688.607 452.579C688.424 452.526 688.119 452.398 687.691 452.194C687.283 451.989 686.861 451.675 686.425 451.251C685.987 450.808 685.596 450.242 685.249 449.555C684.902 448.847 684.709 447.984 684.67 446.965C684.656 446.605 684.72 446.182 684.862 445.697C685.023 445.19 685.265 444.721 685.589 444.288C685.912 443.835 686.318 443.45 686.806 443.131C687.314 442.811 687.908 442.639 688.587 442.613C689.946 442.561 691.192 442.954 692.325 443.791C693.335 445.074 693.87 446.515 693.931 448.113C693.975 449.293 693.621 450.487 692.866 451.696ZM691.235 447.496C691.106 446.72 690.832 446.12 690.416 445.695C690.019 445.25 689.52 445.039 688.921 445.062C688.521 445.077 688.149 445.291 687.804 445.705C687.479 446.097 687.331 446.663 687.359 447.403C687.37 447.703 687.422 448.021 687.515 448.358C687.607 448.674 687.749 448.969 687.939 449.242C688.129 449.495 688.367 449.706 688.654 449.875C688.94 450.025 689.282 450.092 689.682 450.076C690.322 450.052 690.754 449.845 690.98 449.457C691.204 449.048 691.305 448.554 691.283 447.974C691.28 447.894 691.268 447.825 691.245 447.765C691.242 447.685 691.239 447.595 691.235 447.496ZM707.514 448.557L707.523 448.797C707.527 448.917 707.536 449.137 707.548 449.456C707.579 449.755 707.561 450.066 707.493 450.389C707.445 450.711 707.327 451.006 707.137 451.273C706.946 451.521 706.651 451.652 706.251 451.667C705.472 451.697 705 451.405 704.837 450.79C704.852 450.67 704.857 450.539 704.852 450.4C704.846 450.24 704.839 450.07 704.832 449.89C704.829 449.81 704.818 449.52 704.799 449.021C704.779 448.501 704.738 447.942 704.675 447.344C704.633 446.745 704.551 446.188 704.432 445.672C704.311 445.136 704.148 444.802 703.943 444.67C703.471 444.368 703.055 444.223 702.696 444.237C702.216 444.255 701.812 444.421 701.484 444.734C701.175 445.026 700.926 445.595 700.738 446.443C700.729 446.724 700.721 447.044 700.715 447.405C700.708 447.745 700.693 448.136 700.669 448.577C700.682 448.917 700.707 449.296 700.743 449.715C700.778 450.114 700.825 450.573 700.885 451.091C700.9 451.471 700.762 451.796 700.472 452.067C700.181 452.319 699.846 452.451 699.466 452.466C699.167 452.477 698.924 452.407 698.738 452.254C698.552 452.1 698.404 451.896 698.294 451.64C698.204 451.383 698.134 451.106 698.082 450.807C698.051 450.508 698.03 450.209 698.018 449.909C698.01 449.689 698.011 449.469 698.023 449.249C698.034 449.008 698.055 448.767 698.086 448.526L698.216 445.639L698.401 444.191C698.352 443.952 698.262 443.695 698.131 443.42C698.001 443.145 697.932 442.927 697.926 442.768C697.913 442.428 698.032 442.113 698.281 441.823C698.55 441.533 698.884 441.38 699.284 441.365C699.564 441.354 699.776 441.406 699.92 441.521C700.064 441.615 700.304 441.866 700.64 442.274C701.032 442.079 701.348 441.957 701.586 441.908C701.824 441.839 702.102 441.798 702.422 441.786C703.461 441.746 704.38 441.961 705.179 442.431C705.996 442.881 706.527 443.671 706.77 444.803C706.846 445.22 706.909 445.568 706.96 445.846C707.031 446.124 707.091 446.392 707.141 446.65C707.191 446.908 707.241 447.186 707.293 447.485C707.343 447.763 707.417 448.12 707.514 448.557ZM728.943 436.933C728.99 437.092 729.015 437.241 729.021 437.381C729.045 438.02 728.876 438.567 728.513 439.021C727.922 439.284 727.327 439.427 726.728 439.449C726.339 439.224 726.009 438.966 725.737 438.677C725.485 438.366 725.354 438.061 725.342 437.761C725.332 437.501 725.608 436.85 726.169 435.808C726.43 435.838 726.701 435.858 726.982 435.867C727.282 435.876 727.554 435.915 727.797 435.986C728.059 436.056 728.284 436.168 728.47 436.321C728.675 436.453 728.833 436.657 728.943 436.933ZM728.175 441.976L728.19 442.366C728.193 442.466 728.198 442.576 728.202 442.696C728.207 442.816 728.191 442.926 728.155 443.028L727.966 444.386L727.977 444.656C727.981 444.776 727.977 444.936 727.965 445.136C727.952 445.337 727.93 445.538 727.898 445.739C727.885 445.94 727.873 446.131 727.859 446.311C727.846 446.492 727.842 446.642 727.847 446.762C727.85 446.862 727.853 446.942 727.856 447.002C727.878 447.061 727.891 447.141 727.895 447.241C727.902 447.421 727.889 447.621 727.858 447.843C727.825 448.044 727.814 448.274 727.824 448.534C727.833 448.774 727.873 449.023 727.942 449.28C727.757 450.188 727.314 450.655 726.615 450.682C725.636 450.719 725.111 449.818 725.041 447.98C725.017 447.36 725.024 446.75 725.061 446.148C725.098 445.526 725.146 444.954 725.206 444.431C725.266 443.908 725.329 443.456 725.394 443.073C725.479 442.669 725.547 442.356 725.599 442.134C725.882 441.683 726.293 441.447 726.833 441.427C727.353 441.407 727.8 441.59 728.175 441.976ZM743.552 447.185L743.561 447.425C743.566 447.545 743.574 447.765 743.586 448.084C743.618 448.383 743.599 448.694 743.532 449.017C743.484 449.339 743.365 449.634 743.175 449.901C742.984 450.149 742.689 450.28 742.289 450.295C741.51 450.325 741.038 450.033 740.875 449.418C740.89 449.298 740.895 449.167 740.89 449.028C740.884 448.868 740.877 448.698 740.871 448.518C740.868 448.438 740.857 448.148 740.838 447.649C740.818 447.129 740.776 446.57 740.714 445.972C740.671 445.373 740.59 444.816 740.47 444.3C740.349 443.764 740.187 443.43 739.981 443.298C739.51 442.996 739.094 442.851 738.734 442.865C738.254 442.883 737.85 443.049 737.522 443.362C737.213 443.654 736.964 444.223 736.777 445.071C736.767 445.352 736.759 445.672 736.753 446.033C736.746 446.373 736.731 446.764 736.708 447.205C736.721 447.545 736.745 447.924 736.781 448.343C736.816 448.742 736.864 449.201 736.923 449.719C736.938 450.099 736.8 450.424 736.51 450.695C736.22 450.947 735.884 451.079 735.505 451.094C735.205 451.105 734.962 451.035 734.776 450.882C734.59 450.728 734.442 450.524 734.332 450.268C734.243 450.011 734.172 449.734 734.121 449.435C734.089 449.136 734.068 448.837 734.056 448.537C734.048 448.317 734.05 448.097 734.061 447.877C734.072 447.636 734.093 447.395 734.124 447.154L734.254 444.267L734.439 442.819C734.39 442.58 734.3 442.323 734.17 442.048C734.039 441.773 733.971 441.555 733.965 441.396C733.952 441.056 734.07 440.741 734.319 440.451C734.588 440.161 734.923 440.008 735.322 439.993C735.602 439.982 735.814 440.034 735.959 440.149C736.102 440.243 736.342 440.494 736.678 440.902C737.071 440.707 737.386 440.585 737.625 440.536C737.862 440.467 738.141 440.426 738.461 440.414C739.5 440.374 740.419 440.589 741.217 441.059C742.035 441.509 742.565 442.299 742.809 443.431C742.884 443.848 742.948 444.196 742.998 444.474C743.069 444.752 743.129 445.02 743.179 445.278C743.229 445.536 743.28 445.814 743.331 446.113C743.382 446.391 743.455 446.748 743.552 447.185ZM753.166 449.251C753.173 449.431 753.12 449.613 753.007 449.797C752.914 449.981 752.78 450.136 752.605 450.263C752.45 450.409 752.264 450.526 752.047 450.614C751.851 450.722 751.663 450.779 751.484 450.786C751.004 450.804 750.612 450.749 750.306 450.621C750.002 450.512 749.766 450.361 749.599 450.167C749.451 449.973 749.343 449.767 749.275 449.549C749.226 449.311 749.197 449.092 749.19 448.892C749.181 448.652 749.212 448.411 749.282 448.168C749.372 447.904 749.494 447.669 749.646 447.463C749.798 447.257 749.982 447.09 750.197 446.962C750.412 446.814 750.659 446.734 750.939 446.724C751.119 446.717 751.329 446.729 751.57 446.76C751.832 446.79 752.076 446.89 752.303 447.062C752.529 447.233 752.719 447.496 752.873 447.851C753.046 448.185 753.144 448.651 753.166 449.251ZM763.442 448.86C763.449 449.039 763.396 449.222 763.283 449.406C763.19 449.59 763.056 449.745 762.88 449.872C762.726 450.018 762.54 450.135 762.323 450.223C762.127 450.331 761.939 450.388 761.759 450.395C761.28 450.413 760.887 450.358 760.582 450.229C760.278 450.121 760.042 449.97 759.874 449.776C759.727 449.581 759.619 449.375 759.551 449.158C759.502 448.919 759.473 448.7 759.466 448.501C759.456 448.261 759.487 448.019 759.558 447.776C759.648 447.513 759.769 447.278 759.922 447.072C760.074 446.866 760.258 446.699 760.473 446.571C760.687 446.423 760.935 446.343 761.214 446.332C761.394 446.326 761.605 446.338 761.846 446.368C762.108 446.399 762.352 446.499 762.578 446.671C762.805 446.842 762.995 447.105 763.149 447.46C763.322 447.793 763.419 448.26 763.442 448.86ZM773.718 448.468C773.725 448.648 773.672 448.83 773.559 449.015C773.466 449.198 773.331 449.354 773.156 449.48C773.001 449.626 772.816 449.744 772.599 449.832C772.403 449.939 772.215 449.997 772.035 450.003C771.555 450.022 771.163 449.967 770.858 449.838C770.554 449.73 770.318 449.578 770.15 449.385C770.003 449.19 769.895 448.984 769.826 448.767C769.777 448.528 769.749 448.309 769.741 448.109C769.732 447.87 769.763 447.628 769.834 447.385C769.924 447.122 770.045 446.887 770.197 446.681C770.35 446.475 770.533 446.308 770.749 446.18C770.963 446.031 771.21 445.952 771.49 445.941C771.67 445.934 771.881 445.946 772.122 445.977C772.383 446.007 772.627 446.108 772.854 446.28C773.081 446.451 773.271 446.714 773.424 447.068C773.597 447.402 773.695 447.869 773.718 448.468Z" fill="#222222"/>
<path d="M822.748 494C819.715 491.452 814.102 487.755 813.673 483.465C813.516 481.895 812.202 479.495 814.807 479.495C816.949 479.495 817.719 479.547 819.345 480.503C819.893 480.826 823.39 483.792 823.441 483.78C823.854 483.689 823.88 482.746 824.008 482.457C824.443 481.479 825.819 480.827 826.718 480.377C828.366 479.553 830.522 478.413 832.39 478.361C835.684 478.269 835.908 478.428 835.793 481.638C835.588 487.362 827.44 493.597 822.748 495.943" stroke="black" stroke-width="3" stroke-linecap="round"/>
</svg>
