<svg width="762" height="283" viewBox="0 0 762 283" fill="none" xmlns="http://www.w3.org/2000/svg">
<path d="M12 188.848C12 205.137 20.1366 220.427 24.0213 236.031C26.0024 243.989 28.5884 251.937 31.248 259.692C32.9065 264.527 35.9561 270.598 41.0805 272.594C51.3129 276.581 59.3561 271.141 66.6519 263.877C80.0575 250.53 82.9558 228.698 87.5329 211.402C90.0589 201.857 90.9569 191.42 94.0647 182.138C95.2267 178.667 96.1102 177.058 94.8985 182.138C93.9398 186.157 92.0516 189.923 90.8335 193.864C89.4246 198.423 88.6393 203.197 87.3591 207.805C82.0633 226.867 72.4555 244.466 72.6625 264.673C72.7304 271.296 75.0053 273.618 81.418 273.528C90.1395 273.406 96.2086 265.44 100.77 258.931C105.32 252.437 114 234.302 99.5542 234.302C92.3977 234.302 88.532 241.408 87.4286 248C86.161 255.572 87.7459 261.543 94.4121 265.434C97.6348 267.315 100.299 264.509 102.334 262.182C107.401 256.389 110.39 250.373 112.548 243.019C114.029 237.971 114.202 232.595 116.926 228.075C117.044 227.88 117.065 231.619 117.065 232.261C117.065 237.492 116.874 242.752 117.378 247.965C117.748 251.797 117.337 261.417 121.165 263.843C125.649 266.684 128.882 261.557 130.615 257.928C138.773 240.843 143.384 221.136 148.091 202.927C150.354 194.174 152.553 185.315 155.214 176.672C155.35 176.23 156.286 173.095 156.325 173.213C156.643 174.161 156.227 175.727 156.047 176.603C155.04 181.526 153.359 186.343 152.087 191.201C149.228 202.113 146.335 213.144 144.096 224.201C143.704 226.135 136.409 265.434 140.587 265.434C144.999 265.434 149.585 263.895 153.893 263.082C160.042 261.921 165.083 259.953 170.223 256.371C176.877 251.733 188.751 242.903 188.359 233.541C188.238 230.639 184.877 228.919 182.21 229.597C172.786 231.992 167.396 243.485 164.455 251.597C161.531 259.666 159.722 268.559 167.061 274.635C173.784 280.2 181.557 281 189.957 281C196.649 281 203.329 279.741 208.684 275.396C213.259 271.685 215.744 264.677 217.752 259.346C218.884 256.342 219.615 253.268 220.567 250.214C221.298 247.869 222.193 244.415 223.103 248.865C224.531 255.845 225.737 262.828 226.369 269.931C226.631 272.879 226.279 273.556 226.855 270.277C228.123 263.062 230.182 255.912 232.275 248.899C233.87 243.557 235.678 237.437 239.919 233.506C247.552 226.431 253.711 238.261 255.554 244.056C258.287 252.655 257.621 265.533 264.517 272.145C270.614 277.99 279.5 253.207 280.152 250.075C283.292 235.001 285.766 219.823 289.046 204.761C290.886 196.315 293.099 187.897 294.328 179.336C294.756 176.35 296.402 172.081 295.891 169.028C295.808 168.532 292.93 174.883 292.66 175.565C289.324 183.978 287.313 192.992 285.989 201.924C283.429 219.202 280.92 240.279 288.907 256.44C292.243 263.189 297.524 269.058 305.619 267.267C307.397 266.874 310.164 261.492 310.97 260.038C315.658 251.577 319.889 242.315 321.879 232.849C323.086 227.107 321.984 209.47 322.817 215.276C325.194 231.843 329.071 248.635 329.071 265.434C329.071 266.322 329.375 267.181 330.044 265.849C332.537 260.884 333.812 255.148 335.951 250.006C339.154 242.306 342.957 231.789 351.272 228.11C357.868 225.191 360.071 230.583 362.599 235.616C366.633 243.648 371.523 251.096 379.693 255.402C386.134 258.798 392.145 257.389 396.891 252.012C400.092 248.386 401.911 243.427 402.728 238.729C403.342 235.198 404.631 229.098 402.103 225.861C400.816 224.215 397.77 224.204 395.918 224.408C391.042 224.948 388.098 229.19 385.981 233.195C382.21 240.328 378.684 255.648 386.607 261.317C393.953 266.574 408.848 270.687 416 263.566" stroke="black" stroke-width="3" stroke-linecap="round"/>
<path d="M38.8638 17.9116C30.1253 18.3278 20.1085 26.0171 14.8086 32.7001C7.62905 41.7535 2 55.4089 2 66.9637C2 80.2801 8.08322 96.456 17.9327 105.671C28.0389 115.126 42.9923 113.48 54.7965 108.795C67.7364 103.66 78.8569 95.4542 85.1345 82.8979C87.4956 78.1751 90.2399 71.5135 88.5362 66.0611C87.6838 63.333 85.9297 61.0275 82.8782 61.0275C76.437 61.0275 73.8288 69.9403 72.916 74.8093C71.8007 80.7577 71.9033 86.7231 71.9787 92.7569C72.0213 96.1617 73.4146 99.6504 76.3524 101.609C84.862 107.283 88.5172 94.8613 89.7858 88.7994C90.7297 84.2892 91.3479 80.14 91.3479 75.5383C91.3479 74.9113 90.812 70.4981 91.7297 70.1922C93.3089 69.6658 103.286 81.4957 104.608 82.8979C109.674 88.2713 115.603 94.338 122.554 97.2004C131.088 100.715 136.663 93.4053 140.361 86.6818C143.182 81.551 141.001 74.9516 143.589 69.7756C145.701 65.5517 151.047 63.1082 155.426 62.3119C163.235 60.8919 163.333 81.339 164.069 84.5642C165.511 90.8885 172.884 100.52 179.307 93.3818C180.969 91.5353 182.248 88.4051 183.23 86.1958C187.838 75.8259 192.47 64.9257 195.552 54.0151C200.138 37.7822 200.69 21.5175 200.69 4.78937C200.69 3.52926 200.725 2.67229 199.475 2.04689C198.699 1.65873 199.44 3.78256 199.44 4.65051C199.44 7.194 199.366 9.75071 199.579 12.2878C200.698 25.5923 203.293 38.8854 204.924 52.1405C205.645 57.9964 205.688 64.4953 205.688 70.4005C205.688 74.6088 205.784 78.8297 205.688 83.0367C205.52 90.4163 199.07 97.0007 191.803 97.2698C188.063 97.4084 185.147 94.9104 183.334 91.646C181.439 88.2355 181.842 85.1397 181.182 81.5093C175.862 52.2464 220.872 66.5041 234.915 58.3892C238.186 56.4994 241.302 53.4628 241.302 49.4674C241.302 45.0659 234.265 45.4748 231.965 47.3151C227.823 50.629 225.268 56.5286 223.322 61.3052C220.518 68.1865 218.809 75.448 218.809 82.8631C218.809 86.2295 218.34 91.7023 222.558 92.7569C226.412 93.7205 229.14 91.4609 231.618 88.7994C235.482 84.6488 237.971 79.3536 240.053 74.1497C241.731 69.954 244.426 65.3452 244.426 60.7498C244.426 60.2077 244.144 57.2797 245.051 58.6669C247.427 62.3011 249.228 66.8532 251.299 70.7129C256.034 79.5381 259.805 86.1505 269.419 90.0838C276.939 93.1606 282.598 92.2804 289.378 87.6191C293.188 84.9992 295.62 76.1654 296.91 71.6502C297.775 68.6233 298.475 62.9871 296.876 60.0555C294.773 56.2007 290.684 56.7157 289.066 60.5415C284.844 70.5206 285.158 80.4091 293.543 88.1745C298.608 92.8643 306.411 94.0721 313.017 94.1455C316.877 94.1884 323.641 95.425 327.179 93.1735C329.334 91.8021 331.048 89.1751 332.663 87.2719C334.64 84.9444 341.272 80.6464 341.272 77.5518C341.272 75.5376 342.044 73.0817 342.66 71.1642C343.692 67.9547 345.07 68.6585 348.249 68.4912C356.056 68.0802 379.816 65.6584 376.261 53.3208C373.715 44.4842 358.466 50.2289 354.532 54.2928C348.505 60.5183 346.201 76.5759 352.241 83.1061C359.455 90.9064 367.546 94.9148 378.032 96.2631C386.244 97.3191 391.804 93.8372 398.616 89.9103C403.86 86.8869 409.643 79.3322 416.249 79.1487C418.1 79.0972 420.705 78.6752 422.15 80.1207C424.437 82.4077 424.97 87.486 424.997 90.4657C425.08 99.7356 423.695 107.32 416.874 114.141C410.213 120.803 401.956 122.819 393.756 126.639C388.038 129.302 381.475 131.061 375.255 131.95C360.811 134.014 345.269 133.474 330.789 132.471C301.42 130.435 272.336 125.851 242.899 124.486C223.095 123.568 203.293 123.514 183.473 123.514C160.314 123.514 137.104 123.112 113.945 123.549C102.997 123.756 91.6184 125.059 81.0038 127.819C65.393 131.878 49.1042 136.989 35.8786 146.496C28.5538 151.761 20.5153 159.878 17.4814 168.644C16.1436 172.509 14.705 176.65 13.1077 180.377C12.5555 181.666 12.6218 182.749 12.6218 184.161" stroke="black" stroke-width="3" stroke-linecap="round"/>
<path d="M417.702 262.583C425.178 255.108 433.313 249.159 433.313 237.467C433.313 230.098 428.074 224.631 424.883 218.249C421.307 211.097 420.073 203.057 422.212 195.145C423.482 190.445 427.505 186.351 429.705 182.032C432.029 177.471 436.381 175.354 440.841 173.255C450.317 168.796 458.2 166.421 468.767 166.421C471.75 166.421 474.811 166.216 477.786 166.421C480.274 166.593 483.532 168.774 485.765 169.89C488.108 171.062 490.279 172.459 492.634 173.637C496.246 175.443 501.423 174.639 505.331 174.053C512.469 172.982 521.351 167.93 525.312 161.807C527.305 158.727 527.652 154.626 529.822 151.469C532.128 148.116 534.699 144.337 537.593 141.444C546.601 132.436 557.92 127.88 569.751 123.682C579.727 120.143 592.34 117.751 602.256 122.433C603.762 123.144 606.084 122.711 607.668 122.711C611.738 122.711 615.809 122.711 619.879 122.711C626.095 122.711 632.213 123.335 638.439 123.335C649.671 123.335 659.106 119.304 668.862 113.969C672.448 112.008 676.478 111.197 679.963 108.973C682.683 107.238 685.405 105.561 688.22 103.978C695.099 100.108 701.939 95.5157 709.346 92.7382C726.126 86.4457 742.607 80.5922 759.891 75.8785" stroke="#FF4F4F" stroke-width="3" stroke-linecap="round"/>
</svg>
