<svg width="81" height="73" viewBox="0 0 81 73" fill="none" xmlns="http://www.w3.org/2000/svg">
<mask id="path-1-outside-1_4_295" maskUnits="userSpaceOnUse" x="0.947083" y="0.451294" width="80" height="72" fill="black">
<rect fill="white" x="0.947083" y="0.451294" width="80" height="72"/>
<path d="M29.0295 10.4513C4.39003 10.4513 12.0843 47.8584 12.0843 62.1712C29.2732 56.4416 52.1279 62.3708 66.9722 50.8253C71.6274 47.2046 70.7302 38.0147 70.435 32.9959C70.0902 27.1348 50.8635 31.2914 47.8167 31.5961C42.8272 32.095 37.8517 34.322 32.8606 34.322C30.6199 34.322 35.955 30.5951 35.955 28.3543C35.955 19.8946 39.3554 10.4513 29.0295 10.4513Z"/>
</mask>
<path d="M12.0843 62.1712H2.08426C2.08426 65.3857 3.62947 68.4041 6.23716 70.2837C8.84484 72.1632 12.1971 72.6746 15.2465 71.6581L12.0843 62.1712ZM47.8167 31.5961L46.8217 21.6457L46.8217 21.6457L47.8167 31.5961ZM70.435 32.9959L80.4177 32.4087L80.4177 32.4087L70.435 32.9959ZM66.9722 50.8253L73.1116 58.7188L66.9722 50.8253ZM22.0843 62.1712C22.0843 58.1975 21.5484 52.3654 21.2485 47.4435C20.9195 42.0439 20.7736 36.6978 21.2636 31.9764C21.7709 27.089 22.8531 24.0624 24.043 22.4445C24.7859 21.4343 25.8488 20.4513 29.0295 20.4513V0.451294C19.8905 0.451294 12.6754 4.14417 7.93109 10.5951C3.63383 16.4383 2.01961 23.6581 1.37052 29.9115C0.704207 36.331 0.941891 43.0204 1.28554 48.66C1.65831 54.7775 2.08426 58.9886 2.08426 62.1712H22.0843ZM29.0295 20.4513C30.2017 20.4513 29.1472 20.721 27.7872 19.5C26.4346 18.2856 26.3848 17.0302 26.4465 17.5089C26.5201 18.0799 26.5146 19.1095 26.3536 21.2314C26.2197 22.9959 25.955 25.7446 25.955 28.3543H45.955C45.955 26.7342 46.1153 25.1301 46.2963 22.7447C46.4502 20.7166 46.6494 17.7992 46.2824 14.952C45.9035 12.0123 44.7677 7.86735 41.1486 4.61801C37.522 1.36197 33.0203 0.451294 29.0295 0.451294V20.4513ZM25.955 28.3543C25.955 26.7276 26.4154 25.5874 26.6017 25.171C26.7148 24.9182 26.8146 24.7404 26.8705 24.6458C26.928 24.5487 26.9641 24.4975 26.9641 24.4975C26.9651 24.4961 26.9459 24.5235 26.8987 24.584C26.852 24.6439 26.7887 24.7224 26.7036 24.8246C26.5151 25.0507 26.3235 25.2693 26.0212 25.617C25.772 25.9036 25.3747 26.3607 25.0017 26.8339C24.7096 27.2045 23.9784 28.1418 23.3886 29.367C23.0894 29.9884 22.5765 31.1856 22.3859 32.7672C22.1822 34.4586 22.3122 37.0442 23.9471 39.5784C25.5653 42.0869 27.8289 43.2577 29.3801 43.7719C30.8556 44.2609 32.1378 44.322 32.8606 44.322V24.322C33.3034 24.322 34.3647 24.3541 35.6721 24.7874C37.0554 25.2458 39.2038 26.3344 40.7535 28.7366C42.3197 31.1646 42.4278 33.6199 42.2423 35.1594C42.0701 36.5892 41.6157 37.6132 41.4091 38.0423C41.1718 38.5352 40.9511 38.8701 40.8641 38.9985C40.8108 39.0771 40.7695 39.134 40.7459 39.1658C40.7335 39.1826 40.7241 39.195 40.718 39.2029C40.712 39.2107 40.7087 39.215 40.7084 39.2153C40.7083 39.2154 40.717 39.2045 40.7368 39.1804C40.7565 39.1565 40.7834 39.1242 40.8195 39.0815C40.8952 38.9922 40.9872 38.8857 41.1139 38.74C41.5099 38.2845 42.5136 37.1598 43.3487 35.9667C43.789 35.3377 44.3667 34.4369 44.8586 33.3372C45.3278 32.2881 45.955 30.5413 45.955 28.3543H25.955ZM32.8606 44.322C36.7055 44.322 40.2604 43.4699 42.7509 42.851C45.6197 42.1381 47.2228 41.7053 48.8117 41.5464L46.8217 21.6457C43.4211 21.9857 40.0417 22.916 37.9276 23.4413C35.4353 24.0607 34.0069 24.322 32.8606 24.322V44.322ZM48.8117 41.5464C49.5563 41.472 50.5269 41.3155 51.2348 41.2018C52.0918 41.0642 53.0286 40.9104 54.0948 40.7478C56.2323 40.4219 58.6044 40.1066 60.7964 39.9622C63.1897 39.8045 64.5366 39.9154 64.9761 40.0149C65.1995 40.0655 64.366 39.9384 63.2852 39.0834C61.8866 37.9771 60.596 36.0274 60.4522 33.5831L80.4177 32.4087C80.1877 28.4991 78.2209 25.3972 75.693 23.3975C73.4828 21.6493 71.0668 20.8876 69.3916 20.5084C66.0339 19.7484 62.3191 19.8185 59.4817 20.0055C56.4432 20.2056 53.4157 20.6203 51.0805 20.9763C49.9104 21.1546 48.8426 21.3297 48.0635 21.4548C47.6588 21.5198 47.3461 21.5691 47.101 21.6055C46.8281 21.646 46.7663 21.6512 46.8217 21.6457L48.8117 41.5464ZM60.4522 33.5831C60.6225 36.4774 60.8342 39.0729 60.6048 41.4896C60.4966 42.6289 60.3189 43.2853 60.2038 43.5801C60.102 43.8407 60.209 43.4169 60.8328 42.9317L73.1116 58.7188C78.8753 54.2359 80.1387 47.3453 80.5152 43.3802C80.9271 39.0421 80.5427 34.5332 80.4177 32.4087L60.4522 33.5831ZM60.8328 42.9317C55.9923 46.6966 49.3177 48.0342 39.7124 48.7034C31.1696 49.2986 19.0997 49.2918 8.92198 52.6844L15.2465 71.6581C22.2578 69.321 30.2097 69.414 41.1025 68.655C50.9328 67.9701 63.1079 66.4995 73.1116 58.7188L60.8328 42.9317Z" fill="#F04C4C" mask="url(#path-1-outside-1_4_295)"/>
</svg>
