<svg width="684" height="507" viewBox="0 0 684 507" fill="none" xmlns="http://www.w3.org/2000/svg">
<path d="M30.4891 136.05C30.4891 130.896 31.6385 126.594 32.7436 121.621C33.9022 116.408 34.6848 110.484 36.9822 105.659C40.0803 99.153 44.8013 91.7861 51.1409 88.1635C55.6465 85.5888 61.5254 87.2292 66.3817 85.5482C72.0045 83.6019 74.6124 78.0321 81.4422 80.2274C85.7978 81.6274 91.267 81.5511 95.2401 84.1053C99.7967 87.0345 104.647 91.0255 110.03 92.2217C125.428 95.6435 140.527 100.839 155.843 104.757C188.95 113.226 222.555 115.867 256.486 119.637C259.586 119.982 262.15 119.159 265.054 119.006C270.297 118.73 275.634 119.988 280.836 120.449C293.466 121.567 306.022 122.616 318.622 123.876C328.265 124.84 337.049 127.122 346.849 127.122C355.548 127.122 363.655 128.17 372.146 129.918C381.975 131.942 391.306 135.545 401.41 136.05C403.748 136.167 407.931 138.14 410.067 138.981C416.843 141.651 421.905 146.99 428.374 149.848C437.617 153.932 446.595 158.548 456.151 162.023C463.875 164.832 469.277 171.9 477.388 174.603C487.966 178.129 496.227 183.782 504.849 190.836C506.286 192.012 509.219 195.21 509.989 196.924C511.518 200.32 509.84 206.205 510.215 209.955C511.102 218.823 512.574 226.799 519.098 232.636C525.525 238.387 538.113 229.161 541.824 223.888C546.477 217.276 549.008 209.78 549.895 201.793C550.542 195.969 550.902 190.566 552.195 184.749C553.215 180.157 561.515 178.664 565.722 176.633C570.772 174.195 576.721 173.423 582 171.357C586.049 169.772 589.836 167.633 593.949 166.262C598.951 164.594 604.788 162.133 609.145 159.137C614.694 155.322 620.185 153.448 626.235 150.48C630.95 148.167 635.259 145.412 638.409 141.101C640.975 137.59 641.334 135.407 641.701 130.82C642.098 125.861 646.874 106.672 653.876 108.86C658.103 110.181 660.732 112.196 664.382 114.542C667.736 116.698 668.81 122.304 671.055 125.499C675.109 131.268 678.991 139.513 678.991 146.602C678.991 152.26 665.844 157.269 661.496 160.4C655.765 164.526 650.081 168.331 647.337 175.19C645.635 179.445 645.142 184.319 642.873 188.401C641.606 190.682 643.349 195.573 645.308 196.878C647.217 198.151 652.657 199.807 653.65 201.793C655.689 205.871 648.105 209.954 645.714 212.345C642.657 215.402 640.325 218.882 636.606 221.273C628.06 226.767 624.189 233.32 621.996 243.187C619.857 252.812 617.307 262.67 617.307 272.587C617.307 284.82 610.002 295.675 610.002 307.848C610.002 313.909 609.224 319.97 606.755 325.524C603.811 332.148 601.066 335.586 595.392 340.629C588.01 347.192 582.886 357.006 577.581 365.294C574.078 370.767 570.796 376.68 567.796 382.429C565.142 387.517 561.148 391.676 559.229 397.084C556.83 403.843 554.596 409.582 554.81 416.879C554.866 418.788 557.097 419.459 558.237 420.937C559.843 423.018 561.135 425.16 562.115 427.61C564.78 434.274 566.387 441.024 570.637 446.909C573.308 450.607 576.901 455.034 578.528 459.264C580.292 463.849 580.698 468.195 582 472.882C583.329 477.664 582.406 483.451 582.406 488.393C582.406 494.449 581.754 497.711 575.913 500.478C559.739 508.139 548.62 484.484 544.439 472.702C542.547 467.37 541.105 461.612 536.954 457.461C533.061 453.567 526.895 452.723 522.39 449.344C510.558 440.471 499.155 428.995 491.908 416.112C487.531 408.332 476.876 406.175 468.776 406.327C465.512 406.389 459.775 407.818 458.405 411.197C457.55 413.306 457.383 416.115 456.151 418.051C454.692 420.343 452.618 423.106 449.928 424.003C440.136 427.267 430.996 433.3 420.889 435.547C414.959 436.864 409.27 439.487 403.033 439.605C396.41 439.73 389.772 439.605 383.148 439.605C372.742 439.605 363.794 440.904 353.974 444.475C348.047 446.63 342.516 454.441 339.274 459.535C335.105 466.086 332.924 473.426 330.977 480.998C329.948 485 328.76 488.926 327.55 492.857C326.155 497.391 319.62 495.608 315.556 495.608C307.698 495.608 305.053 492.867 300.36 487.131C297.621 483.783 295.682 479.45 294.453 475.317C292.842 469.897 289.975 464.859 288.186 459.49C282.722 443.098 263.585 428.318 247.739 443.032C242.532 447.866 231.243 437.543 227.718 433.923C223.96 430.064 222.688 424.1 218.745 420.486C211.943 414.251 204.965 405.032 195.207 403.081C185.004 401.04 174.933 399.023 164.41 399.023C158.188 399.023 152.286 398.942 146.148 397.805C135.966 395.92 127.814 390.026 119.138 384.593C111.206 379.625 102.467 376.296 94.4285 371.607C87.0847 367.323 80.4049 362.701 72.7847 358.891C61.8553 353.427 54.3616 343.044 47.0827 333.685C42.689 328.036 39.1631 321.358 34.9982 315.063C24.043 298.503 13.5865 279.963 8.39437 260.592C4.16913 244.829 4.60406 229.079 7.40237 213.066C8.5921 206.258 10.8778 197.569 14.617 191.693C15.3579 190.529 15.636 188.433 15.8795 187.094C16.8072 181.991 18.9275 176.778 20.569 171.853C22.8624 164.973 24.5789 157.929 26.8818 151.021C28.5329 146.067 30.2602 139.678 32.924 135.239" stroke="black" stroke-width="10" stroke-linecap="round"/>
<circle cx="76" cy="123" r="7" fill="black"/>
<circle cx="597" cy="254" r="7" fill="black"/>
<circle cx="443.471" cy="8.33659" r="7" transform="rotate(-12.3649 443.471 8.33659)" fill="black"/>
<circle cx="563.471" cy="8.33659" r="7" transform="rotate(-12.3649 563.471 8.33659)" fill="black"/>
<path d="M78.7217 141.269C83.1214 141.758 88.9554 148.9 91.3414 152.347C94.4459 156.831 100.486 159.752 104.943 162.723C122.47 174.407 141.588 184.775 161.451 192.309C216.933 213.354 273.716 232.208 331.747 245.312C389.045 258.25 447.329 272.514 506.529 272.514C522.28 272.514 538.715 273.386 553.853 268.728C558.182 267.396 576.735 267.134 578.462 263.68" stroke="black" stroke-width="5" stroke-linecap="round" stroke-dasharray="3 10"/>
<path d="M432.348 85.3685C432.348 86.1744 432.882 81.3156 432.956 80.6733C433.657 74.6515 435.684 69.1672 439.564 64.4137C444.912 57.8631 452.436 53.1238 459.563 48.7627C468.201 43.477 476.416 38.4961 485.952 34.9377C500.502 29.5088 515.994 29.8077 531.296 29.8077C540.186 29.8077 549.857 34.63 556.164 40.9372C563.503 48.2758 567.042 57.9347 570.859 67.37C573.546 74.014 576.758 80.9594 577.858 88.1075C579.197 96.8124 566.37 95.5417 560.511 95.5417C553.587 95.5417 545.583 96.4287 538.948 93.9766C533.461 91.9487 528.051 89.6496 522.297 88.4987C511.812 86.4018 500.361 86.1511 489.647 86.1511C469.765 86.1511 449.882 86.1511 430 86.1511" stroke="black" stroke-width="5" stroke-linecap="round"/>
</svg>
