<svg width="770" height="683" viewBox="0 0 770 683" fill="none" xmlns="http://www.w3.org/2000/svg">
<path d="M362.572 532.75C375.59 555.602 394.351 575.4 406.521 598.523C406.886 601.811 410.772 611.731 412.372 614.931C415.217 620.621 416.681 621.312 422.866 621.312C432.666 621.312 437.272 617.354 445.841 613.654C459.603 607.711 473.172 600.503 487.677 596.423C500.584 592.793 513.596 589.656 526.606 586.284C534.212 584.311 542.241 583.476 549.934 581.745C558.733 579.766 566.979 576.08 575.745 574.087C611.865 565.878 650.997 555.091 683.526 537.144C701.772 527.077 720.258 517.95 739.756 510.341C747.767 507.215 755.059 503.469 762.731 500.059C768.386 497.545 767.198 493.925 767.198 488.288C767.198 480.875 763.871 473.19 762.376 465.881C760.741 457.885 754.353 450.493 753.229 442.623C752.171 435.217 747.692 427.031 740.169 424.523C729.476 413.235 720.453 397.428 711.469 384.661C700.554 369.151 693.859 351.613 685.957 334.434C675.29 311.245 663.552 289.262 651.874 266.668C629.739 223.84 614.961 178.358 587.696 138.311C575.071 119.768 563.943 100.074 547.335 84.6959C537.653 75.7309 534.678 69.0375 525.012 79.9124C512.142 94.3905 488.684 97.4953 472.095 106.122C441.077 122.251 407.748 133.927 376.126 149.173C334.598 169.196 292.431 190.886 249.762 208.269C238.004 213.06 220.031 220.219 210.398 228.101C208.003 230.06 214.846 246.798 215.58 249.627C221.88 273.929 234.731 294.841 244.081 317.792C258.416 352.977 284.172 383.833 301.683 417.647C321.595 456.099 341.142 495.128 362.572 532.75Z" fill="white" stroke="black" stroke-width="5" stroke-linecap="round"/>
<path d="M286.335 311.513C276.204 293.503 250.803 275.484 248.665 254.111C236.454 229.689 292.586 209.413 309.256 204.283C321.173 200.617 333.677 198.037 345.93 195.314C360.608 192.052 375.451 183.757 389.479 177.874C411.625 168.587 434.469 158.685 455.352 146.881C467.672 139.918 482.331 130.934 495.314 125.854C508.44 120.718 524.698 107.801 537.867 120.971C544.816 127.919 551.303 141.832 555.008 151.465C559.559 163.298 569.801 172.456 576.933 182.757C583.634 192.437 587.386 203.894 592.18 214.548C601.98 236.326 616.589 255.449 626.163 277.331C631.04 288.48 635.829 299.555 640.613 310.716C649.538 331.542 668.355 351.703 673.4 373.898C675.488 383.086 669.285 390.383 660.843 393.63C648.989 398.189 637.835 404.274 626.163 409.276C615.343 413.913 603.684 415.33 593.077 420.537C583.92 425.032 574.781 429.137 565.173 432.595C556.16 435.84 547.129 438.802 537.867 441.066C529.904 443.013 522.165 448.758 514.149 451.43C492.798 458.547 473.175 468.283 452.263 476.444C432.86 484.016 417.002 494.482 395.758 494.482C382.477 494.482 375.38 477.334 370.644 466.678C364.225 452.233 356.843 437.935 348.222 424.523C341.685 414.355 339.528 400.789 332.177 391.338C324.756 381.796 320.822 368.259 313.641 358.152C303.078 343.286 295.236 327.336 286.335 311.513Z" fill="#777777" stroke="black" stroke-width="5" stroke-linecap="round"/>
<path d="M276.401 554.405C295.363 572.628 318.968 586.295 337.194 605.018C338.476 608.068 345.016 616.479 347.457 619.094C351.798 623.744 353.399 623.992 359.33 622.238C368.728 619.46 372.023 614.358 379.191 608.381C390.703 598.78 401.671 588.021 414.425 579.996C425.773 572.855 437.361 566.158 448.881 559.235C455.617 555.187 463.079 552.11 469.966 548.269C477.843 543.875 484.705 538.003 492.546 533.607C524.857 515.494 559.324 494.055 585.43 467.622C600.074 452.794 615.213 438.801 631.754 425.975C638.549 420.707 644.48 415.047 650.871 409.602C655.581 405.588 653.416 402.454 651.817 397.048C649.715 389.938 644.347 383.513 640.84 376.927C637.005 369.723 628.784 364.445 625.475 357.217C622.36 350.415 615.744 343.834 607.819 343.562C594.364 335.769 581.23 323.169 568.994 313.473C554.131 301.694 542.738 286.774 530.289 272.54C513.485 253.327 495.996 235.574 478.392 217.218C445.022 182.424 417.956 142.997 380.455 112.324C363.091 98.1216 346.836 82.3901 326.549 72.352C314.723 66.5001 309.973 60.9246 303.786 74.0939C295.55 91.6267 273.934 101.255 260.471 114.231C235.299 138.492 206.648 159.139 180.646 182.725C146.499 213.7 112.212 246.455 76.2224 275.223C66.3054 283.15 51.0998 295.111 44.0962 305.401C42.3552 307.959 53.6631 322.07 55.1686 324.575C68.1011 346.094 86.3534 362.504 101.827 381.862C125.549 411.539 158.997 433.827 185.376 461.288C215.373 492.517 245.183 524.402 276.401 554.405Z" fill="white" stroke="black" stroke-width="5" stroke-linecap="round"/>
<path d="M140.567 363.861C125.745 349.462 96.2774 339.385 88.1681 319.495C69.534 299.537 117.614 264.178 132.145 254.533C142.533 247.638 153.793 241.619 164.771 235.534C177.923 228.244 189.805 216.081 201.589 206.462C220.193 191.278 239.292 175.305 255.972 158.065C265.812 147.894 277.323 135.123 288.332 126.57C299.463 117.923 311.392 100.927 327.755 109.823C336.389 114.516 346.554 126.019 352.838 134.206C360.557 144.263 372.975 150.141 382.735 157.998C391.905 165.38 398.752 175.303 406.37 184.161C421.943 202.267 441.374 216.463 456.759 234.733C464.597 244.042 472.33 253.304 480.081 262.651C494.545 280.092 518.306 294.091 529.436 313.945C534.044 322.164 530.164 330.92 522.989 336.427C512.914 344.16 503.942 353.158 494.168 361.264C485.107 368.778 474.328 373.442 465.632 381.444C458.125 388.351 450.525 394.878 442.292 400.918C434.569 406.585 426.748 411.987 418.509 416.783C411.424 420.908 405.632 428.612 398.702 433.447C380.245 446.325 364.187 461.225 346.447 474.98C329.987 487.743 317.747 502.275 297.375 508.298C284.639 512.063 272.972 497.631 265.409 488.755C255.157 476.723 244.025 465.104 231.955 454.688C222.803 446.79 216.888 434.392 207.16 427.413C197.338 420.367 189.728 408.501 179.975 400.845C165.631 389.583 153.589 376.511 140.567 363.861Z" fill="#777777" stroke="black" stroke-width="5" stroke-linecap="round"/>
</svg>
