<svg width="366" height="1013" viewBox="0 0 366 1013" fill="none" xmlns="http://www.w3.org/2000/svg">
<g id="Group 3">
<path id="bee2-path5" d="M281.891 427.673C282.107 425.732 286.975 424.254 288.337 423.536C296.249 419.364 304.838 417.104 313.81 417.104C321.954 417.104 334.792 419.45 331.303 430.28C326.592 444.902 311.173 450.835 301.474 461.466C297.925 465.356 296.944 467.181 296.944 472.104" stroke="black" stroke-width="3" stroke-linecap="round"/>
<path id="bee2-path7" d="M296.037 489.775C296.037 490.171 295.813 490.491 295.813 490.895C295.813 491.313 296.116 491.615 296.373 491.909C296.617 492.187 297.585 493.38 297.095 493.801C296.837 494.022 296.503 494.126 296.261 494.367" stroke="black" stroke-width="3" stroke-linecap="round"/>
<path id="bee2-path3" d="M140.367 403.776C140.916 403.228 141.466 402.198 141.061 401.388C140.605 400.476 140 400.094 140 399" stroke="black" stroke-width="3" stroke-linecap="round"/>
<path id="bee2-path6-travel" d="M296.551 475.175C296.551 477.49 295.519 479.519 295.519 481.826C295.519 482.724 295.313 483.632 295.313 484.567C295.313 485.271 295.726 485.708 295.726 486.321" stroke="#FF4F4F" stroke-width="3" stroke-linecap="round"/>
<path id="bee2-path8-travel" d="M295.919 499.07C295.919 503.515 296.076 507.459 297.237 511.755C298.163 515.179 302.559 519.267 305.33 521.166C309.829 524.249 314.3 525.667 319.742 525.667C327.052 525.667 333.931 525.915 340.883 523.212C346.504 521.026 350.976 518.893 355.25 514.619C357.961 511.908 362.664 508.722 363.411 504.617C364.496 498.649 358.123 496.748 353.204 496.615C348.291 496.482 344.626 496.924 340.429 499.57C336.666 501.942 332.417 504.547 329.972 508.39C328.376 510.897 326.616 513.303 325.062 515.846C322.724 519.672 321.315 524.441 319.742 528.622C317.458 534.695 315.753 540.962 313.195 546.944C310.071 554.251 306.413 561.222 303.079 568.426C298.393 578.554 293.152 588.811 285.485 597.046C282.974 599.743 279.857 601.674 277.074 604.048C273.927 606.731 270.834 609.719 267.913 612.64C264.639 615.914 259.851 620.86 258.683 625.53C257.93 628.543 257.957 631.42 257.842 634.509C257.722 637.768 257.047 641.088 257.047 644.329" stroke="#FF4F4F" stroke-width="3" stroke-linecap="round"/>
<path id="bee2-entrance" d="M120.327 2C120.327 9.49874 114.708 15.5755 113.514 22.8922C111.929 32.607 111.567 41.4939 111.567 51.4094C111.567 70.162 120.03 81.4318 125.193 98.0738C129.717 112.654 129.235 125.056 120.327 135.893C112.166 145.822 96.8712 157.091 85.2887 157.091C74.434 157.091 66.0766 153.375 63.4506 138.562C59.5604 116.619 77.5316 115.355 90.5201 115.916C104.988 116.541 112.909 151.341 111.507 165.402C110.277 177.73 101.198 185.846 96.4814 195.52C90.4619 207.867 73.0727 214.267 62.5382 219.157C49.6925 225.121 41.1465 231.869 30.5414 242.947C23.0474 250.775 18.6657 265.164 15.7597 276.497C13.672 284.638 10.7273 292.725 8.39922 300.896C5.2368 311.996 2.07288 322.973 2.07288 334.903C2.07288 351.356 0.689126 371.677 9.98081 384.618C13.4317 389.424 15.1382 396.816 18.497 402.079C19.4433 403.561 22.0604 407.669 23.4851 408.179C25.4988 408.9 30.8092 408.926 31.6364 411" stroke="#FF4F4F" stroke-width="3" stroke-linecap="round"/>
<path id="bee2-exit" d="M256.151 648.572C256.151 655.697 255.96 662.766 256.74 669.791C257.525 676.851 258.985 683.481 260.519 690.386C261.63 695.386 266.689 698.659 268.494 703.353C269.265 705.358 270.651 707.181 271.614 709.109C272.635 711.15 272.529 713.149 273.14 715.211C274.126 718.537 274.249 723.156 274.249 726.653C274.249 735.064 271.834 738.429 266.136 744.127C263.099 747.164 260.302 750.56 256.775 753.107C253.458 755.503 249.928 756.561 246.165 758.1C238.651 761.174 230.883 765.304 224.045 769.68C213.811 776.23 206.103 784.79 200.122 795.372C197.92 799.267 197.493 805.219 197.001 809.587C196.268 816.097 196.811 823.027 196.862 829.558C196.974 843.776 201.634 856.5 204.352 870.089C206.058 878.62 211.766 886.15 216.521 893.18C223.03 902.802 228.022 912.847 235.417 921.923C242.094 930.118 247.95 940.391 251.644 950.284C258.731 969.268 259.895 991.096 259.895 1011.17" stroke="#FF4F4F" stroke-width="3" stroke-linecap="round"/>
<path id="bee2-path1-travel" d="M34.615 413.025C44.9758 413.025 55.4636 416.119 65.3614 411.17C70.4859 408.607 76.4063 404.631 80.4696 400.567C82.7104 398.327 85.4016 396.688 87.9795 394.883C91.5441 392.388 94.305 389.237 98.2577 387.226C107.169 382.692 118.373 378.701 127.914 383.221C129.812 384.12 132.231 385.706 133.333 387.58C134.518 389.594 136.71 391.702 137.456 393.941" stroke="#FF4F4F" stroke-width="3" stroke-linecap="round"/>
<path id="bee2-path4-travel" d="M140.835 409.201C141.188 415.554 145.453 421.398 148.476 426.772C152.722 434.32 160.203 438.389 168.261 440.691C177.607 443.361 187.166 444.859 196.895 444.859C201.613 444.859 205.137 444.752 209.475 442.903C214.404 440.803 219.651 438.949 224.191 436.06C228.17 433.528 233.267 430.838 237.749 429.319C241.374 428.092 245.096 426.798 248.941 426.798C252.903 426.798 255.794 427.515 259.386 429.216C265.75 432.231 271.75 432.657 277.909 429.577" stroke="#FF4F4F" stroke-width="3" stroke-linecap="round"/>
</g>
</svg>
