<svg width="296" height="73" viewBox="0 0 296 73" fill="none" xmlns="http://www.w3.org/2000/svg">
<path d="M84 18V24.2303" stroke="#FF0000" stroke-width="3" stroke-linecap="round"/>
<path d="M279.398 62.204C276.355 59.1609 262.429 44.5249 272.752 41.9441C276.055 41.1185 278.789 42.4027 280.644 45.0823C280.997 45.5928 282.138 46.5633 282.282 47.0668C282.758 48.7335 283.334 47.0449 283.782 46.1899C285.92 42.1085 293.935 37.4079 293.935 45.1746C293.935 49.6136 292.274 53.0663 289.159 56.1814C287.111 58.2293 283.584 60.0629 282.305 62.6194" stroke="#FF0000" stroke-width="3" stroke-linecap="round"/>
<path d="M2.17272 1.57031C2.17272 5.97561 2.09825 10.3872 2.18295 14.7914C2.23308 17.3981 2.2936 20.8865 3.50301 23.3053C4.11028 24.5198 6.73914 24.0421 7.65763 24.0421C11.5463 24.0421 15.4515 23.3053 19.3028 23.3053" stroke="#FF0000" stroke-width="3" stroke-linecap="round"/>
<path d="M32.3806 11.8867C30.4608 11.8867 29.7091 13.282 29.6279 15.1101C29.5786 16.2195 29.4471 17.5444 30.0986 18.5075C30.8836 19.668 32.4502 20.2339 33.8132 20.1346C38.5667 19.7879 36.9696 13.0506 33.3016 12.4393" stroke="#FF0000" stroke-width="3" stroke-linecap="round"/>
<path d="M46.011 9.86148C46.2488 10.8129 47.1952 11.7732 47.6892 12.6039C48.5377 14.031 49.3015 15.5094 50.1554 16.9325C50.2113 17.0258 51.5817 19.1505 51.6801 19.0303C51.9945 18.646 51.9972 17.6544 52.1303 17.1883C52.5399 15.7549 53.2287 14.3598 53.8393 13.003C54.5825 11.3514 55.0458 9.48077 56.1417 8.01953" stroke="#FF0000" stroke-width="3" stroke-linecap="round"/>
<path d="M64.7989 12.6248C66.7953 12.6248 69.0312 12.8275 70.4066 11.0591C71.303 9.90653 69.2312 8.49622 68.3907 8.30643C67.2018 8.03798 65.2921 7.96565 64.2872 8.75669C62.6909 10.0133 62.791 12.858 62.9979 14.6509C63.2276 16.6421 65.6192 17.2441 67.3367 17.3729C69.1946 17.5123 70.9302 17.0349 72.7192 16.6771" stroke="#FF0000" stroke-width="3" stroke-linecap="round"/>
<path d="M104 71.1693C104 61.5314 104 51.8935 104 42.2555C104 41.8798 104.176 42.1466 104.344 42.2723C106.312 43.7482 108.037 45.5357 109.588 47.4409C114.726 53.7525 119.167 60.6265 124.204 67.0244C125.124 68.1925 126.115 69.3213 127.024 70.4897C127.229 70.7544 127.344 71.0526 127.443 70.4981C127.846 68.2395 127.863 65.9651 127.863 63.6766C127.863 57.0947 127.653 50.4747 127.98 43.9001C128.062 42.2632 128.165 40.6385 128.165 39" stroke="#FF0000" stroke-width="3" stroke-linecap="round"/>
<path d="M148.554 56.6677C147.483 56.6677 146.047 56.409 145.08 56.8859C143.537 57.6466 142.257 59.6827 142.026 61.3496C141.859 62.5524 141.813 63.8375 141.992 65.0415C142.109 65.8269 142.213 67.03 142.697 67.6929C143.744 69.1271 146.633 68.5856 147.564 67.3657C148.816 65.7247 149.814 63.2007 150.291 61.1902C150.482 60.3808 150.801 59.4999 150.819 58.6647C150.822 58.5376 150.74 57.5907 150.903 57.5907C151.328 57.5907 152.255 59.2717 152.447 59.5708C153.25 60.8195 153.966 62.074 154.897 63.2375C156.062 64.6942 157.353 66.0714 158.673 67.3908" stroke="#FF0000" stroke-width="3" stroke-linecap="round"/>
<path d="M169.547 42.7734C169.547 44.7038 169.665 46.6497 169.731 48.5797C169.859 52.2854 169.849 56.0571 170.235 59.7475C170.364 60.9822 170.645 62.1537 170.906 63.3303C171.071 64.0727 171.181 65.0716 171.51 65.73" stroke="#FF0000" stroke-width="3" stroke-linecap="round"/>
<path d="M164 49C167.816 49 171.705 49.151 175.478 49.151" stroke="#FF0000" stroke-width="3" stroke-linecap="round"/>
<path d="M183.442 42.4727C183.442 46.9407 184.184 51.3564 184.834 55.7633C185.269 58.7077 185.621 61.6683 186.152 64.5901C186.27 65.2398 186.423 65.8999 186.605 66.5367C186.688 66.8275 186.613 65.931 186.647 65.6306C186.792 64.3417 186.997 63.0042 187.402 61.7709C187.863 60.368 188.472 58.9833 189.172 57.6847C189.565 56.9571 190.048 55.8986 190.725 55.3773C191.788 54.5577 194.564 54.8129 195.44 55.7801C196.692 57.1609 197.013 59.1935 197.638 60.8899C198.009 61.8953 198.448 62.8521 198.998 63.7679" stroke="#FF0000" stroke-width="3" stroke-linecap="round"/>
<path d="M214.252 54.5555C213.142 54.5555 212.024 54.5273 210.937 54.7988C208.497 55.4089 207.889 57.535 207.69 59.7744C207.58 61.0229 207.47 62.4181 207.64 63.6677C207.746 64.4497 208.466 64.594 209.125 64.75C210.981 65.1897 212.071 64.9805 213.186 63.3824C213.964 62.2671 214.68 60.6208 214.705 59.2374C214.711 58.9154 214.641 57.1842 215.225 57.4922C216.072 57.9392 216.685 58.9275 217.289 59.6318C218.317 60.8306 219.3 62.0512 220.561 63.0132C221.43 63.6758 222.366 64.2906 222.86 65.2786" stroke="#FF0000" stroke-width="3" stroke-linecap="round"/>
<path d="M231.469 54.4012C231.567 57.4452 232.734 60.4122 233.273 63.3791C233.399 64.0729 233.433 63.2615 233.433 62.9763C233.433 60.4234 233.582 57.8943 234.574 55.5003C235.282 53.7894 236.939 52.3978 238.752 51.9847C240.615 51.5603 241.585 52.3355 242.31 54.1327C242.996 55.8343 243.208 57.7289 243.434 59.5362C243.556 60.5093 243.854 61.4235 243.854 62.4058" stroke="#FF0000" stroke-width="3" stroke-linecap="round"/>
</svg>
