<svg width="547" height="364" viewBox="0 0 547 364" fill="none" xmlns="http://www.w3.org/2000/svg">
<path d="M485.21 161.94C488.022 161.224 490.78 159.798 493.476 158.698C495.956 157.686 498.636 157.402 501.021 156.196C504.37 154.503 507.955 153.58 511.259 151.771C520.271 146.835 525.882 139.142 530.8 130.329C532.397 127.466 533.407 123.164 533.71 119.94C534.175 114.997 535.849 110.348 535.439 105.307C534.81 97.5738 532.854 88.457 529.375 81.4962C525.494 73.7294 517.635 68.6152 511.451 62.8773C509.891 61.43 508.848 60.2308 506.662 60.5359C504.942 60.7761 502.231 61.0565 500.556 60.7526C497.846 60.2612 495.096 60.1872 492.337 60.0169C485.646 59.604 479.1 59.1347 472.396 60.6503C463.049 62.7636 453.661 64.9668 444.326 67.3441C437.662 69.0411 431.683 72.064 425.514 74.8876C418.709 78.0017 413.529 85.2251 409.226 91.0564C403.953 98.2022 401.162 104.945 399.477 113.566C398.629 117.904 399.577 122.557 399.69 126.896C399.783 130.487 400.467 135.133 402.15 138.341C405.557 144.836 409.41 150.673 414.366 156.065C418.694 160.774 426.094 163.215 432.068 164.79C440.688 167.062 450.292 165.121 459.045 164.512C465.969 164.03 472.569 163.795 479.334 162.072" stroke="black" stroke-width="5" stroke-linecap="round"/>
<path d="M427.702 82.4874C430.238 92.4455 431.991 103.145 435.64 112.766C438.473 120.236 441.206 127.796 444.208 135.207C446.442 140.721 448.541 146.469 450.011 152.241C450.583 154.489 451.888 159.378 453.58 160.903" stroke="black" stroke-width="5" stroke-linecap="round"/>
<path d="M456.07 70.7174C459.451 83.9971 462.437 97.4565 466.655 110.499C468.84 117.257 471.274 123.879 473.557 130.561C474.94 134.61 476.975 138.53 478.026 142.656C478.515 144.577 479.194 146.239 479.837 148.08C480.232 149.212 480.438 153.038 481.646 153.301" stroke="black" stroke-width="5" stroke-linecap="round"/>
<path d="M502.67 123.4C507.022 125.736 510.747 126.783 515.539 127.623C520.107 128.424 525.093 126.327 529.495 125.206" stroke="black" stroke-width="5" stroke-linecap="round"/>
<path d="M492.223 55.601C492.992 55.2994 493.707 53.6599 494.194 53.0282C495.493 51.3458 496.696 49.7315 497.727 47.8606C499.033 45.4925 500.395 43.1618 501.738 40.8033C504.848 35.3443 504.202 30.0845 502.45 24.3584C501.361 20.7983 497.463 18.5387 495.254 15.7357C493.732 13.805 491.001 12.1225 488.917 10.8843C484.582 8.30904 479.106 6.85578 474.073 7.13866C468.561 7.44847 462.464 9.1109 458.608 13.2489C455.462 16.6252 450.016 21.4409 449.43 26.395C448.114 37.5063 450.715 47.9057 453.453 58.6556" stroke="black" stroke-width="5" stroke-linecap="round"/>
<path d="M440.612 29.6509C439.708 29.7645 436.981 27.4939 436.208 27.0348C433.653 25.5169 431.249 24.4105 428.534 23.2814C425.647 22.0805 421.433 19.7979 418.146 20.371C415.39 20.8514 412.678 21.1949 409.926 22.0096C404.908 23.4952 401.883 29.5858 399.424 33.7251C394.536 41.9531 392.161 54.9436 399.272 62.68C403.956 67.7757 410.898 69.9593 417.61 71.42" stroke="black" stroke-width="5" stroke-linecap="round"/>
<path d="M380.934 138.036C382.425 137.657 391.994 134.261 392.996 135.419" stroke="black" stroke-width="5" stroke-linecap="round"/>
<circle cx="495.6" cy="96.96" r="8.65582" transform="rotate(-14.2872 495.6 96.96)" fill="black"/>
<path d="M360.33 140.771C351.458 142.017 342.405 142.836 333.618 144.572C325.583 146.159 318.773 153.835 314.084 160.056C307.306 169.049 304.395 178.661 300.935 189.246C295.24 206.671 284.211 224.029 271.485 237.045C249.847 259.174 214.869 270.234 184.318 267.811C166.801 266.422 158.395 258.07 152.315 242.316C149.728 235.613 149.964 231.069 154.332 225.274C157.973 220.442 161.69 219.83 167.372 219.032C184.473 216.63 184.896 237.883 186.033 250.37C186.788 258.662 186.701 269.34 182.697 276.859C176.99 287.579 165.557 296.436 155.959 303.499C138.946 316.02 117.234 321.98 97.2943 327.861C77.7896 333.614 58.1116 339.247 38.4827 344.55C32.9931 346.034 29.3848 350.779 26.1731 355.296C25.7546 355.884 23.5831 359.875 24.4723 360.631C25.7181 361.69 26.5294 359.459 26.6591 358.756" stroke="black" stroke-width="5" stroke-linecap="round" stroke-dasharray="10 10"/>
</svg>
