<svg width="2490" height="850" viewBox="0 0 2490 850" fill="none" xmlns="http://www.w3.org/2000/svg">
<path d="M1164.14 387.769C1164.14 347.624 1149.91 313.297 1116 289.817C1079.43 264.5 1033.78 253.905 991.48 243.331C911.126 223.242 823.7 231.71 741.712 231.71C636.451 231.71 532.055 247.157 427.012 248.312C388.038 248.74 349.036 248.312 310.06 248.312C266.812 248.312 222.227 251.848 179.642 243.331C134.72 234.347 82.6376 229.34 40.3691 210.127C23.6703 202.537 15.0886 178.487 2 171.942" stroke="black" stroke-width="3" stroke-linecap="round"/>
<path d="M2488.12 2.16895C2465.7 24.5858 2445.14 50.4466 2421.37 71.1166C2389.55 98.7852 2339.98 122.682 2301.33 139.515C2225.12 172.703 2144.61 180.169 2062.89 180.169C1978.68 180.169 1894.57 175.225 1810.73 175.225C1738.01 175.225 1661.13 168.503 1589.33 181.268C1537.16 190.541 1479.24 199.299 1428.91 213.682C1390.63 224.619 1339.65 233.047 1300.35 234.558C1251.84 236.424 1199.29 263.184 1175.37 306.253C1150.28 351.413 1180.1 410.469 1155.59 454.586C1139.01 484.429 1125.4 498.689 1096.25 518.864C1049.72 551.083 990.782 586.111 937.757 605.392C877.581 627.275 841.811 670.342 794.643 707.028C756.134 736.979 737.781 801.612 737.781 847.67" stroke="black" stroke-width="3" stroke-linecap="round"/>
</svg>
