<svg width="1440" height="1024" viewBox="0 0 1440 1024" fill="none" xmlns="http://www.w3.org/2000/svg">
<rect width="1440" height="1024" fill="#F5D6A8"/>
<rect x="1060.06" y="306.679" width="27.65" height="389.733" transform="rotate(-7.7316 1060.06 306.679)" fill="#EDB039"/>
<path d="M1065.66 246.126L1087.19 302.996L1060.07 306.678L1065.66 246.126Z" fill="#FFEFD8"/>
<path d="M1074.11 268.232L1063.67 269.649L1065.88 246.76L1074.11 268.232Z" fill="#222222"/>
<circle cx="297.164" cy="445.411" r="154" transform="rotate(131.95 297.164 445.411)" fill="#2F4B2A"/>
<circle cx="297.164" cy="445.411" r="154" transform="rotate(131.95 297.164 445.411)" fill="#2F4B2A"/>
<circle cx="297.164" cy="445.411" r="154" transform="rotate(131.95 297.164 445.411)" fill="#2F4B2A"/>
<circle cx="297.164" cy="445.411" r="123.071" transform="rotate(131.95 297.164 445.411)" fill="#2F4B2A"/>
<circle cx="297.164" cy="445.411" r="123.071" transform="rotate(131.95 297.164 445.411)" fill="#2F4B2A"/>
<circle cx="297.164" cy="445.411" r="123.071" transform="rotate(131.95 297.164 445.411)" fill="#764930"/>
<rect x="254.429" y="581.794" width="81" height="42" rx="3" transform="rotate(113.516 254.429 581.794)" fill="#2F4B2A"/>
<rect x="375.42" y="455.969" width="36.0837" height="27.0628" rx="4" transform="rotate(111.331 375.42 455.969)" fill="white"/>
<rect x="356.345" y="372.82" width="29.8802" height="27.0628" rx="4" transform="rotate(148.291 356.345 372.82)" fill="white"/>
<rect x="250.641" y="444.085" width="34.4728" height="27.0628" rx="4" transform="rotate(133.637 250.641 444.085)" fill="white"/>
<rect x="281.454" y="487.604" width="24.7141" height="19.9524" rx="4" transform="rotate(108.343 281.454 487.604)" fill="white"/>
<rect x="303.702" y="439.357" width="34.9904" height="28.2487" rx="4" transform="rotate(-142.655 303.702 439.357)" fill="white"/>
<rect x="565" y="333" width="333" height="298" fill="#CA9A9A"/>
<path d="M600.951 606C566 562.5 568.164 417.396 566 333H897.532C902.325 382.092 886.547 549.467 920 606H600.951Z" fill="#E89E9E"/>
<path d="M606.924 414.809C606.575 415.623 605.98 416.286 605.138 416.799C604.297 417.291 603.346 417.557 602.287 417.598C602.147 417.603 601.916 417.592 601.595 417.564C601.274 417.536 600.911 417.47 600.507 417.365C600.122 417.26 599.717 417.115 599.289 416.931C598.881 416.727 598.501 416.461 598.148 416.134C597.795 415.787 597.499 415.368 597.26 414.877C597.021 414.386 596.888 413.8 596.863 413.121C596.808 412.222 596.897 411.398 597.129 410.649C597.38 409.899 597.792 409.133 598.362 408.35L599.275 407.085C600.365 406.283 601.61 405.855 603.009 405.802C603.768 405.773 604.373 405.89 604.823 406.153C605.294 406.415 605.539 406.806 605.558 407.326C605.574 407.726 605.436 408.061 605.146 408.332C604.876 408.583 604.511 408.717 604.051 408.734C604.031 408.735 603.951 408.728 603.81 408.713C603.689 408.678 603.547 408.643 603.386 408.609C603.224 408.576 603.063 408.552 602.903 408.538C602.741 408.504 602.611 408.489 602.511 408.493C602.051 408.51 601.53 408.77 600.949 409.273C600.388 409.774 599.957 410.551 599.657 411.603C599.534 412.048 599.477 412.411 599.488 412.691C599.509 413.25 599.676 413.684 599.988 413.993C600.32 414.3 600.679 414.537 601.066 414.702C601.452 414.848 601.806 414.944 602.128 414.992C602.449 415.02 602.62 415.033 602.639 415.032C602.919 415.022 603.196 414.931 603.47 414.761C603.743 414.59 603.986 414.401 604.199 414.193C604.431 413.984 604.614 413.806 604.749 413.661C604.883 413.496 604.94 413.414 604.92 413.415C605.113 413.227 605.339 413.128 605.599 413.118C605.919 413.106 606.215 413.265 606.488 413.595C606.78 413.904 606.932 414.229 606.945 414.568C606.949 414.668 606.942 414.749 606.924 414.809ZM620.862 413.618C621.23 413.844 621.421 414.127 621.434 414.467C621.441 414.647 621.398 414.839 621.306 415.042C621.213 415.226 621.09 415.401 620.936 415.567C620.781 415.713 620.616 415.839 620.44 415.946C620.264 416.053 620.086 416.11 619.906 416.116C619.744 416.062 619.55 415.97 619.325 415.838C619.099 415.687 618.873 415.525 618.646 415.354C618.419 415.162 618.2 414.95 617.991 414.718C617.802 414.485 617.653 414.251 617.544 414.015L617.354 414.532C617.002 415.266 616.428 415.969 615.633 416.639C614.64 416.857 614.064 416.969 613.904 416.975C613.525 416.99 613.063 416.947 612.518 416.848L610.825 415.742C610.08 415.089 609.685 414.174 609.64 412.995C609.624 412.575 609.666 412.113 609.767 411.609C609.887 411.084 610.057 410.557 610.277 410.028C610.517 409.499 610.808 408.977 611.149 408.464C611.489 407.951 611.892 407.485 612.356 407.067C612.927 406.825 613.48 406.624 614.014 406.464C614.548 406.283 614.954 406.168 615.232 406.117C615.596 405.683 616.038 405.456 616.557 405.436C616.857 405.425 617.123 405.565 617.354 405.856C617.604 406.127 617.818 406.479 617.994 406.912C618.191 407.345 618.35 407.83 618.47 408.365C618.59 408.881 618.679 409.378 618.737 409.856L619.187 411.43C619.326 411.925 619.532 412.348 619.806 412.698C620.099 413.047 620.451 413.354 620.862 413.618ZM616.178 410.464C616.138 410.446 615.964 409.822 615.657 408.593C615.557 408.596 615.407 408.602 615.207 408.61C615.007 408.617 614.77 408.686 614.494 408.817C614.238 408.927 613.956 409.128 613.647 409.42C613.357 409.691 613.082 410.102 612.823 410.652C612.433 411.447 612.253 412.235 612.282 413.014C612.647 413.661 613.197 414.16 613.931 414.513C614.148 414.444 614.325 414.367 614.462 414.282C614.619 414.196 614.755 414.081 614.869 413.936C614.984 413.792 615.087 413.618 615.18 413.414C615.291 413.19 615.411 412.915 615.539 412.59C615.781 412.12 615.946 411.714 616.033 411.37C616.139 411.006 616.187 410.704 616.178 410.464ZM633.845 413.334L633.854 413.574C633.859 413.694 633.867 413.914 633.879 414.233C633.91 414.532 633.892 414.843 633.825 415.166C633.777 415.488 633.658 415.783 633.468 416.05C633.277 416.298 632.982 416.429 632.582 416.444C631.803 416.474 631.331 416.182 631.168 415.568C631.183 415.447 631.188 415.317 631.183 415.177C631.177 415.017 631.17 414.847 631.164 414.667C631.161 414.587 631.15 414.297 631.13 413.798C631.111 413.278 631.069 412.719 631.007 412.121C630.964 411.522 630.883 410.965 630.763 410.449C630.642 409.913 630.48 409.579 630.274 409.447C629.803 409.145 629.387 409.001 629.027 409.014C628.547 409.032 628.143 409.198 627.815 409.511C627.506 409.803 627.257 410.373 627.07 411.22C627.06 411.501 627.052 411.821 627.046 412.182C627.039 412.522 627.024 412.913 627.001 413.354C627.014 413.694 627.038 414.074 627.074 414.492C627.109 414.891 627.157 415.35 627.216 415.868C627.231 416.248 627.093 416.573 626.803 416.844C626.513 417.096 626.177 417.229 625.798 417.243C625.498 417.254 625.255 417.184 625.069 417.031C624.883 416.878 624.735 416.673 624.625 416.417C624.536 416.16 624.465 415.883 624.414 415.584C624.382 415.285 624.361 414.986 624.349 414.686C624.341 414.466 624.343 414.246 624.354 414.026C624.365 413.785 624.386 413.544 624.417 413.303L624.547 410.416L624.732 408.968C624.683 408.729 624.593 408.473 624.463 408.197C624.332 407.922 624.264 407.704 624.258 407.545C624.245 407.205 624.363 406.89 624.612 406.6C624.881 406.31 625.216 406.157 625.615 406.142C625.895 406.131 626.107 406.183 626.252 406.298C626.395 406.392 626.635 406.644 626.971 407.051C627.364 406.856 627.679 406.734 627.918 406.685C628.155 406.616 628.434 406.575 628.754 406.563C629.793 406.523 630.712 406.738 631.51 407.208C632.328 407.658 632.858 408.448 633.101 409.58C633.177 409.997 633.241 410.345 633.291 410.623C633.362 410.901 633.422 411.169 633.472 411.427C633.522 411.685 633.572 411.963 633.624 412.262C633.674 412.54 633.748 412.897 633.845 413.334ZM647.702 401.458C647.649 401.64 647.632 401.991 647.652 402.511C647.663 402.811 647.678 403.19 647.695 403.65C647.733 404.109 647.757 404.488 647.769 404.788C647.779 405.068 647.789 405.318 647.797 405.538C647.806 405.757 647.793 405.938 647.758 406.08C647.781 406.159 647.794 406.248 647.798 406.348C647.802 406.448 647.806 406.558 647.811 406.678C647.821 406.958 647.815 407.318 647.792 407.759C647.768 408.181 647.759 408.471 647.765 408.631C647.766 408.671 647.768 408.711 647.77 408.751C647.79 408.77 647.801 408.8 647.803 408.84C647.664 409.926 647.582 410.91 647.555 411.791C647.548 412.652 647.506 413.394 647.43 414.018C647.373 414.64 647.242 415.126 647.035 415.474C646.847 415.801 646.503 415.974 646.004 415.993C645.584 416.009 645.211 415.924 644.883 415.736L644.875 415.526C644.286 415.809 643.491 415.969 642.492 416.007C641.832 416.032 641.218 415.935 640.649 415.717C640.101 415.498 639.618 415.186 639.203 414.781C638.786 414.357 638.457 413.859 638.215 413.288C637.973 412.717 637.839 412.091 637.814 411.412C637.799 411.032 637.825 410.661 637.891 410.298C637.977 409.914 638.083 409.56 638.211 409.235C638.338 408.89 638.476 408.584 638.626 408.319C638.796 408.032 638.957 407.796 639.11 407.61C639.493 407.155 640.057 406.733 640.803 406.344C641.549 405.956 642.351 405.745 643.211 405.712C643.79 405.69 644.384 405.778 644.992 405.975C644.98 405.675 644.977 405.315 644.981 404.894C645.005 404.473 645.026 403.982 645.045 403.421L644.847 401.387C644.843 401.287 644.83 401.207 644.808 401.148C644.805 401.068 644.802 400.988 644.799 400.908C644.774 400.249 644.835 399.746 644.982 399.4C645.149 399.054 645.492 398.871 646.012 398.851C646.331 398.839 646.583 398.869 646.766 398.942C646.969 399.014 647.124 399.149 647.231 399.345C647.358 399.52 647.448 399.787 647.502 400.145C647.555 400.483 647.622 400.921 647.702 401.458ZM644.887 408.741C644.477 408.476 643.982 408.355 643.402 408.377C642.982 408.393 642.624 408.437 642.326 408.508C642.049 408.579 641.813 408.698 641.619 408.865C641.425 409.013 641.263 409.219 641.133 409.484C641.002 409.729 640.873 410.034 640.747 410.399C640.64 410.744 640.592 411.066 640.604 411.366C640.628 412.005 640.867 412.496 641.32 412.839C641.794 413.182 642.35 413.341 642.99 413.316C643.549 413.295 644.081 413.074 644.586 412.655C644.734 411.829 644.833 411.255 644.88 410.933C644.947 410.59 644.976 410.298 644.967 410.059C644.959 409.839 644.941 409.639 644.914 409.46C644.887 409.261 644.87 409.092 644.865 408.952C644.864 408.912 644.862 408.882 644.862 408.862C644.88 408.821 644.889 408.781 644.887 408.741ZM663.311 412.002C663.68 412.228 663.871 412.511 663.884 412.851C663.891 413.031 663.848 413.223 663.756 413.426C663.663 413.61 663.539 413.785 663.386 413.951C663.231 414.097 663.066 414.223 662.89 414.33C662.714 414.437 662.536 414.493 662.356 414.5C662.194 414.446 662 414.354 661.775 414.222C661.549 414.071 661.322 413.909 661.096 413.738C660.868 413.546 660.65 413.334 660.441 413.102C660.252 412.869 660.103 412.635 659.994 412.399L659.804 412.916C659.451 413.65 658.878 414.352 658.082 415.023C657.09 415.241 656.514 415.353 656.354 415.359C655.974 415.374 655.512 415.331 654.968 415.232L653.275 414.125C652.53 413.473 652.134 412.558 652.089 411.379C652.074 410.959 652.116 410.497 652.217 409.993C652.337 409.468 652.507 408.941 652.727 408.412C652.967 407.883 653.258 407.361 653.598 406.848C653.939 406.335 654.342 405.869 654.806 405.451C655.377 405.209 655.93 405.008 656.464 404.847C656.998 404.667 657.404 404.551 657.682 404.501C658.046 404.067 658.487 403.84 659.007 403.82C659.307 403.809 659.572 403.949 659.804 404.24C660.054 404.511 660.268 404.863 660.444 405.296C660.641 405.729 660.799 406.213 660.92 406.749C661.039 407.265 661.128 407.762 661.187 408.24L661.637 409.814C661.776 410.309 661.982 410.732 662.256 411.082C662.549 411.431 662.901 411.738 663.311 412.002ZM658.628 408.848C658.587 408.83 658.413 408.206 658.106 406.976C658.006 406.98 657.857 406.986 657.657 406.994C657.457 407.001 657.219 407.07 656.944 407.201C656.688 407.311 656.406 407.512 656.096 407.804C655.806 408.075 655.532 408.486 655.273 409.036C654.883 409.831 654.702 410.619 654.732 411.398C655.097 412.045 655.646 412.544 656.38 412.896C656.598 412.828 656.775 412.751 656.912 412.666C657.069 412.58 657.205 412.465 657.319 412.32C657.434 412.176 657.537 412.002 657.629 411.798C657.741 411.574 657.861 411.299 657.988 410.974C658.231 410.504 658.395 410.098 658.482 409.754C658.589 409.39 658.637 409.088 658.628 408.848ZM676.132 412.175C675.782 412.988 675.187 413.652 674.346 414.164C673.504 414.656 672.554 414.923 671.495 414.963C671.355 414.968 671.124 414.957 670.803 414.929C670.481 414.901 670.119 414.835 669.714 414.73C669.33 414.625 668.924 414.48 668.497 414.296C668.089 414.092 667.709 413.826 667.356 413.499C667.002 413.153 666.706 412.733 666.467 412.242C666.229 411.751 666.096 411.166 666.07 410.486C666.016 409.587 666.105 408.763 666.336 408.014C666.588 407.264 666.999 406.498 667.57 405.716L668.482 404.45C669.573 403.648 670.817 403.22 672.216 403.167C672.976 403.138 673.581 403.255 674.031 403.518C674.501 403.78 674.746 404.171 674.766 404.691C674.781 405.091 674.644 405.426 674.354 405.697C674.083 405.948 673.718 406.082 673.259 406.099C673.239 406.1 673.158 406.093 673.018 406.079C672.896 406.043 672.755 406.009 672.593 405.975C672.432 405.941 672.271 405.917 672.11 405.903C671.949 405.869 671.818 405.854 671.718 405.858C671.259 405.875 670.738 406.135 670.157 406.638C669.596 407.14 669.165 407.916 668.865 408.969C668.741 409.414 668.685 409.776 668.696 410.056C668.717 410.615 668.884 411.049 669.196 411.358C669.528 411.665 669.887 411.902 670.273 412.067C670.659 412.213 671.013 412.309 671.335 412.357C671.657 412.385 671.827 412.398 671.847 412.398C672.127 412.387 672.404 412.296 672.677 412.126C672.951 411.955 673.194 411.766 673.406 411.558C673.639 411.349 673.822 411.172 673.957 411.026C674.09 410.861 674.147 410.779 674.127 410.78C674.32 410.592 674.547 410.494 674.807 410.484C675.126 410.472 675.423 410.63 675.695 410.96C675.987 411.269 676.14 411.594 676.153 411.934C676.156 412.033 676.149 412.114 676.132 412.175ZM689.799 413.335C689.183 413.999 688.484 414.566 687.702 415.036C686.92 415.527 686.119 415.787 685.3 415.818C684.56 415.847 683.606 415.763 682.438 415.567C682.029 415.322 681.617 415.028 681.204 414.683C680.789 414.319 680.414 413.923 680.078 413.495C679.74 413.048 679.462 412.568 679.242 412.056C679.022 411.524 678.901 410.978 678.88 410.419C678.874 410.259 678.876 410.049 678.886 409.788C678.895 409.507 678.905 409.237 678.915 408.976C678.944 408.695 678.965 408.454 678.977 408.253C678.99 408.053 678.996 407.952 678.996 407.952C679.371 407.298 679.767 406.652 680.183 406.016C680.618 405.359 681.237 404.775 682.038 404.264C683.326 403.935 684.26 403.759 684.84 403.737C685.14 403.726 685.4 403.736 685.622 403.767C685.842 403.779 686.054 403.831 686.258 403.923C686.481 403.995 686.696 404.117 686.902 404.289C687.129 404.461 687.388 404.681 687.678 404.95C688.011 405.278 688.269 405.498 688.454 405.611C688.658 405.723 688.762 405.829 688.766 405.929C688.836 407.768 688.314 409.039 687.2 409.742C686.707 409.941 686.065 410.165 685.274 410.415C684.482 410.646 683.4 410.877 682.028 411.109C682.337 411.858 682.728 412.414 683.203 412.776C683.677 413.138 684.203 413.308 684.783 413.286C685.642 413.253 686.702 412.703 687.963 411.634C688.156 411.447 688.402 411.347 688.702 411.336C689.021 411.324 689.306 411.433 689.555 411.663C689.824 411.893 689.965 412.188 689.979 412.548C689.989 412.808 689.929 413.07 689.799 413.335ZM686.167 407.049C685.763 406.444 685.302 406.151 684.782 406.171C684.563 406.179 684.324 406.219 684.066 406.288C683.809 406.358 683.542 406.458 683.267 406.589C683.011 406.699 682.766 406.838 682.533 407.007C682.319 407.176 682.146 407.372 682.015 407.597L681.749 408.508C682.426 408.422 683.024 408.35 683.542 408.29C684.06 408.23 684.508 408.153 684.884 408.059C685.261 407.964 685.557 407.843 685.771 407.695C685.986 407.546 686.117 407.331 686.167 407.049ZM714.082 403.404C714.41 403.592 714.584 403.966 714.605 404.525C714.621 404.945 714.525 405.309 714.317 405.617C714.108 405.925 713.814 406.087 713.434 406.101C713.194 406.11 712.942 406.06 712.678 405.95C712.433 405.819 712.17 405.759 711.891 405.77C711.651 405.779 711.413 405.838 711.177 405.947C710.96 406.035 710.707 406.235 710.419 406.546L709.554 407.48C709.559 407.62 709.565 407.759 709.57 407.899C709.595 408.038 709.611 408.188 709.617 408.348C709.626 408.588 709.626 408.838 709.616 409.098C709.625 409.358 709.626 409.638 709.618 409.939L709.991 412.657C709.966 413.578 709.514 414.056 708.635 414.089C708.175 414.107 707.83 413.98 707.599 413.708C707.368 413.417 707.203 413.013 707.103 412.497C707.003 411.98 706.94 411.372 706.913 410.672C706.907 409.972 706.878 409.203 706.826 408.364C706.738 407.106 706.684 406.478 706.664 406.479L706.665 406.509C706.574 406.212 706.504 405.955 706.455 405.736C706.406 405.498 706.378 405.289 706.371 405.109C706.358 404.749 706.477 404.455 706.728 404.225C706.979 403.975 707.354 403.841 707.854 403.822C708.173 403.809 708.563 404.045 709.021 404.528C709.467 404.151 709.807 403.867 710.04 403.678C710.293 403.489 710.498 403.351 710.654 403.265C710.831 403.178 711 403.131 711.159 403.125C711.319 403.099 711.528 403.081 711.788 403.071C712.007 403.043 712.207 403.045 712.389 403.079C712.59 403.111 712.801 403.143 713.023 403.175L714.082 403.404ZM728.15 411.875C727.535 412.539 726.836 413.106 726.053 413.576C725.271 414.066 724.47 414.327 723.651 414.358C722.911 414.386 721.958 414.303 720.789 414.107C720.38 413.862 719.968 413.568 719.555 413.223C719.141 412.859 718.765 412.463 718.429 412.035C718.091 411.588 717.813 411.108 717.593 410.596C717.373 410.064 717.252 409.518 717.231 408.959C717.225 408.799 717.227 408.589 717.237 408.328C717.246 408.047 717.256 407.777 717.266 407.516C717.295 407.235 717.316 406.994 717.329 406.793C717.341 406.593 717.347 406.492 717.347 406.492C717.722 405.838 718.118 405.192 718.534 404.556C718.97 403.899 719.588 403.315 720.389 402.804C721.677 402.475 722.611 402.299 723.191 402.277C723.491 402.266 723.751 402.276 723.973 402.307C724.193 402.319 724.405 402.371 724.609 402.463C724.832 402.535 725.047 402.657 725.253 402.829C725.48 403.001 725.739 403.221 726.029 403.49C726.362 403.818 726.62 404.038 726.805 404.151C727.009 404.263 727.113 404.369 727.117 404.469C727.187 406.308 726.665 407.579 725.551 408.282C725.058 408.481 724.416 408.705 723.625 408.955C722.834 409.186 721.752 409.417 720.379 409.649C720.688 410.398 721.08 410.954 721.554 411.316C722.028 411.678 722.555 411.848 723.134 411.826C723.994 411.793 725.053 411.243 726.314 410.174C726.507 409.987 726.753 409.887 727.053 409.876C727.373 409.863 727.657 409.973 727.906 410.203C728.175 410.433 728.316 410.728 728.33 411.088C728.34 411.348 728.28 411.61 728.15 411.875ZM724.518 405.589C724.115 404.984 723.653 404.691 723.134 404.711C722.914 404.719 722.675 404.758 722.417 404.828C722.16 404.898 721.894 404.998 721.618 405.129C721.362 405.239 721.117 405.378 720.884 405.547C720.67 405.715 720.497 405.912 720.366 406.137L720.1 407.048C720.777 406.962 721.375 406.889 721.893 406.83C722.411 406.77 722.859 406.693 723.235 406.599C723.612 406.504 723.908 406.383 724.122 406.235C724.337 406.086 724.469 405.871 724.518 405.589ZM739.083 401.342C739.31 401.513 739.432 401.839 739.45 402.319C739.484 403.198 739.171 403.65 738.511 403.675L738.392 403.68C738.092 403.711 737.744 403.755 737.346 403.81C736.947 403.845 736.499 403.902 736.001 403.981C735.973 404.302 735.95 404.733 735.93 405.275C735.91 405.796 735.914 406.426 735.942 407.166C735.945 407.225 735.947 407.285 735.949 407.345C735.971 407.405 735.984 407.474 735.987 407.554L736.04 408.933C736.052 409.253 736.112 409.511 736.219 409.707C736.346 409.882 736.491 410.007 736.654 410.081L737.503 410.318C738.171 410.513 738.516 410.9 738.538 411.48C738.551 411.82 738.423 412.125 738.153 412.395C737.903 412.665 737.568 412.808 737.148 412.824C737.029 412.828 736.818 412.806 736.515 412.758C736.233 412.688 735.929 412.6 735.605 412.492C735.3 412.384 735.005 412.245 734.718 412.076C734.452 411.906 734.264 411.713 734.156 411.497C733.918 411.045 733.72 410.573 733.561 410.078C733.402 409.564 733.311 409.027 733.29 408.467C733.266 407.848 733.26 407.408 733.27 407.147C733.28 406.887 733.291 406.656 733.303 406.455C733.316 406.255 733.327 406.014 733.336 405.734C733.345 405.453 733.338 404.993 733.313 404.353C732.935 404.408 732.38 404.549 731.648 404.777C731.209 404.794 730.825 404.698 730.497 404.491C730.188 404.262 730.026 403.958 730.012 403.579C730.001 403.299 730.071 403.036 730.222 402.79C730.392 402.543 730.744 402.32 731.277 402.119C731.455 402.053 731.613 402.006 731.752 401.981C731.911 401.955 732.06 401.929 732.199 401.904C732.359 401.878 732.528 401.862 732.708 401.855C732.887 401.828 733.106 401.79 733.364 401.74C733.365 401.239 733.374 400.679 733.39 400.057C733.426 399.416 733.493 398.823 733.593 398.278C733.712 397.734 733.885 397.277 734.111 396.908C734.356 396.518 734.689 396.315 735.108 396.299C735.828 396.272 736.28 396.585 736.465 397.238C736.466 397.258 736.441 397.399 736.391 397.662C736.36 397.903 736.321 398.175 736.272 398.477C736.223 398.779 736.175 399.071 736.125 399.353C736.096 399.634 736.083 399.815 736.086 399.895L736.052 401.367C736.191 401.342 736.32 401.327 736.44 401.322C736.56 401.298 736.689 401.283 736.829 401.278L737.099 401.267C737.239 401.262 737.369 401.257 737.489 401.252C737.608 401.228 737.717 401.214 737.817 401.21C738.417 401.187 738.839 401.231 739.083 401.342ZM752.314 401.378C752.364 401.617 752.393 401.856 752.402 402.096C752.411 402.335 752.42 402.565 752.428 402.785C752.463 403.705 752.395 404.538 752.223 405.285C752.162 405.787 752.122 406.309 752.102 406.851C752.082 407.372 752.063 407.923 752.045 408.504C752.047 408.544 752.075 408.763 752.13 409.161C752.205 409.539 752.256 410.107 752.285 410.866C752.298 411.206 752.168 411.471 751.895 411.662C751.642 411.832 751.335 411.923 750.975 411.937C750.535 411.954 750.222 411.876 750.036 411.703C749.848 411.51 749.721 411.054 749.653 410.336C749.326 410.669 749.005 410.931 748.693 411.123C748.379 411.295 748.074 411.427 747.777 411.518C747.5 411.609 747.232 411.669 746.973 411.699C746.734 411.728 746.505 411.747 746.285 411.755C745.146 411.799 744.273 411.492 743.668 410.834C743.062 410.177 742.737 409.249 742.691 408.049C742.686 407.91 742.681 407.77 742.675 407.63C742.669 407.47 742.672 407.29 742.685 407.089C742.663 407.05 742.65 406.96 742.644 406.82C742.636 406.6 742.628 406.381 742.619 406.161C742.63 405.92 742.659 405.629 742.706 405.287C742.753 404.945 742.827 404.522 742.928 404.017C743.048 403.493 743.213 402.826 743.422 402.017C743.67 401.688 744.014 401.514 744.453 401.498C744.793 401.485 745.086 401.564 745.333 401.734C745.6 401.904 745.74 402.179 745.755 402.559C745.758 402.659 745.736 402.86 745.687 403.162C745.639 403.464 745.582 403.796 745.515 404.159C745.449 404.522 745.393 404.884 745.347 405.246C745.3 405.608 745.281 405.889 745.289 406.089L745.294 406.239C745.263 406.46 745.241 406.681 745.229 406.902C745.217 407.103 745.214 407.293 745.221 407.473C745.241 407.992 745.327 408.419 745.48 408.754C745.653 409.087 745.989 409.245 746.489 409.226C746.848 409.212 747.185 409.119 747.499 408.947C747.812 408.755 748.094 408.534 748.344 408.285C748.614 408.014 748.844 407.735 749.033 407.448C749.221 407.14 749.361 406.855 749.451 406.591C749.522 405.848 749.665 404.872 749.88 403.663L749.868 403.363C749.855 403.023 749.853 402.693 749.86 402.373C749.888 402.051 749.938 401.769 750.008 401.526C750.098 401.263 750.231 401.058 750.405 400.911C750.579 400.744 750.826 400.655 751.146 400.642C751.745 400.62 752.135 400.865 752.314 401.378ZM764.905 401.47C765.232 401.657 765.406 402.031 765.428 402.59C765.444 403.01 765.348 403.374 765.139 403.682C764.931 403.99 764.637 404.152 764.257 404.166C764.017 404.175 763.765 404.125 763.501 404.015C763.255 403.884 762.993 403.824 762.713 403.835C762.473 403.844 762.235 403.903 761.999 404.012C761.783 404.1 761.53 404.3 761.242 404.611L760.376 405.545C760.382 405.685 760.387 405.825 760.392 405.964C760.418 406.104 760.433 406.253 760.44 406.413C760.449 406.653 760.448 406.903 760.438 407.164C760.448 407.423 760.449 407.704 760.44 408.004L760.814 410.722C760.789 411.644 760.337 412.121 759.457 412.155C758.998 412.172 758.653 412.045 758.422 411.774C758.191 411.482 758.025 411.078 757.926 410.562C757.826 410.045 757.763 409.437 757.736 408.738C757.729 408.037 757.7 407.268 757.648 406.429C757.56 405.172 757.506 404.543 757.486 404.544L757.487 404.574C757.396 404.277 757.326 404.02 757.278 403.801C757.229 403.563 757.201 403.354 757.194 403.174C757.18 402.814 757.299 402.52 757.551 402.29C757.801 402.04 758.176 401.906 758.676 401.887C758.996 401.875 759.385 402.11 759.844 402.593C760.29 402.216 760.629 401.933 760.862 401.744C761.115 401.554 761.32 401.416 761.477 401.33C761.654 401.243 761.822 401.197 761.982 401.191C762.141 401.164 762.351 401.147 762.61 401.137C762.829 401.108 763.03 401.111 763.211 401.144C763.412 401.176 763.624 401.208 763.845 401.24L764.905 401.47ZM778.262 407.836L778.271 408.076C778.275 408.196 778.284 408.416 778.296 408.735C778.327 409.034 778.309 409.345 778.241 409.668C778.194 409.99 778.075 410.285 777.885 410.552C777.694 410.8 777.399 410.931 776.999 410.946C776.22 410.976 775.748 410.684 775.585 410.069C775.6 409.949 775.605 409.819 775.6 409.679C775.594 409.519 775.587 409.349 775.58 409.169C775.577 409.089 775.566 408.799 775.547 408.3C775.528 407.78 775.486 407.221 775.423 406.623C775.381 406.024 775.299 405.467 775.18 404.951C775.059 404.415 774.896 404.081 774.691 403.949C774.219 403.647 773.804 403.503 773.444 403.516C772.964 403.534 772.56 403.7 772.232 404.013C771.923 404.305 771.674 404.875 771.486 405.722C771.477 406.003 771.469 406.323 771.463 406.684C771.456 407.024 771.441 407.415 771.418 407.856C771.43 408.196 771.455 408.576 771.491 408.994C771.526 409.393 771.574 409.852 771.633 410.37C771.648 410.75 771.51 411.075 771.22 411.346C770.929 411.598 770.594 411.731 770.215 411.745C769.915 411.756 769.672 411.686 769.486 411.533C769.3 411.38 769.152 411.175 769.042 410.919C768.952 410.662 768.882 410.385 768.83 410.086C768.799 409.787 768.778 409.488 768.766 409.188C768.758 408.968 768.76 408.748 768.771 408.528C768.782 408.287 768.803 408.046 768.834 407.805L768.964 404.918L769.149 403.47C769.1 403.231 769.01 402.974 768.879 402.699C768.749 402.424 768.681 402.206 768.674 402.047C768.662 401.707 768.78 401.392 769.029 401.102C769.298 400.812 769.632 400.659 770.032 400.644C770.312 400.633 770.524 400.685 770.669 400.8C770.812 400.894 771.052 401.145 771.388 401.553C771.781 401.358 772.096 401.236 772.334 401.187C772.572 401.118 772.851 401.077 773.17 401.065C774.21 401.025 775.129 401.24 775.927 401.71C776.745 402.16 777.275 402.95 777.518 404.082C777.594 404.499 777.658 404.847 777.708 405.125C777.779 405.403 777.839 405.671 777.889 405.929C777.939 406.187 777.989 406.465 778.041 406.764C778.091 407.042 778.165 407.399 778.262 407.836ZM790.657 407.244C790.621 407.866 790.433 408.443 790.093 408.977C789.772 409.489 789.442 410.012 789.102 410.546C788.889 410.734 788.575 410.896 788.159 411.032C787.765 411.187 787.37 411.312 786.973 411.407C786.576 411.502 786.229 411.576 785.93 411.627C785.652 411.678 785.533 411.702 785.573 411.701C785.373 411.708 785.112 411.678 784.789 411.61C784.487 411.562 784.184 411.503 783.882 411.435C783.6 411.386 783.357 411.325 783.154 411.252C782.972 411.199 782.891 411.172 782.911 411.172C782.73 411.158 782.498 411.107 782.215 411.018C781.93 410.909 781.655 410.789 781.39 410.659C781.144 410.508 780.928 410.356 780.743 410.203C780.536 410.031 780.429 409.865 780.423 409.705C780.417 409.545 780.451 409.384 780.525 409.221C780.598 409.038 780.702 408.874 780.836 408.729C780.97 408.564 781.106 408.438 781.242 408.353C781.399 408.247 781.557 408.191 781.716 408.185L783.815 408.886C784.199 408.991 784.572 409.067 784.934 409.113C785.315 409.139 785.686 409.145 786.046 409.131C786.385 409.118 786.683 409.047 786.938 408.917C787.213 408.766 787.416 408.598 787.549 408.413L787.965 407.497C787.911 407.138 787.751 406.864 787.483 406.674C787.236 406.484 786.919 406.326 786.534 406.2C786.169 406.074 785.775 405.959 785.35 405.855C784.926 405.751 784.53 405.606 784.163 405.42L782.843 404.659C782.403 404.136 782.151 403.315 782.089 402.196C782.182 401.492 782.461 400.921 782.924 400.483C782.944 400.463 783.07 400.368 783.304 400.199C783.537 400.01 783.897 399.746 784.384 399.407C784.464 399.404 784.713 399.374 785.132 399.319C785.57 399.262 786.167 399.179 786.923 399.07C787.263 399.057 788.102 399.265 789.439 399.695C789.709 399.945 789.852 400.3 789.87 400.759C789.884 401.119 789.805 401.432 789.635 401.699C789.485 401.945 789.249 402.074 788.93 402.086C788.59 402.099 788.207 402.033 787.781 401.89C787.375 401.725 786.992 401.649 786.632 401.663C786.132 401.682 785.674 401.75 785.259 401.866C784.862 401.961 784.67 402.168 784.682 402.488C784.699 402.948 784.91 403.22 785.313 403.304C788.397 403.868 790.178 405.181 790.657 407.244ZM813.711 400.482L812.098 400.694C812.018 400.697 811.928 400.71 811.829 400.734C811.73 400.758 811.611 400.782 811.472 400.808C811.352 400.832 811.213 400.857 811.054 400.883L811.398 403.602C811.428 403.861 811.46 404.18 811.494 404.559C811.549 404.938 811.626 405.385 811.726 405.902C811.712 406.062 811.698 406.223 811.684 406.384C811.69 406.543 811.697 406.723 811.704 406.923C811.716 407.223 811.738 407.552 811.772 407.911C811.806 408.27 811.851 408.659 811.907 409.077C811.57 409.69 811.071 410.009 810.412 410.035C809.812 410.057 809.382 409.784 809.12 409.213C809.114 409.053 809.106 408.863 809.098 408.644C809.109 408.403 809.109 408.143 809.098 407.863C809.088 407.583 809.066 407.284 809.034 406.965C809.021 406.625 809.007 406.255 808.992 405.856L808.986 405.706C808.974 405.386 808.945 405.147 808.899 404.988C808.873 404.829 808.835 404.631 808.786 404.392C808.736 404.134 808.673 403.776 808.595 403.319C808.518 402.861 808.431 402.164 808.335 401.227L807.234 401.479C807.174 401.482 807.114 401.484 807.054 401.486C807.014 401.468 806.973 401.459 806.933 401.461C806.833 401.464 806.744 401.478 806.665 401.501C806.585 401.504 806.515 401.507 806.455 401.509C806.375 401.532 806.306 401.545 806.246 401.547C805.6 401.411 805.263 400.964 805.234 400.204C805.223 399.905 805.244 399.674 805.298 399.511C805.352 399.349 805.477 399.224 805.674 399.137C805.871 399.049 806.158 398.978 806.536 398.924C806.934 398.849 807.45 398.749 808.086 398.625C808.053 398.286 807.998 397.898 807.922 397.46C807.864 397.002 807.826 396.513 807.806 395.994C807.775 395.194 808.095 394.131 808.765 392.805C808.961 392.697 809.147 392.59 809.323 392.483C809.519 392.376 809.746 392.277 810.003 392.187C810.279 392.077 810.595 391.975 810.952 391.881C811.328 391.766 811.794 391.659 812.35 391.557L812.47 391.553C812.81 391.54 813.075 391.66 813.265 391.913C813.474 392.165 813.586 392.461 813.599 392.801C813.613 393.181 813.534 393.474 813.362 393.68C813.209 393.866 813.005 394.024 812.749 394.154C812.493 394.264 812.207 394.365 811.89 394.457C811.593 394.528 811.316 394.629 811.061 394.759C810.824 394.848 810.68 395.003 810.629 395.226C810.597 395.447 810.575 395.668 810.564 395.889C810.565 395.928 810.582 396.098 810.613 396.397C810.644 396.676 810.663 396.925 810.672 397.145C810.674 397.205 810.666 397.266 810.649 397.326C810.65 397.366 810.652 397.406 810.653 397.446C810.656 397.526 810.66 397.636 810.666 397.776C810.69 397.895 810.717 398.064 810.745 398.283L812.117 398.051C812.256 398.026 812.386 398.011 812.506 398.006C812.646 398.001 812.766 397.996 812.866 397.992C813.365 397.973 813.728 398.05 813.955 398.221C814.202 398.392 814.333 398.697 814.35 399.137C814.377 399.836 814.164 400.285 813.711 400.482ZM825.476 399.164C825.803 399.351 825.978 399.725 825.999 400.284C826.015 400.704 825.919 401.068 825.71 401.376C825.502 401.684 825.208 401.846 824.828 401.86C824.588 401.869 824.336 401.819 824.072 401.709C823.827 401.578 823.564 401.518 823.284 401.529C823.045 401.538 822.807 401.597 822.571 401.706C822.354 401.794 822.101 401.994 821.813 402.305L820.948 403.239C820.953 403.379 820.959 403.519 820.964 403.658C820.989 403.798 821.005 403.947 821.011 404.107C821.02 404.347 821.02 404.597 821.009 404.858C821.019 405.117 821.02 405.398 821.011 405.698L821.385 408.416C821.36 409.338 820.908 409.815 820.029 409.849C819.569 409.866 819.224 409.739 818.993 409.468C818.762 409.176 818.597 408.772 818.497 408.256C818.397 407.739 818.334 407.131 818.307 406.432C818.301 405.731 818.271 404.962 818.22 404.123C818.132 402.866 818.078 402.237 818.058 402.238L818.059 402.268C817.967 401.971 817.898 401.714 817.849 401.495C817.8 401.257 817.772 401.048 817.765 400.868C817.752 400.508 817.871 400.214 818.122 399.984C818.373 399.734 818.748 399.6 819.247 399.581C819.567 399.569 819.956 399.804 820.415 400.287C820.861 399.91 821.201 399.627 821.434 399.438C821.687 399.248 821.891 399.11 822.048 399.024C822.225 398.937 822.393 398.891 822.553 398.885C822.712 398.858 822.922 398.841 823.182 398.831C823.401 398.802 823.601 398.805 823.782 398.838C823.984 398.87 824.195 398.902 824.417 398.934L825.476 399.164ZM836.833 408.188C836.58 408.378 836.167 408.574 835.594 408.776C835.021 408.958 834.426 409.12 833.811 409.264L832.573 409.071C832.391 409.018 832.086 408.889 831.658 408.685C831.25 408.481 830.828 408.167 830.391 407.743C829.954 407.299 829.562 406.734 829.216 406.046C828.869 405.339 828.676 404.476 828.637 403.456C828.623 403.097 828.687 402.674 828.829 402.188C828.99 401.682 829.232 401.212 829.556 400.78C829.879 400.327 830.284 399.941 830.772 399.622C831.281 399.303 831.875 399.13 832.554 399.104C833.913 399.053 835.159 399.445 836.292 400.283C837.301 401.565 837.836 403.006 837.897 404.605C837.942 405.784 837.587 406.978 836.833 408.188ZM835.202 403.987C835.072 403.211 834.799 402.611 834.383 402.187C833.985 401.742 833.487 401.531 832.887 401.553C832.488 401.569 832.116 401.783 831.771 402.196C831.446 402.589 831.297 403.155 831.325 403.894C831.337 404.194 831.389 404.513 831.482 404.849C831.574 405.166 831.715 405.461 831.906 405.734C832.096 405.987 832.334 406.198 832.62 406.367C832.906 406.516 833.249 406.583 833.649 406.568C834.288 406.544 834.721 406.337 834.946 405.948C835.171 405.539 835.272 405.045 835.25 404.466C835.247 404.386 835.234 404.316 835.212 404.257C835.209 404.177 835.206 404.087 835.202 403.987ZM859.186 406.376C859.196 406.636 859.055 406.862 858.762 407.053C858.488 407.224 858.181 407.315 857.841 407.328C857.442 407.343 857.137 407.225 856.927 406.973C856.738 406.72 856.595 406.395 856.5 405.998C856.404 405.582 856.337 405.124 856.298 404.625C856.278 404.125 856.25 403.646 856.213 403.187C856.167 403.049 856.11 402.851 856.04 402.593C855.97 402.336 855.908 402.008 855.852 401.61C855.29 401.031 854.629 400.756 853.87 400.785C853.59 400.795 853.311 400.836 853.034 400.906C852.755 400.957 852.5 401.077 852.267 401.266C852.033 401.435 851.823 401.693 851.636 402.04C851.449 402.388 851.307 402.854 851.209 403.438C851.232 403.537 851.249 403.716 851.259 403.976C851.268 404.196 851.258 404.467 851.23 404.788C851.221 405.088 851.205 405.439 851.18 405.841L851.186 405.99C851.189 406.07 851.196 406.27 851.209 406.59C851.22 406.89 851.192 407.211 851.125 407.554C851.057 407.877 850.919 408.172 850.709 408.44C850.519 408.708 850.224 408.849 849.824 408.864C849.464 408.878 849.14 408.78 848.852 408.571C848.565 408.382 848.415 408.137 848.404 407.838C848.402 407.798 848.407 407.647 848.417 407.387C848.447 407.125 848.476 406.834 848.504 406.513C848.551 406.171 848.578 405.84 848.586 405.519C848.613 405.178 848.623 404.907 848.615 404.707C848.602 404.368 848.559 404.029 848.486 403.691L848.471 403.302C848.433 402.283 848.196 401.331 847.762 400.447C847.453 400.218 846.978 400.076 846.335 400.021C846.217 400.065 846.069 400.131 845.892 400.218C845.715 400.304 845.542 400.481 845.372 400.748C845.201 400.994 845.055 401.35 844.932 401.815C844.81 402.28 844.734 402.904 844.703 403.685L844.66 404.918C844.803 405.513 844.883 406.03 844.899 406.47C844.919 406.99 844.845 407.413 844.678 407.739C844.529 408.045 844.165 408.209 843.585 408.231C843.286 408.243 843.035 408.222 842.833 408.17C842.65 408.097 842.494 407.943 842.365 407.707C842.255 407.451 842.171 407.084 842.113 406.606C842.054 406.108 842.009 405.449 841.977 404.63C841.952 403.97 841.968 403.329 842.024 402.707C842.08 402.064 842.169 401.24 842.29 400.235C842.217 399.897 842.116 399.591 841.985 399.316C841.874 399.02 841.815 398.792 841.809 398.632C841.796 398.292 841.935 397.987 842.224 397.715C842.514 397.444 842.859 397.301 843.259 397.286C843.559 397.274 843.832 397.354 844.079 397.525L844.613 398.165C844.845 397.956 845.05 397.798 845.226 397.691C845.401 397.564 845.557 397.468 845.695 397.403C845.833 397.338 845.971 397.303 846.111 397.297C846.25 397.272 846.41 397.256 846.59 397.249C846.85 397.239 847.05 397.231 847.189 397.226C847.349 397.22 847.51 397.244 847.673 397.298C847.835 397.352 848.018 397.445 848.224 397.577C848.448 397.689 848.755 397.867 849.145 398.112C849.39 398.263 849.73 398.771 850.163 399.635L850.335 399.418C850.49 399.272 850.704 399.124 850.979 398.973C851.253 398.823 851.548 398.691 851.864 398.579C852.199 398.446 852.536 398.344 852.873 398.271C853.23 398.177 853.548 398.125 853.828 398.114C854.488 398.089 855.06 398.137 855.545 398.259C856.029 398.361 856.446 398.535 856.796 398.782C857.144 399.009 857.456 399.317 857.731 399.707C858.006 400.077 858.272 400.507 858.531 400.997L858.539 401.207C858.545 401.367 858.576 401.656 858.632 402.074C858.688 402.493 858.744 402.911 858.8 403.329C858.856 403.747 858.91 404.115 858.962 404.433C859.014 404.732 859.038 404.861 859.037 404.821C859.038 404.841 859.04 404.911 859.045 405.031C859.069 405.13 859.084 405.259 859.09 405.419C859.115 405.558 859.131 405.708 859.137 405.868C859.162 406.007 859.176 406.117 859.179 406.196L859.186 406.376ZM605.861 444.441C606.087 444.613 606.21 444.938 606.228 445.418C606.262 446.297 605.949 446.75 605.289 446.775L605.169 446.779C604.87 446.811 604.521 446.854 604.123 446.909C603.724 446.944 603.276 447.001 602.779 447.08C602.751 447.402 602.727 447.833 602.708 448.374C602.688 448.895 602.692 449.525 602.72 450.265C602.722 450.325 602.724 450.385 602.727 450.445C602.749 450.504 602.762 450.574 602.765 450.653L602.817 452.032C602.829 452.352 602.889 452.61 602.997 452.806C603.124 452.982 603.268 453.106 603.431 453.18L604.281 453.418C604.949 453.613 605.294 454 605.316 454.579C605.329 454.919 605.2 455.224 604.93 455.495C604.681 455.764 604.346 455.907 603.926 455.923C603.806 455.928 603.595 455.906 603.293 455.857C603.01 455.788 602.707 455.699 602.382 455.592C602.078 455.483 601.782 455.344 601.496 455.175C601.229 455.005 601.042 454.812 600.933 454.596C600.696 454.145 600.498 453.672 600.339 453.178C600.179 452.663 600.089 452.126 600.068 451.567C600.044 450.947 600.037 450.507 600.047 450.247C600.057 449.986 600.069 449.755 600.081 449.555C600.093 449.354 600.104 449.114 600.114 448.833C600.123 448.552 600.115 448.092 600.091 447.453C599.713 447.507 599.158 447.649 598.426 447.877C597.986 447.893 597.602 447.798 597.274 447.59C596.965 447.362 596.804 447.058 596.789 446.678C596.779 446.398 596.849 446.135 596.999 445.889C597.17 445.643 597.522 445.419 598.055 445.219C598.232 445.152 598.391 445.106 598.53 445.081C598.689 445.054 598.838 445.029 598.977 445.003C599.136 444.977 599.306 444.961 599.486 444.954C599.665 444.927 599.883 444.889 600.142 444.839C600.143 444.339 600.151 443.778 600.168 443.157C600.203 442.515 600.271 441.922 600.37 441.378C600.489 440.833 600.662 440.376 600.888 440.007C601.134 439.618 601.466 439.415 601.886 439.399C602.605 439.371 603.058 439.684 603.243 440.338C603.243 440.358 603.219 440.499 603.169 440.761C603.138 441.002 603.098 441.274 603.05 441.576C603.001 441.878 602.952 442.17 602.903 442.452C602.874 442.734 602.86 442.914 602.863 442.994L602.829 444.467C602.969 444.441 603.098 444.426 603.218 444.422C603.337 444.397 603.467 444.382 603.607 444.377L603.876 444.367C604.016 444.361 604.146 444.356 604.266 444.352C604.385 444.327 604.495 444.313 604.595 444.309C605.194 444.286 605.616 444.33 605.861 444.441ZM619.636 454.034C619.021 454.698 618.322 455.265 617.539 455.735C616.757 456.225 615.957 456.486 615.137 456.517C614.398 456.545 613.444 456.461 612.276 456.266C611.866 456.021 611.454 455.727 611.041 455.382C610.627 455.018 610.251 454.622 609.915 454.194C609.578 453.747 609.299 453.267 609.08 452.755C608.859 452.223 608.738 451.677 608.717 451.117C608.711 450.957 608.713 450.747 608.723 450.487C608.732 450.206 608.742 449.936 608.752 449.675C608.782 449.394 608.802 449.153 608.815 448.952C608.827 448.751 608.833 448.651 608.833 448.651C609.209 447.996 609.604 447.351 610.021 446.715C610.456 446.058 611.074 445.474 611.875 444.963C613.164 444.634 614.098 444.458 614.677 444.436C614.977 444.424 615.238 444.434 615.459 444.466C615.68 444.478 615.892 444.53 616.095 444.622C616.318 444.694 616.533 444.815 616.74 444.988C616.966 445.159 617.225 445.38 617.515 445.649C617.848 445.976 618.107 446.197 618.291 446.31C618.496 446.422 618.6 446.528 618.603 446.628C618.673 448.467 618.151 449.737 617.037 450.44C616.545 450.639 615.903 450.864 615.112 451.114C614.32 451.344 613.238 451.576 611.866 451.808C612.174 452.557 612.566 453.112 613.04 453.475C613.514 453.837 614.041 454.007 614.62 453.985C615.48 453.952 616.54 453.401 617.8 452.333C617.993 452.145 618.239 452.046 618.539 452.034C618.859 452.022 619.143 452.131 619.392 452.362C619.661 452.592 619.802 452.887 619.816 453.247C619.826 453.506 619.766 453.769 619.636 454.034ZM616.004 447.748C615.601 447.143 615.139 446.85 614.62 446.87C614.4 446.878 614.161 446.917 613.904 446.987C613.646 447.057 613.38 447.157 613.105 447.288C612.849 447.397 612.604 447.537 612.37 447.706C612.156 447.874 611.984 448.071 611.852 448.296L611.586 449.207C612.264 449.121 612.861 449.048 613.379 448.988C613.898 448.929 614.345 448.852 614.722 448.757C615.098 448.663 615.394 448.541 615.608 448.393C615.823 448.245 615.955 448.03 616.004 447.748ZM633.937 452.319C634.003 452.476 634.04 452.645 634.047 452.825C634.061 453.205 633.935 453.58 633.669 453.95C633.402 454.301 633.119 454.481 632.819 454.493C632.659 454.499 632.456 454.427 632.21 454.276C631.984 454.104 631.632 453.808 631.156 453.385C630.861 452.996 630.63 452.715 630.463 452.541C630.296 452.347 630.129 452.184 629.964 452.05C629.818 451.895 629.642 451.732 629.435 451.56C629.228 451.367 628.936 451.078 628.561 450.692L627.56 451.991C627.166 452.667 626.847 453.249 626.606 453.739C626.364 454.208 626.148 454.597 625.96 454.904C625.771 455.212 625.58 455.439 625.385 455.586C625.211 455.733 624.994 455.812 624.734 455.821C624.374 455.835 624.04 455.738 623.732 455.529C623.424 455.321 623.263 455.047 623.25 454.707C623.247 454.607 623.29 454.445 623.382 454.222C623.493 453.977 623.604 453.743 623.715 453.519C623.846 453.273 623.958 453.059 624.051 452.875C624.164 452.691 624.23 452.578 624.249 452.538C624.476 452.209 624.712 451.839 624.957 451.43C625.201 451 625.494 450.549 625.836 450.075L626.692 448.902C626.384 448.694 625.95 448.33 625.39 447.811C625.287 447.755 625.093 447.642 624.806 447.473C624.54 447.303 624.262 447.113 623.974 446.904C623.685 446.675 623.426 446.444 623.197 446.213C622.967 445.962 622.848 445.726 622.84 445.506C622.824 445.086 622.941 444.742 623.191 444.472C623.46 444.181 623.774 444.029 624.134 444.016C624.254 444.011 624.344 444.018 624.405 444.035C624.465 444.033 624.557 444.07 624.68 444.145C624.803 444.22 624.988 444.353 625.235 444.544C625.482 444.715 625.852 444.981 626.346 445.343C626.494 445.537 626.783 445.776 627.214 446.06L628.293 446.8C628.544 446.55 628.754 446.282 628.923 445.995C629.112 445.708 629.245 445.522 629.322 445.439C629.588 445.069 629.807 444.78 629.98 444.574C630.171 444.346 630.335 444.17 630.47 444.045C630.605 443.919 630.722 443.835 630.821 443.791C630.919 443.747 631.028 443.723 631.148 443.719C631.508 443.705 631.822 443.813 632.091 444.043C632.359 444.253 632.5 444.538 632.514 444.898C632.521 445.077 632.469 445.3 632.359 445.564C632.268 445.808 632.108 446.074 631.879 446.363L630.679 447.97C630.583 448.073 630.487 448.177 630.391 448.281C630.314 448.364 630.257 448.436 630.219 448.497C630.594 448.883 631.105 449.424 631.752 450.12C632.419 450.815 633.147 451.548 633.937 452.319ZM648.245 450.603C648.614 450.829 648.805 451.112 648.818 451.452C648.825 451.632 648.782 451.824 648.69 452.027C648.597 452.211 648.473 452.386 648.32 452.552C648.165 452.698 648 452.824 647.824 452.931C647.648 453.038 647.47 453.095 647.29 453.101C647.128 453.048 646.934 452.955 646.709 452.823C646.483 452.672 646.257 452.51 646.03 452.339C645.802 452.147 645.584 451.935 645.375 451.703C645.186 451.47 645.037 451.236 644.928 451L644.738 451.517C644.385 452.251 643.812 452.954 643.017 453.624C642.024 453.842 641.448 453.954 641.288 453.96C640.908 453.975 640.447 453.932 639.902 453.833L638.209 452.727C637.464 452.074 637.069 451.159 637.024 449.98C637.008 449.56 637.05 449.098 637.151 448.594C637.271 448.069 637.441 447.542 637.661 447.013C637.901 446.484 638.192 445.962 638.532 445.449C638.873 444.936 639.276 444.47 639.74 444.052C640.311 443.81 640.864 443.609 641.398 443.449C641.932 443.268 642.338 443.153 642.616 443.102C642.98 442.668 643.421 442.441 643.941 442.421C644.241 442.41 644.506 442.55 644.738 442.841C644.988 443.112 645.202 443.464 645.378 443.897C645.575 444.33 645.733 444.815 645.854 445.35C645.974 445.866 646.063 446.363 646.121 446.841L646.571 448.415C646.71 448.91 646.916 449.333 647.19 449.683C647.483 450.032 647.835 450.339 648.245 450.603ZM643.562 447.449C643.521 447.431 643.348 446.807 643.041 445.578C642.941 445.581 642.791 445.587 642.591 445.595C642.391 445.602 642.153 445.671 641.878 445.802C641.622 445.912 641.34 446.113 641.031 446.405C640.741 446.676 640.466 447.087 640.207 447.637C639.817 448.432 639.637 449.22 639.666 449.999C640.031 450.646 640.581 451.145 641.315 451.498C641.532 451.429 641.709 451.352 641.846 451.267C642.003 451.181 642.139 451.066 642.253 450.921C642.368 450.777 642.471 450.603 642.564 450.399C642.675 450.175 642.795 449.9 642.923 449.575C643.165 449.105 643.329 448.699 643.416 448.355C643.523 447.991 643.571 447.689 643.562 447.449ZM659.425 450.268C659.389 450.889 659.201 451.467 658.861 452C658.54 452.513 658.21 453.036 657.87 453.569C657.657 453.757 657.343 453.92 656.928 454.055C656.533 454.211 656.138 454.336 655.741 454.431C655.344 454.526 654.997 454.599 654.699 454.651C654.42 454.701 654.301 454.726 654.341 454.724C654.141 454.732 653.88 454.702 653.557 454.634C653.255 454.586 652.953 454.527 652.65 454.458C652.368 454.409 652.125 454.348 651.922 454.276C651.74 454.223 651.659 454.196 651.679 454.195C651.499 454.182 651.266 454.131 650.983 454.042C650.699 453.932 650.424 453.813 650.159 453.683C649.913 453.532 649.697 453.38 649.511 453.227C649.304 453.055 649.198 452.889 649.192 452.729C649.186 452.569 649.219 452.407 649.293 452.245C649.366 452.062 649.47 451.898 649.605 451.752C649.739 451.587 649.874 451.462 650.011 451.377C650.167 451.271 650.325 451.215 650.485 451.208L652.583 451.909C652.967 452.015 653.34 452.09 653.702 452.137C654.084 452.162 654.454 452.168 654.814 452.154C655.154 452.142 655.451 452.07 655.706 451.94C655.981 451.79 656.185 451.622 656.318 451.437L656.733 450.52C656.679 450.162 656.519 449.888 656.251 449.698C656.004 449.507 655.688 449.349 655.303 449.224C654.938 449.098 654.543 448.982 654.119 448.879C653.694 448.775 653.299 448.63 652.931 448.443L651.611 447.683C651.171 447.159 650.92 446.338 650.857 445.22C650.95 444.516 651.229 443.945 651.693 443.507C651.712 443.486 651.838 443.391 652.072 443.222C652.305 443.033 652.665 442.769 653.153 442.431C653.233 442.428 653.482 442.398 653.9 442.342C654.338 442.285 654.935 442.203 655.692 442.094C656.032 442.081 656.87 442.289 658.207 442.719C658.477 442.968 658.621 443.323 658.638 443.783C658.652 444.143 658.574 444.456 658.404 444.722C658.253 444.968 658.018 445.097 657.698 445.11C657.358 445.123 656.975 445.057 656.55 444.913C656.143 444.749 655.76 444.673 655.4 444.687C654.901 444.706 654.443 444.773 654.027 444.889C653.63 444.984 653.438 445.192 653.45 445.512C653.468 445.971 653.678 446.243 654.082 446.328C657.165 446.891 658.947 448.204 659.425 450.268ZM680.258 438.787C680.304 438.945 680.33 439.094 680.335 439.234C680.359 439.874 680.19 440.421 679.827 440.875C679.237 441.137 678.642 441.28 678.042 441.303C677.653 441.078 677.323 440.82 677.052 440.53C676.8 440.219 676.668 439.914 676.657 439.614C676.647 439.355 676.922 438.704 677.483 437.662C677.745 437.692 678.016 437.711 678.296 437.721C678.597 437.729 678.868 437.769 679.111 437.84C679.374 437.91 679.598 438.021 679.784 438.174C679.99 438.307 680.147 438.511 680.258 438.787ZM679.489 443.83L679.504 444.219C679.508 444.319 679.512 444.429 679.517 444.549C679.521 444.669 679.505 444.78 679.469 444.881L679.281 446.239L679.291 446.509C679.296 446.629 679.292 446.789 679.279 446.99C679.267 447.191 679.245 447.392 679.212 447.593C679.2 447.794 679.187 447.984 679.174 448.165C679.161 448.345 679.157 448.496 679.161 448.616C679.165 448.716 679.168 448.796 679.17 448.855C679.193 448.915 679.206 448.994 679.209 449.094C679.216 449.274 679.204 449.475 679.172 449.696C679.14 449.897 679.129 450.128 679.139 450.388C679.148 450.628 679.187 450.876 679.257 451.134C679.071 452.042 678.629 452.509 677.929 452.535C676.95 452.573 676.425 451.672 676.355 449.833C676.332 449.214 676.339 448.603 676.376 448.001C676.412 447.379 676.46 446.807 676.521 446.284C676.581 445.762 676.644 445.309 676.709 444.926C676.794 444.523 676.862 444.21 676.913 443.988C677.197 443.537 677.608 443.301 678.147 443.28C678.667 443.261 679.114 443.444 679.489 443.83ZM694.866 449.038L694.876 449.278C694.88 449.398 694.889 449.618 694.901 449.938C694.932 450.237 694.914 450.548 694.846 450.871C694.798 451.193 694.679 451.487 694.49 451.755C694.299 452.002 694.004 452.134 693.604 452.149C692.824 452.178 692.353 451.886 692.189 451.272C692.205 451.151 692.21 451.021 692.205 450.881C692.199 450.721 692.192 450.551 692.185 450.371C692.182 450.291 692.171 450.002 692.152 449.502C692.132 448.982 692.091 448.424 692.028 447.826C691.985 447.227 691.904 446.669 691.784 446.154C691.664 445.618 691.501 445.284 691.296 445.151C690.824 444.849 690.408 444.705 690.049 444.719C689.569 444.737 689.165 444.902 688.837 445.215C688.528 445.507 688.279 446.077 688.091 446.925C688.082 447.205 688.074 447.526 688.068 447.886C688.061 448.227 688.045 448.618 688.022 449.059C688.035 449.399 688.06 449.778 688.096 450.197C688.131 450.596 688.178 451.054 688.238 451.572C688.252 451.952 688.115 452.278 687.825 452.549C687.534 452.8 687.199 452.933 686.819 452.947C686.52 452.959 686.277 452.888 686.091 452.735C685.905 452.582 685.757 452.377 685.647 452.121C685.557 451.865 685.487 451.587 685.435 451.289C685.404 450.99 685.382 450.69 685.371 450.391C685.363 450.171 685.364 449.951 685.376 449.73C685.387 449.489 685.408 449.248 685.438 449.007L685.569 446.12L685.754 444.672C685.705 444.434 685.615 444.177 685.484 443.902C685.354 443.626 685.285 443.409 685.279 443.249C685.266 442.909 685.384 442.595 685.634 442.305C685.903 442.014 686.237 441.862 686.637 441.846C686.917 441.836 687.129 441.888 687.273 442.002C687.417 442.097 687.657 442.348 687.992 442.755C688.385 442.56 688.701 442.438 688.939 442.389C689.177 442.32 689.455 442.279 689.775 442.267C690.814 442.228 691.733 442.443 692.532 442.913C693.349 443.362 693.88 444.152 694.123 445.284C694.199 445.701 694.262 446.049 694.313 446.328C694.384 446.605 694.444 446.873 694.494 447.131C694.543 447.39 694.594 447.668 694.645 447.966C694.696 448.244 694.77 448.602 694.866 449.038ZM704.481 451.104C704.488 451.284 704.435 451.466 704.322 451.651C704.229 451.834 704.094 451.99 703.919 452.116C703.765 452.262 703.579 452.379 703.362 452.468C703.166 452.575 702.978 452.632 702.798 452.639C702.318 452.658 701.926 452.602 701.621 452.474C701.317 452.365 701.081 452.214 700.913 452.021C700.766 451.826 700.658 451.62 700.589 451.402C700.54 451.164 700.512 450.945 700.504 450.745C700.495 450.505 700.526 450.264 700.597 450.021C700.687 449.758 700.808 449.523 700.96 449.317C701.113 449.111 701.296 448.944 701.512 448.816C701.726 448.667 701.973 448.588 702.253 448.577C702.433 448.57 702.644 448.582 702.885 448.613C703.146 448.643 703.39 448.744 703.617 448.915C703.844 449.087 704.034 449.35 704.188 449.704C704.36 450.038 704.458 450.505 704.481 451.104ZM714.757 450.713C714.764 450.893 714.71 451.075 714.597 451.259C714.504 451.443 714.37 451.598 714.195 451.725C714.04 451.871 713.855 451.988 713.638 452.077C713.442 452.184 713.254 452.241 713.074 452.248C712.594 452.266 712.202 452.211 711.897 452.083C711.592 451.974 711.357 451.823 711.189 451.629C711.042 451.435 710.934 451.229 710.865 451.011C710.816 450.773 710.788 450.554 710.78 450.354C710.771 450.114 710.802 449.873 710.873 449.63C710.963 449.366 711.084 449.132 711.236 448.926C711.388 448.72 711.572 448.553 711.788 448.424C712.002 448.276 712.249 448.197 712.529 448.186C712.709 448.179 712.919 448.191 713.161 448.222C713.422 448.252 713.666 448.353 713.893 448.524C714.12 448.696 714.31 448.959 714.463 449.313C714.636 449.647 714.734 450.113 714.757 450.713ZM725.032 450.322C725.039 450.502 724.986 450.684 724.873 450.868C724.78 451.052 724.646 451.207 724.471 451.334C724.316 451.48 724.13 451.597 723.914 451.685C723.718 451.793 723.53 451.85 723.35 451.857C722.87 451.875 722.478 451.82 722.173 451.692C721.868 451.583 721.632 451.432 721.465 451.238C721.317 451.044 721.209 450.838 721.141 450.62C721.092 450.382 721.064 450.163 721.056 449.963C721.047 449.723 721.078 449.482 721.148 449.239C721.239 448.975 721.36 448.74 721.512 448.534C721.664 448.328 721.848 448.161 722.063 448.033C722.278 447.885 722.525 447.805 722.805 447.795C722.985 447.788 723.195 447.8 723.437 447.831C723.698 447.861 723.942 447.962 724.169 448.133C724.395 448.305 724.585 448.568 724.739 448.922C724.912 449.256 725.01 449.722 725.032 450.322Z" fill="#222222"/>
<path d="M822.748 494C819.715 491.452 814.102 487.755 813.673 483.465C813.516 481.895 812.202 479.495 814.807 479.495C816.949 479.495 817.719 479.547 819.345 480.503C819.893 480.826 823.39 483.792 823.441 483.78C823.854 483.689 823.88 482.746 824.008 482.457C824.443 481.479 825.819 480.827 826.718 480.377C828.366 479.553 830.522 478.413 832.39 478.361C835.684 478.269 835.908 478.428 835.793 481.638C835.588 487.362 827.44 493.597 822.748 495.943" stroke="black" stroke-width="3" stroke-linecap="round"/>
</svg>
