<svg width="1440" height="1024" viewBox="0 0 1440 1024" fill="none" xmlns="http://www.w3.org/2000/svg">
<rect width="1440" height="1024" fill="#F5D6A8"/>
<rect x="1060.06" y="306.679" width="27.65" height="389.733" transform="rotate(-7.7316 1060.06 306.679)" fill="#EDB039"/>
<path d="M1065.66 246.126L1087.19 302.996L1060.07 306.678L1065.66 246.126Z" fill="#FFEFD8"/>
<path d="M1074.11 268.232L1063.67 269.649L1065.88 246.76L1074.11 268.232Z" fill="#222222"/>
<circle cx="297.164" cy="445.411" r="154" transform="rotate(131.95 297.164 445.411)" fill="#2F4B2A"/>
<circle cx="297.164" cy="445.411" r="154" transform="rotate(131.95 297.164 445.411)" fill="#2F4B2A"/>
<circle cx="297.164" cy="445.411" r="154" transform="rotate(131.95 297.164 445.411)" fill="#2F4B2A"/>
<circle cx="297.164" cy="445.411" r="123.071" transform="rotate(131.95 297.164 445.411)" fill="#2F4B2A"/>
<circle cx="297.164" cy="445.411" r="123.071" transform="rotate(131.95 297.164 445.411)" fill="#2F4B2A"/>
<circle cx="297.164" cy="445.411" r="123.071" transform="rotate(131.95 297.164 445.411)" fill="#764930"/>
<rect x="254.429" y="581.794" width="81" height="42" rx="3" transform="rotate(113.516 254.429 581.794)" fill="#2F4B2A"/>
<rect x="375.42" y="455.969" width="36.0837" height="27.0628" rx="4" transform="rotate(111.331 375.42 455.969)" fill="white"/>
<rect x="356.345" y="372.82" width="29.8802" height="27.0628" rx="4" transform="rotate(148.291 356.345 372.82)" fill="white"/>
<rect x="250.641" y="444.085" width="34.4728" height="27.0628" rx="4" transform="rotate(133.637 250.641 444.085)" fill="white"/>
<rect x="281.454" y="487.604" width="24.7141" height="19.9524" rx="4" transform="rotate(108.343 281.454 487.604)" fill="white"/>
<rect x="303.702" y="439.357" width="34.9904" height="28.2487" rx="4" transform="rotate(-142.655 303.702 439.357)" fill="white"/>
<rect x="565" y="333" width="333" height="298" fill="#CA9A9A"/>
<path d="M600.951 606C566 562.5 568.164 417.396 566 333H897.532C902.325 382.092 886.547 549.467 920 606H600.951Z" fill="#E89E9E"/>
<path d="M606.924 414.809C606.575 415.623 605.98 416.286 605.138 416.799C604.297 417.291 603.346 417.557 602.287 417.598C602.147 417.603 601.916 417.592 601.595 417.564C601.274 417.536 600.911 417.47 600.507 417.365C600.122 417.26 599.717 417.115 599.289 416.931C598.881 416.727 598.501 416.461 598.148 416.134C597.795 415.787 597.499 415.368 597.26 414.877C597.021 414.386 596.888 413.8 596.863 413.121C596.808 412.222 596.897 411.398 597.129 410.649C597.38 409.899 597.792 409.133 598.362 408.35L599.275 407.085C600.365 406.283 601.61 405.855 603.009 405.802C603.768 405.773 604.373 405.89 604.823 406.153C605.294 406.415 605.539 406.806 605.558 407.326C605.574 407.726 605.436 408.061 605.146 408.332C604.876 408.583 604.511 408.717 604.051 408.734C604.031 408.735 603.951 408.728 603.81 408.713C603.689 408.678 603.547 408.643 603.386 408.609C603.224 408.576 603.063 408.552 602.903 408.538C602.741 408.504 602.611 408.489 602.511 408.493C602.051 408.51 601.53 408.77 600.949 409.273C600.388 409.774 599.957 410.551 599.657 411.603C599.534 412.048 599.477 412.411 599.488 412.691C599.509 413.25 599.676 413.684 599.988 413.993C600.32 414.3 600.679 414.537 601.066 414.702C601.452 414.848 601.806 414.944 602.128 414.992C602.449 415.02 602.62 415.033 602.639 415.032C602.919 415.022 603.196 414.931 603.47 414.761C603.743 414.59 603.986 414.401 604.199 414.193C604.431 413.984 604.614 413.806 604.749 413.661C604.883 413.496 604.94 413.414 604.92 413.415C605.113 413.227 605.339 413.128 605.599 413.118C605.919 413.106 606.215 413.265 606.488 413.595C606.78 413.904 606.932 414.229 606.945 414.568C606.949 414.668 606.942 414.749 606.924 414.809ZM620.862 413.618C621.23 413.844 621.421 414.127 621.434 414.467C621.441 414.647 621.398 414.839 621.306 415.042C621.213 415.226 621.09 415.401 620.936 415.567C620.781 415.713 620.616 415.839 620.44 415.946C620.264 416.053 620.086 416.11 619.906 416.116C619.744 416.062 619.55 415.97 619.325 415.838C619.099 415.687 618.873 415.525 618.646 415.354C618.419 415.162 618.2 414.95 617.991 414.718C617.802 414.485 617.653 414.251 617.544 414.015L617.354 414.532C617.002 415.266 616.428 415.969 615.633 416.639C614.64 416.857 614.064 416.969 613.904 416.975C613.525 416.99 613.063 416.947 612.518 416.848L610.825 415.742C610.08 415.089 609.685 414.174 609.64 412.995C609.624 412.575 609.666 412.113 609.767 411.609C609.887 411.084 610.057 410.557 610.277 410.028C610.517 409.499 610.808 408.977 611.149 408.464C611.489 407.951 611.892 407.485 612.356 407.067C612.927 406.825 613.48 406.624 614.014 406.464C614.548 406.283 614.954 406.168 615.232 406.117C615.596 405.683 616.038 405.456 616.557 405.436C616.857 405.425 617.123 405.565 617.354 405.856C617.604 406.127 617.818 406.479 617.994 406.912C618.191 407.345 618.35 407.83 618.47 408.365C618.59 408.881 618.679 409.378 618.737 409.856L619.187 411.43C619.326 411.925 619.532 412.348 619.806 412.698C620.099 413.047 620.451 413.354 620.862 413.618ZM616.178 410.464C616.138 410.446 615.964 409.822 615.657 408.593C615.557 408.596 615.407 408.602 615.207 408.61C615.007 408.617 614.77 408.686 614.494 408.817C614.238 408.927 613.956 409.128 613.647 409.42C613.357 409.691 613.082 410.102 612.823 410.652C612.433 411.447 612.253 412.235 612.282 413.014C612.647 413.661 613.197 414.16 613.931 414.513C614.148 414.444 614.325 414.367 614.462 414.282C614.619 414.196 614.755 414.081 614.869 413.936C614.984 413.792 615.087 413.618 615.18 413.414C615.291 413.19 615.411 412.915 615.539 412.59C615.781 412.12 615.946 411.714 616.033 411.37C616.139 411.006 616.187 410.704 616.178 410.464ZM633.845 413.334L633.854 413.574C633.859 413.694 633.867 413.914 633.879 414.233C633.91 414.532 633.892 414.843 633.825 415.166C633.777 415.488 633.658 415.783 633.468 416.05C633.277 416.298 632.982 416.429 632.582 416.444C631.803 416.474 631.331 416.182 631.168 415.568C631.183 415.447 631.188 415.317 631.183 415.177C631.177 415.017 631.17 414.847 631.164 414.667C631.161 414.587 631.15 414.297 631.13 413.798C631.111 413.278 631.069 412.719 631.007 412.121C630.964 411.522 630.883 410.965 630.763 410.449C630.642 409.913 630.48 409.579 630.274 409.447C629.803 409.145 629.387 409.001 629.027 409.014C628.547 409.032 628.143 409.198 627.815 409.511C627.506 409.803 627.257 410.373 627.07 411.22C627.06 411.501 627.052 411.821 627.046 412.182C627.039 412.522 627.024 412.913 627.001 413.354C627.014 413.694 627.038 414.074 627.074 414.492C627.109 414.891 627.157 415.35 627.216 415.868C627.231 416.248 627.093 416.573 626.803 416.844C626.513 417.096 626.177 417.229 625.798 417.243C625.498 417.254 625.255 417.184 625.069 417.031C624.883 416.878 624.735 416.673 624.625 416.417C624.536 416.16 624.465 415.883 624.414 415.584C624.382 415.285 624.361 414.986 624.349 414.686C624.341 414.466 624.343 414.246 624.354 414.026C624.365 413.785 624.386 413.544 624.417 413.303L624.547 410.416L624.732 408.968C624.683 408.729 624.593 408.473 624.463 408.197C624.332 407.922 624.264 407.704 624.258 407.545C624.245 407.205 624.363 406.89 624.612 406.6C624.881 406.31 625.216 406.157 625.615 406.142C625.895 406.131 626.107 406.183 626.252 406.298C626.395 406.392 626.635 406.644 626.971 407.051C627.364 406.856 627.679 406.734 627.918 406.685C628.155 406.616 628.434 406.575 628.754 406.563C629.793 406.523 630.712 406.738 631.51 407.208C632.328 407.658 632.858 408.448 633.101 409.58C633.177 409.997 633.241 410.345 633.291 410.623C633.362 410.901 633.422 411.169 633.472 411.427C633.522 411.685 633.572 411.963 633.624 412.262C633.674 412.54 633.748 412.897 633.845 413.334ZM647.702 401.458C647.649 401.64 647.632 401.991 647.652 402.511C647.663 402.811 647.678 403.19 647.695 403.65C647.733 404.109 647.757 404.488 647.769 404.788C647.779 405.068 647.789 405.318 647.797 405.538C647.806 405.757 647.793 405.938 647.758 406.08C647.781 406.159 647.794 406.248 647.798 406.348C647.802 406.448 647.806 406.558 647.811 406.678C647.821 406.958 647.815 407.318 647.792 407.759C647.768 408.181 647.759 408.471 647.765 408.631C647.766 408.671 647.768 408.711 647.77 408.751C647.79 408.77 647.801 408.8 647.803 408.84C647.664 409.926 647.582 410.91 647.555 411.791C647.548 412.652 647.506 413.394 647.43 414.018C647.373 414.64 647.242 415.126 647.035 415.474C646.847 415.801 646.503 415.974 646.004 415.993C645.584 416.009 645.211 415.924 644.883 415.736L644.875 415.526C644.286 415.809 643.491 415.969 642.492 416.007C641.832 416.032 641.218 415.935 640.649 415.717C640.101 415.498 639.618 415.186 639.203 414.781C638.786 414.357 638.457 413.859 638.215 413.288C637.973 412.717 637.839 412.091 637.814 411.412C637.799 411.032 637.825 410.661 637.891 410.298C637.977 409.914 638.083 409.56 638.211 409.235C638.338 408.89 638.476 408.584 638.626 408.319C638.796 408.032 638.957 407.796 639.11 407.61C639.493 407.155 640.057 406.733 640.803 406.344C641.549 405.956 642.351 405.745 643.211 405.712C643.79 405.69 644.384 405.778 644.992 405.975C644.98 405.675 644.977 405.315 644.981 404.894C645.005 404.473 645.026 403.982 645.045 403.421L644.847 401.387C644.843 401.287 644.83 401.207 644.808 401.148C644.805 401.068 644.802 400.988 644.799 400.908C644.774 400.249 644.835 399.746 644.982 399.4C645.149 399.054 645.492 398.871 646.012 398.851C646.331 398.839 646.583 398.869 646.766 398.942C646.969 399.014 647.124 399.149 647.231 399.345C647.358 399.52 647.448 399.787 647.502 400.145C647.555 400.483 647.622 400.921 647.702 401.458ZM644.887 408.741C644.477 408.476 643.982 408.355 643.402 408.377C642.982 408.393 642.624 408.437 642.326 408.508C642.049 408.579 641.813 408.698 641.619 408.865C641.425 409.013 641.263 409.219 641.133 409.484C641.002 409.729 640.873 410.034 640.747 410.399C640.64 410.744 640.592 411.066 640.604 411.366C640.628 412.005 640.867 412.496 641.32 412.839C641.794 413.182 642.35 413.341 642.99 413.316C643.549 413.295 644.081 413.074 644.586 412.655C644.734 411.829 644.833 411.255 644.88 410.933C644.947 410.59 644.976 410.298 644.967 410.059C644.959 409.839 644.941 409.639 644.914 409.46C644.887 409.261 644.87 409.092 644.865 408.952C644.864 408.912 644.862 408.882 644.862 408.862C644.88 408.821 644.889 408.781 644.887 408.741ZM663.311 412.002C663.68 412.228 663.871 412.511 663.884 412.851C663.891 413.031 663.848 413.223 663.756 413.426C663.663 413.61 663.539 413.785 663.386 413.951C663.231 414.097 663.066 414.223 662.89 414.33C662.714 414.437 662.536 414.493 662.356 414.5C662.194 414.446 662 414.354 661.775 414.222C661.549 414.071 661.322 413.909 661.096 413.738C660.868 413.546 660.65 413.334 660.441 413.102C660.252 412.869 660.103 412.635 659.994 412.399L659.804 412.916C659.451 413.65 658.878 414.352 658.082 415.023C657.09 415.241 656.514 415.353 656.354 415.359C655.974 415.374 655.512 415.331 654.968 415.232L653.275 414.125C652.53 413.473 652.134 412.558 652.089 411.379C652.074 410.959 652.116 410.497 652.217 409.993C652.337 409.468 652.507 408.941 652.727 408.412C652.967 407.883 653.258 407.361 653.598 406.848C653.939 406.335 654.342 405.869 654.806 405.451C655.377 405.209 655.93 405.008 656.464 404.847C656.998 404.667 657.404 404.551 657.682 404.501C658.046 404.067 658.487 403.84 659.007 403.82C659.307 403.809 659.572 403.949 659.804 404.24C660.054 404.511 660.268 404.863 660.444 405.296C660.641 405.729 660.799 406.213 660.92 406.749C661.039 407.265 661.128 407.762 661.187 408.24L661.637 409.814C661.776 410.309 661.982 410.732 662.256 411.082C662.549 411.431 662.901 411.738 663.311 412.002ZM658.628 408.848C658.587 408.83 658.413 408.206 658.106 406.976C658.006 406.98 657.857 406.986 657.657 406.994C657.457 407.001 657.219 407.07 656.944 407.201C656.688 407.311 656.406 407.512 656.096 407.804C655.806 408.075 655.532 408.486 655.273 409.036C654.883 409.831 654.702 410.619 654.732 411.398C655.097 412.045 655.646 412.544 656.38 412.896C656.598 412.828 656.775 412.751 656.912 412.666C657.069 412.58 657.205 412.465 657.319 412.32C657.434 412.176 657.537 412.002 657.629 411.798C657.741 411.574 657.861 411.299 657.988 410.974C658.231 410.504 658.395 410.098 658.482 409.754C658.589 409.39 658.637 409.088 658.628 408.848ZM676.132 412.175C675.782 412.988 675.187 413.652 674.346 414.164C673.504 414.656 672.554 414.923 671.495 414.963C671.355 414.968 671.124 414.957 670.803 414.929C670.481 414.901 670.119 414.835 669.714 414.73C669.33 414.625 668.924 414.48 668.497 414.296C668.089 414.092 667.709 413.826 667.356 413.499C667.002 413.153 666.706 412.733 666.467 412.242C666.229 411.751 666.096 411.166 666.07 410.486C666.016 409.587 666.105 408.763 666.336 408.014C666.588 407.264 666.999 406.498 667.57 405.716L668.482 404.45C669.573 403.648 670.817 403.22 672.216 403.167C672.976 403.138 673.581 403.255 674.031 403.518C674.501 403.78 674.746 404.171 674.766 404.691C674.781 405.091 674.644 405.426 674.354 405.697C674.083 405.948 673.718 406.082 673.259 406.099C673.239 406.1 673.158 406.093 673.018 406.079C672.896 406.043 672.755 406.009 672.593 405.975C672.432 405.941 672.271 405.917 672.11 405.903C671.949 405.869 671.818 405.854 671.718 405.858C671.259 405.875 670.738 406.135 670.157 406.638C669.596 407.14 669.165 407.916 668.865 408.969C668.741 409.414 668.685 409.776 668.696 410.056C668.717 410.615 668.884 411.049 669.196 411.358C669.528 411.665 669.887 411.902 670.273 412.067C670.659 412.213 671.013 412.309 671.335 412.357C671.657 412.385 671.827 412.398 671.847 412.398C672.127 412.387 672.404 412.296 672.677 412.126C672.951 411.955 673.194 411.766 673.406 411.558C673.639 411.349 673.822 411.172 673.957 411.026C674.09 410.861 674.147 410.779 674.127 410.78C674.32 410.592 674.547 410.494 674.807 410.484C675.126 410.472 675.423 410.63 675.695 410.96C675.987 411.269 676.14 411.594 676.153 411.934C676.156 412.033 676.149 412.114 676.132 412.175ZM689.799 413.335C689.183 413.999 688.484 414.566 687.702 415.036C686.92 415.527 686.119 415.787 685.3 415.818C684.56 415.847 683.606 415.763 682.438 415.567C682.029 415.322 681.617 415.028 681.204 414.683C680.789 414.319 680.414 413.923 680.078 413.495C679.74 413.048 679.462 412.568 679.242 412.056C679.022 411.524 678.901 410.978 678.88 410.419C678.874 410.259 678.876 410.049 678.886 409.788C678.895 409.507 678.905 409.237 678.915 408.976C678.944 408.695 678.965 408.454 678.977 408.253C678.99 408.053 678.996 407.952 678.996 407.952C679.371 407.298 679.767 406.652 680.183 406.016C680.618 405.359 681.237 404.775 682.038 404.264C683.326 403.935 684.26 403.759 684.84 403.737C685.14 403.726 685.4 403.736 685.622 403.767C685.842 403.779 686.054 403.831 686.258 403.923C686.481 403.995 686.696 404.117 686.902 404.289C687.129 404.461 687.388 404.681 687.678 404.95C688.011 405.278 688.269 405.498 688.454 405.611C688.658 405.723 688.762 405.829 688.766 405.929C688.836 407.768 688.314 409.039 687.2 409.742C686.707 409.941 686.065 410.165 685.274 410.415C684.482 410.646 683.4 410.877 682.028 411.109C682.337 411.858 682.728 412.414 683.203 412.776C683.677 413.138 684.203 413.308 684.783 413.286C685.642 413.253 686.702 412.703 687.963 411.634C688.156 411.447 688.402 411.347 688.702 411.336C689.021 411.324 689.306 411.433 689.555 411.663C689.824 411.893 689.965 412.188 689.979 412.548C689.989 412.808 689.929 413.07 689.799 413.335ZM686.167 407.049C685.763 406.444 685.302 406.151 684.782 406.171C684.563 406.179 684.324 406.219 684.066 406.288C683.809 406.358 683.542 406.458 683.267 406.589C683.011 406.699 682.766 406.838 682.533 407.007C682.319 407.176 682.146 407.372 682.015 407.597L681.749 408.508C682.426 408.422 683.024 408.35 683.542 408.29C684.06 408.23 684.508 408.153 684.884 408.059C685.261 407.964 685.557 407.843 685.771 407.695C685.986 407.546 686.117 407.331 686.167 407.049ZM714.082 403.404C714.41 403.592 714.584 403.966 714.605 404.525C714.621 404.945 714.525 405.309 714.317 405.617C714.108 405.925 713.814 406.087 713.434 406.101C713.194 406.11 712.942 406.06 712.678 405.95C712.433 405.819 712.17 405.759 711.891 405.77C711.651 405.779 711.413 405.838 711.177 405.947C710.96 406.035 710.707 406.235 710.419 406.546L709.554 407.48C709.559 407.62 709.565 407.759 709.57 407.899C709.595 408.038 709.611 408.188 709.617 408.348C709.626 408.588 709.626 408.838 709.616 409.098C709.625 409.358 709.626 409.638 709.618 409.939L709.991 412.657C709.966 413.578 709.514 414.056 708.635 414.089C708.175 414.107 707.83 413.98 707.599 413.708C707.368 413.417 707.203 413.013 707.103 412.497C707.003 411.98 706.94 411.372 706.913 410.672C706.907 409.972 706.878 409.203 706.826 408.364C706.738 407.106 706.684 406.478 706.664 406.479L706.665 406.509C706.574 406.212 706.504 405.955 706.455 405.736C706.406 405.498 706.378 405.289 706.371 405.109C706.358 404.749 706.477 404.455 706.728 404.225C706.979 403.975 707.354 403.841 707.854 403.822C708.173 403.809 708.563 404.045 709.021 404.528C709.467 404.151 709.807 403.867 710.04 403.678C710.293 403.489 710.498 403.351 710.654 403.265C710.831 403.178 711 403.131 711.159 403.125C711.319 403.099 711.528 403.081 711.788 403.071C712.007 403.043 712.207 403.045 712.389 403.079C712.59 403.111 712.801 403.143 713.023 403.175L714.082 403.404ZM728.15 411.875C727.535 412.539 726.836 413.106 726.053 413.576C725.271 414.066 724.47 414.327 723.651 414.358C722.911 414.386 721.958 414.303 720.789 414.107C720.38 413.862 719.968 413.568 719.555 413.223C719.141 412.859 718.765 412.463 718.429 412.035C718.091 411.588 717.813 411.108 717.593 410.596C717.373 410.064 717.252 409.518 717.231 408.959C717.225 408.799 717.227 408.589 717.237 408.328C717.246 408.047 717.256 407.777 717.266 407.516C717.295 407.235 717.316 406.994 717.329 406.793C717.341 406.593 717.347 406.492 717.347 406.492C717.722 405.838 718.118 405.192 718.534 404.556C718.97 403.899 719.588 403.315 720.389 402.804C721.677 402.475 722.611 402.299 723.191 402.277C723.491 402.266 723.751 402.276 723.973 402.307C724.193 402.319 724.405 402.371 724.609 402.463C724.832 402.535 725.047 402.657 725.253 402.829C725.48 403.001 725.739 403.221 726.029 403.49C726.362 403.818 726.62 404.038 726.805 404.151C727.009 404.263 727.113 404.369 727.117 404.469C727.187 406.308 726.665 407.579 725.551 408.282C725.058 408.481 724.416 408.705 723.625 408.955C722.834 409.186 721.752 409.417 720.379 409.649C720.688 410.398 721.08 410.954 721.554 411.316C722.028 411.678 722.555 411.848 723.134 411.826C723.994 411.793 725.053 411.243 726.314 410.174C726.507 409.987 726.753 409.887 727.053 409.876C727.373 409.863 727.657 409.973 727.906 410.203C728.175 410.433 728.316 410.728 728.33 411.088C728.34 411.348 728.28 411.61 728.15 411.875ZM724.518 405.589C724.115 404.984 723.653 404.691 723.134 404.711C722.914 404.719 722.675 404.758 722.417 404.828C722.16 404.898 721.894 404.998 721.618 405.129C721.362 405.239 721.117 405.378 720.884 405.547C720.67 405.715 720.497 405.912 720.366 406.137L720.1 407.048C720.777 406.962 721.375 406.889 721.893 406.83C722.411 406.77 722.859 406.693 723.235 406.599C723.612 406.504 723.908 406.383 724.122 406.235C724.337 406.086 724.469 405.871 724.518 405.589ZM739.083 401.342C739.31 401.513 739.432 401.839 739.45 402.319C739.484 403.198 739.171 403.65 738.511 403.675L738.392 403.68C738.092 403.711 737.744 403.755 737.346 403.81C736.947 403.845 736.499 403.902 736.001 403.981C735.973 404.302 735.95 404.733 735.93 405.275C735.91 405.796 735.914 406.426 735.942 407.166C735.945 407.225 735.947 407.285 735.949 407.345C735.971 407.405 735.984 407.474 735.987 407.554L736.04 408.933C736.052 409.253 736.112 409.511 736.219 409.707C736.346 409.882 736.491 410.007 736.654 410.081L737.503 410.318C738.171 410.513 738.516 410.9 738.538 411.48C738.551 411.82 738.423 412.125 738.153 412.395C737.903 412.665 737.568 412.808 737.148 412.824C737.029 412.828 736.818 412.806 736.515 412.758C736.233 412.688 735.929 412.6 735.605 412.492C735.3 412.384 735.005 412.245 734.718 412.076C734.452 411.906 734.264 411.713 734.156 411.497C733.918 411.045 733.72 410.573 733.561 410.078C733.402 409.564 733.311 409.027 733.29 408.467C733.266 407.848 733.26 407.408 733.27 407.147C733.28 406.887 733.291 406.656 733.303 406.455C733.316 406.255 733.327 406.014 733.336 405.734C733.345 405.453 733.338 404.993 733.313 404.353C732.935 404.408 732.38 404.549 731.648 404.777C731.209 404.794 730.825 404.698 730.497 404.491C730.188 404.262 730.026 403.958 730.012 403.579C730.001 403.299 730.071 403.036 730.222 402.79C730.392 402.543 730.744 402.32 731.277 402.119C731.455 402.053 731.613 402.006 731.752 401.981C731.911 401.955 732.06 401.929 732.199 401.904C732.359 401.878 732.528 401.862 732.708 401.855C732.887 401.828 733.106 401.79 733.364 401.74C733.365 401.239 733.374 400.679 733.39 400.057C733.426 399.416 733.493 398.823 733.593 398.278C733.712 397.734 733.885 397.277 734.111 396.908C734.356 396.518 734.689 396.315 735.108 396.299C735.828 396.272 736.28 396.585 736.465 397.238C736.466 397.258 736.441 397.399 736.391 397.662C736.36 397.903 736.321 398.175 736.272 398.477C736.223 398.779 736.175 399.071 736.125 399.353C736.096 399.634 736.083 399.815 736.086 399.895L736.052 401.367C736.191 401.342 736.32 401.327 736.44 401.322C736.56 401.298 736.689 401.283 736.829 401.278L737.099 401.267C737.239 401.262 737.369 401.257 737.489 401.252C737.608 401.228 737.717 401.214 737.817 401.21C738.417 401.187 738.839 401.231 739.083 401.342ZM752.314 401.378C752.364 401.617 752.393 401.856 752.402 402.096C752.411 402.335 752.42 402.565 752.428 402.785C752.463 403.705 752.395 404.538 752.223 405.285C752.162 405.787 752.122 406.309 752.102 406.851C752.082 407.372 752.063 407.923 752.045 408.504C752.047 408.544 752.075 408.763 752.13 409.161C752.205 409.539 752.256 410.107 752.285 410.866C752.298 411.206 752.168 411.471 751.895 411.662C751.642 411.832 751.335 411.923 750.975 411.937C750.535 411.954 750.222 411.876 750.036 411.703C749.848 411.51 749.721 411.054 749.653 410.336C749.326 410.669 749.005 410.931 748.693 411.123C748.379 411.295 748.074 411.427 747.777 411.518C747.5 411.609 747.232 411.669 746.973 411.699C746.734 411.728 746.505 411.747 746.285 411.755C745.146 411.799 744.273 411.492 743.668 410.834C743.062 410.177 742.737 409.249 742.691 408.049C742.686 407.91 742.681 407.77 742.675 407.63C742.669 407.47 742.672 407.29 742.685 407.089C742.663 407.05 742.65 406.96 742.644 406.82C742.636 406.6 742.628 406.381 742.619 406.161C742.63 405.92 742.659 405.629 742.706 405.287C742.753 404.945 742.827 404.522 742.928 404.017C743.048 403.493 743.213 402.826 743.422 402.017C743.67 401.688 744.014 401.514 744.453 401.498C744.793 401.485 745.086 401.564 745.333 401.734C745.6 401.904 745.74 402.179 745.755 402.559C745.758 402.659 745.736 402.86 745.687 403.162C745.639 403.464 745.582 403.796 745.515 404.159C745.449 404.522 745.393 404.884 745.347 405.246C745.3 405.608 745.281 405.889 745.289 406.089L745.294 406.239C745.263 406.46 745.241 406.681 745.229 406.902C745.217 407.103 745.214 407.293 745.221 407.473C745.241 407.992 745.327 408.419 745.48 408.754C745.653 409.087 745.989 409.245 746.489 409.226C746.848 409.212 747.185 409.119 747.499 408.947C747.812 408.755 748.094 408.534 748.344 408.285C748.614 408.014 748.844 407.735 749.033 407.448C749.221 407.14 749.361 406.855 749.451 406.591C749.522 405.848 749.665 404.872 749.88 403.663L749.868 403.363C749.855 403.023 749.853 402.693 749.86 402.373C749.888 402.051 749.938 401.769 750.008 401.526C750.098 401.263 750.231 401.058 750.405 400.911C750.579 400.744 750.826 400.655 751.146 400.642C751.745 400.62 752.135 400.865 752.314 401.378ZM764.905 401.47C765.232 401.657 765.406 402.031 765.428 402.59C765.444 403.01 765.348 403.374 765.139 403.682C764.931 403.99 764.637 404.152 764.257 404.166C764.017 404.175 763.765 404.125 763.501 404.015C763.255 403.884 762.993 403.824 762.713 403.835C762.473 403.844 762.235 403.903 761.999 404.012C761.783 404.1 761.53 404.3 761.242 404.611L760.376 405.545C760.382 405.685 760.387 405.825 760.392 405.964C760.418 406.104 760.433 406.253 760.44 406.413C760.449 406.653 760.448 406.903 760.438 407.164C760.448 407.423 760.449 407.704 760.44 408.004L760.814 410.722C760.789 411.644 760.337 412.121 759.457 412.155C758.998 412.172 758.653 412.045 758.422 411.774C758.191 411.482 758.025 411.078 757.926 410.562C757.826 410.045 757.763 409.437 757.736 408.738C757.729 408.037 757.7 407.268 757.648 406.429C757.56 405.172 757.506 404.543 757.486 404.544L757.487 404.574C757.396 404.277 757.326 404.02 757.278 403.801C757.229 403.563 757.201 403.354 757.194 403.174C757.18 402.814 757.299 402.52 757.551 402.29C757.801 402.04 758.176 401.906 758.676 401.887C758.996 401.875 759.385 402.11 759.844 402.593C760.29 402.216 760.629 401.933 760.862 401.744C761.115 401.554 761.32 401.416 761.477 401.33C761.654 401.243 761.822 401.197 761.982 401.191C762.141 401.164 762.351 401.147 762.61 401.137C762.829 401.108 763.03 401.111 763.211 401.144C763.412 401.176 763.624 401.208 763.845 401.24L764.905 401.47ZM778.262 407.836L778.271 408.076C778.275 408.196 778.284 408.416 778.296 408.735C778.327 409.034 778.309 409.345 778.241 409.668C778.194 409.99 778.075 410.285 777.885 410.552C777.694 410.8 777.399 410.931 776.999 410.946C776.22 410.976 775.748 410.684 775.585 410.069C775.6 409.949 775.605 409.819 775.6 409.679C775.594 409.519 775.587 409.349 775.58 409.169C775.577 409.089 775.566 408.799 775.547 408.3C775.528 407.78 775.486 407.221 775.423 406.623C775.381 406.024 775.299 405.467 775.18 404.951C775.059 404.415 774.896 404.081 774.691 403.949C774.219 403.647 773.804 403.503 773.444 403.516C772.964 403.534 772.56 403.7 772.232 404.013C771.923 404.305 771.674 404.875 771.486 405.722C771.477 406.003 771.469 406.323 771.463 406.684C771.456 407.024 771.441 407.415 771.418 407.856C771.43 408.196 771.455 408.576 771.491 408.994C771.526 409.393 771.574 409.852 771.633 410.37C771.648 410.75 771.51 411.075 771.22 411.346C770.929 411.598 770.594 411.731 770.215 411.745C769.915 411.756 769.672 411.686 769.486 411.533C769.3 411.38 769.152 411.175 769.042 410.919C768.952 410.662 768.882 410.385 768.83 410.086C768.799 409.787 768.778 409.488 768.766 409.188C768.758 408.968 768.76 408.748 768.771 408.528C768.782 408.287 768.803 408.046 768.834 407.805L768.964 404.918L769.149 403.47C769.1 403.231 769.01 402.974 768.879 402.699C768.749 402.424 768.681 402.206 768.674 402.047C768.662 401.707 768.78 401.392 769.029 401.102C769.298 400.812 769.632 400.659 770.032 400.644C770.312 400.633 770.524 400.685 770.669 400.8C770.812 400.894 771.052 401.145 771.388 401.553C771.781 401.358 772.096 401.236 772.334 401.187C772.572 401.118 772.851 401.077 773.17 401.065C774.21 401.025 775.129 401.24 775.927 401.71C776.745 402.16 777.275 402.95 777.518 404.082C777.594 404.499 777.658 404.847 777.708 405.125C777.779 405.403 777.839 405.671 777.889 405.929C777.939 406.187 777.989 406.465 778.041 406.764C778.091 407.042 778.165 407.399 778.262 407.836ZM790.657 407.244C790.621 407.866 790.433 408.443 790.093 408.977C789.772 409.489 789.442 410.012 789.102 410.546C788.889 410.734 788.575 410.896 788.159 411.032C787.765 411.187 787.37 411.312 786.973 411.407C786.576 411.502 786.229 411.576 785.93 411.627C785.652 411.678 785.533 411.702 785.573 411.701C785.373 411.708 785.112 411.678 784.789 411.61C784.487 411.562 784.184 411.503 783.882 411.435C783.6 411.386 783.357 411.325 783.154 411.252C782.972 411.199 782.891 411.172 782.911 411.172C782.73 411.158 782.498 411.107 782.215 411.018C781.93 410.909 781.655 410.789 781.39 410.659C781.144 410.508 780.928 410.356 780.743 410.203C780.536 410.031 780.429 409.865 780.423 409.705C780.417 409.545 780.451 409.384 780.525 409.221C780.598 409.038 780.702 408.874 780.836 408.729C780.97 408.564 781.106 408.438 781.242 408.353C781.399 408.247 781.557 408.191 781.716 408.185L783.815 408.886C784.199 408.991 784.572 409.067 784.934 409.113C785.315 409.139 785.686 409.145 786.046 409.131C786.385 409.118 786.683 409.047 786.938 408.917C787.213 408.766 787.416 408.598 787.549 408.413L787.965 407.497C787.911 407.138 787.751 406.864 787.483 406.674C787.236 406.484 786.919 406.326 786.534 406.2C786.169 406.074 785.775 405.959 785.35 405.855C784.926 405.751 784.53 405.606 784.163 405.42L782.843 404.659C782.403 404.136 782.151 403.315 782.089 402.196C782.182 401.492 782.461 400.921 782.924 400.483C782.944 400.463 783.07 400.368 783.304 400.199C783.537 400.01 783.897 399.746 784.384 399.407C784.464 399.404 784.713 399.374 785.132 399.319C785.57 399.262 786.167 399.179 786.923 399.07C787.263 399.057 788.102 399.265 789.439 399.695C789.709 399.945 789.852 400.3 789.87 400.759C789.884 401.119 789.805 401.432 789.635 401.699C789.485 401.945 789.249 402.074 788.93 402.086C788.59 402.099 788.207 402.033 787.781 401.89C787.375 401.725 786.992 401.649 786.632 401.663C786.132 401.682 785.674 401.75 785.259 401.866C784.862 401.961 784.67 402.168 784.682 402.488C784.699 402.948 784.91 403.22 785.313 403.304C788.397 403.868 790.178 405.181 790.657 407.244ZM813.711 400.482L812.098 400.694C812.018 400.697 811.928 400.71 811.829 400.734C811.73 400.758 811.611 400.782 811.472 400.808C811.352 400.832 811.213 400.857 811.054 400.883L811.398 403.602C811.428 403.861 811.46 404.18 811.494 404.559C811.549 404.938 811.626 405.385 811.726 405.902C811.712 406.062 811.698 406.223 811.684 406.384C811.69 406.543 811.697 406.723 811.704 406.923C811.716 407.223 811.738 407.552 811.772 407.911C811.806 408.27 811.851 408.659 811.907 409.077C811.57 409.69 811.071 410.009 810.412 410.035C809.812 410.057 809.382 409.784 809.12 409.213C809.114 409.053 809.106 408.863 809.098 408.644C809.109 408.403 809.109 408.143 809.098 407.863C809.088 407.583 809.066 407.284 809.034 406.965C809.021 406.625 809.007 406.255 808.992 405.856L808.986 405.706C808.974 405.386 808.945 405.147 808.899 404.988C808.873 404.829 808.835 404.631 808.786 404.392C808.736 404.134 808.673 403.776 808.595 403.319C808.518 402.861 808.431 402.164 808.335 401.227L807.234 401.479C807.174 401.482 807.114 401.484 807.054 401.486C807.014 401.468 806.973 401.459 806.933 401.461C806.833 401.464 806.744 401.478 806.665 401.501C806.585 401.504 806.515 401.507 806.455 401.509C806.375 401.532 806.306 401.545 806.246 401.547C805.6 401.411 805.263 400.964 805.234 400.204C805.223 399.905 805.244 399.674 805.298 399.511C805.352 399.349 805.477 399.224 805.674 399.137C805.871 399.049 806.158 398.978 806.536 398.924C806.934 398.849 807.45 398.749 808.086 398.625C808.053 398.286 807.998 397.898 807.922 397.46C807.864 397.002 807.826 396.513 807.806 395.994C807.775 395.194 808.095 394.131 808.765 392.805C808.961 392.697 809.147 392.59 809.323 392.483C809.519 392.376 809.746 392.277 810.003 392.187C810.279 392.077 810.595 391.975 810.952 391.881C811.328 391.766 811.794 391.659 812.35 391.557L812.47 391.553C812.81 391.54 813.075 391.66 813.265 391.913C813.474 392.165 813.586 392.461 813.599 392.801C813.613 393.181 813.534 393.474 813.362 393.68C813.209 393.866 813.005 394.024 812.749 394.154C812.493 394.264 812.207 394.365 811.89 394.457C811.593 394.528 811.316 394.629 811.061 394.759C810.824 394.848 810.68 395.003 810.629 395.226C810.597 395.447 810.575 395.668 810.564 395.889C810.565 395.928 810.582 396.098 810.613 396.397C810.644 396.676 810.663 396.925 810.672 397.145C810.674 397.205 810.666 397.266 810.649 397.326C810.65 397.366 810.652 397.406 810.653 397.446C810.656 397.526 810.66 397.636 810.666 397.776C810.69 397.895 810.717 398.064 810.745 398.283L812.117 398.051C812.256 398.026 812.386 398.011 812.506 398.006C812.646 398.001 812.766 397.996 812.866 397.992C813.365 397.973 813.728 398.05 813.955 398.221C814.202 398.392 814.333 398.697 814.35 399.137C814.377 399.836 814.164 400.285 813.711 400.482ZM825.476 399.164C825.803 399.351 825.978 399.725 825.999 400.284C826.015 400.704 825.919 401.068 825.71 401.376C825.502 401.684 825.208 401.846 824.828 401.86C824.588 401.869 824.336 401.819 824.072 401.709C823.827 401.578 823.564 401.518 823.284 401.529C823.045 401.538 822.807 401.597 822.571 401.706C822.354 401.794 822.101 401.994 821.813 402.305L820.948 403.239C820.953 403.379 820.959 403.519 820.964 403.658C820.989 403.798 821.005 403.947 821.011 404.107C821.02 404.347 821.02 404.597 821.009 404.858C821.019 405.117 821.02 405.398 821.011 405.698L821.385 408.416C821.36 409.338 820.908 409.815 820.029 409.849C819.569 409.866 819.224 409.739 818.993 409.468C818.762 409.176 818.597 408.772 818.497 408.256C818.397 407.739 818.334 407.131 818.307 406.432C818.301 405.731 818.271 404.962 818.22 404.123C818.132 402.866 818.078 402.237 818.058 402.238L818.059 402.268C817.967 401.971 817.898 401.714 817.849 401.495C817.8 401.257 817.772 401.048 817.765 400.868C817.752 400.508 817.871 400.214 818.122 399.984C818.373 399.734 818.748 399.6 819.247 399.581C819.567 399.569 819.956 399.804 820.415 400.287C820.861 399.91 821.201 399.627 821.434 399.438C821.687 399.248 821.891 399.11 822.048 399.024C822.225 398.937 822.393 398.891 822.553 398.885C822.712 398.858 822.922 398.841 823.182 398.831C823.401 398.802 823.601 398.805 823.782 398.838C823.984 398.87 824.195 398.902 824.417 398.934L825.476 399.164ZM836.833 408.188C836.58 408.378 836.167 408.574 835.594 408.776C835.021 408.958 834.426 409.12 833.811 409.264L832.573 409.071C832.391 409.018 832.086 408.889 831.658 408.685C831.25 408.481 830.828 408.167 830.391 407.743C829.954 407.299 829.562 406.734 829.216 406.046C828.869 405.339 828.676 404.476 828.637 403.456C828.623 403.097 828.687 402.674 828.829 402.188C828.99 401.682 829.232 401.212 829.556 400.78C829.879 400.327 830.284 399.941 830.772 399.622C831.281 399.303 831.875 399.13 832.554 399.104C833.913 399.053 835.159 399.445 836.292 400.283C837.301 401.565 837.836 403.006 837.897 404.605C837.942 405.784 837.587 406.978 836.833 408.188ZM835.202 403.987C835.072 403.211 834.799 402.611 834.383 402.187C833.985 401.742 833.487 401.531 832.887 401.553C832.488 401.569 832.116 401.783 831.771 402.196C831.446 402.589 831.297 403.155 831.325 403.894C831.337 404.194 831.389 404.513 831.482 404.849C831.574 405.166 831.715 405.461 831.906 405.734C832.096 405.987 832.334 406.198 832.62 406.367C832.906 406.516 833.249 406.583 833.649 406.568C834.288 406.544 834.721 406.337 834.946 405.948C835.171 405.539 835.272 405.045 835.25 404.466C835.247 404.386 835.234 404.316 835.212 404.257C835.209 404.177 835.206 404.087 835.202 403.987ZM859.186 406.376C859.196 406.636 859.055 406.862 858.762 407.053C858.488 407.224 858.181 407.315 857.841 407.328C857.442 407.343 857.137 407.225 856.927 406.973C856.738 406.72 856.595 406.395 856.5 405.998C856.404 405.582 856.337 405.124 856.298 404.625C856.278 404.125 856.25 403.646 856.213 403.187C856.167 403.049 856.11 402.851 856.04 402.593C855.97 402.336 855.908 402.008 855.852 401.61C855.29 401.031 854.629 400.756 853.87 400.785C853.59 400.795 853.311 400.836 853.034 400.906C852.755 400.957 852.5 401.077 852.267 401.266C852.033 401.435 851.823 401.693 851.636 402.04C851.449 402.388 851.307 402.854 851.209 403.438C851.232 403.537 851.249 403.716 851.259 403.976C851.268 404.196 851.258 404.467 851.23 404.788C851.221 405.088 851.205 405.439 851.18 405.841L851.186 405.99C851.189 406.07 851.196 406.27 851.209 406.59C851.22 406.89 851.192 407.211 851.125 407.554C851.057 407.877 850.919 408.172 850.709 408.44C850.519 408.708 850.224 408.849 849.824 408.864C849.464 408.878 849.14 408.78 848.852 408.571C848.565 408.382 848.415 408.137 848.404 407.838C848.402 407.798 848.407 407.647 848.417 407.387C848.447 407.125 848.476 406.834 848.504 406.513C848.551 406.171 848.578 405.84 848.586 405.519C848.613 405.178 848.623 404.907 848.615 404.707C848.602 404.368 848.559 404.029 848.486 403.691L848.471 403.302C848.433 402.283 848.196 401.331 847.762 400.447C847.453 400.218 846.978 400.076 846.335 400.021C846.217 400.065 846.069 400.131 845.892 400.218C845.715 400.304 845.542 400.481 845.372 400.748C845.201 400.994 845.055 401.35 844.932 401.815C844.81 402.28 844.734 402.904 844.703 403.685L844.66 404.918C844.803 405.513 844.883 406.03 844.899 406.47C844.919 406.99 844.845 407.413 844.678 407.739C844.529 408.045 844.165 408.209 843.585 408.231C843.286 408.243 843.035 408.222 842.833 408.17C842.65 408.097 842.494 407.943 842.365 407.707C842.255 407.451 842.171 407.084 842.113 406.606C842.054 406.108 842.009 405.449 841.977 404.63C841.952 403.97 841.968 403.329 842.024 402.707C842.08 402.064 842.169 401.24 842.29 400.235C842.217 399.897 842.116 399.591 841.985 399.316C841.874 399.02 841.815 398.792 841.809 398.632C841.796 398.292 841.935 397.987 842.224 397.715C842.514 397.444 842.859 397.301 843.259 397.286C843.559 397.274 843.832 397.354 844.079 397.525L844.613 398.165C844.845 397.956 845.05 397.798 845.226 397.691C845.401 397.564 845.557 397.468 845.695 397.403C845.833 397.338 845.971 397.303 846.111 397.297C846.25 397.272 846.41 397.256 846.59 397.249C846.85 397.239 847.05 397.231 847.189 397.226C847.349 397.22 847.51 397.244 847.673 397.298C847.835 397.352 848.018 397.445 848.224 397.577C848.448 397.689 848.755 397.867 849.145 398.112C849.39 398.263 849.73 398.771 850.163 399.635L850.335 399.418C850.49 399.272 850.704 399.124 850.979 398.973C851.253 398.823 851.548 398.691 851.864 398.579C852.199 398.446 852.536 398.344 852.873 398.271C853.23 398.177 853.548 398.125 853.828 398.114C854.488 398.089 855.06 398.137 855.545 398.259C856.029 398.361 856.446 398.535 856.796 398.782C857.144 399.009 857.456 399.317 857.731 399.707C858.006 400.077 858.272 400.507 858.531 400.997L858.539 401.207C858.545 401.367 858.576 401.656 858.632 402.074C858.688 402.493 858.744 402.911 858.8 403.329C858.856 403.747 858.91 404.115 858.962 404.433C859.014 404.732 859.038 404.861 859.037 404.821C859.038 404.841 859.04 404.911 859.045 405.031C859.069 405.13 859.084 405.259 859.09 405.419C859.115 405.558 859.131 405.708 859.137 405.868C859.162 406.007 859.176 406.117 859.179 406.196L859.186 406.376ZM608.905 449.489L608.912 449.669C608.904 449.989 608.876 450.301 608.827 450.603C608.799 450.904 608.72 451.207 608.592 451.512L608.041 452.824C607.89 453.05 607.649 453.3 607.319 453.572C606.989 453.845 606.629 454.099 606.237 454.334C605.846 454.569 605.453 454.774 605.06 454.949C604.665 455.104 604.338 455.187 604.079 455.197L603.779 455.208C603.679 455.212 603.54 455.237 603.361 455.284C603.202 455.31 603.033 455.347 602.855 455.393C602.697 455.44 602.548 455.485 602.41 455.53C602.272 455.576 602.172 455.6 602.113 455.602C602.124 455.902 602.122 456.102 602.105 456.203C602.109 456.302 602.104 456.443 602.091 456.623C602.099 456.823 602.101 457.143 602.098 457.584C602.115 458.024 602.142 458.743 602.18 459.742C602.191 460.022 602.173 460.353 602.128 460.735C602.082 461.117 602.019 461.57 601.939 462.093C601.688 462.323 601.352 462.446 600.933 462.462C600.533 462.477 600.23 462.398 600.023 462.226C599.816 462.054 599.668 461.839 599.578 461.583C599.508 461.325 599.468 461.066 599.459 460.807C599.469 460.566 599.472 460.366 599.466 460.206C599.451 459.826 599.459 459.516 599.49 459.274C599.522 459.053 599.53 458.742 599.515 458.343C599.507 458.123 599.487 457.883 599.458 457.624C599.448 457.385 599.438 457.115 599.427 456.815C599.409 456.355 599.403 455.925 599.408 455.525C599.432 455.123 599.457 454.732 599.483 454.351C599.388 453.954 599.322 453.266 599.284 452.287C599.251 451.408 599.273 450.686 599.352 450.123C599.208 449.488 599.097 448.942 599.019 448.484C598.961 448.006 598.927 447.627 598.916 447.347C598.899 446.888 598.996 446.544 599.207 446.316C599.419 446.087 599.784 445.963 600.304 445.944C600.664 445.93 600.946 445.989 601.151 446.122L601.465 446.47C601.817 446.256 602.25 446.08 602.765 445.94C603.28 445.78 603.827 445.689 604.406 445.667C605.765 445.616 606.827 445.905 607.592 446.537C608.375 447.147 608.813 448.132 608.905 449.489ZM606.145 450.345C606.193 450.023 606.213 449.752 606.205 449.532C606.191 449.172 606.05 448.877 605.781 448.647C605.531 448.397 605.146 448.281 604.627 448.301L604.327 448.312C603.927 448.328 603.667 448.317 603.545 448.282C603.048 448.361 602.51 448.682 601.931 449.244C601.932 449.284 601.947 449.404 601.974 449.603C602.002 449.802 602.022 450.081 602.036 450.441C602.054 450.901 602.038 451.292 601.991 451.614C601.943 451.936 601.924 452.227 601.934 452.486C601.938 452.586 601.942 452.696 601.946 452.816C601.951 452.936 601.983 452.995 602.043 452.993C602.103 452.99 602.213 452.976 602.372 452.95C602.53 452.904 602.689 452.858 602.847 452.812C603.004 452.746 603.153 452.7 603.292 452.675C603.45 452.629 603.55 452.605 603.59 452.604C603.709 452.599 603.848 452.564 604.006 452.498C604.183 452.431 604.351 452.364 604.509 452.298C604.686 452.232 604.834 452.166 604.951 452.101C605.089 452.036 605.188 452.002 605.248 452C605.713 451.602 606.012 451.05 606.145 450.345ZM620.558 444.992C620.885 445.18 621.059 445.554 621.081 446.113C621.097 446.533 621 446.897 620.792 447.205C620.583 447.513 620.289 447.675 619.91 447.689C619.67 447.698 619.418 447.648 619.153 447.538C618.908 447.407 618.646 447.347 618.366 447.358C618.126 447.367 617.888 447.426 617.652 447.535C617.435 447.623 617.183 447.823 616.894 448.134L616.029 449.068C616.035 449.208 616.04 449.347 616.045 449.487C616.071 449.627 616.086 449.776 616.092 449.936C616.102 450.176 616.101 450.426 616.091 450.687C616.101 450.946 616.101 451.227 616.093 451.527L616.467 454.245C616.442 455.166 615.989 455.644 615.11 455.677C614.65 455.695 614.305 455.568 614.075 455.297C613.844 455.005 613.678 454.601 613.578 454.085C613.479 453.568 613.415 452.96 613.389 452.26C613.382 451.56 613.353 450.791 613.301 449.952C613.213 448.695 613.159 448.066 613.139 448.067L613.14 448.097C613.049 447.8 612.979 447.543 612.931 447.324C612.882 447.086 612.854 446.877 612.847 446.697C612.833 446.337 612.952 446.043 613.203 445.813C613.454 445.563 613.829 445.429 614.329 445.41C614.649 445.398 615.038 445.633 615.497 446.116C615.943 445.739 616.282 445.455 616.515 445.266C616.768 445.077 616.973 444.939 617.13 444.853C617.307 444.766 617.475 444.72 617.635 444.713C617.794 444.687 618.003 444.669 618.263 444.66C618.482 444.631 618.683 444.634 618.864 444.667C619.065 444.699 619.277 444.731 619.498 444.763L620.558 444.992ZM628.557 440.755C628.603 440.913 628.629 441.063 628.634 441.202C628.659 441.842 628.489 442.389 628.126 442.843C627.536 443.106 626.941 443.248 626.341 443.271C625.952 443.046 625.622 442.788 625.351 442.498C625.099 442.188 624.968 441.882 624.956 441.583C624.946 441.323 625.222 440.672 625.782 439.63C626.044 439.66 626.315 439.68 626.595 439.689C626.896 439.698 627.167 439.737 627.41 439.808C627.673 439.878 627.898 439.99 628.084 440.143C628.289 440.275 628.447 440.479 628.557 440.755ZM627.789 445.798L627.803 446.188C627.807 446.288 627.811 446.398 627.816 446.517C627.82 446.637 627.805 446.748 627.768 446.849L627.58 448.208L627.59 448.477C627.595 448.597 627.591 448.758 627.579 448.958C627.566 449.159 627.544 449.36 627.511 449.561C627.499 449.762 627.486 449.952 627.473 450.133C627.46 450.314 627.456 450.464 627.46 450.584C627.464 450.684 627.467 450.764 627.469 450.824C627.492 450.883 627.505 450.963 627.509 451.062C627.515 451.242 627.503 451.443 627.471 451.664C627.439 451.866 627.428 452.096 627.438 452.356C627.447 452.596 627.486 452.845 627.556 453.102C627.371 454.01 626.928 454.477 626.229 454.504C625.249 454.541 624.725 453.64 624.655 451.802C624.631 451.182 624.638 450.571 624.675 449.969C624.711 449.348 624.76 448.775 624.82 448.253C624.88 447.73 624.943 447.277 625.008 446.895C625.093 446.491 625.161 446.178 625.213 445.956C625.496 445.505 625.907 445.269 626.447 445.249C626.966 445.229 627.414 445.412 627.789 445.798ZM643.166 451.007L643.175 451.247C643.179 451.366 643.188 451.586 643.2 451.906C643.231 452.205 643.213 452.516 643.145 452.839C643.098 453.161 642.979 453.456 642.789 453.723C642.598 453.97 642.303 454.102 641.903 454.117C641.124 454.147 640.652 453.854 640.489 453.24C640.504 453.12 640.509 452.989 640.504 452.849C640.498 452.689 640.491 452.52 640.484 452.34C640.481 452.26 640.47 451.97 640.451 451.47C640.431 450.951 640.39 450.392 640.327 449.794C640.285 449.195 640.203 448.638 640.084 448.122C639.963 447.586 639.8 447.252 639.595 447.12C639.123 446.818 638.708 446.673 638.348 446.687C637.868 446.705 637.464 446.871 637.136 447.183C636.827 447.475 636.578 448.045 636.39 448.893C636.381 449.174 636.373 449.494 636.367 449.855C636.36 450.195 636.345 450.586 636.321 451.027C636.334 451.367 636.359 451.746 636.395 452.165C636.43 452.564 636.477 453.023 636.537 453.541C636.552 453.92 636.414 454.246 636.124 454.517C635.833 454.768 635.498 454.901 635.118 454.916C634.819 454.927 634.576 454.856 634.39 454.703C634.204 454.55 634.056 454.346 633.946 454.09C633.856 453.833 633.786 453.555 633.734 453.257C633.703 452.958 633.682 452.659 633.67 452.359C633.662 452.139 633.663 451.919 633.675 451.698C633.686 451.458 633.707 451.217 633.738 450.975L633.868 448.088L634.053 446.64C634.004 446.402 633.914 446.145 633.783 445.87C633.653 445.595 633.585 445.377 633.578 445.217C633.565 444.878 633.684 444.563 633.933 444.273C634.202 443.983 634.536 443.83 634.936 443.815C635.216 443.804 635.428 443.856 635.572 443.971C635.716 444.065 635.956 444.316 636.292 444.724C636.684 444.529 637 444.407 637.238 444.357C637.476 444.288 637.755 444.248 638.074 444.236C639.114 444.196 640.032 444.411 640.831 444.881C641.649 445.33 642.179 446.121 642.422 447.252C642.498 447.67 642.561 448.018 642.612 448.296C642.683 448.573 642.743 448.841 642.793 449.1C642.843 449.358 642.893 449.636 642.945 449.934C642.995 450.213 643.069 450.57 643.166 451.007ZM657.202 450.923C656.852 451.737 656.257 452.4 655.416 452.912C654.574 453.404 653.624 453.671 652.564 453.711C652.424 453.716 652.194 453.705 651.872 453.677C651.551 453.65 651.188 453.583 650.784 453.479C650.4 453.373 649.994 453.229 649.567 453.045C649.159 452.84 648.778 452.574 648.426 452.248C648.072 451.901 647.776 451.482 647.537 450.99C647.298 450.499 647.166 449.914 647.14 449.234C647.086 448.336 647.175 447.512 647.406 446.762C647.658 446.012 648.069 445.246 648.64 444.464L649.552 443.198C650.642 442.396 651.887 441.968 653.286 441.915C654.045 441.886 654.65 442.003 655.101 442.266C655.571 442.529 655.816 442.92 655.836 443.439C655.851 443.839 655.714 444.174 655.424 444.446C655.153 444.696 654.788 444.83 654.328 444.848C654.308 444.848 654.228 444.841 654.087 444.827C653.966 444.791 653.825 444.757 653.663 444.723C653.502 444.689 653.341 444.665 653.18 444.651C653.019 444.617 652.888 444.602 652.788 444.606C652.328 444.624 651.808 444.884 651.227 445.386C650.665 445.888 650.235 446.665 649.934 447.717C649.811 448.162 649.755 448.524 649.766 448.804C649.787 449.364 649.954 449.798 650.265 450.106C650.597 450.414 650.957 450.65 651.343 450.816C651.729 450.961 652.083 451.058 652.405 451.105C652.726 451.133 652.897 451.147 652.917 451.146C653.197 451.135 653.473 451.045 653.747 450.874C654.021 450.704 654.264 450.514 654.476 450.306C654.708 450.097 654.892 449.92 655.026 449.775C655.16 449.609 655.217 449.527 655.197 449.528C655.39 449.34 655.616 449.242 655.876 449.232C656.196 449.22 656.492 449.379 656.765 449.708C657.057 450.018 657.209 450.342 657.222 450.682C657.226 450.782 657.219 450.862 657.202 450.923ZM670.868 452.084C670.253 452.748 669.554 453.315 668.772 453.785C667.99 454.275 667.189 454.535 666.37 454.567C665.63 454.595 664.676 454.511 663.508 454.315C663.098 454.071 662.687 453.776 662.273 453.432C661.859 453.067 661.484 452.671 661.147 452.244C660.81 451.796 660.532 451.316 660.312 450.804C660.092 450.272 659.971 449.727 659.949 449.167C659.943 449.007 659.945 448.797 659.955 448.536C659.965 448.256 659.975 447.985 659.985 447.725C660.014 447.443 660.035 447.202 660.047 447.002C660.06 446.801 660.066 446.701 660.066 446.701C660.441 446.046 660.837 445.4 661.253 444.764C661.688 444.107 662.306 443.523 663.108 443.012C664.396 442.683 665.33 442.507 665.91 442.485C666.209 442.474 666.47 442.484 666.691 442.516C666.912 442.527 667.124 442.579 667.328 442.672C667.551 442.743 667.765 442.865 667.972 443.037C668.199 443.209 668.457 443.429 668.748 443.698C669.081 444.026 669.339 444.246 669.524 444.359C669.728 444.472 669.832 444.578 669.836 444.678C669.906 446.516 669.384 447.787 668.27 448.49C667.777 448.689 667.135 448.913 666.344 449.164C665.552 449.394 664.47 449.625 663.098 449.858C663.407 450.606 663.798 451.162 664.272 451.524C664.746 451.886 665.273 452.056 665.853 452.034C666.712 452.002 667.772 451.451 669.032 450.382C669.225 450.195 669.472 450.095 669.771 450.084C670.091 450.072 670.376 450.181 670.625 450.412C670.894 450.642 671.035 450.936 671.049 451.296C671.058 451.556 670.998 451.818 670.868 452.084ZM667.237 445.797C666.833 445.192 666.372 444.899 665.852 444.919C665.632 444.928 665.394 444.967 665.136 445.037C664.879 445.106 664.612 445.207 664.337 445.337C664.081 445.447 663.836 445.586 663.602 445.755C663.389 445.924 663.216 446.12 663.084 446.346L662.819 447.256C663.496 447.171 664.094 447.098 664.612 447.038C665.13 446.978 665.577 446.901 665.954 446.807C666.331 446.712 666.626 446.591 666.841 446.443C667.055 446.295 667.187 446.079 667.237 445.797ZM681.802 441.55C682.028 441.722 682.151 442.047 682.169 442.527C682.203 443.406 681.89 443.858 681.23 443.884L681.11 443.888C680.811 443.919 680.463 443.963 680.064 444.018C679.665 444.053 679.217 444.11 678.72 444.189C678.692 444.511 678.668 444.942 678.649 445.483C678.629 446.004 678.633 446.634 678.661 447.374C678.663 447.434 678.666 447.494 678.668 447.554C678.69 447.613 678.703 447.682 678.706 447.762L678.758 449.141C678.77 449.461 678.83 449.719 678.938 449.915C679.065 450.09 679.209 450.215 679.372 450.289L680.222 450.527C680.89 450.721 681.235 451.109 681.257 451.688C681.27 452.028 681.141 452.333 680.872 452.603C680.622 452.873 680.287 453.016 679.867 453.032C679.747 453.037 679.536 453.015 679.234 452.966C678.951 452.897 678.648 452.808 678.323 452.7C678.019 452.592 677.724 452.453 677.437 452.284C677.17 452.114 676.983 451.921 676.874 451.705C676.637 451.254 676.439 450.781 676.28 450.286C676.12 449.772 676.03 449.235 676.009 448.676C675.985 448.056 675.978 447.616 675.988 447.355C675.998 447.095 676.01 446.864 676.022 446.664C676.034 446.463 676.045 446.222 676.055 445.942C676.064 445.661 676.056 445.201 676.032 444.562C675.654 444.616 675.099 444.757 674.367 444.985C673.927 445.002 673.543 444.907 673.215 444.699C672.906 444.471 672.745 444.167 672.73 443.787C672.72 443.507 672.79 443.244 672.94 442.998C673.111 442.752 673.463 442.528 673.996 442.328C674.173 442.261 674.332 442.215 674.471 442.189C674.63 442.163 674.779 442.138 674.918 442.112C675.077 442.086 675.247 442.07 675.427 442.063C675.606 442.036 675.824 441.998 676.083 441.948C676.084 441.448 676.092 440.887 676.109 440.266C676.144 439.624 676.212 439.031 676.311 438.487C676.431 437.942 676.603 437.485 676.829 437.116C677.075 436.726 677.407 436.524 677.827 436.508C678.546 436.48 678.999 436.793 679.184 437.447C679.184 437.467 679.16 437.608 679.11 437.87C679.079 438.111 679.039 438.383 678.991 438.685C678.942 438.987 678.893 439.279 678.844 439.561C678.815 439.842 678.801 440.023 678.804 440.103L678.77 441.575C678.91 441.55 679.039 441.535 679.159 441.531C679.278 441.506 679.408 441.491 679.548 441.486L679.817 441.476C679.957 441.47 680.087 441.465 680.207 441.461C680.326 441.436 680.436 441.422 680.536 441.418C681.135 441.395 681.557 441.439 681.802 441.55ZM692.866 451.696C692.613 451.886 692.2 452.082 691.628 452.284C691.054 452.466 690.46 452.629 689.845 452.772L688.607 452.579C688.424 452.526 688.119 452.398 687.691 452.194C687.283 451.989 686.861 451.675 686.425 451.251C685.987 450.808 685.596 450.242 685.249 449.555C684.902 448.847 684.709 447.984 684.67 446.965C684.656 446.605 684.72 446.182 684.862 445.697C685.023 445.19 685.265 444.721 685.589 444.288C685.912 443.835 686.318 443.45 686.806 443.131C687.314 442.811 687.908 442.639 688.587 442.613C689.946 442.561 691.192 442.954 692.325 443.791C693.335 445.074 693.87 446.515 693.931 448.113C693.975 449.293 693.621 450.487 692.866 451.696ZM691.235 447.496C691.106 446.72 690.832 446.12 690.416 445.695C690.019 445.25 689.52 445.039 688.921 445.062C688.521 445.077 688.149 445.291 687.804 445.705C687.479 446.097 687.331 446.663 687.359 447.403C687.37 447.703 687.422 448.021 687.515 448.358C687.607 448.674 687.749 448.969 687.939 449.242C688.129 449.495 688.367 449.706 688.654 449.875C688.94 450.025 689.282 450.092 689.682 450.076C690.322 450.052 690.754 449.845 690.98 449.457C691.204 449.048 691.305 448.554 691.283 447.974C691.28 447.894 691.268 447.825 691.245 447.765C691.242 447.685 691.239 447.595 691.235 447.496ZM707.514 448.557L707.523 448.797C707.527 448.917 707.536 449.137 707.548 449.456C707.579 449.755 707.561 450.066 707.493 450.389C707.445 450.711 707.327 451.006 707.137 451.273C706.946 451.521 706.651 451.652 706.251 451.667C705.472 451.697 705 451.405 704.837 450.79C704.852 450.67 704.857 450.539 704.852 450.4C704.846 450.24 704.839 450.07 704.832 449.89C704.829 449.81 704.818 449.52 704.799 449.021C704.779 448.501 704.738 447.942 704.675 447.344C704.633 446.745 704.551 446.188 704.432 445.672C704.311 445.136 704.148 444.802 703.943 444.67C703.471 444.368 703.055 444.223 702.696 444.237C702.216 444.255 701.812 444.421 701.484 444.734C701.175 445.026 700.926 445.595 700.738 446.443C700.729 446.724 700.721 447.044 700.715 447.405C700.708 447.745 700.693 448.136 700.669 448.577C700.682 448.917 700.707 449.296 700.743 449.715C700.778 450.114 700.825 450.573 700.885 451.091C700.9 451.471 700.762 451.796 700.472 452.067C700.181 452.319 699.846 452.451 699.466 452.466C699.167 452.477 698.924 452.407 698.738 452.254C698.552 452.1 698.404 451.896 698.294 451.64C698.204 451.383 698.134 451.106 698.082 450.807C698.051 450.508 698.03 450.209 698.018 449.909C698.01 449.689 698.011 449.469 698.023 449.249C698.034 449.008 698.055 448.767 698.086 448.526L698.216 445.639L698.401 444.191C698.352 443.952 698.262 443.695 698.131 443.42C698.001 443.145 697.932 442.927 697.926 442.768C697.913 442.428 698.032 442.113 698.281 441.823C698.55 441.533 698.884 441.38 699.284 441.365C699.564 441.354 699.776 441.406 699.92 441.521C700.064 441.615 700.304 441.866 700.64 442.274C701.032 442.079 701.348 441.957 701.586 441.908C701.824 441.839 702.102 441.798 702.422 441.786C703.461 441.746 704.38 441.961 705.179 442.431C705.996 442.881 706.527 443.671 706.77 444.803C706.846 445.22 706.909 445.568 706.96 445.846C707.031 446.124 707.091 446.392 707.141 446.65C707.191 446.908 707.241 447.186 707.293 447.485C707.343 447.763 707.417 448.12 707.514 448.557ZM728.943 436.933C728.99 437.092 729.015 437.241 729.021 437.381C729.045 438.02 728.876 438.567 728.513 439.021C727.922 439.284 727.327 439.427 726.728 439.449C726.339 439.224 726.009 438.966 725.737 438.677C725.485 438.366 725.354 438.061 725.342 437.761C725.332 437.501 725.608 436.85 726.169 435.808C726.43 435.838 726.701 435.858 726.982 435.867C727.282 435.876 727.554 435.915 727.797 435.986C728.059 436.056 728.284 436.168 728.47 436.321C728.675 436.453 728.833 436.657 728.943 436.933ZM728.175 441.976L728.19 442.366C728.193 442.466 728.198 442.576 728.202 442.696C728.207 442.816 728.191 442.926 728.155 443.028L727.966 444.386L727.977 444.656C727.981 444.776 727.977 444.936 727.965 445.136C727.952 445.337 727.93 445.538 727.898 445.739C727.885 445.94 727.873 446.131 727.859 446.311C727.846 446.492 727.842 446.642 727.847 446.762C727.85 446.862 727.853 446.942 727.856 447.002C727.878 447.061 727.891 447.141 727.895 447.241C727.902 447.421 727.889 447.621 727.858 447.843C727.825 448.044 727.814 448.274 727.824 448.534C727.833 448.774 727.873 449.023 727.942 449.28C727.757 450.188 727.314 450.655 726.615 450.682C725.636 450.719 725.111 449.818 725.041 447.98C725.017 447.36 725.024 446.75 725.061 446.148C725.098 445.526 725.146 444.954 725.206 444.431C725.266 443.908 725.329 443.456 725.394 443.073C725.479 442.669 725.547 442.356 725.599 442.134C725.882 441.683 726.293 441.447 726.833 441.427C727.353 441.407 727.8 441.59 728.175 441.976ZM743.552 447.185L743.561 447.425C743.566 447.545 743.574 447.765 743.586 448.084C743.618 448.383 743.599 448.694 743.532 449.017C743.484 449.339 743.365 449.634 743.175 449.901C742.984 450.149 742.689 450.28 742.289 450.295C741.51 450.325 741.038 450.033 740.875 449.418C740.89 449.298 740.895 449.167 740.89 449.028C740.884 448.868 740.877 448.698 740.871 448.518C740.868 448.438 740.857 448.148 740.838 447.649C740.818 447.129 740.776 446.57 740.714 445.972C740.671 445.373 740.59 444.816 740.47 444.3C740.349 443.764 740.187 443.43 739.981 443.298C739.51 442.996 739.094 442.851 738.734 442.865C738.254 442.883 737.85 443.049 737.522 443.362C737.213 443.654 736.964 444.223 736.777 445.071C736.767 445.352 736.759 445.672 736.753 446.033C736.746 446.373 736.731 446.764 736.708 447.205C736.721 447.545 736.745 447.924 736.781 448.343C736.816 448.742 736.864 449.201 736.923 449.719C736.938 450.099 736.8 450.424 736.51 450.695C736.22 450.947 735.884 451.079 735.505 451.094C735.205 451.105 734.962 451.035 734.776 450.882C734.59 450.728 734.442 450.524 734.332 450.268C734.243 450.011 734.172 449.734 734.121 449.435C734.089 449.136 734.068 448.837 734.056 448.537C734.048 448.317 734.05 448.097 734.061 447.877C734.072 447.636 734.093 447.395 734.124 447.154L734.254 444.267L734.439 442.819C734.39 442.58 734.3 442.323 734.17 442.048C734.039 441.773 733.971 441.555 733.965 441.396C733.952 441.056 734.07 440.741 734.319 440.451C734.588 440.161 734.923 440.008 735.322 439.993C735.602 439.982 735.814 440.034 735.959 440.149C736.102 440.243 736.342 440.494 736.678 440.902C737.071 440.707 737.386 440.585 737.625 440.536C737.862 440.467 738.141 440.426 738.461 440.414C739.5 440.374 740.419 440.589 741.217 441.059C742.035 441.509 742.565 442.299 742.809 443.431C742.884 443.848 742.948 444.196 742.998 444.474C743.069 444.752 743.129 445.02 743.179 445.278C743.229 445.536 743.28 445.814 743.331 446.113C743.382 446.391 743.455 446.748 743.552 447.185ZM753.166 449.251C753.173 449.431 753.12 449.613 753.007 449.797C752.914 449.981 752.78 450.136 752.605 450.263C752.45 450.409 752.264 450.526 752.047 450.614C751.851 450.722 751.663 450.779 751.484 450.786C751.004 450.804 750.612 450.749 750.306 450.621C750.002 450.512 749.766 450.361 749.599 450.167C749.451 449.973 749.343 449.767 749.275 449.549C749.226 449.311 749.197 449.092 749.19 448.892C749.181 448.652 749.212 448.411 749.282 448.168C749.372 447.904 749.494 447.669 749.646 447.463C749.798 447.257 749.982 447.09 750.197 446.962C750.412 446.814 750.659 446.734 750.939 446.724C751.119 446.717 751.329 446.729 751.57 446.76C751.832 446.79 752.076 446.89 752.303 447.062C752.529 447.233 752.719 447.496 752.873 447.851C753.046 448.185 753.144 448.651 753.166 449.251ZM763.442 448.86C763.449 449.039 763.396 449.222 763.283 449.406C763.19 449.59 763.056 449.745 762.88 449.872C762.726 450.018 762.54 450.135 762.323 450.223C762.127 450.331 761.939 450.388 761.759 450.395C761.28 450.413 760.887 450.358 760.582 450.229C760.278 450.121 760.042 449.97 759.874 449.776C759.727 449.581 759.619 449.375 759.551 449.158C759.502 448.919 759.473 448.7 759.466 448.501C759.456 448.261 759.487 448.019 759.558 447.776C759.648 447.513 759.769 447.278 759.922 447.072C760.074 446.866 760.258 446.699 760.473 446.571C760.687 446.423 760.935 446.343 761.214 446.332C761.394 446.326 761.605 446.338 761.846 446.368C762.108 446.399 762.352 446.499 762.578 446.671C762.805 446.842 762.995 447.105 763.149 447.46C763.322 447.793 763.419 448.26 763.442 448.86ZM773.718 448.468C773.725 448.648 773.672 448.83 773.559 449.015C773.466 449.198 773.331 449.354 773.156 449.48C773.001 449.626 772.816 449.744 772.599 449.832C772.403 449.939 772.215 449.997 772.035 450.003C771.555 450.022 771.163 449.967 770.858 449.838C770.554 449.73 770.318 449.578 770.15 449.385C770.003 449.19 769.895 448.984 769.826 448.767C769.777 448.528 769.749 448.309 769.741 448.109C769.732 447.87 769.763 447.628 769.834 447.385C769.924 447.122 770.045 446.887 770.197 446.681C770.35 446.475 770.533 446.308 770.749 446.18C770.963 446.031 771.21 445.952 771.49 445.941C771.67 445.934 771.881 445.946 772.122 445.977C772.383 446.007 772.627 446.108 772.854 446.28C773.081 446.451 773.271 446.714 773.424 447.068C773.597 447.402 773.695 447.869 773.718 448.468Z" fill="#222222"/>
<path d="M822.748 494C819.715 491.452 814.102 487.755 813.673 483.465C813.516 481.895 812.202 479.495 814.807 479.495C816.949 479.495 817.719 479.547 819.345 480.503C819.893 480.826 823.39 483.792 823.441 483.78C823.854 483.689 823.88 482.746 824.008 482.457C824.443 481.479 825.819 480.827 826.718 480.377C828.366 479.553 830.522 478.413 832.39 478.361C835.684 478.269 835.908 478.428 835.793 481.638C835.588 487.362 827.44 493.597 822.748 495.943" stroke="black" stroke-width="3" stroke-linecap="round"/>
</svg>
