<svg width="1256" height="532" viewBox="0 0 1256 532" fill="none" xmlns="http://www.w3.org/2000/svg">
<g id="Group 2">
<path id="bee1-path1" d="M350.755 257.016C342.016 257.432 331.999 265.121 326.699 271.804C319.52 280.858 313.891 294.513 313.891 306.068C313.891 319.384 319.974 335.56 329.824 344.775C339.93 354.23 354.883 352.584 366.687 347.899C379.627 342.764 390.748 334.558 397.025 322.002C399.386 317.279 402.131 310.618 400.427 305.165C399.575 302.437 397.821 300.132 394.769 300.132C388.328 300.132 385.72 309.044 384.807 313.913C383.692 319.862 383.794 325.827 383.87 331.861C383.912 335.266 385.305 338.755 388.243 340.713C396.753 346.387 400.408 333.965 401.677 327.904C402.621 323.393 403.239 319.244 403.239 314.642C403.239 314.015 402.703 309.602 403.621 309.296C405.2 308.77 415.177 320.6 416.499 322.002C421.565 327.375 427.494 333.442 434.445 336.305C442.979 339.819 448.554 332.509 452.252 325.786C455.073 320.655 452.892 314.056 455.48 308.88C457.592 304.656 462.937 302.212 467.316 301.416C475.126 299.996 475.224 320.443 475.96 323.668C477.402 329.993 484.775 339.624 491.198 332.486C492.86 330.639 494.139 327.509 495.121 325.3C499.729 314.93 504.361 304.03 507.443 293.119C512.029 276.886 512.581 260.622 512.581 243.893C512.581 242.633 512.616 241.776 511.366 241.151C510.589 240.763 511.331 242.887 511.331 243.755C511.331 246.298 511.256 248.855 511.47 251.392C512.589 264.696 515.184 277.99 516.815 291.245C517.536 297.101 517.579 303.599 517.579 309.505C517.579 313.713 517.675 317.934 517.579 322.141C517.411 329.52 510.961 336.105 503.694 336.374C499.954 336.512 497.038 334.014 495.225 330.75C493.33 327.34 493.733 324.244 493.073 320.613C487.753 291.351 532.762 305.608 546.806 297.493C550.077 295.603 553.193 292.567 553.193 288.572C553.193 284.17 546.156 284.579 543.856 286.419C539.714 289.733 537.158 295.633 535.213 300.409C532.409 307.291 530.7 314.552 530.7 321.967C530.7 325.334 530.231 330.806 534.449 331.861C538.303 332.825 541.031 330.565 543.509 327.904C547.373 323.753 549.862 318.458 551.944 313.254C553.622 309.058 556.317 304.449 556.317 299.854C556.317 299.312 556.035 296.384 556.942 297.771C559.318 301.405 561.119 305.957 563.19 309.817C567.925 318.642 571.696 325.255 581.31 329.188C588.83 332.265 594.489 331.385 601.269 326.723C605.079 324.103 607.511 315.27 608.801 310.754C609.666 307.727 610.366 302.091 608.767 299.16C606.664 295.305 602.575 295.82 600.956 299.646C596.735 309.625 597.048 319.513 605.434 327.279C610.499 331.968 618.302 333.176 624.908 333.25C628.767 333.293 635.532 334.529 639.07 332.278C641.225 330.906 642.939 328.279 644.554 326.376C646.53 324.048 653.163 319.751 653.163 316.656C653.163 314.642 653.935 312.186 654.551 310.268C655.583 307.059 656.961 307.763 660.14 307.595C667.947 307.184 691.707 304.762 688.152 292.425C685.606 283.588 670.357 289.333 666.423 293.397C660.395 299.622 658.092 315.68 664.132 322.21C671.346 330.01 679.437 334.019 689.922 335.367C698.135 336.423 703.695 332.941 710.507 329.014C715.751 325.991 721.534 318.436 728.14 318.253C729.991 318.201 732.596 317.779 734.041 319.225C736.328 321.512 736.861 326.59 736.887 329.57C736.971 338.84 735.586 346.424 728.765 353.245C722.104 359.907 713.847 361.923 705.647 365.743C699.929 368.406 693.366 370.165 687.146 371.054C672.702 373.118 657.16 372.578 642.68 371.575C613.311 369.539 584.227 364.955 554.79 363.59C534.986 362.672 515.183 362.618 495.364 362.618C472.205 362.618 448.995 362.216 425.836 362.653C414.888 362.86 403.509 364.163 392.895 366.923C377.284 370.982 360.995 376.093 347.769 385.6C340.445 390.865 332.406 398.982 329.372 407.748C328.034 411.613 326.596 415.754 324.999 419.481C324.446 420.77 324.513 421.854 324.513 423.265" stroke="black" stroke-width="3" stroke-linecap="round"/>
<path id="bee1-exit" d="M757 524C767.858 516.513 779.673 510.554 779.673 498.844C779.673 491.463 772.065 485.988 767.43 479.595C762.236 472.432 760.444 464.38 763.55 456.455C765.395 451.747 771.238 447.647 774.433 443.321C777.808 438.753 784.129 436.633 790.607 434.53C804.371 430.064 815.819 427.686 831.167 427.686C835.501 427.686 839.946 427.48 844.267 427.686C847.881 427.857 852.613 430.042 855.856 431.16C859.259 432.333 862.411 433.733 865.832 434.913C871.078 436.722 878.597 435.917 884.273 435.33C894.64 434.257 907.541 429.197 913.295 423.064C916.19 419.98 916.693 415.872 919.845 412.71C923.193 409.352 926.929 405.567 931.131 402.669C944.214 393.647 960.655 389.084 977.838 384.879C992.327 381.334 1010.65 378.938 1025.05 383.628C1027.24 384.341 1030.61 383.906 1032.91 383.906C1038.82 383.906 1044.73 383.906 1050.65 383.906C1059.67 383.906 1068.56 384.532 1077.6 384.532C1093.91 384.532 1107.62 380.494 1121.79 375.151C1127 373.187 1132.85 372.374 1137.91 370.147C1141.86 368.409 1145.82 366.729 1149.9 365.144C1159.9 361.268 1169.83 356.668 1180.59 353.886C1204.96 347.584 1228.9 341.721 1254 337" stroke="#FF4F4F" stroke-width="3" stroke-linecap="round"/>
<path id="bee1-entrance" d="M2.2251 2.14673C2.2251 17.5528 3.19497 29.5622 10.1314 43.4349C13.1193 49.4108 16.7395 53.4539 20.7985 58.62C24.6885 63.5709 31.8012 64.9371 37.2385 67.6557C48.9549 73.5139 63.6957 76.8465 77.0208 74.1815C95.576 70.4704 112.367 63.1322 131.863 65.6478C145.498 67.4072 155.568 77.407 161.731 89.1155C166.541 98.2548 164.868 110.194 164.868 120.49C164.868 127.025 160.137 141.1 164.868 146.718C172.492 155.772 187.077 159.852 198.752 163.095C221.771 169.49 246.224 161.847 269.406 166.484C277.12 168.027 285.271 167.548 292.749 170.437C300.817 173.554 308.815 176.497 316.718 179.975C327.935 184.91 341.043 191.417 350.602 199.238C360.982 207.731 364.783 220.414 364.783 233.122C364.783 242.448 364.109 257.406 351.23 257.406" stroke="#FF4F4F" stroke-width="3" stroke-linecap="round"/>
<path id="bee1-path2" d="M322.507 423C321.894 443.175 315.333 463.363 311.099 482.891C308.009 497.14 305.808 511.935 300.873 525.63C300.563 526.49 298.77 532.434 298.338 528.875C297.788 524.352 297.999 519.313 298.338 514.783C298.973 506.276 302.463 496.15 308.479 490.493C316.192 483.24 325.807 476.285 336.198 474.918C346.184 473.603 346.023 485.795 346.086 493.738C346.164 503.687 344.379 510.635 336.198 516.081C327.922 521.589 317.504 525.684 307.803 526.418C306.415 526.523 302.732 527.357 302.732 525.166C302.732 520.788 303.257 516.578 305.817 513.068C309.738 507.69 313.808 503.747 319.465 500.645C326.661 496.697 333.049 499.874 339.409 503.75C357.385 514.706 372.9 517.044 391.214 505.883C396.51 502.655 409.013 496.956 409.214 488.546C409.398 480.88 402.593 476.115 396.369 474.408C389.918 472.638 386.69 474.02 384.115 481.083C381.092 489.374 379.49 499.159 380.397 508.108C382.136 525.283 403.351 525.349 412.848 517.471C416.785 514.206 420.517 510.736 424.088 506.995C428.758 502.103 435.892 495.763 437.948 488.731C438.722 486.082 439.162 482.733 438.877 479.924C438.54 476.597 433.156 475.351 430.849 474.918C426.674 474.132 425.161 498.78 427.13 503.101C433.456 516.981 449.462 519.971 462.033 516.266C467.324 514.707 472.468 511.715 477.287 508.896C479.494 507.605 481.987 504.77 484.597 504.77C487.486 504.77 491.945 505.163 493.809 502.267C494.911 500.553 498.853 499.265 500.485 497.91C503.961 495.024 507.965 491.42 510.542 487.526C514.621 481.36 522.544 464.117 532.049 466.435C535.546 467.287 536.097 478.473 536.19 481.175C536.488 489.821 536.233 498.528 536.233 507.181C536.233 509.738 535.482 517.135 534.796 514.69C533.668 510.669 536.077 504.644 537.416 501.062C541.116 491.158 545.665 480.768 552.205 472.739C556.26 467.761 562.161 464.222 568.473 466.017C577.183 468.495 577.087 485.966 577.262 493.552C577.446 501.542 576.544 525.511 576.544 517.518C576.544 506.305 581.929 495.033 587.192 485.765C591.456 478.255 597.424 466.609 605.7 463.885C609.769 462.546 613.249 463.271 614.573 468.428C616.632 476.444 617.615 484.974 617.615 493.274C617.615 498.53 617.79 504.787 619.559 509.776C623.784 521.696 630.465 505.365 632.447 500.181C638.717 483.777 640.029 465.723 646.18 449.144C646.74 447.633 649.679 440.796 648.63 446.548C647.419 453.192 645.657 459.788 644.236 466.388C642.869 472.737 642.715 479.277 642.715 485.765C642.715 492.77 641.803 495.283 646.856 499.717C653.65 505.68 657.555 505.088 661.772 496.704C666.277 487.747 668.967 477.586 674.659 469.355C676.407 466.829 681.592 460.137 685.308 462.402C687.462 463.715 687.415 468.917 687.589 470.931C688.318 479.35 688.35 487.794 688.35 496.241C688.35 502.36 688.35 508.478 688.35 514.597C688.35 516.642 687.927 518.913 690.04 519.789C693.538 521.239 697.148 518.958 700.097 517.101C707.633 512.354 714.731 506.622 721.647 500.876C733.306 491.19 745.997 477.467 750.634 461.845C753.218 453.137 748.57 450.736 741.126 451.462C724.505 453.083 718.308 472.164 716.365 487.711C714.693 501.094 716.273 520.186 730.056 525.491C737.06 528.187 745.963 528.203 753 525.63" stroke="black" stroke-width="3" stroke-linecap="round"/>
</g>
</svg>
