<svg width="340" height="399" viewBox="0 0 340 399" fill="none" xmlns="http://www.w3.org/2000/svg">
<g id="Group 4">
<path id="bee3-entrance" d="M338.243 397.143C306.41 397.143 273.624 385.125 252.211 361.334C239.322 347.013 235.523 322.932 239.27 304.2C243.1 285.051 256.637 267.905 256.182 247.875C255.637 223.91 231.454 194.111 205.887 203.242C188.477 209.46 171.941 218.251 153.974 223.757C142.573 227.251 131.24 233.765 119.34 235.596C112.848 236.594 105.834 235.437 99.2665 235.743C90.481 236.151 82.094 238.316 73.2365 238.316C63.4727 238.316 51.2991 240.28 41.7651 238.022C31.1223 235.501 23.0406 231.573 13.9704 225.742C-2.36803 215.239 1.32917 185.445 5.29371 170.153C8.56345 157.541 13.4061 148.878 22.6471 139.638C31.4876 130.797 41.0096 118.938 51.9124 112.578C70.4128 101.786 90.7617 96.0965 110.296 87.7246C129.159 79.6404 151.485 78.0068 169.489 68.3123C174.869 65.4153 181.763 64.7856 187.357 61.9887C194.583 58.3756 202.122 54.7677 209.195 50.959C214.062 48.3388 219.968 44.2303 223.755 40.4441C225.812 38.3865 232.179 34.8861 232.358 31.8409C232.782 24.6338 233.76 15.4145 229.711 9.34039V1.5" stroke="#FF4F4F" stroke-width="3" stroke-linecap="round"/>
</g>
</svg>
