<svg width="93" height="434" viewBox="0 0 93 434" fill="none" xmlns="http://www.w3.org/2000/svg">
<g id="Group 5">
<path id="bee4-entrance" d="M66.8772 431.998C72.3552 431.313 74.5104 419.948 76.1421 415.821C78.3695 410.187 78.7892 404.858 78.7892 398.909C78.7892 386.581 66.2002 378.18 56.9505 371.776C32.256 354.68 44.5867 328.521 61.877 311.848C72.8643 301.253 82.7656 292.474 87.0247 277.141C88.9141 270.34 90.7012 264.638 90.7012 257.288C90.7012 250.178 88.2564 244.301 86.7306 237.435C83.8176 224.326 80.7113 206.978 68.2007 200.375C56.137 194.008 46.4273 185.348 33.7146 179.786C23.7361 175.421 12.6079 170.02 7.9052 159.271C1.88675 145.515 2.02272 133.207 2.02272 118.314C2.02272 110.505 9.16256 97.7509 16.876 94.7842C26.8099 90.9635 37.3167 84.9558 47.6855 82.6516C53.2495 81.4151 64.7026 77.0241 68.2007 72.6514C73.1007 66.5264 72.9544 60.7056 75.848 54.195C79.0628 46.9616 80.1128 34.2408 80.1128 26.3268C80.1128 19.8539 83.3464 13.3169 85.407 7.13513V2" stroke="#FF4F4F" stroke-width="3" stroke-linecap="round"/>
</g>
</svg>
